<?xml version="1.0" standalone="no"?>
<!DOCTYPE svg PUBLIC "-//W3C//DTD SVG 1.1//EN" "http://www.w3.org/Graphics/SVG/1.1/DTD/svg11.dtd" >
<svg xmlns="http://www.w3.org/2000/svg" xmlns:xlink="http://www.w3.org/1999/xlink" version="1.1">
<metadata>
Created by FontForge 20160405 at Mon Aug 22 03:56:38 2016
 By www-data
Designed by Paul van der Laan, Pieter van Rosmalen &#38; Mike Abbink 2013. Produced by Bold Monday. FOR EXCLUSIVE USE BY GENERAL ELECTRIC COMPANY AND ITS AFFILIATES ONLY.
</metadata>
<defs>
<font id="GESans-Regular" horiz-adv-x="1064" >
  <font-face 
    font-family="GE Sans"
    font-weight="400"
    font-stretch="normal"
    units-per-em="2048"
    panose-1="2 11 5 3 6 0 0 0 0 3"
    ascent="1588"
    descent="-460"
    x-height="960"
    cap-height="1324"
    bbox="-366 -468 2280 1906"
    underline-thickness="124"
    underline-position="-352"
    unicode-range="U+0020-FB02"
  />
<missing-glyph horiz-adv-x="430" 
d="M136 -380q-20 0 -28 8t-8 28v1768q0 20 8 28t28 8h158q20 0 28 -8t8 -28v-1768q0 -20 -8 -28t-28 -8h-158z" />
    <glyph glyph-name="f_b" unicode="fb" horiz-adv-x="1630" 
d="M234 0q-20 0 -28 8t-8 28v802h-128q-20 0 -28 8t-8 28v50q0 20 8 28t28 8h128v78q0 115 27 195t75.5 129.5t116 71.5t147.5 22q44 0 80.5 -5.5t69.5 -14.5h120q20 0 28 -8t8 -28v-542q18 25 43 47t58 38.5t74.5 26.5t92.5 10q93 0 167.5 -33.5t127 -97.5t81 -156.5
t28.5 -210.5q0 -117 -28.5 -210t-81 -158t-127 -99.5t-167.5 -34.5q-53 0 -95.5 10.5t-76.5 29t-60.5 43t-45.5 53.5v-80q0 -20 -8 -28t-28 -8h-74q-20 0 -28 8t-8 28v1266q-30 12 -65 19t-77 7q-49 0 -89 -12.5t-68.5 -43.5t-44.5 -83.5t-16 -132.5v-96h176q20 0 28 -8
t8 -28v-50q0 -20 -8 -28t-28 -8h-176v-802q0 -20 -8 -28t-28 -8h-84zM870 238q45 -71 107.5 -101.5t130.5 -30.5q61 0 111.5 23.5t86 70t55 116.5t19.5 164t-19.5 164t-55 116.5t-86 70t-111.5 23.5q-68 0 -130.5 -30.5t-107.5 -101.5v-484z" />
    <glyph glyph-name="f_f" unicode="ff" horiz-adv-x="1106" 
d="M70 838q-20 0 -28 8t-8 28v50q0 20 8 28t28 8h128v78q0 115 28 195t78.5 129.5t119.5 71.5t152 22q80 0 143.5 -17.5t108.5 -44.5q41 33 91.5 47.5t110.5 14.5q50 0 90.5 -8.5t73.5 -25.5q30 -18 16 -50l-22 -54q-9 -18 -19 -22.5t-27 4.5q-48 24 -106 24
q-38 0 -69 -12.5t-52.5 -41t-33 -76.5t-11.5 -118v-116h216q20 0 28 -8t8 -28v-50q0 -20 -8 -28t-28 -8h-216v-802q0 -20 -8 -28t-28 -8h-84q-20 0 -28 8t-8 28v802h-360v-802q0 -20 -8 -28t-28 -8h-84q-20 0 -28 8t-8 28v802h-128zM354 960h360v98q0 74 10 132.5t30 103.5
q-30 15 -75 24.5t-93 9.5q-53 0 -95.5 -14t-73 -45.5t-47 -84t-16.5 -128.5v-96z" />
    <glyph glyph-name="f_h" unicode="fh" horiz-adv-x="1638" 
d="M234 0q-20 0 -28 8t-8 28v802h-128q-20 0 -28 8t-8 28v50q0 20 8 28t28 8h128v78q0 115 27 195t75.5 129.5t116 71.5t147.5 22q44 0 80.5 -5.5t69.5 -14.5h120q20 0 28 -8t8 -28v-546q21 25 48 47.5t61.5 40t78 28t96.5 10.5q90 0 153.5 -29.5t103.5 -79.5t58.5 -116
t18.5 -139v-580q0 -20 -8 -28t-28 -8h-84q-20 0 -28 8t-8 28v566q0 42 -8.5 86t-31.5 80t-63.5 59t-104.5 23q-32 0 -65.5 -6.5t-66.5 -21.5t-64.5 -39.5t-57.5 -60.5v-686q0 -20 -8 -28t-28 -8h-84q-20 0 -28 8t-8 28v1266q-30 12 -65 19t-77 7q-49 0 -89 -12.5
t-68.5 -43.5t-44.5 -83.5t-16 -132.5v-96h176q20 0 28 -8t8 -28v-50q0 -20 -8 -28t-28 -8h-176v-802q0 -20 -8 -28t-28 -8h-84z" />
    <glyph glyph-name="f_i" unicode="fi" horiz-adv-x="1024" 
d="M234 0q-20 0 -28 8t-8 28v802h-128q-20 0 -28 8t-8 28v50q0 20 8 28t28 8h128v78q0 115 27 195t75.5 129.5t116 71.5t149.5 22q71 0 125.5 -14.5t96.5 -41.5q31 -19 14 -50l-28 -54q-9 -18 -20 -20.5t-28 6.5q-32 20 -70.5 31t-85.5 11q-48 0 -88 -13.5t-68.5 -45
t-44 -82.5t-15.5 -127v-96h480q20 0 28 -8t8 -28v-888q0 -20 -8 -28t-28 -8h-84q-20 0 -28 8t-8 28v802h-360v-802q0 -20 -8 -28t-28 -8h-84z" />
    <glyph glyph-name="f_j" unicode="fj" horiz-adv-x="1024" 
d="M234 0q-20 0 -28 8t-8 28v802h-128q-20 0 -28 8t-8 28v50q0 20 8 28t28 8h128v78q0 115 27 195t75.5 129.5t116 71.5t149.5 22q71 0 125.5 -14.5t96.5 -41.5q31 -19 14 -50l-28 -54q-9 -18 -20 -20.5t-28 6.5q-32 20 -70.5 31t-85.5 11q-48 0 -88 -13.5t-68.5 -45
t-44 -82.5t-15.5 -127v-96h480q20 0 28 -8t8 -28v-1014q0 -166 -69.5 -248t-200.5 -82q-38 0 -75 6.5t-69 23.5q-32 15 -20 48l22 52q9 18 18.5 22.5t29.5 -4.5q35 -16 76 -16q72 0 102 54t30 154v918h-360v-802q0 -20 -8 -28t-28 -8h-84z" />
    <glyph glyph-name="f_k" unicode="fk" horiz-adv-x="1518" 
d="M234 0q-20 0 -28 8t-8 28v802h-128q-20 0 -28 8t-8 28v50q0 20 8 28t28 8h128v78q0 115 27 195t75.5 129.5t116 71.5t147.5 22q44 0 80.5 -5.5t69.5 -14.5h120q20 0 28 -8t8 -28v-872q55 39 110 88.5t105.5 103.5t94.5 108t76 102q12 17 24.5 23.5t33.5 6.5h98
q17 0 21 -8t-5 -22q-65 -100 -150.5 -197.5t-185.5 -186.5q55 -52 111 -115t106.5 -130.5t93.5 -136.5t73 -132q16 -32 -20 -32h-96q-20 0 -31.5 7t-20.5 25q-29 52 -64.5 109t-76.5 113.5t-86.5 109.5t-92.5 98q-29 -23 -58.5 -43.5t-59.5 -40.5v-342q0 -20 -8 -28t-28 -8
h-84q-20 0 -28 8t-8 28v1266q-30 12 -65 19t-77 7q-49 0 -89 -12.5t-68.5 -43.5t-44.5 -83.5t-16 -132.5v-96h176q20 0 28 -8t8 -28v-50q0 -20 -8 -28t-28 -8h-176v-802q0 -20 -8 -28t-28 -8h-84z" />
    <glyph glyph-name="f_l" unicode="fl" horiz-adv-x="1024" 
d="M234 0q-20 0 -28 8t-8 28v802h-128q-20 0 -28 8t-8 28v50q0 20 8 28t28 8h128v78q0 115 27 195t75.5 129.5t116 71.5t147.5 22q44 0 80.5 -5.5t69.5 -14.5h120q20 0 28 -8t8 -28v-1364q0 -20 -8 -28t-28 -8h-84q-20 0 -28 8t-8 28v1266q-30 12 -65 19t-77 7
q-49 0 -89 -12.5t-68.5 -43.5t-44.5 -83.5t-16 -132.5v-96h176q20 0 28 -8t8 -28v-50q0 -20 -8 -28t-28 -8h-176v-802q0 -20 -8 -28t-28 -8h-84z" />
    <glyph glyph-name="f_f_b" unicode="ffb" horiz-adv-x="2146" 
d="M750 0q-20 0 -28 8t-8 28v802h-360v-802q0 -20 -8 -28t-28 -8h-84q-20 0 -28 8t-8 28v802h-128q-20 0 -28 8t-8 28v50q0 20 8 28t28 8h128v78q0 115 28 195t78.5 129.5t119.5 71.5t152 22q86 0 153.5 -20t112.5 -50q47 36 107 53t131 17q44 0 80.5 -5.5t69.5 -14.5h120
q20 0 28 -8t8 -28v-542q18 25 43 47t58 38.5t74.5 26.5t92.5 10q93 0 167.5 -33.5t127 -97.5t81 -156.5t28.5 -210.5q0 -117 -28.5 -210t-81 -158t-127 -99.5t-167.5 -34.5q-53 0 -95.5 10.5t-76.5 29t-60.5 43t-45.5 53.5v-80q0 -20 -8 -28t-28 -8h-74q-20 0 -28 8t-8 28
v1266q-30 12 -65 19t-77 7q-49 0 -89 -12.5t-68.5 -43.5t-44.5 -83.5t-16 -132.5v-96h176q20 0 28 -8t8 -28v-50q0 -20 -8 -28t-28 -8h-176v-802q0 -20 -8 -28t-28 -8h-84zM1386 238q45 -71 107.5 -101.5t130.5 -30.5q61 0 111.5 23.5t86 70t55 116.5t19.5 164t-19.5 164
t-55 116.5t-86 70t-111.5 23.5q-68 0 -130.5 -30.5t-107.5 -101.5v-484zM354 960h360v78q0 80 13 141.5t37 108.5q-32 17 -79.5 28.5t-98.5 11.5q-53 0 -95.5 -14t-73 -45.5t-47 -84t-16.5 -128.5v-96z" />
    <glyph glyph-name="f_f_h" unicode="ffh" horiz-adv-x="2154" 
d="M1266 0q-20 0 -28 8t-8 28v1266q-30 12 -65 19t-77 7q-49 0 -89 -12.5t-68.5 -43.5t-44.5 -83.5t-16 -132.5v-96h176q20 0 28 -8t8 -28v-50q0 -20 -8 -28t-28 -8h-176v-802q0 -20 -8 -28t-28 -8h-84q-20 0 -28 8t-8 28v802h-360v-802q0 -20 -8 -28t-28 -8h-84
q-20 0 -28 8t-8 28v802h-128q-20 0 -28 8t-8 28v50q0 20 8 28t28 8h128v78q0 115 28 195t78.5 129.5t119.5 71.5t152 22q86 0 153.5 -20t112.5 -50q47 36 107 53t131 17q44 0 80.5 -5.5t69.5 -14.5h120q20 0 28 -8t8 -28v-546q21 25 48 47.5t61.5 40t78 28t96.5 10.5
q90 0 153.5 -29.5t103.5 -79.5t58.5 -116t18.5 -139v-580q0 -20 -8 -28t-28 -8h-84q-20 0 -28 8t-8 28v566q0 42 -8.5 86t-31.5 80t-63.5 59t-104.5 23q-32 0 -65.5 -6.5t-66.5 -21.5t-64.5 -39.5t-57.5 -60.5v-686q0 -20 -8 -28t-28 -8h-84zM354 960h360v78q0 80 13 141.5
t37 108.5q-32 17 -79.5 28.5t-98.5 11.5q-53 0 -95.5 -14t-73 -45.5t-47 -84t-16.5 -128.5v-96z" />
    <glyph glyph-name="f_f_i" unicode="ffi" horiz-adv-x="1540" 
d="M750 0q-20 0 -28 8t-8 28v802h-360v-802q0 -20 -8 -28t-28 -8h-84q-20 0 -28 8t-8 28v802h-128q-20 0 -28 8t-8 28v50q0 20 8 28t28 8h128v78q0 115 28 195t78.5 129.5t119.5 71.5t152 22q86 0 153.5 -20t112.5 -50q47 36 107.5 53t132.5 17q71 0 125.5 -14.5t96.5 -41.5
q31 -19 14 -50l-28 -54q-9 -18 -20 -20.5t-28 6.5q-32 20 -70.5 31t-85.5 11q-48 0 -88 -13.5t-68.5 -45t-44 -82.5t-15.5 -127v-96h480q20 0 28 -8t8 -28v-888q0 -20 -8 -28t-28 -8h-84q-20 0 -28 8t-8 28v802h-360v-802q0 -20 -8 -28t-28 -8h-84zM354 960h360v78
q0 80 13 141.5t37 108.5q-32 17 -79.5 28.5t-98.5 11.5q-53 0 -95.5 -14t-73 -45.5t-47 -84t-16.5 -128.5v-96z" />
    <glyph glyph-name="f_f_j" unicode="ffj" horiz-adv-x="1540" 
d="M1386 -90q0 -166 -69.5 -248t-200.5 -82q-38 0 -75 6.5t-69 23.5q-32 15 -20 48l22 52q9 18 18.5 22.5t29.5 -4.5q35 -16 76 -16q72 0 102 54t30 154v918h-360v-802q0 -20 -8 -28t-28 -8h-84q-20 0 -28 8t-8 28v802h-360v-802q0 -20 -8 -28t-28 -8h-84q-20 0 -28 8t-8 28
v802h-128q-20 0 -28 8t-8 28v50q0 20 8 28t28 8h128v78q0 115 28 195t78.5 129.5t119.5 71.5t152 22q86 0 153.5 -20t112.5 -50q47 36 107.5 53t132.5 17q71 0 125.5 -14.5t96.5 -41.5q31 -19 14 -50l-28 -54q-9 -18 -20 -20.5t-28 6.5q-32 20 -70.5 31t-85.5 11
q-48 0 -88 -13.5t-68.5 -45t-44 -82.5t-15.5 -127v-96h480q20 0 28 -8t8 -28v-1014zM354 960h360v78q0 80 13 141.5t37 108.5q-32 17 -79.5 28.5t-98.5 11.5q-53 0 -95.5 -14t-73 -45.5t-47 -84t-16.5 -128.5v-96z" />
    <glyph glyph-name="f_f_k" unicode="ffk" horiz-adv-x="2034" 
d="M1876 0q-20 0 -31.5 7t-20.5 25q-29 52 -64.5 109t-76.5 113.5t-86.5 109.5t-92.5 98q-29 -23 -58.5 -43.5t-59.5 -40.5v-342q0 -20 -8 -28t-28 -8h-84q-20 0 -28 8t-8 28v1266q-30 12 -65 19t-77 7q-49 0 -89 -12.5t-68.5 -43.5t-44.5 -83.5t-16 -132.5v-96h176
q20 0 28 -8t8 -28v-50q0 -20 -8 -28t-28 -8h-176v-802q0 -20 -8 -28t-28 -8h-84q-20 0 -28 8t-8 28v802h-360v-802q0 -20 -8 -28t-28 -8h-84q-20 0 -28 8t-8 28v802h-128q-20 0 -28 8t-8 28v50q0 20 8 28t28 8h128v78q0 115 28 195t78.5 129.5t119.5 71.5t152 22
q86 0 153.5 -20t112.5 -50q47 36 107 53t131 17q44 0 80.5 -5.5t69.5 -14.5h120q20 0 28 -8t8 -28v-872q55 39 110 88.5t105.5 103.5t94.5 108t76 102q12 17 24.5 23.5t33.5 6.5h98q17 0 21 -8t-5 -22q-65 -100 -150.5 -197.5t-185.5 -186.5q55 -52 111 -115t106.5 -130.5
t93.5 -136.5t73 -132q16 -32 -20 -32h-96zM354 960h360v78q0 80 13 141.5t37 108.5q-32 17 -79.5 28.5t-98.5 11.5q-53 0 -95.5 -14t-73 -45.5t-47 -84t-16.5 -128.5v-96z" />
    <glyph glyph-name="f_f_l" unicode="ffl" horiz-adv-x="1540" 
d="M750 0q-20 0 -28 8t-8 28v802h-360v-802q0 -20 -8 -28t-28 -8h-84q-20 0 -28 8t-8 28v802h-128q-20 0 -28 8t-8 28v50q0 20 8 28t28 8h128v78q0 115 28 195t78.5 129.5t119.5 71.5t152 22q86 0 153.5 -20t112.5 -50q47 36 107 53t131 17q44 0 80.5 -5.5t69.5 -14.5h120
q20 0 28 -8t8 -28v-1364q0 -20 -8 -28t-28 -8h-84q-20 0 -28 8t-8 28v1266q-30 12 -65 19t-77 7q-49 0 -89 -12.5t-68.5 -43.5t-44.5 -83.5t-16 -132.5v-96h176q20 0 28 -8t8 -28v-50q0 -20 -8 -28t-28 -8h-176v-802q0 -20 -8 -28t-28 -8h-84zM354 960h360v78q0 80 13 141.5
t37 108.5q-32 17 -79.5 28.5t-98.5 11.5q-53 0 -95.5 -14t-73 -45.5t-47 -84t-16.5 -128.5v-96z" />
    <glyph glyph-name=".notdef" horiz-adv-x="430" 
d="M136 -380q-20 0 -28 8t-8 28v1768q0 20 8 28t28 8h158q20 0 28 -8t8 -28v-1768q0 -20 -8 -28t-28 -8h-158z" />
    <glyph glyph-name=".null" horiz-adv-x="0" 
 />
    <glyph glyph-name="nonmarkingreturn" horiz-adv-x="430" 
 />
    <glyph glyph-name="space" unicode=" " horiz-adv-x="430" 
 />
    <glyph glyph-name="exclam" unicode="!" horiz-adv-x="604" 
d="M300 360q-20 0 -28 8t-10 28l-68 892q-3 36 34 36h148q37 0 34 -36l-68 -892q-2 -20 -10 -28t-28 -8h-4zM418 102q0 -50 -31.5 -84t-84.5 -34t-84.5 34t-31.5 84t31.5 84t84.5 34t84.5 -34t31.5 -84z" />
    <glyph glyph-name="quotedbl" unicode="&#x22;" horiz-adv-x="656" 
d="M240 1436q17 0 24.5 -8t7.5 -20q0 -5 -1 -17.5t-3 -24.5l-42 -354q-3 -32 -36 -32h-4q-33 0 -36 32l-42 354q-2 12 -3 24.5t-1 17.5q0 12 7.5 20t24.5 8h104zM520 1436q17 0 24.5 -8t7.5 -20q0 -5 -1 -17.5t-3 -24.5l-42 -354q-3 -32 -36 -32h-4q-33 0 -36 32l-42 354
q-2 12 -3 24.5t-1 17.5q0 12 7.5 20t24.5 8h104z" />
    <glyph glyph-name="numbersign" unicode="#" 
d="M596 0q-36 0 -30 36l50 322h-266l-50 -322q-3 -20 -12.5 -28t-29.5 -8h-62q-36 0 -30 36l50 322h-140q-20 0 -28 8t-8 28v50q0 20 8 28t28 8h160l58 364h-144q-20 0 -28 8t-8 28v50q0 20 8 28t28 8h164l50 322q3 20 12.5 28t29.5 8h62q36 0 30 -36l-50 -322h266l50 322
q3 20 12.5 28t29.5 8h62q36 0 30 -36l-50 -322h140q20 0 28 -8t8 -28v-50q0 -20 -8 -28t-28 -8h-160l-58 -364h144q20 0 28 -8t8 -28v-50q0 -20 -8 -28t-28 -8h-164l-50 -322q-3 -20 -12.5 -28t-29.5 -8h-62zM428 844l-58 -364h266l58 364h-266z" />
    <glyph glyph-name="dollar" unicode="$" 
d="M512 -128q-20 0 -28 8t-8 28v112q-122 6 -212 41.5t-146 82.5q-27 24 -4 50l40 52q14 17 25.5 18t26.5 -10q54 -42 120.5 -69t149.5 -33v450q-65 20 -129.5 46.5t-116 67t-84 98.5t-32.5 142q0 72 25.5 131t73 103t114 72t149.5 38v116q0 20 8 28t28 8h44q20 0 28 -8
t8 -28v-112q109 -5 191 -34t135 -68q29 -20 8 -50l-38 -50q-12 -15 -23.5 -17.5t-28.5 9.5q-45 30 -106 51.5t-138 26.5v-450q64 -20 130.5 -45.5t120.5 -65.5t88.5 -99t34.5 -144q0 -73 -26 -132.5t-74.5 -104t-118 -72.5t-155.5 -37v-114q0 -20 -8 -28t-28 -8h-44z
M592 152q101 15 159.5 69.5t58.5 140.5q0 45 -16.5 78t-46 57t-69.5 42t-86 33v-420zM476 1170q-54 -9 -93 -29t-64 -47.5t-37 -62t-12 -71.5q0 -44 15.5 -76t43 -56t65.5 -41.5t82 -32.5v416z" />
    <glyph glyph-name="percent" unicode="%" horiz-adv-x="1616" 
d="M204 988q0 -50 9.5 -95t31 -79.5t56.5 -55t85 -20.5t85 20.5t56.5 55t31 79.5t9.5 95q0 49 -9.5 94.5t-31 80t-56.5 55t-85 20.5t-85 -20.5t-56.5 -55t-31 -80t-9.5 -94.5zM700 988q0 -69 -18.5 -133.5t-57 -114t-97.5 -79t-141 -29.5t-141 29.5t-97.5 79t-57 114
t-18.5 133.5t18.5 133t57 113.5t97.5 79.5t141 30t141 -30t97.5 -79.5t57 -113.5t18.5 -133zM318 0q-17 0 -21 8t5 22l866 1264q11 17 23.5 23.5t32.5 6.5h74q17 0 21 -8t-5 -22l-866 -1264q-11 -17 -23.5 -23.5t-32.5 -6.5h-74zM1412 336q0 49 -9.5 94.5t-31 80t-56.5 55
t-85 20.5t-85 -20.5t-56.5 -55t-31 -80t-9.5 -94.5q0 -50 9.5 -95t31 -79.5t56.5 -55t85 -20.5t85 20.5t56.5 55t31 79.5t9.5 95zM916 336q0 69 18.5 133t57 113.5t97.5 79.5t141 30t141 -30t97.5 -79.5t57 -113.5t18.5 -133t-18.5 -133.5t-57 -114t-97.5 -79t-141 -29.5
t-141 29.5t-97.5 79t-57 114t-18.5 133.5z" />
    <glyph glyph-name="ampersand" unicode="&#x26;" horiz-adv-x="1322" 
d="M352 1008q0 -41 13 -76t37.5 -68t60 -66t79.5 -70l410 -342q33 69 50.5 157t17.5 177q0 20 8 28t28 8h74q20 0 27 -9t7 -27q0 -115 -25.5 -222t-76.5 -202l222 -184q15 -12 15.5 -23.5t-11.5 -26.5l-46 -54q-24 -30 -52 -4l-208 172q-32 -42 -76 -78t-98.5 -62t-120 -41
t-141.5 -15q-102 0 -184.5 27.5t-140.5 77t-89.5 118t-31.5 149.5q0 56 16 109.5t46.5 101t75 87t102.5 68.5q-40 37 -68 72t-46 69.5t-26 70t-8 74.5q0 73 27 135.5t78.5 108t125.5 71t169 25.5q110 0 196.5 -29.5t137.5 -70.5q18 -15 18 -30q0 -6 -2.5 -11.5t-5.5 -10.5
l-34 -50q-13 -20 -30 -20q-11 0 -24 10q-50 36 -111.5 57t-138.5 21q-61 0 -107 -15.5t-77 -42.5t-46.5 -64t-15.5 -80zM264 366q0 -56 22 -103.5t62 -82t95 -53.5t121 -19q103 0 180.5 43.5t131.5 114.5l-440 368q-38 -21 -69.5 -49.5t-54 -63t-35.5 -73.5t-13 -82z" />
    <glyph glyph-name="quotesingle" unicode="'" horiz-adv-x="376" 
d="M240 1436q17 0 24.5 -8t7.5 -20q0 -5 -1 -17.5t-3 -24.5l-42 -354q-3 -32 -36 -32h-4q-33 0 -36 32l-42 354q-2 12 -3 24.5t-1 17.5q0 12 7.5 20t24.5 8h104z" />
    <glyph glyph-name="parenleft" unicode="(" horiz-adv-x="552" 
d="M296 642q0 -202 34.5 -396t103.5 -378q5 -12 5.5 -18.5t0.5 -9.5q0 -18 -22 -26l-20 -8q-15 -6 -26 -6q-22 0 -34 24q-34 64 -66.5 149t-58 188.5t-41.5 224.5t-16 256t16 256t41.5 224.5t58 188.5t66.5 149q12 24 34 24q11 0 26 -6l20 -8q22 -8 22 -26q0 -3 -0.5 -9.5
t-5.5 -18.5q-69 -184 -103.5 -378t-34.5 -396z" />
    <glyph glyph-name="parenright" unicode=")" horiz-adv-x="552" 
d="M256 642q0 202 -34.5 396t-103.5 378q-5 12 -5.5 18.5t-0.5 9.5q0 18 22 26l20 8q15 6 26 6q22 0 34 -24q34 -64 66.5 -149t58 -188.5t41.5 -224.5t16 -256t-16 -256t-41.5 -224.5t-58 -188.5t-66.5 -149q-12 -24 -34 -24q-11 0 -26 6l-20 8q-22 8 -22 26q0 3 0.5 9.5
t5.5 18.5q69 184 103.5 378t34.5 396z" />
    <glyph glyph-name="asterisk" unicode="*" horiz-adv-x="820" 
d="M436 1436q20 0 27 -11t7 -31l-8 -248l228 82q14 5 20.5 5.5t9.5 0.5q19 0 28 -26l14 -44q2 -5 3 -9.5t1 -10.5q0 -20 -26 -26l-246 -70l158 -202q10 -13 10 -24q0 -13 -16 -24l-42 -30q-13 -8 -24 -8q-17 0 -28 16l-142 212l-142 -212q-11 -16 -28 -16q-11 0 -24 8
l-42 30q-16 11 -16 24q0 11 10 24l158 202l-246 70q-26 6 -26 26q0 6 1 10.5t3 9.5l14 44q9 26 28 26q3 0 9.5 -0.5t20.5 -5.5l228 -82l-8 248q0 20 7 31t27 11h52z" />
    <glyph glyph-name="plus" unicode="+" 
d="M132 416q-20 0 -28 8t-8 28v56q0 20 8 28t28 8h332v336q0 20 8 28t28 8h64q20 0 28 -8t8 -28v-336h332q20 0 28 -8t8 -28v-56q0 -20 -8 -28t-28 -8h-332v-336q0 -20 -8 -28t-28 -8h-64q-20 0 -28 8t-8 28v336h-332z" />
    <glyph glyph-name="comma" unicode="," horiz-adv-x="400" 
d="M312 84q0 -35 -9 -79t-26 -90.5t-41.5 -93t-55.5 -87.5q-12 -18 -28 -18q-5 0 -11.5 1.5t-12.5 4.5l-8 4q-22 13 -22 26q0 9 8 22q26 47 39 86.5t13 65.5q0 29 -11 50t-24 40.5t-24 40t-11 49.5q0 22 7.5 43t22.5 36.5t36 25t48 9.5q54 0 82 -36.5t28 -99.5z" />
    <glyph glyph-name="hyphen" unicode="-" horiz-adv-x="678" 
d="M142 496q-20 0 -28 8t-8 28v76q0 20 8 28t28 8h394q20 0 28 -8t8 -28v-76q0 -20 -8 -28t-28 -8h-394z" />
    <glyph glyph-name="period" unicode="." horiz-adv-x="400" 
d="M316 102q0 -50 -31.5 -84t-84.5 -34t-84.5 34t-31.5 84t31.5 84t84.5 34t84.5 -34t31.5 -84z" />
    <glyph glyph-name="slash" unicode="/" horiz-adv-x="604" 
d="M510 1470q8 34 46 34h52q28 0 28 -22q0 -2 -1 -9.5t-3 -12.5l-440 -1606q-9 -34 -46 -34h-52q-28 0 -28 22q0 2 1 9.5t3 12.5z" />
    <glyph glyph-name="zero" unicode="0" 
d="M230 662q0 -119 17 -219t53.5 -172.5t94 -113.5t137.5 -41t137.5 41t94 113.5t53.5 172.5t17 219q0 118 -17 218.5t-53.5 173t-94 113.5t-137.5 41t-137.5 -41t-94 -113.5t-53.5 -173t-17 -218.5zM996 662q0 -86 -10.5 -170.5t-33 -160t-58.5 -140t-87.5 -111.5
t-120 -73.5t-154.5 -26.5q-87 0 -155 26t-120 73t-87.5 111t-58.5 139.5t-33 160t-10 172.5q0 86 10.5 170.5t33 160t58.5 140t87.5 111.5t119.5 73.5t155 26.5t155 -26t120 -73t87.5 -111t58.5 -139.5t33 -160.5t10 -172z" />
    <glyph glyph-name="one" unicode="1" 
d="M250 0q-20 0 -28 8t-8 28v64q0 20 8 28t28 8h260v1008l-244 -156q-30 -21 -48 10l-30 48q-9 15 -7 27t19 23l300 208q17 11 31.5 15.5t34.5 4.5h66q20 0 28 -8t8 -28v-1152h242q20 0 28 -8t8 -28v-64q0 -20 -8 -28t-28 -8h-660z" />
    <glyph glyph-name="two" unicode="2" 
d="M186 0q-20 0 -28 8t-8 28v70q0 99 27 178t75 146t115.5 125.5t148.5 116.5q46 34 89.5 64.5t77 65.5t53.5 79t20 105q0 49 -14.5 90t-44.5 70.5t-76.5 45.5t-110.5 16q-77 0 -141 -21.5t-115 -56.5q-15 -12 -26 -9.5t-22 17.5l-36 54q-20 29 8 52q54 41 138.5 70.5
t197.5 29.5q106 0 182 -28t125.5 -76t73 -113t23.5 -139q0 -86 -27.5 -148.5t-72 -111.5t-100 -88.5t-110.5 -79.5q-49 -35 -101 -77.5t-95.5 -95t-71.5 -115t-28 -136.5h576q20 0 28 -8t8 -28v-64q0 -20 -8 -28t-28 -8h-702z" />
    <glyph glyph-name="three" unicode="3" 
d="M926 396q0 -85 -28 -160.5t-84 -132.5t-140.5 -90t-197.5 -33q-115 0 -201 31.5t-145 78.5q-26 23 -6 52l36 54q12 15 23.5 17t26.5 -9q50 -36 117.5 -62t152.5 -26q70 0 123 20t89 56.5t54 88t18 115.5q0 59 -16.5 109t-51.5 86t-90 56.5t-132 20.5h-36q-18 0 -31 5.5
t-25 20.5l-20 24q-14 15 -14 28t12 28l312 414h-476q-20 0 -28 8t-8 28v64q0 20 8 28t28 8h634q20 0 28 -8t8 -28v-34q0 -20 -5 -34.5t-17 -29.5l-184 -252q-9 -12 -26 -32.5t-36 -43t-37 -42.5t-29 -30q98 -4 172 -36t123.5 -84.5t74 -123t24.5 -150.5z" />
    <glyph glyph-name="four" unicode="4" 
d="M118 294q-20 0 -28 8t-8 28v40q0 18 4 34.5t12 33.5l430 854q9 18 20.5 25t31.5 7h96q17 0 22.5 -8.5t-2.5 -23.5l-438 -866h424v506q0 20 8 28t28 8h84q20 0 28 -8t8 -28v-506h148q20 0 28 -8t8 -28v-60q0 -20 -8 -28t-28 -8h-148v-258q0 -20 -8 -28t-28 -8h-84
q-20 0 -28 8t-8 28v258h-564z" />
    <glyph glyph-name="five" unicode="5" 
d="M940 412q0 -89 -28 -167.5t-84.5 -137t-141.5 -93t-198 -34.5t-200 31.5t-144 78.5q-26 23 -6 52l36 54q20 28 48 8q51 -36 119 -62t149 -26q70 0 124 21t90.5 59.5t55 92.5t18.5 119q0 58 -16 108.5t-50.5 88t-88 58.5t-129.5 21q-60 0 -113.5 -12.5t-98.5 -35.5
q-20 -9 -33 -7.5t-31 13.5l-24 18q-17 11 -23 23.5t-3 32.5l56 572q2 20 11 28t29 8h580q20 0 28 -8t8 -28v-64q0 -20 -8 -28t-28 -8h-484l-40 -414q42 18 93.5 29t114.5 11q107 0 185 -32.5t128.5 -87.5t74.5 -128t24 -154z" />
    <glyph glyph-name="six" unicode="6" 
d="M972 424q0 -95 -28.5 -176.5t-82.5 -141t-133 -93t-180 -33.5q-102 0 -184.5 37t-140.5 114t-89.5 195t-31.5 280q0 82 9 162.5t29.5 155t53.5 140t82 118.5q72 78 174.5 120t223.5 42q68 0 123.5 -11.5t94.5 -26.5q31 -11 22 -46l-22 -62q-6 -20 -17 -25t-29 3
q-39 15 -79 23.5t-87 8.5q-92 0 -165.5 -31t-127 -92.5t-85 -152.5t-38.5 -212q57 57 133.5 90.5t176.5 33.5q93 0 167 -30t125 -85.5t78.5 -133t27.5 -171.5zM814 416q0 64 -16 118.5t-49 94.5t-83.5 62.5t-119.5 22.5q-44 0 -85 -9t-78 -25t-68 -37.5t-53 -46.5
q0 -128 19 -219.5t56 -151t91 -87.5t124 -28q67 0 116 23.5t81.5 65t48.5 97t16 120.5z" />
    <glyph glyph-name="seven" unicode="7" 
d="M930 1182q-62 -95 -127 -222t-125.5 -275.5t-112 -313t-85.5 -335.5q-3 -20 -12.5 -28t-29.5 -8h-100q-36 0 -30 36q35 178 88.5 345t115.5 315t128 272.5t128 219.5h-594q-20 0 -28 8t-8 28v64q0 20 8 28t28 8h740q20 0 28 -8t8 -28v-38q0 -37 -20 -68z" />
    <glyph glyph-name="eight" unicode="8" 
d="M974 314q0 -80 -35.5 -142t-96 -104.5t-141 -65t-169.5 -22.5t-169.5 22.5t-141 65t-96 104.5t-35.5 142q0 68 26 123t69 99.5t98 79t113 62.5q-53 26 -101.5 57.5t-85 72t-58 91t-21.5 115.5q0 76 30.5 137.5t84.5 104t127.5 65.5t159.5 23t159.5 -23t127.5 -65.5
t84.5 -104t30.5 -137.5q0 -65 -21.5 -115.5t-58 -91t-85 -72t-101.5 -57.5q58 -28 113 -62.5t98 -79t69 -99.5t26 -123zM248 322q0 -46 20 -84.5t57 -67t89.5 -44.5t117.5 -16t117.5 16t89.5 44.5t57 67t20 84.5q0 49 -22.5 91.5t-61 78.5t-90.5 65.5t-110 52.5
q-59 -23 -110.5 -52.5t-90 -65.5t-61 -78.5t-22.5 -91.5zM284 1018q0 -47 18 -87.5t51 -74.5t78.5 -62.5t100.5 -51.5q55 23 100.5 51.5t78.5 62.5t51 74.5t18 87.5q0 50 -20 87t-54 61t-79 36t-95 12t-95 -12t-79 -36t-54 -61t-20 -87z" />
    <glyph glyph-name="nine" unicode="9" 
d="M800 162q-68 -83 -170 -132.5t-238 -49.5q-68 0 -124 11t-94 25q-31 14 -22 48l20 62q6 20 17 25t29 -3q39 -15 78.5 -23.5t87.5 -8.5q189 0 294 127.5t116 376.5q-56 -57 -132.5 -90.5t-179.5 -33.5q-92 0 -165.5 29t-125 82.5t-79.5 129t-28 169.5q0 96 29 176.5
t83.5 138.5t133 90.5t178.5 32.5q103 0 186 -37t140.5 -114t88.5 -195.5t31 -281.5q0 -79 -8 -155.5t-26 -147.5t-47.5 -135t-72.5 -116zM242 916q0 -63 16 -116t49 -92t83 -60.5t118 -21.5q44 0 86 9t79 25t68.5 37t54.5 45q-3 128 -23.5 218t-57.5 146.5t-89.5 82
t-119.5 25.5t-116.5 -22.5t-82.5 -62.5t-49 -94.5t-16 -118.5z" />
    <glyph glyph-name="colon" unicode=":" horiz-adv-x="424" 
d="M328 102q0 -50 -31.5 -84t-84.5 -34t-84.5 34t-31.5 84t31.5 84t84.5 34t84.5 -34t31.5 -84zM328 858q0 -50 -31.5 -84t-84.5 -34t-84.5 34t-31.5 84t31.5 84t84.5 34t84.5 -34t31.5 -84z" />
    <glyph glyph-name="semicolon" unicode=";" horiz-adv-x="424" 
d="M328 858q0 -50 -31.5 -84t-84.5 -34t-84.5 34t-31.5 84t31.5 84t84.5 34t84.5 -34t31.5 -84zM324 84q0 -35 -9 -79t-26 -90.5t-41.5 -93t-55.5 -87.5q-12 -18 -28 -18q-5 0 -11.5 1.5t-12.5 4.5l-8 4q-22 13 -22 26q0 9 8 22q26 47 39 86.5t13 65.5q0 29 -11 50t-24 40.5
t-24 40t-11 49.5q0 22 7.5 43t22.5 36.5t36 25t48 9.5q54 0 82 -36.5t28 -99.5z" />
    <glyph glyph-name="less" unicode="&#x3c;" 
d="M826 910q12 6 20 6q19 0 30 -20l24 -44q3 -6 5.5 -12.5t2.5 -11.5q0 -13 -20 -24l-602 -322l602 -322q20 -11 20 -24q0 -5 -2.5 -11.5t-5.5 -12.5l-24 -44q-11 -20 -30 -20q-8 0 -20 6l-648 348q-18 11 -25 22.5t-7 31.5v52q0 20 7 31.5t25 22.5z" />
    <glyph glyph-name="equal" unicode="=" 
d="M148 236q-20 0 -28 8t-8 28v56q0 20 8 28t28 8h768q20 0 28 -8t8 -28v-56q0 -20 -8 -28t-28 -8h-768zM148 596q-20 0 -28 8t-8 28v56q0 20 8 28t28 8h768q20 0 28 -8t8 -28v-56q0 -20 -8 -28t-28 -8h-768z" />
    <glyph glyph-name="greater" unicode="&#x3e;" 
d="M238 54q-12 -6 -20 -6q-19 0 -30 20l-24 44q-3 6 -5.5 12.5t-2.5 11.5q0 13 20 24l602 322l-602 322q-20 11 -20 24q0 5 2.5 11.5t5.5 12.5l24 44q11 20 30 20q8 0 20 -6l648 -348q18 -11 25 -22.5t7 -31.5v-52q0 -20 -7 -31.5t-25 -22.5z" />
    <glyph glyph-name="question" unicode="?" horiz-adv-x="854" 
d="M358 360q-18 0 -28.5 8t-13.5 28q-5 26 -7.5 50.5t-2.5 45.5q0 55 14.5 97t40 77t60 65t73.5 61q34 26 61.5 50.5t47 51.5t30.5 58t11 70q0 40 -12.5 74t-38.5 59.5t-67 40t-98 14.5q-83 0 -149.5 -28.5t-116.5 -69.5q-28 -22 -50 6l-32 44q-20 28 6 54q26 25 60.5 48
t78 41t96 28.5t115.5 10.5q94 0 164.5 -24.5t117 -67t69.5 -100t23 -124.5q0 -70 -22.5 -122t-57 -93t-76 -73.5t-80.5 -63.5q-41 -32 -69.5 -61.5t-48 -61.5t-31 -70t-17.5 -87q-3 -20 -11.5 -28t-28.5 -8h-10zM492 102q0 -50 -31.5 -84t-84.5 -34t-84.5 34t-31.5 84
t31.5 84t84.5 34t84.5 -34t31.5 -84z" />
    <glyph glyph-name="at" unicode="@" horiz-adv-x="1618" 
d="M1138 -140q-60 -33 -149 -60.5t-203 -27.5q-150 0 -275 53t-215 148.5t-140 228t-50 290.5q0 160 51.5 292.5t146 227.5t227 147.5t295.5 52.5q155 0 281.5 -48t216 -134t138 -205.5t48.5 -262.5q0 -86 -19 -170t-58 -150t-99.5 -107t-143.5 -41q-41 0 -74.5 10t-58.5 27
t-42 39.5t-25 47.5q-33 -44 -89.5 -74t-140.5 -30q-74 0 -131.5 25.5t-98 74.5t-61.5 119.5t-21 160.5q0 89 21 160t61 120.5t98.5 75.5t133.5 26q41 0 74.5 -7.5t60.5 -20.5t47 -30t34 -36v44q0 20 8 28t28 8h50q20 0 28 -8t8 -28v-520q0 -53 24 -83.5t74 -30.5q43 0 80 24
t64.5 69t43.5 110.5t16 148.5q0 133 -41.5 239t-117 180t-181.5 113.5t-236 39.5q-132 0 -243 -42t-192 -121.5t-126 -196t-45 -264.5q0 -146 43.5 -261.5t120 -196t180.5 -123.5t226 -43q92 0 168.5 22t133.5 54q31 17 48 -14l12 -22q17 -29 -14 -48zM584 496
q0 -140 54 -209t152 -69q54 0 99 22.5t81 75.5v358q-36 54 -81 77t-99 23q-98 0 -152 -69t-54 -209z" />
    <glyph glyph-name="A" unicode="A" horiz-adv-x="1218" 
d="M86 0q-30 0 -30 20q0 6 1 11.5t3 10.5q103 349 215.5 661.5t244.5 588.5q9 18 20.5 25t31.5 7h72q20 0 31.5 -7t20.5 -25q127 -269 244.5 -584t215.5 -658q3 -11 4.5 -16t1.5 -10q0 -24 -32 -24h-94q-38 0 -46 34q-26 92 -48.5 169t-45.5 157h-582q-24 -80 -46.5 -158.5
t-47.5 -171.5q-5 -18 -14.5 -24t-29.5 -6h-90zM852 492q-59 183 -121 347.5t-127 312.5q-65 -148 -126 -312.5t-120 -347.5h494z" />
    <glyph glyph-name="B" unicode="B" horiz-adv-x="1146" 
d="M198 0q-20 0 -28 8t-8 28v1252q0 20 8 28t28 8h354q121 0 206 -27.5t139 -75t78.5 -110.5t24.5 -133q0 -95 -43.5 -172t-142.5 -122q65 -19 112 -51t77 -74t44.5 -92.5t14.5 -106.5q0 -71 -25 -136t-79.5 -114.5t-140.5 -79.5t-207 -30h-412zM326 136h290q76 0 129 18.5
t86 50t48 74t15 89.5q0 48 -14 91t-46.5 76t-85 52t-128.5 19h-294v-470zM326 738h234q76 0 128 18t84 49.5t46 72.5t14 88q0 46 -14 86.5t-46 70.5t-83.5 47.5t-126.5 17.5h-236v-450z" />
    <glyph glyph-name="C" unicode="C" horiz-adv-x="1194" 
d="M1096 124q-85 -75 -190.5 -109.5t-223.5 -34.5q-107 0 -192.5 27t-151 74t-112 112t-76.5 141t-44 160t-14 170t14 170t44 159.5t77 139.5t112.5 111t151 73.5t193.5 26.5q115 0 216 -31t182 -99q27 -24 4 -52l-46 -58q-12 -17 -24.5 -17.5t-27.5 11.5q-59 47 -136 75.5
t-172 28.5q-111 0 -190.5 -41t-130.5 -113t-75 -170.5t-24 -213.5t24 -214t75 -172t130.5 -114.5t190.5 -41.5q100 0 182 32.5t144 85.5q27 24 48 -6l46 -58q23 -28 -4 -52z" />
    <glyph glyph-name="D" unicode="D" horiz-adv-x="1290" 
d="M198 0q-20 0 -28 8t-8 28v1252q0 20 8 28t28 8h364q116 0 208 -25.5t162.5 -71.5t121 -108t82.5 -136t47 -155.5t15 -165.5t-15 -165.5t-47 -155.5t-82.5 -136t-121 -108t-163 -71.5t-207.5 -25.5h-364zM326 1188v-1052h228q126 0 216 39t148 108.5t85 166t27 212.5
q0 115 -27 212t-85 166.5t-148 108.5t-216 39h-228z" />
    <glyph glyph-name="E" unicode="E" horiz-adv-x="1054" 
d="M198 0q-20 0 -28 8t-8 28v1252q0 20 8 28t28 8h708q20 0 28 -8t8 -28v-64q0 -20 -8 -28t-28 -8h-580v-432h516q20 0 28 -8t8 -28v-64q0 -20 -8 -28t-28 -8h-516v-484h580q20 0 28 -8t8 -28v-64q0 -20 -8 -28t-28 -8h-708z" />
    <glyph glyph-name="F" unicode="F" horiz-adv-x="1004" 
d="M198 0q-20 0 -28 8t-8 28v1252q0 20 8 28t28 8h694q20 0 28 -8t8 -28v-64q0 -20 -8 -28t-28 -8h-566v-466h490q20 0 28 -8t8 -28v-64q0 -20 -8 -28t-28 -8h-490v-550q0 -20 -8 -28t-28 -8h-92z" />
    <glyph glyph-name="G" unicode="G" horiz-adv-x="1320" 
d="M1142 92q-95 -56 -208 -84t-228 -28q-114 0 -204.5 26.5t-158.5 73t-116 110.5t-78 138.5t-43.5 157t-13.5 166.5q0 86 14 170.5t44 161.5t76.5 143t113 114t153 75.5t195.5 27.5q116 0 224.5 -34.5t191.5 -109.5q27 -24 4 -52l-46 -58q-11 -15 -22 -16.5t-26 10.5
q-60 51 -144.5 84.5t-187.5 33.5q-112 0 -192 -43t-131 -117.5t-75 -174.5t-24 -215q0 -116 24.5 -214t78 -169.5t138 -112t205.5 -40.5q35 0 75 4t80 12.5t78.5 22t70.5 33.5v382h-278q-20 0 -28 8t-8 28v64q0 20 8 28t28 8h404q20 0 28 -8t8 -28v-524q0 -18 -7.5 -30.5
t-22.5 -23.5z" />
    <glyph glyph-name="H" unicode="H" horiz-adv-x="1336" 
d="M198 0q-20 0 -28 8t-8 28v1252q0 20 8 28t28 8h92q20 0 28 -8t8 -28v-552h684v552q0 20 8 28t28 8h92q20 0 28 -8t8 -28v-1252q0 -20 -8 -28t-28 -8h-92q-20 0 -28 8t-8 28v564h-684v-564q0 -20 -8 -28t-28 -8h-92z" />
    <glyph glyph-name="I" unicode="I" horiz-adv-x="488" 
d="M198 0q-20 0 -28 8t-8 28v1252q0 20 8 28t28 8h92q20 0 28 -8t8 -28v-1252q0 -20 -8 -28t-28 -8h-92z" />
    <glyph glyph-name="J" unicode="J" horiz-adv-x="904" 
d="M754 438q0 -108 -27 -193t-78 -144t-126 -90t-171 -31q-92 0 -165 26t-121 68q-27 21 -8 52l40 58q12 17 22.5 18.5t25.5 -10.5q38 -32 89 -52t113 -20q118 0 180 83t62 243v842q0 20 8 28t28 8h92q20 0 28 -8t8 -28v-850v0z" />
    <glyph glyph-name="K" unicode="K" horiz-adv-x="1160" 
d="M984 0q-20 0 -31.5 7t-20.5 25q-35 75 -82 156.5t-101.5 162.5t-115.5 157.5t-125 141.5q-44 -39 -90.5 -73.5t-91.5 -66.5v-474q0 -20 -8 -28t-28 -8h-92q-20 0 -28 8t-8 28v1252q0 20 8 28t28 8h92q20 0 28 -8t8 -28v-618q76 56 154.5 133.5t152 162t137 170
t108.5 158.5q11 17 22.5 23.5t31.5 6.5h106q17 0 22 -8.5t-4 -23.5q-83 -142 -194 -280t-238 -260q70 -71 141.5 -160t136 -184t120 -191.5t94.5 -182.5q12 -34 -22 -34h-110z" />
    <glyph glyph-name="L" unicode="L" horiz-adv-x="940" 
d="M198 0q-20 0 -28 8t-8 28v1252q0 20 8 28t28 8h92q20 0 28 -8t8 -28v-1152h544q20 0 28 -8t8 -28v-64q0 -20 -8 -28t-28 -8h-672z" />
    <glyph glyph-name="M" unicode="M" horiz-adv-x="1554" 
d="M198 0q-20 0 -28 8t-8 28v1252q0 20 8 28t28 8h124q20 0 31.5 -7t22.5 -25l404 -706l406 706q11 18 22.5 25t31.5 7h116q20 0 28 -8t8 -28v-1252q0 -20 -8 -28t-28 -8h-78q-20 0 -28 8t-8 28v1092l-398 -694q-11 -18 -22.5 -25t-31.5 -7h-26q-20 0 -31.5 7t-22.5 25
l-398 694v-1092q0 -20 -8 -28t-28 -8h-78z" />
    <glyph glyph-name="N" unicode="N" horiz-adv-x="1340" 
d="M198 0q-20 0 -28 8t-8 28v1252q0 20 8 28t28 8h112q20 0 32.5 -6.5t21.5 -23.5l664 -1086v1080q0 20 8 28t28 8h78q20 0 28 -8t8 -28v-1252q0 -20 -8 -28t-28 -8h-112q-20 0 -32.5 6.5t-21.5 23.5l-664 1086v-1080q0 -20 -8 -28t-28 -8h-78z" />
    <glyph glyph-name="O" unicode="O" horiz-adv-x="1388" 
d="M260 662q0 -115 27 -214.5t81 -173t135.5 -116t190.5 -42.5t190.5 42.5t135.5 116t81 173t27 214.5t-27 214.5t-81 173t-135.5 116t-190.5 42.5t-190.5 -42.5t-135.5 -116t-81 -173t-27 -214.5zM1296 662q0 -141 -40.5 -265t-117.5 -217t-189 -146.5t-255 -53.5
q-146 0 -258 53t-188.5 145.5t-116 216.5t-39.5 267q0 141 40.5 265t117.5 217t189 146.5t255 53.5q145 0 257.5 -53t189 -145.5t116 -217t39.5 -266.5z" />
    <glyph glyph-name="P" unicode="P" horiz-adv-x="1090" 
d="M198 0q-20 0 -28 8t-8 28v1252q0 20 8 28t28 8h368q127 0 215.5 -34.5t144 -92.5t81 -133t25.5 -156q0 -83 -26.5 -159.5t-83 -135t-144.5 -93t-210 -34.5h-242v-450q0 -20 -8 -28t-28 -8h-92zM326 622h232q88 0 146.5 22.5t94 61t50.5 89.5t15 109t-15.5 109.5
t-51.5 90.5t-94.5 61.5t-144.5 22.5h-232v-566z" />
    <glyph glyph-name="Q" unicode="Q" horiz-adv-x="1388" 
d="M1004 -340q-71 0 -128 18.5t-102 57.5t-77 100t-51 146q-134 9 -237.5 65t-174 147.5t-106.5 211t-36 256.5q0 141 40.5 265t117.5 217t189 146.5t255 53.5q145 0 257.5 -53t189 -145.5t116 -217t39.5 -266.5q0 -128 -33 -242t-96.5 -204t-156 -149.5t-210.5 -78.5
q30 -101 81 -150.5t135 -49.5q26 0 45.5 4t36.5 10q20 8 30.5 4t19.5 -22l24 -46q18 -30 -16 -48q-30 -14 -67 -22t-85 -8zM260 662q0 -115 27 -214.5t81 -173t135.5 -116t190.5 -42.5t190.5 42.5t135.5 116t81 173t27 214.5t-27 214.5t-81 173t-135.5 116t-190.5 42.5
t-190.5 -42.5t-135.5 -116t-81 -173t-27 -214.5z" />
    <glyph glyph-name="R" unicode="R" horiz-adv-x="1134" 
d="M198 0q-20 0 -28 8t-8 28v1252q0 20 8 28t28 8h354q127 0 216 -32t144.5 -86t80.5 -124t25 -146q0 -66 -20 -126t-59.5 -109t-99.5 -84.5t-139 -52.5q64 -53 120.5 -118t103 -135t84 -141t64.5 -136q15 -34 -22 -34h-108q-20 0 -31 7t-19 27q-23 55 -56.5 119t-79 131
t-103 132.5t-127.5 123.5h-200v-504q0 -20 -8 -28t-28 -8h-92zM326 676h232q82 0 138 20t90.5 54.5t49 80.5t14.5 99q0 52 -14.5 99t-48 82.5t-89.5 56t-138 20.5h-234v-512z" />
    <glyph glyph-name="S" unicode="S" horiz-adv-x="1044" 
d="M956 352q0 -86 -32 -155t-91.5 -117t-143.5 -74t-187 -26q-68 0 -126.5 10.5t-108 28.5t-89.5 42t-70 51q-26 23 -6 52l48 60q12 15 23.5 16.5t26.5 -10.5q60 -50 134.5 -79t169.5 -29q136 0 211 58.5t75 161.5q0 54 -21.5 92t-60 66t-91 48.5t-113.5 39.5
q-44 13 -90.5 29t-91 37.5t-84.5 49.5t-69.5 66.5t-47 88.5t-17.5 115q0 87 32.5 155.5t91.5 116.5t142 73t184 25q121 0 209.5 -31t144.5 -75q28 -23 8 -52l-42 -60q-22 -28 -50 -8q-51 38 -118 61t-156 23q-77 0 -130 -18t-86.5 -48.5t-48.5 -70.5t-15 -83
q0 -54 21.5 -92.5t59 -67t89.5 -49t114 -39.5q66 -20 137 -46t130 -68.5t97 -106.5t38 -161z" />
    <glyph glyph-name="T" unicode="T" horiz-adv-x="1000" 
d="M454 0q-20 0 -28 8t-8 28v1152h-352q-20 0 -28 8t-8 28v64q0 20 8 28t28 8h868q20 0 28 -8t8 -28v-64q0 -20 -8 -28t-28 -8h-352v-1152q0 -20 -8 -28t-28 -8h-92z" />
    <glyph glyph-name="U" unicode="U" horiz-adv-x="1272" 
d="M1126 512q0 -129 -33.5 -228.5t-96.5 -167t-154 -102t-206 -34.5t-206 34.5t-154 102t-96.5 167t-33.5 228.5v776q0 20 8 28t28 8h92q20 0 28 -8t8 -28v-782q0 -192 86.5 -290t239.5 -98t239.5 98t86.5 290v782q0 20 8 28t28 8h92q20 0 28 -8t8 -28v-776v0z" />
    <glyph glyph-name="V" unicode="V" horiz-adv-x="1174" 
d="M552 0q-20 0 -31.5 7t-20.5 25q-125 266 -238.5 579t-201.5 663q-2 6 -4 14t-2 16q0 9 6.5 14.5t23.5 5.5h104q20 0 29.5 -8t14.5 -28q72 -314 164.5 -590.5t193.5 -511.5q104 235 196 511.5t166 590.5q5 20 14.5 28t29.5 8h94q30 0 30 -22q0 -6 -2 -15t-4 -15
q-86 -349 -200.5 -661.5t-239.5 -578.5q-9 -18 -20.5 -25t-31.5 -7h-70z" />
    <glyph glyph-name="W" unicode="W" horiz-adv-x="1872" 
d="M1776 1324q18 0 24 -9.5t6 -20.5q0 -5 -1 -11.5t-3 -14.5q-21 -107 -47 -220t-55.5 -225.5t-62 -222.5t-66 -212t-67.5 -192.5t-66 -163.5q-8 -17 -19 -24.5t-31 -7.5h-68q-20 0 -31.5 7t-20.5 25q-56 119 -106 246t-92 256.5t-76 259.5t-58 256q-23 -126 -57 -256
t-76 -259.5t-92.5 -256.5t-106.5 -246q-9 -18 -20.5 -25t-31.5 -7h-68q-20 0 -31 7.5t-19 24.5q-31 74 -64.5 165t-67 193.5t-66 213t-62.5 223t-56.5 224.5t-47.5 217q-2 8 -3 14.5t-1 11.5q0 11 6 20.5t24 9.5h96q20 0 29.5 -8t12.5 -28q23 -139 56 -289t71.5 -297
t80 -284t82.5 -250q32 76 65 162.5t65 180t61.5 192t55.5 198t47 197t36 190.5q3 20 12.5 28t29.5 8h80q20 0 29.5 -8t12.5 -28q23 -139 59.5 -289t80.5 -297t93 -284t97 -250q27 76 55.5 162.5t55.5 180t53 192t49 198t42.5 197t34.5 190.5q3 20 12.5 28t29.5 8h96z" />
    <glyph glyph-name="X" unicode="X" horiz-adv-x="1134" 
d="M90 0q-28 0 -28 20q0 6 1 12t3 12q18 72 59 153t95.5 165t118.5 168.5t129 163.5q-56 71 -109.5 146.5t-99.5 150.5t-81.5 147t-55.5 136q-2 5 -4 13.5t-2 14.5q0 22 28 22h94q21 0 31.5 -8t16.5 -28q33 -110 108 -233t178 -259q103 136 176 260t108 234q6 20 16.5 27
t31.5 7h80q17 0 23.5 -5.5t6.5 -14.5q0 -7 -6 -28q-19 -65 -54 -138t-80.5 -149t-99.5 -152t-110 -147q64 -77 126 -159.5t115 -165t94.5 -162t64.5 -149.5q2 -5 4 -13t2 -17q0 -11 -7 -17.5t-21 -6.5h-90q-21 0 -31.5 7t-16.5 27q-38 119 -128 256.5t-214 295.5
q-125 -158 -213 -295.5t-129 -256.5q-6 -20 -16.5 -27t-31.5 -7h-82z" />
    <glyph glyph-name="Y" unicode="Y" horiz-adv-x="1072" 
d="M490 0q-20 0 -28 8t-8 28v434q-54 82 -112 180.5t-113.5 205t-105.5 217t-89 217.5q-12 34 24 34h100q37 0 48 -34q34 -95 75 -190.5t84.5 -185t88.5 -170t88 -144.5q42 64 86 144.5t87.5 170t84.5 185t76 190.5q11 34 48 34h90q36 0 24 -34q-39 -107 -89 -217.5
t-105.5 -216.5t-113 -204t-112.5 -180v-436q0 -20 -8 -28t-28 -8h-92z" />
    <glyph glyph-name="Z" unicode="Z" horiz-adv-x="1062" 
d="M124 0q-20 0 -28 8t-8 28v56q0 14 4 31t10 31q19 39 55 99t82.5 132t101 153t109.5 162t108 158t96.5 142t75 113.5t44.5 72.5h-616q-20 0 -28 8t-8 28v66q0 20 8 28t28 8h758q20 0 28 -8t8 -28v-56q0 -14 -4 -31t-10 -31q-19 -39 -55 -99t-82.5 -132t-101 -153
t-109.5 -162t-108 -158t-96.5 -142t-75 -113.5t-44.5 -72.5h684q20 0 28 -8t8 -28v-66q0 -20 -8 -28t-28 -8h-826z" />
    <glyph glyph-name="bracketleft" unicode="[" horiz-adv-x="552" 
d="M202 -196q-20 0 -28 8t-8 28v1604q0 20 8 28t28 8h244q20 0 28 -8t8 -28v-24q0 -20 -8 -28t-28 -8h-144v-1484h144q20 0 28 -8t8 -28v-24q0 -20 -8 -28t-28 -8h-244z" />
    <glyph glyph-name="backslash" unicode="\" horiz-adv-x="604" 
d="M534 -136q2 -5 3 -12.5t1 -9.5q0 -22 -28 -22h-52q-38 0 -46 34l-440 1606q-2 5 -3 12.5t-1 9.5q0 22 28 22h52q37 0 46 -34z" />
    <glyph glyph-name="bracketright" unicode="]" horiz-adv-x="552" 
d="M106 -196q-20 0 -28 8t-8 28v24q0 20 8 28t28 8h144v1484h-144q-20 0 -28 8t-8 28v24q0 20 8 28t28 8h244q20 0 28 -8t8 -28v-1604q0 -20 -8 -28t-28 -8h-244z" />
    <glyph glyph-name="asciicircum" unicode="^" horiz-adv-x="1060" 
d="M550 1324q21 0 33 -6.5t23 -23.5l356 -504q10 -13 10 -24q0 -15 -16 -26l-40 -30q-15 -12 -28 -12t-24 16l-334 472l-334 -472q-11 -16 -24 -16t-28 12l-40 30q-16 11 -16 26q0 11 10 24l356 504q11 17 23 23.5t33 6.5h40z" />
    <glyph glyph-name="underscore" unicode="_" horiz-adv-x="880" 
d="M120 -120q-20 0 -28 8t-8 28v48q0 20 8 28t28 8h640q20 0 28 -8t8 -28v-48q0 -20 -8 -28t-28 -8h-640z" />
    <glyph glyph-name="grave" unicode="`" horiz-adv-x="584" 
d="M456 1178q8 -8 12 -14t4 -14q0 -9 -10 -22l-22 -28q-13 -16 -26 -16q-11 0 -26 12l-260 196q-14 11 -14 24t10 26l34 42q6 8 13 11t13 3t12 -2t14 -8z" />
    <glyph glyph-name="a" unicode="a" horiz-adv-x="1010" 
d="M748 0q-20 0 -28 8t-8 28v86q-20 -26 -46.5 -51t-62.5 -45.5t-82.5 -33t-106.5 -12.5q-78 0 -138 22t-100.5 61t-61 92t-20.5 115q0 63 22.5 117t69.5 94t119 62.5t171 22.5q71 0 129 -10.5t97 -27.5v80q0 44 -8.5 87t-33 77t-69 55t-115.5 21q-66 0 -132.5 -19.5
t-117.5 -60.5q-17 -12 -27.5 -10.5t-22.5 18.5l-32 46q-19 31 8 52q62 51 149.5 78.5t188.5 27.5q97 0 167 -25.5t114.5 -71.5t65.5 -110t21 -141v-596q0 -20 -8 -28t-28 -8h-74zM440 106q75 0 143 32t119 106v170q-20 9 -46 15t-54 10t-56 5.5t-50 1.5q-68 0 -114.5 -13
t-75 -35.5t-41.5 -54.5t-13 -69q0 -30 8.5 -60t30 -54t57.5 -39t92 -15z" />
    <glyph glyph-name="b" unicode="b" horiz-adv-x="1070" 
d="M190 0q-20 0 -28 8t-8 28v1364q0 20 8 28t28 8h84q20 0 28 -8t8 -28v-542q18 25 43 47t58 38.5t74.5 26.5t92.5 10q93 0 167.5 -33.5t127 -97.5t81 -156.5t28.5 -210.5q0 -117 -28.5 -210t-81 -158t-127 -99.5t-167.5 -34.5q-53 0 -95.5 10.5t-76.5 29t-60.5 43
t-45.5 53.5v-80q0 -20 -8 -28t-28 -8h-74zM310 238q45 -71 107.5 -101.5t130.5 -30.5q61 0 111.5 23.5t86 70t55 116.5t19.5 164t-19.5 164t-55 116.5t-86 70t-111.5 23.5q-68 0 -130.5 -30.5t-107.5 -101.5v-484z" />
    <glyph glyph-name="c" unicode="c" horiz-adv-x="904" 
d="M802 72q-59 -48 -132.5 -70t-153.5 -22q-115 0 -196 41.5t-132.5 110.5t-75.5 158t-24 184q0 63 10.5 125t33.5 118t58 104.5t84 83.5t112.5 55t143.5 20q74 0 144.5 -19.5t127.5 -64.5q26 -23 8 -52l-36 -54q-11 -17 -21 -18.5t-25 10.5q-42 35 -93 50.5t-107 15.5
q-76 0 -129 -29.5t-86 -80t-48 -117.5t-15 -143q0 -75 14.5 -141.5t47 -116.5t83.5 -79t125 -29q51 0 106 16t102 54q15 12 25.5 10.5t22.5 -18.5l34 -50q19 -31 -8 -52z" />
    <glyph glyph-name="d" unicode="d" horiz-adv-x="1068" 
d="M804 0q-20 0 -28 8t-8 28v80q-19 -29 -44.5 -53.5t-60 -43t-77.5 -29t-96 -10.5q-94 0 -168.5 33.5t-126.5 97.5t-79.5 156.5t-27.5 210.5q0 117 27.5 210t79.5 158t126.5 99.5t168.5 34.5q52 0 93.5 -10t74.5 -26.5t58 -38.5t42 -47v542q0 20 8 28t28 8h84q20 0 28 -8
t8 -28v-1364q0 -20 -8 -28t-28 -8h-74zM250 480q0 -94 19.5 -164t55 -116.5t85 -70t110.5 -23.5q69 0 131 30.5t107 101.5v484q-45 71 -107 101.5t-131 30.5q-61 0 -110.5 -23.5t-85 -70t-55 -116.5t-19.5 -164z" />
    <glyph glyph-name="e" unicode="e" horiz-adv-x="1016" 
d="M932 458q0 -30 -30 -30h-654q4 -66 23 -123.5t55 -100.5t90.5 -67.5t131.5 -24.5q62 0 122 16.5t108 51.5q17 12 27.5 10.5t22.5 -18.5l32 -48q9 -15 7 -27.5t-17 -24.5q-60 -48 -138 -70t-166 -22q-123 0 -210 41.5t-142 110.5t-80.5 159t-25.5 187q0 100 26 191t79 160
t133.5 110t189.5 41q115 0 194 -44.5t128.5 -115t71.5 -157t22 -171.5v-34zM778 544q-5 64 -23 120.5t-50.5 99t-79.5 67.5t-111 25q-62 0 -109 -23.5t-80 -65t-52 -99t-25 -124.5h530z" />
    <glyph glyph-name="f" unicode="f" horiz-adv-x="590" 
d="M70 838q-20 0 -28 8t-8 28v50q0 20 8 28t28 8h128v98q0 110 23 186t64.5 123t99.5 68t129 21q50 0 90.5 -8.5t73.5 -25.5q30 -18 16 -50l-22 -54q-9 -18 -19 -22.5t-27 4.5q-48 24 -106 24q-38 0 -69 -12.5t-52.5 -41t-33 -76.5t-11.5 -118v-116h216q20 0 28 -8t8 -28
v-50q0 -20 -8 -28t-28 -8h-216v-802q0 -20 -8 -28t-28 -8h-84q-20 0 -28 8t-8 28v802h-128z" />
    <glyph glyph-name="g" unicode="g" horiz-adv-x="966" 
d="M932 -96q0 -69 -30.5 -128.5t-90 -103t-147 -68t-202.5 -24.5q-95 0 -172 17.5t-131.5 51.5t-84.5 83t-30 112q0 78 43.5 129.5t114.5 80.5q-39 17 -63.5 49.5t-24.5 82.5q0 32 11 59t29 48.5t40.5 38.5t45.5 30q-35 25 -60 56.5t-41 67.5t-23.5 74.5t-7.5 77.5
q0 64 20 125.5t62.5 109.5t109 77.5t160.5 29.5q41 0 73 -5.5t59 -14.5h292q20 0 28 -8t8 -28v-50q0 -20 -9 -28t-27 -8q-38 0 -80 5t-72 13q51 -44 72.5 -96t21.5 -118q0 -65 -19.5 -126.5t-62.5 -109.5t-112 -77t-168 -29q-88 0 -154 24q-60 -57 -60 -112q0 -11 3.5 -22.5
t17 -20.5t38.5 -15t69 -6h242q65 0 122 -14.5t99 -44.5t66.5 -76t24.5 -109zM196 -136q0 -34 12.5 -65t43 -55t82 -38t130.5 -14q81 0 140 15.5t97 42t56.5 62t18.5 76.5q0 28 -9.5 52t-31.5 42t-58 28t-89 10h-282q-59 -27 -84.5 -66.5t-25.5 -89.5zM262 640
q0 -50 13.5 -91.5t39.5 -72t64.5 -47.5t88.5 -17t88.5 17t64.5 47.5t39.5 72t13.5 91.5q0 49 -13.5 90.5t-39.5 72t-64.5 48t-88.5 17.5t-88.5 -17.5t-64.5 -48t-39.5 -72t-13.5 -90.5z" />
    <glyph glyph-name="h" unicode="h" horiz-adv-x="1078" 
d="M190 0q-20 0 -28 8t-8 28v1364q0 20 8 28t28 8h84q20 0 28 -8t8 -28v-546q21 25 48 47.5t61.5 40t78 28t96.5 10.5q90 0 153.5 -29.5t103.5 -79.5t58.5 -116t18.5 -139v-580q0 -20 -8 -28t-28 -8h-84q-20 0 -28 8t-8 28v566q0 42 -8.5 86t-31.5 80t-63.5 59t-104.5 23
q-32 0 -65.5 -6.5t-66.5 -21.5t-64.5 -39.5t-57.5 -60.5v-686q0 -20 -8 -28t-28 -8h-84z" />
    <glyph glyph-name="i" unicode="i" horiz-adv-x="464" 
d="M190 0q-20 0 -28 8t-8 28v888q0 20 8 28t28 8h84q20 0 28 -8t8 -28v-888q0 -20 -8 -28t-28 -8h-84zM338 1306q0 -45 -28 -76.5t-78 -31.5t-78 31.5t-28 76.5t28 76.5t78 31.5t78 -31.5t28 -76.5z" />
    <glyph glyph-name="j" unicode="j" horiz-adv-x="464" 
d="M310 -90q0 -166 -69.5 -248t-200.5 -82q-38 0 -75 6.5t-69 23.5q-32 15 -20 48l22 52q9 18 18.5 22.5t29.5 -4.5q35 -16 76 -16q72 0 102 54t30 154v1004q0 20 8 28t28 8h84q20 0 28 -8t8 -28v-1014zM338 1306q0 -45 -28 -76.5t-78 -31.5t-78 31.5t-28 76.5t28 76.5
t78 31.5t78 -31.5t28 -76.5z" />
    <glyph glyph-name="k" unicode="k" horiz-adv-x="958" 
d="M800 0q-20 0 -31.5 7t-20.5 25q-29 52 -64.5 109t-76.5 113.5t-86.5 109.5t-92.5 98q-29 -23 -58.5 -43.5t-59.5 -40.5v-342q0 -20 -8 -28t-28 -8h-84q-20 0 -28 8t-8 28v1364q0 20 8 28t28 8h84q20 0 28 -8t8 -28v-872q55 39 110 88.5t105.5 103.5t94.5 108t76 102
q12 17 24.5 23.5t33.5 6.5h98q17 0 21 -8t-5 -22q-65 -100 -150.5 -197.5t-185.5 -186.5q55 -52 111 -115t106.5 -130.5t93.5 -136.5t73 -132q16 -32 -20 -32h-96z" />
    <glyph glyph-name="l" unicode="l" horiz-adv-x="464" 
d="M190 0q-20 0 -28 8t-8 28v1364q0 20 8 28t28 8h84q20 0 28 -8t8 -28v-1364q0 -20 -8 -28t-28 -8h-84z" />
    <glyph glyph-name="m" unicode="m" horiz-adv-x="1652" 
d="M190 0q-20 0 -28 8t-8 28v888q0 20 8 28t28 8h74q20 0 28 -8t8 -28v-80q19 25 45.5 49.5t61 44t78.5 31t99 11.5q103 0 169.5 -41.5t102.5 -110.5q25 31 57.5 58.5t72.5 48.5t88 33t104 12q88 0 150 -29.5t100.5 -79t56 -116t17.5 -139.5v-580q0 -20 -8 -28t-28 -8h-84
q-20 0 -28 8t-8 28v566q0 42 -8 86t-29.5 80t-60.5 59t-100 23q-29 0 -61.5 -6.5t-64 -21.5t-61.5 -39.5t-55 -60.5v-686q0 -20 -8 -28t-28 -8h-84q-20 0 -28 8t-8 28v566q0 42 -8 86t-30 80t-60.5 59t-99.5 23q-30 0 -62.5 -6.5t-64 -21.5t-61 -39.5t-54.5 -60.5v-686
q0 -20 -8 -28t-28 -8h-84z" />
    <glyph glyph-name="n" unicode="n" horiz-adv-x="1078" 
d="M190 0q-20 0 -28 8t-8 28v888q0 20 8 28t28 8h74q20 0 28 -8t8 -28v-80q20 25 47.5 49.5t63.5 44t82 31t103 11.5q89 0 152 -29.5t103 -79t58.5 -116t18.5 -139.5v-580q0 -20 -8 -28t-28 -8h-84q-20 0 -28 8t-8 28v566q0 42 -8.5 86t-31.5 80t-63.5 59t-104.5 23
q-32 0 -65.5 -6.5t-66.5 -21.5t-64.5 -39.5t-57.5 -60.5v-686q0 -20 -8 -28t-28 -8h-84z" />
    <glyph glyph-name="o" unicode="o" horiz-adv-x="1060" 
d="M250 480q0 -74 15.5 -142t49.5 -120t87 -83t128 -31t128 31t87 83t49.5 120t15.5 142t-15.5 142t-49.5 120t-87 83t-128 31t-128 -31t-87 -83t-49.5 -120t-15.5 -142zM972 480q0 -97 -26 -187t-80 -159.5t-137.5 -111.5t-198.5 -42q-118 0 -201.5 42t-137 111.5
t-78.5 159.5t-25 187t25.5 187t79.5 159.5t137.5 111.5t199.5 42q118 0 201.5 -42t137 -111.5t78.5 -159.5t25 -187z" />
    <glyph glyph-name="p" unicode="p" horiz-adv-x="1070" 
d="M190 -400q-20 0 -28 8t-8 28v1288q0 20 8 28t28 8h74q20 0 28 -8t8 -28v-80q19 28 45.5 53t60.5 43.5t76.5 29t95.5 10.5q93 0 167.5 -33.5t127 -97.5t81 -156.5t28.5 -210.5q0 -117 -28.5 -210t-81 -158t-127 -99.5t-167.5 -34.5q-51 0 -92.5 10t-74.5 26.5t-58 38.5
t-43 47v-466q0 -20 -8 -28t-28 -8h-84zM310 238q45 -71 107.5 -101.5t130.5 -30.5q61 0 111.5 23.5t86 70t55 116.5t19.5 164t-19.5 164t-55 116.5t-86 70t-111.5 23.5q-68 0 -130.5 -30.5t-107.5 -101.5v-484z" />
    <glyph glyph-name="q" unicode="q" horiz-adv-x="1068" 
d="M794 -400q-20 0 -28 8t-8 28v466q-17 -25 -42 -47t-58 -38.5t-74.5 -26.5t-93.5 -10q-94 0 -168.5 33.5t-126.5 97.5t-79.5 156.5t-27.5 210.5q0 117 27.5 210t79.5 158t126.5 99.5t168.5 34.5q53 0 96 -10.5t77.5 -29t60 -43.5t44.5 -53v80q0 20 8 28t28 8h74
q20 0 28 -8t8 -28v-1288q0 -20 -8 -28t-28 -8h-84zM250 480q0 -94 19.5 -164t55 -116.5t85 -70t110.5 -23.5q69 0 131 30.5t107 101.5v484q-45 71 -107 101.5t-131 30.5q-61 0 -110.5 -23.5t-85 -70t-55 -116.5t-19.5 -164z" />
    <glyph glyph-name="r" unicode="r" horiz-adv-x="708" 
d="M190 0q-20 0 -28 8t-8 28v888q0 20 8 28t28 8h74q20 0 28 -8t8 -28v-90q20 26 45.5 52t58.5 47t74 34t94 13q20 0 41.5 -2t42.5 -8q35 -10 26 -44l-16 -74q-5 -20 -13.5 -25.5t-28.5 -0.5q-42 12 -84 12q-29 0 -59.5 -6t-60.5 -19.5t-58.5 -36t-51.5 -54.5v-686
q0 -20 -8 -28t-28 -8h-84z" />
    <glyph glyph-name="s" unicode="s" horiz-adv-x="890" 
d="M802 262q0 -67 -28 -119.5t-77.5 -88.5t-116.5 -55t-144 -19q-115 0 -197.5 31t-132.5 73q-28 22 -6 50l38 50q12 15 23.5 17t26.5 -9q50 -39 111 -61.5t139 -22.5q43 0 80.5 9t66 27t45 45t16.5 63q0 40 -17 66.5t-47 45t-69.5 31t-84.5 23.5q-34 8 -71.5 17.5t-73.5 23
t-69 32.5t-58 47.5t-39.5 68t-14.5 93.5q0 64 27 116t75 88.5t115 56t147 19.5q100 0 174 -22.5t122 -57.5q28 -20 10 -50l-36 -52q-11 -17 -21 -19t-27 9q-42 29 -97.5 46.5t-126.5 17.5q-51 0 -89.5 -11.5t-64.5 -31t-39 -46t-13 -57.5q0 -41 17.5 -66.5t47 -42t68.5 -27
t83 -20.5q57 -14 115.5 -32t105.5 -49.5t77 -81t30 -125.5z" />
    <glyph glyph-name="t" unicode="t" horiz-adv-x="710" 
d="M66 838q-20 0 -28 8t-8 28v50q0 20 8 28t28 8h128v222q0 20 8 28t28 8h84q20 0 28 -8t8 -28v-222h272q20 0 28 -8t8 -28v-50q0 -20 -8 -28t-28 -8h-272v-564q0 -80 27.5 -122t98.5 -42q33 0 60.5 8.5t53.5 23.5q17 9 26.5 6t17.5 -20l22 -52q14 -34 -16 -52
q-42 -24 -88 -34t-96 -10q-63 0 -112 15t-82 49.5t-50.5 89t-17.5 134.5v570h-128z" />
    <glyph glyph-name="u" unicode="u" horiz-adv-x="1066" 
d="M766 116q-20 -26 -47 -50t-62 -43.5t-80 -31t-101 -11.5q-88 0 -150 29.5t-101 79t-57 115.5t-18 140v580q0 20 8 28t28 8h84q20 0 28 -8t8 -28v-566q0 -42 9 -86t31.5 -80t61.5 -59t100 -23q31 0 64 6.5t65.5 21.5t62.5 39.5t56 60.5v686q0 20 8 28t28 8h84q20 0 28 -8
t8 -28v-888q0 -20 -8 -28t-28 -8h-74q-20 0 -28 8t-8 28v80v0z" />
    <glyph glyph-name="v" unicode="v" horiz-adv-x="918" 
d="M430 0q-20 0 -32.5 7t-21.5 25q-46 81 -92.5 184t-89 217t-79.5 233.5t-63 233.5q-2 6 -4 18t-2 18q0 11 6.5 17.5t23.5 6.5h88q20 0 29.5 -7t12.5 -27q19 -98 48 -200.5t63 -201.5t71.5 -190.5t75.5 -165.5q39 74 77 165.5t72.5 191t63.5 202.5t49 201q3 15 12 23.5
t30 8.5h74q30 0 30 -22q0 -6 -1.5 -13.5l-4.5 -22.5q-23 -115 -59.5 -235t-80 -234t-91 -217t-93.5 -184q-9 -18 -21.5 -25t-32.5 -7h-58z" />
    <glyph glyph-name="w" unicode="w" horiz-adv-x="1476" 
d="M1396 960q30 0 30 -26q0 -6 -1 -13t-3 -15q-23 -114 -54.5 -235t-68.5 -236.5t-77 -219.5t-80 -183q-8 -15 -20 -23.5t-32 -8.5h-76q-20 0 -31 7.5t-19 24.5q-86 199 -141 367.5t-85 324.5q-29 -156 -84.5 -324t-139.5 -366q-8 -18 -19 -26t-31 -8h-78q-37 0 -52 32
q-38 81 -78 185t-77.5 219t-70 235.5t-54.5 234.5q-2 8 -3 15t-1 13q0 26 30 26h86q20 0 29.5 -8t12.5 -28q17 -98 42 -202.5t54.5 -205.5t61 -194t62.5 -166q34 73 68 166t65.5 194t57.5 205.5t43 202.5q3 20 12.5 28t29.5 8h68q20 0 29.5 -8t12.5 -28q18 -98 44.5 -202.5
t58 -205.5t65.5 -194t68 -166q31 73 62.5 166t61 194t54.5 205.5t42 202.5q3 20 12.5 28t29.5 8h84z" />
    <glyph glyph-name="x" unicode="x" horiz-adv-x="916" 
d="M834 960q26 0 26 -18q0 -8 -3 -17.5t-5 -14.5q-18 -47 -49 -99.5t-71 -107.5t-86 -111t-94 -110q50 -56 98 -113.5t88.5 -114.5t72.5 -110.5t51 -99.5q3 -8 4.5 -13t1.5 -13q0 -18 -26 -18h-92q-21 0 -31.5 7t-18.5 27q-30 75 -93 164t-155 192q-91 -103 -154 -192
t-96 -164q-8 -20 -18.5 -27t-31.5 -7h-78q-26 0 -26 18q0 8 1.5 13t4.5 13q19 46 50.5 99.5t72 110.5t88 114.5t97.5 113.5q-48 54 -94.5 111t-86.5 112.5t-70.5 107t-46.5 95.5q-2 5 -5 13t-3 19q0 20 26 20h90q21 0 31.5 -7t18.5 -27q29 -75 89.5 -163t148.5 -189
q91 101 152.5 189t93.5 163q8 20 18.5 27t31.5 7h78z" />
    <glyph glyph-name="y" unicode="y" horiz-adv-x="918" 
d="M382 20q-49 85 -97 190.5t-91.5 221t-80.5 235t-63 233.5q-2 6 -4 18t-2 18q0 11 6.5 17.5t23.5 6.5h88q20 0 29.5 -7t12.5 -27q19 -98 48 -200.5t63 -201.5t71.5 -190.5t75.5 -165.5q39 74 77 165.5t72.5 191t63.5 202.5t49 201q3 15 12 23.5t30 8.5h74q30 0 30 -22
q0 -6 -1.5 -13.5l-4.5 -22.5q-27 -136 -72 -276.5t-98 -271.5q-48 -120 -104.5 -231t-121 -207t-138.5 -174t-156 -132q-13 -10 -28 -10q-17 0 -28 16l-36 50q-10 13 -10 24q0 15 20 28q46 34 83.5 65.5t72 66.5t67 76t67.5 94z" />
    <glyph glyph-name="z" unicode="z" horiz-adv-x="876" 
d="M762 824q-22 -39 -63.5 -99.5t-93 -131t-107 -144.5t-103.5 -139t-83.5 -115.5t-47.5 -72.5h500q20 0 28 -8t8 -28v-50q0 -20 -8 -28t-28 -8h-644q-20 0 -28 8t-8 28v40q0 14 4 31t12 29q21 39 63 99.5t93.5 131t106.5 144.5t103.5 139t84 115t47.5 73h-454q-20 0 -28 8
t-8 28v50q0 20 8 28t28 8h598q20 0 28 -8t8 -28v-40q0 -14 -4 -31t-12 -29z" />
    <glyph glyph-name="braceleft" unicode="{" horiz-adv-x="552" 
d="M332 996q0 -91 -10.5 -155.5t-31.5 -108.5q-14 -29 -34 -50.5t-44 -39.5q24 -18 44 -39.5t34 -50.5q21 -44 31.5 -108.5t10.5 -155.5v-176q0 -41 2.5 -70t7 -49t10.5 -32.5t12 -20.5q15 -20 38.5 -30t61.5 -10q20 0 28 -8t8 -28v-24q0 -20 -8 -28t-28 -8h-8
q-25 0 -51 2.5t-51 9t-47.5 18.5t-40.5 32q-33 35 -51.5 99t-18.5 161v182q0 68 -6 121.5t-21 90t-41 55.5t-66 19q-18 0 -26 8t-8 28v24q0 20 8 28t26 8q40 0 66 19t41 55.5t21 90t6 121.5v182q0 97 18.5 161t51.5 99q18 19 40.5 31.5t47.5 19t51 9t51 2.5h8q20 0 28 -8
t8 -28v-24q0 -20 -8 -28t-28 -8q-38 0 -61.5 -10t-38.5 -30q-6 -8 -12 -20.5t-10.5 -32.5t-7 -49t-2.5 -70v-176v0z" />
    <glyph glyph-name="bar" unicode="|" horiz-adv-x="616" 
d="M276 -196q-20 0 -28 8t-8 28v1606q0 20 8 28t28 8h64q20 0 28 -8t8 -28v-1606q0 -20 -8 -28t-28 -8h-64z" />
    <glyph glyph-name="braceright" unicode="}" horiz-adv-x="552" 
d="M220 288q0 91 10.5 155.5t31.5 108.5q14 29 34 50.5t44 39.5q-24 18 -44 39.5t-34 50.5q-21 44 -31.5 108.5t-10.5 155.5v176q0 41 -3 70t-7.5 49t-10 32.5t-11.5 20.5q-15 20 -38.5 30t-61.5 10q-20 0 -28 8t-8 28v24q0 20 8 28t28 8h8q25 0 51 -2.5t51 -9t47.5 -19
t40.5 -31.5q33 -35 51.5 -99t18.5 -161v-182q0 -68 6 -121.5t21 -90t41 -55.5t66 -19q18 0 26 -8t8 -28v-24q0 -20 -8 -28t-26 -8q-40 0 -66 -19t-41 -55.5t-21 -90t-6 -121.5v-182q0 -97 -18.5 -161t-51.5 -99q-18 -20 -40.5 -32t-47.5 -18.5t-51 -9t-51 -2.5h-8
q-20 0 -28 8t-8 28v24q0 20 8 28t28 8q38 0 61.5 10t38.5 30q6 8 11.5 20.5t10 32.5t7.5 49t3 70v176v0z" />
    <glyph glyph-name="asciitilde" unicode="~" 
d="M710 336q-41 0 -75.5 12t-65 30t-58.5 39t-55 39t-54.5 30t-57.5 12q-45 0 -81 -28.5t-63 -81.5q-5 -9 -10 -15.5t-14 -6.5q-10 0 -26 8l-36 18q-11 6 -14.5 11t-3.5 13t2.5 15t5.5 15q17 43 43.5 76.5t59.5 56.5t70.5 35t76.5 12q40 0 75 -12t65.5 -30t58.5 -39t55 -39
t54.5 -30t57.5 -12q45 0 81 28.5t63 81.5q5 9 10 15.5t14 6.5q10 0 26 -8l36 -18q11 -6 14.5 -11t3.5 -13t-2.5 -15t-5.5 -15q-17 -43 -43.5 -76.5t-59.5 -56.5t-70.5 -35t-76.5 -12z" />
    <glyph glyph-name="uni00A0" unicode="&#xa0;" horiz-adv-x="430" 
 />
    <glyph glyph-name="exclamdown" unicode="&#xa1;" horiz-adv-x="524" 
d="M370 -324q3 -36 -34 -36h-148q-37 0 -34 36l68 892q2 20 10 28t28 8h4q20 0 28 -8t10 -28zM378 862q0 -50 -31.5 -84t-84.5 -34t-84.5 34t-31.5 84t31.5 84t84.5 34t84.5 -34t31.5 -84z" />
    <glyph glyph-name="cent" unicode="&#xa2;" 
d="M574 -128q-20 0 -28 8t-8 28v114q-102 11 -174.5 56t-118.5 112.5t-67.5 150.5t-21.5 171q0 86 21 169.5t67 152.5t118.5 116.5t175.5 61.5v116q0 20 8 28t28 8h44q20 0 28 -8t8 -28v-112q69 -5 134.5 -24t119.5 -60q28 -20 10 -50l-36 -54q-11 -17 -21 -18.5t-27 10.5
q-39 29 -84.5 45t-95.5 21v-736q47 5 93 22.5t87 47.5q17 12 27.5 10.5t22.5 -18.5l32 -50q20 -29 -8 -52q-53 -41 -117.5 -62.5t-136.5 -27.5v-112q0 -20 -8 -28t-28 -8h-44zM538 880q-61 -14 -104 -47.5t-70 -82t-39.5 -108.5t-12.5 -126t12.5 -125.5t39.5 -107.5t70 -81
t104 -46v724z" />
    <glyph glyph-name="sterling" unicode="&#xa3;" 
d="M148 598q-20 0 -28 8t-8 28v56q0 20 8 28t28 8h130q-21 51 -37.5 109.5t-16.5 130.5q0 80 24.5 149t74.5 120t126 80t179 29q112 0 196 -29.5t138 -70.5q28 -23 8 -52l-36 -54q-11 -15 -22 -17.5t-26 9.5q-51 35 -115.5 57.5t-142.5 22.5q-128 0 -190 -62t-62 -174
q0 -32 4.5 -65t12 -65.5t17 -62.5t20.5 -55h366q20 0 28 -8t8 -28v-56q0 -20 -8 -28t-28 -8h-318q11 -36 14.5 -74t3.5 -74q0 -53 -12.5 -101.5t-35 -89.5t-53 -73.5t-65.5 -53.5h608q20 0 28 -8t8 -28v-60q0 -20 -8 -28t-28 -8h-760q-20 0 -28 8t-8 28v62q0 21 7 32.5
t25 23.5q93 54 134.5 135t41.5 173q0 36 -5.5 70t-16.5 66h-180z" />
    <glyph glyph-name="currency" unicode="&#xa4;" 
d="M88 232q-26 26 0 52l112 112q-45 54 -66.5 123t-21.5 143t21.5 142t66.5 124l-112 112q-26 26 0 52l46 46q26 26 52 0l122 -122q45 24 100.5 37t123.5 13t123.5 -13t100.5 -37l122 122q26 26 52 0l46 -46q26 -26 0 -52l-112 -112q45 -56 66.5 -124t21.5 -142t-21.5 -143
t-66.5 -123l112 -112q26 -26 0 -52l-46 -46q-26 -26 -52 0l-122 122q-45 -24 -100.5 -37t-123.5 -13t-123.5 13t-100.5 37l-122 -122q-26 -26 -52 0zM270 662q0 -56 15 -106.5t46.5 -88.5t81 -60.5t119.5 -22.5t119.5 22.5t81 60.5t46.5 88.5t15 106.5t-15 106.5t-46.5 88.5
t-81 60.5t-119.5 22.5t-119.5 -22.5t-81 -60.5t-46.5 -88.5t-15 -106.5z" />
    <glyph glyph-name="yen" unicode="&#xa5;" 
d="M128 510q-20 0 -28 8t-8 28v54q0 20 8 28t28 8h246q-42 72 -84 151.5t-81.5 163.5t-75 169.5t-63.5 169.5q-12 34 24 34h96q20 0 30 -8t18 -26q30 -90 65 -180.5t73 -175t78 -161t80 -137.5q38 61 78.5 137.5t79.5 161t75.5 175t68.5 180.5q11 34 48 34h86q36 0 24 -34
q-29 -83 -65 -168.5t-75.5 -169.5t-81.5 -164t-84 -152h248q20 0 28 -8t8 -28v-54q0 -20 -8 -28t-28 -8h-324v-158h324q20 0 28 -8t8 -28v-54q0 -20 -8 -28t-28 -8h-324v-190q0 -20 -8 -28t-28 -8h-88q-20 0 -28 8t-8 28v190h-324q-20 0 -28 8t-8 28v54q0 20 8 28t28 8h324
v158h-324z" />
    <glyph glyph-name="brokenbar" unicode="&#xa6;" horiz-adv-x="616" 
d="M276 852q-20 0 -28 8t-8 28v558q0 20 8 28t28 8h64q20 0 28 -8t8 -28v-558q0 -20 -8 -28t-28 -8h-64zM276 -196q-20 0 -28 8t-8 28v558q0 20 8 28t28 8h64q20 0 28 -8t8 -28v-558q0 -20 -8 -28t-28 -8h-64z" />
    <glyph glyph-name="section" unicode="&#xa7;" horiz-adv-x="984" 
d="M542 832q40 -13 82 -28.5t81 -35.5t74 -45.5t61 -59.5t41 -77t15 -98q0 -101 -48.5 -171t-131.5 -109q53 -38 87.5 -92.5t34.5 -135.5q0 -72 -29 -130t-81.5 -98.5t-127.5 -62t-166 -21.5q-109 0 -188 26t-130 62q-28 20 -10 50l34 50q20 32 48 10q47 -32 108 -52
t144 -20q67 0 114.5 14t77 38.5t43 57t13.5 70.5q0 45 -17 76t-48.5 54t-75.5 40.5t-97 35.5q-63 22 -126 47.5t-114 64.5t-82.5 94.5t-31.5 137.5q0 100 48.5 170.5t131.5 109.5q-54 36 -88 91.5t-34 138.5q0 71 27 128.5t77 98t120.5 62t157.5 21.5q97 0 171 -23.5
t121 -56.5q28 -20 10 -50l-34 -50q-20 -32 -48 -10q-42 27 -98 45.5t-128 18.5q-62 0 -105 -14t-70 -38t-39 -56.5t-12 -69.5q0 -46 16.5 -77t47.5 -54t75 -40.5t99 -36.5zM746 474q0 49 -19.5 85t-53.5 63t-79 47t-96 37q-30 9 -60 20.5t-60 23.5q-32 -13 -56.5 -36
t-41 -51.5t-25.5 -61t-9 -63.5q0 -50 19.5 -85.5t53.5 -62.5t79 -47t96 -37q30 -11 60 -21.5t60 -22.5q31 13 56 36t41.5 51.5t25.5 60.5t9 64z" />
    <glyph glyph-name="dieresis" unicode="&#xa8;" horiz-adv-x="752" 
d="M296 1234q0 -42 -25.5 -71t-72.5 -29t-72.5 29t-25.5 71t25.5 71t72.5 29t72.5 -29t25.5 -71zM652 1234q0 -42 -25.5 -71t-72.5 -29t-72.5 29t-25.5 71t25.5 71t72.5 29t72.5 -29t25.5 -71z" />
    <glyph glyph-name="copyright" unicode="&#xa9;" horiz-adv-x="1584" 
d="M1042 332q-50 -41 -111 -59.5t-129 -18.5q-98 0 -167 35t-113.5 92.5t-65 130.5t-20.5 150t20.5 150.5t65 130.5t114.5 92t168 35q65 0 122.5 -17t105.5 -53q28 -22 6 -50l-28 -36q-12 -15 -23.5 -17t-28.5 9q-32 23 -68.5 35.5t-87.5 12.5q-57 0 -99 -22t-69 -61
t-40.5 -92.5t-13.5 -116.5q0 -62 13.5 -115t40.5 -92.5t69 -62t99 -22.5q56 0 95.5 14.5t74.5 41.5q15 12 26 10.5t22 -16.5l28 -36q21 -31 -6 -52zM792 1236q-121 0 -224.5 -44t-180 -121t-120 -182t-43.5 -227t43.5 -227t120 -182t180 -121t224.5 -44t224.5 44t180 121
t120 182t43.5 227t-43.5 227t-120 182t-180 121t-224.5 44zM792 -20q-96 0 -184.5 23.5t-164.5 67.5t-138 105.5t-105.5 137t-67.5 163.5t-24 185q0 96 24 184.5t67.5 164t105.5 137t138 105.5t164 67.5t185 23.5t185 -23.5t164 -67.5t138 -105.5t105.5 -137t67.5 -164
t24 -184.5t-24 -184.5t-67.5 -164t-105.5 -137t-138 -105.5t-164.5 -67.5t-184.5 -23.5z" />
    <glyph glyph-name="ordfeminine" unicode="&#xaa;" horiz-adv-x="678" 
d="M518 756q-20 0 -28 8t-8 28v50q-15 -19 -34 -37t-44.5 -32.5t-58 -23.5t-75.5 -9q-56 0 -99.5 16t-73.5 44t-45.5 66t-15.5 82q0 47 17.5 87t52.5 69t87.5 45.5t122.5 16.5q50 0 90.5 -8t67.5 -20v52q0 28 -6 57t-22.5 52.5t-47.5 38t-80 14.5q-99 0 -172 -58
q-17 -11 -27.5 -9t-22.5 19l-18 26q-19 31 8 52q44 33 104.5 53.5t137.5 20.5q72 0 124 -18t85 -51t49 -78.5t16 -100.5v-416q0 -20 -8 -28t-28 -8h-48zM292 846q53 0 101 22.5t81 75.5v100q-14 7 -32.5 11t-38 6.5t-38 3.5t-31.5 1q-90 0 -129 -31.5t-39 -82.5q0 -19 6 -38
t20.5 -34t38.5 -24.5t61 -9.5z" />
    <glyph glyph-name="guillemotleft" unicode="&#xab;" horiz-adv-x="946" 
d="M452 224q8 -11 8 -22q0 -16 -18 -28l-36 -22q-11 -8 -24 -8t-28 18l-248 330q-12 15 -12 30t12 30l248 330q15 18 28 18t24 -8l36 -22q18 -12 18 -28q0 -11 -8 -22l-196 -298zM842 224q8 -11 8 -22q0 -16 -18 -28l-36 -22q-11 -8 -24 -8t-28 18l-248 330q-12 15 -12 30
t12 30l248 330q15 18 28 18t24 -8l36 -22q18 -12 18 -28q0 -11 -8 -22l-196 -298z" />
    <glyph glyph-name="logicalnot" unicode="&#xac;" 
d="M928 36q0 -20 -8 -28t-28 -8h-66q-20 0 -28 8t-8 28v380h-658q-20 0 -28 8t-8 28v56q0 20 8 28t28 8h760q20 0 28 -8t8 -28v-472z" />
    <glyph glyph-name="uni00AD" unicode="&#xad;" horiz-adv-x="678" 
d="M142 496q-20 0 -28 8t-8 28v76q0 20 8 28t28 8h394q20 0 28 -8t8 -28v-76q0 -20 -8 -28t-28 -8h-394z" />
    <glyph glyph-name="registered" unicode="&#xae;" horiz-adv-x="1228" 
d="M1068 908q0 97 -35 181.5t-96 146t-144 97t-179 35.5t-179 -35.5t-144 -97t-96 -146t-35 -181.5q0 -98 35 -182t96 -145.5t144 -97t179 -35.5t179 35.5t144 97t96 145.5t35 182zM1160 908q0 -116 -42 -216t-115.5 -173.5t-173.5 -116t-215 -42.5q-116 0 -215.5 42.5
t-173 116t-115.5 173.5t-42 216q0 115 42 215.5t115.5 174t173 116t215.5 42.5q115 0 215 -42.5t173.5 -116t115.5 -174t42 -215.5zM454 602q-20 0 -28 8t-8 28v542q0 20 8 28t28 8h156q64 0 109 -15t73.5 -40.5t41 -60t12.5 -72.5q0 -60 -32 -105t-100 -65
q51 -44 88.5 -105t61.5 -117q15 -34 -22 -34h-44q-21 0 -31.5 7t-18.5 27q-20 47 -54.5 101t-85.5 99h-82v-198q0 -20 -8 -28t-28 -8h-36zM526 918h84q34 0 58 8.5t38.5 23t21 34t6.5 42.5q0 21 -6 40t-20 34t-37 23.5t-57 8.5h-88v-214z" />
    <glyph glyph-name="macron" unicode="&#xaf;" horiz-adv-x="676" 
d="M540 1262q20 0 28 -8t8 -28v-40q0 -20 -8 -28t-28 -8h-404q-20 0 -28 8t-8 28v40q0 20 8 28t28 8h404z" />
    <glyph glyph-name="degree" unicode="&#xb0;" horiz-adv-x="704" 
d="M632 1068q0 -59 -21.5 -109.5t-59 -87.5t-88.5 -58t-111 -21t-111.5 21t-89 58t-58.5 87.5t-21 109.5t21 109.5t58.5 87.5t89 58t111.5 21t111 -21t88.5 -58t59 -87.5t21.5 -109.5zM188 1068q0 -37 12 -67.5t34 -53t52 -35t66 -12.5t66 12.5t52 35t34 53t12 67.5
t-12 67.5t-34 53t-52 35t-66 12.5t-66 -12.5t-52 -35t-34 -53t-12 -67.5z" />
    <glyph glyph-name="plusminus" unicode="&#xb1;" 
d="M132 0q-20 0 -28 8t-8 28v56q0 20 8 28t28 8h800q20 0 28 -8t8 -28v-56q0 -20 -8 -28t-28 -8h-800zM132 596q-20 0 -28 8t-8 28v56q0 20 8 28t28 8h332v296q0 20 8 28t28 8h64q20 0 28 -8t8 -28v-296h332q20 0 28 -8t8 -28v-56q0 -20 -8 -28t-28 -8h-332v-296
q0 -20 -8 -28t-28 -8h-64q-20 0 -28 8t-8 28v296h-332z" />
    <glyph glyph-name="twosuperior" unicode="&#xb2;" horiz-adv-x="700" 
d="M106 618q0 59 16.5 106t46 86t70 72.5t89.5 65.5q26 17 50.5 34t43 36.5t29.5 44t11 57.5q0 48 -28.5 78t-99.5 30q-41 0 -76 -10.5t-64 -27.5q-18 -11 -29 -8t-23 20l-18 28q-19 32 10 50q35 23 85.5 39.5t118.5 16.5q66 0 114 -17t79 -46.5t46 -69t15 -85.5
q0 -53 -17 -91t-44.5 -68t-62 -54t-68.5 -47q-24 -17 -51.5 -37.5t-50.5 -45.5t-38.5 -54t-15.5 -61h322q20 0 28 -8t8 -28v-32q0 -20 -8 -28t-28 -8h-424q-20 0 -28 8t-8 28v26z" />
    <glyph glyph-name="threesuperior" unicode="&#xb3;" horiz-adv-x="700" 
d="M596 792q0 -51 -17.5 -96t-52.5 -79t-88.5 -53.5t-125.5 -19.5q-68 0 -118.5 16t-85.5 42q-29 20 -10 52l18 28q12 17 23 20t29 -8q27 -18 63 -30t81 -12q77 0 115.5 38.5t38.5 101.5q0 30 -9 55.5t-29.5 43.5t-53.5 28.5t-82 10.5h-2q-15 0 -23 3.5t-17 14.5l-14 16
q-12 15 -13 27t13 27l170 202h-252q-20 0 -28 8t-8 28v32q0 20 8 28t28 8h366q20 0 28 -8t8 -28v-8q0 -20 -5 -34.5t-17 -29.5l-74 -98q-8 -10 -19 -22.5t-23 -25.5t-24 -25t-22 -21q55 -5 97 -24t70.5 -49.5t42.5 -71t14 -87.5z" />
    <glyph glyph-name="acute" unicode="&#xb4;" horiz-adv-x="584" 
d="M374 1388q8 6 14 8t12 2t13 -3t13 -11l34 -42q10 -13 10 -26t-14 -24l-260 -196q-15 -12 -26 -12q-13 0 -26 16l-22 28q-10 13 -10 22q0 8 4 14t12 14z" />
    <glyph glyph-name="mu" unicode="&#xb5;" horiz-adv-x="1070" 
d="M190 -400q-20 0 -28 8t-8 28v1288q0 20 8 28t28 8h84q20 0 28 -8t8 -28v-566q0 -43 9 -87t31.5 -80t62 -58.5t101.5 -22.5q30 0 62.5 6.5t65 21.5t62.5 39.5t56 60.5v686q0 20 8 28t28 8h84q20 0 28 -8t8 -28v-888q0 -20 -8 -28t-28 -8h-74q-20 0 -28 8t-8 28v80
q-19 -25 -46.5 -49t-62.5 -43.5t-77.5 -31.5t-91.5 -12q-65 0 -111 20t-81 52q5 -35 7.5 -83.5t2.5 -110.5v-222q0 -20 -8 -28t-28 -8h-84z" />
    <glyph glyph-name="paragraph" unicode="&#xb6;" horiz-adv-x="1108" 
d="M772 -240q-20 0 -28 8t-8 28v1414h-182v-1414q0 -20 -8 -28t-28 -8h-64q-20 0 -28 8t-8 28v878q-86 10 -146 39t-98.5 72t-56 98t-17.5 117q0 68 21.5 127.5t70.5 103t127.5 68.5t192.5 25h480q20 0 28 -8t8 -28v-42q0 -20 -8 -28t-28 -8h-120v-1414q0 -20 -8 -28t-28 -8
h-64z" />
    <glyph glyph-name="periodcentered" unicode="&#xb7;" horiz-adv-x="400" 
d="M316 574q0 -50 -31.5 -84t-84.5 -34t-84.5 34t-31.5 84t31.5 84t84.5 34t84.5 -34t31.5 -84z" />
    <glyph glyph-name="cedilla" unicode="&#xb8;" horiz-adv-x="546" 
d="M260 -102q11 3 24.5 4.5t27.5 1.5q66 0 100 -35t34 -91q0 -31 -11 -58.5t-33.5 -48.5t-57 -33t-80.5 -12q-33 0 -69.5 7t-66.5 27q-29 19 -12 48l8 14q11 18 20.5 20.5t27.5 -8.5t40 -17.5t48 -6.5q42 0 64 17t22 47q0 23 -17.5 40.5t-68.5 17.5q-12 0 -24.5 -1t-23.5 -3
q-14 -3 -21.5 -1t-18.5 11l-2 2q-17 14 -6 34l68 126h82z" />
    <glyph glyph-name="onesuperior" unicode="&#xb9;" horiz-adv-x="700" 
d="M188 556q-20 0 -28 8t-8 28v32q0 20 8 28t28 8h134v528l-120 -70q-17 -9 -28 -7t-20 19l-14 26q-17 31 14 50l166 100q30 18 66 18h28q20 0 28 -8t8 -28v-628h124q20 0 28 -8t8 -28v-32q0 -20 -8 -28t-28 -8h-386z" />
    <glyph glyph-name="ordmasculine" unicode="&#xba;" horiz-adv-x="740" 
d="M188 1098q0 -50 9.5 -95.5t31 -80t56.5 -55.5t85 -21t85 21t56.5 55.5t31 80t9.5 95.5q0 49 -9.5 95t-31 80.5t-56.5 55.5t-85 21t-85 -21t-56.5 -55.5t-31 -80.5t-9.5 -95zM684 1098q0 -69 -18.5 -133.5t-57 -114.5t-97.5 -80t-141 -30t-141 30t-97.5 80t-57 114.5
t-18.5 133.5t18.5 133.5t57 114.5t97.5 80t141 30t141 -30t97.5 -80t57 -114.5t18.5 -133.5z" />
    <glyph glyph-name="guillemotright" unicode="&#xbb;" horiz-adv-x="946" 
d="M104 820q-8 11 -8 22q0 16 18 28l36 22q11 8 24 8t28 -18l248 -330q12 -15 12 -30t-12 -30l-248 -330q-15 -18 -28 -18t-24 8l-36 22q-18 12 -18 28q0 11 8 22l196 298zM494 820q-8 11 -8 22q0 16 18 28l36 22q11 8 24 8t28 -18l248 -330q12 -15 12 -30t-12 -30
l-248 -330q-15 -18 -28 -18t-24 8l-36 22q-18 12 -18 28q0 11 8 22l196 298z" />
    <glyph glyph-name="onequarter" unicode="&#xbc;" horiz-adv-x="1676" 
d="M470 30q-12 -17 -24 -23.5t-32 -6.5h-60q-11 0 -15.5 5t-4.5 13q0 6 2.5 10.5t5.5 9.5l864 1256q12 17 24 23.5t32 6.5h60q11 0 15.5 -5t4.5 -13q0 -6 -2.5 -10.5t-5.5 -9.5zM188 556q-20 0 -28 8t-8 28v32q0 20 8 28t28 8h134v528l-120 -70q-17 -9 -28 -7t-20 19l-14 26
q-17 31 14 50l166 100q30 18 66 18h28q20 0 28 -8t8 -28v-628h124q20 0 28 -8t8 -28v-32q0 -20 -8 -28t-28 -8h-386zM1076 164q-20 0 -28 8t-8 28v14q0 18 4 34.5t12 33.5l238 454q9 18 20.5 25t31.5 7h58q17 0 22.5 -8.5t-2.5 -23.5l-250 -474h232v248q0 20 8 28t28 8h50
q20 0 28 -8t8 -28v-248h68q20 0 28 -8t8 -28v-26q0 -20 -8 -28t-28 -8h-68v-128q0 -20 -8 -28t-28 -8h-50q-20 0 -28 8t-8 28v128h-330z" />
    <glyph glyph-name="onehalf" unicode="&#xbd;" horiz-adv-x="1676" 
d="M470 30q-12 -17 -24 -23.5t-32 -6.5h-60q-11 0 -15.5 5t-4.5 13q0 6 2.5 10.5t5.5 9.5l864 1256q12 17 24 23.5t32 6.5h60q11 0 15.5 -5t4.5 -13q0 -6 -2.5 -10.5t-5.5 -9.5zM188 556q-20 0 -28 8t-8 28v32q0 20 8 28t28 8h134v528l-120 -70q-17 -9 -28 -7t-20 19l-14 26
q-17 31 14 50l166 100q30 18 66 18h28q20 0 28 -8t8 -28v-628h124q20 0 28 -8t8 -28v-32q0 -20 -8 -28t-28 -8h-386zM1082 62q0 59 16.5 106t46 86t70 72.5t89.5 65.5q26 17 50.5 34t43 36.5t29.5 44t11 57.5q0 48 -28.5 78t-99.5 30q-41 0 -76 -10.5t-64 -27.5
q-18 -11 -29 -8t-23 20l-18 28q-19 32 10 50q35 23 85.5 39.5t118.5 16.5q66 0 114 -17t79 -46.5t46 -69t15 -85.5q0 -53 -17 -91t-44.5 -68t-62 -54t-68.5 -47q-24 -17 -51.5 -37.5t-50.5 -45.5t-38.5 -54t-15.5 -61h322q20 0 28 -8t8 -28v-32q0 -20 -8 -28t-28 -8h-424
q-20 0 -28 8t-8 28v26z" />
    <glyph glyph-name="threequarters" unicode="&#xbe;" horiz-adv-x="1676" 
d="M470 30q-12 -17 -24 -23.5t-32 -6.5h-60q-11 0 -15.5 5t-4.5 13q0 6 2.5 10.5t5.5 9.5l864 1256q12 17 24 23.5t32 6.5h60q11 0 15.5 -5t4.5 -13q0 -6 -2.5 -10.5t-5.5 -9.5zM596 792q0 -51 -17.5 -96t-52.5 -79t-88.5 -53.5t-125.5 -19.5q-68 0 -118.5 16t-85.5 42
q-29 20 -10 52l18 28q12 17 23 20t29 -8q27 -18 63 -30t81 -12q77 0 115.5 38.5t38.5 101.5q0 30 -9 55.5t-29.5 43.5t-53.5 28.5t-82 10.5h-2q-15 0 -23 3.5t-17 14.5l-14 16q-12 15 -13 27t13 27l170 202h-252q-20 0 -28 8t-8 28v32q0 20 8 28t28 8h366q20 0 28 -8t8 -28
v-8q0 -20 -5 -34.5t-17 -29.5l-74 -98q-8 -10 -19 -22.5t-23 -25.5t-24 -25t-22 -21q55 -5 97 -24t70.5 -49.5t42.5 -71t14 -87.5zM1076 164q-20 0 -28 8t-8 28v14q0 18 4 34.5t12 33.5l238 454q9 18 20.5 25t31.5 7h58q17 0 22.5 -8.5t-2.5 -23.5l-250 -474h232v248
q0 20 8 28t28 8h50q20 0 28 -8t8 -28v-248h68q20 0 28 -8t8 -28v-26q0 -20 -8 -28t-28 -8h-68v-128q0 -20 -8 -28t-28 -8h-50q-20 0 -28 8t-8 28v128h-330z" />
    <glyph glyph-name="questiondown" unicode="&#xbf;" horiz-adv-x="754" 
d="M744 -252q-26 -25 -60.5 -48t-78 -41t-96 -28.5t-115.5 -10.5q-95 0 -165 24.5t-116.5 67t-69.5 100t-23 124.5q0 70 22 122t56.5 93t76.5 73.5t81 63.5q40 32 69 61.5t48.5 61.5t31 69.5t17.5 87.5q3 20 11.5 28t28.5 8h10q18 0 28.5 -8t13.5 -28q5 -26 7.5 -50.5
t2.5 -45.5q0 -55 -15 -97t-40.5 -77t-59.5 -65t-73 -61q-34 -26 -61.5 -50.5t-47 -51.5t-30.5 -58t-11 -70q0 -40 12.5 -74t38.5 -59.5t67 -40t98 -14.5q83 0 149.5 28.5t116.5 69.5q15 12 26.5 10.5t23.5 -16.5l32 -44q20 -28 -6 -54zM570 862q0 -50 -31.5 -84t-84.5 -34
t-84.5 34t-31.5 84t31.5 84t84.5 34t84.5 -34t31.5 -84z" />
    <glyph glyph-name="Agrave" unicode="&#xc0;" horiz-adv-x="1218" 
d="M86 0q-30 0 -30 20q0 6 1 11.5t3 10.5q103 349 215.5 661.5t244.5 588.5q9 18 20.5 25t31.5 7h72q20 0 31.5 -7t20.5 -25q127 -269 244.5 -584t215.5 -658q3 -11 4.5 -16t1.5 -10q0 -24 -32 -24h-94q-38 0 -46 34q-26 92 -48.5 169t-45.5 157h-582q-24 -80 -46.5 -158.5
t-47.5 -171.5q-5 -18 -14.5 -24t-29.5 -6h-90zM852 492q-59 183 -121 347.5t-127 312.5q-65 -148 -126 -312.5t-120 -347.5h494zM720 1508q8 -8 12 -14t4 -14q0 -9 -10 -22l-22 -28q-13 -16 -26 -16q-11 0 -26 12l-260 196q-14 11 -14 24t10 26l34 42q6 8 13 11t13 3t12 -2
t14 -8z" />
    <glyph glyph-name="Aacute" unicode="&#xc1;" horiz-adv-x="1218" 
d="M86 0q-30 0 -30 20q0 6 1 11.5t3 10.5q103 349 215.5 661.5t244.5 588.5q9 18 20.5 25t31.5 7h72q20 0 31.5 -7t20.5 -25q127 -269 244.5 -584t215.5 -658q3 -11 4.5 -16t1.5 -10q0 -24 -32 -24h-94q-38 0 -46 34q-26 92 -48.5 169t-45.5 157h-582q-24 -80 -46.5 -158.5
t-47.5 -171.5q-5 -18 -14.5 -24t-29.5 -6h-90zM852 492q-59 183 -121 347.5t-127 312.5q-65 -148 -126 -312.5t-120 -347.5h494zM734 1718q8 6 14 8t12 2t13 -3t13 -11l34 -42q10 -13 10 -26t-14 -24l-260 -196q-15 -12 -26 -12q-13 0 -26 16l-22 28q-10 13 -10 22q0 8 4 14
t12 14z" />
    <glyph glyph-name="Acircumflex" unicode="&#xc2;" horiz-adv-x="1218" 
d="M86 0q-30 0 -30 20q0 6 1 11.5t3 10.5q103 349 215.5 661.5t244.5 588.5q9 18 20.5 25t31.5 7h72q20 0 31.5 -7t20.5 -25q127 -269 244.5 -584t215.5 -658q3 -11 4.5 -16t1.5 -10q0 -24 -32 -24h-94q-38 0 -46 34q-26 92 -48.5 169t-45.5 157h-582q-24 -80 -46.5 -158.5
t-47.5 -171.5q-5 -18 -14.5 -24t-29.5 -6h-90zM852 492q-59 183 -121 347.5t-127 312.5q-65 -148 -126 -312.5t-120 -347.5h494zM416 1444q-12 -8 -19 -10t-13 -2q-17 0 -30 16l-16 20q-6 8 -8 13t-2 11t3.5 13t12.5 13l228 166q15 12 32 12t32 -12l228 -166q9 -6 12.5 -13
t3.5 -13t-2 -11t-8 -13l-16 -20q-13 -16 -30 -16q-6 0 -13 2t-19 10l-188 116z" />
    <glyph glyph-name="Atilde" unicode="&#xc3;" horiz-adv-x="1218" 
d="M86 0q-30 0 -30 20q0 6 1 11.5t3 10.5q103 349 215.5 661.5t244.5 588.5q9 18 20.5 25t31.5 7h72q20 0 31.5 -7t20.5 -25q127 -269 244.5 -584t215.5 -658q3 -11 4.5 -16t1.5 -10q0 -24 -32 -24h-94q-38 0 -46 34q-26 92 -48.5 169t-45.5 157h-582q-24 -80 -46.5 -158.5
t-47.5 -171.5q-5 -18 -14.5 -24t-29.5 -6h-90zM852 492q-59 183 -121 347.5t-127 312.5q-65 -148 -126 -312.5t-120 -347.5h494zM722 1458q-34 0 -64.5 10.5t-59 23.5t-55 23.5t-51.5 10.5q-26 0 -49.5 -11t-44.5 -31q-14 -14 -28 -14q-16 0 -30 14l-14 12q-14 11 -14 26
q0 5 1.5 11.5t6.5 14.5q10 18 26.5 35t38.5 30.5t47.5 22t53.5 8.5q34 0 64.5 -10.5t59 -23.5t54.5 -23.5t52 -10.5t49.5 11t44.5 31q14 14 28 14q16 0 30 -14l14 -12q14 -11 14 -26q0 -5 -1.5 -11.5t-6.5 -14.5q-10 -18 -26.5 -35.5t-38.5 -31t-47.5 -21.5t-53.5 -8z" />
    <glyph glyph-name="Adieresis" unicode="&#xc4;" horiz-adv-x="1218" 
d="M86 0q-30 0 -30 20q0 6 1 11.5t3 10.5q103 349 215.5 661.5t244.5 588.5q9 18 20.5 25t31.5 7h72q20 0 31.5 -7t20.5 -25q127 -269 244.5 -584t215.5 -658q3 -11 4.5 -16t1.5 -10q0 -24 -32 -24h-94q-38 0 -46 34q-26 92 -48.5 169t-45.5 157h-582q-24 -80 -46.5 -158.5
t-47.5 -171.5q-5 -18 -14.5 -24t-29.5 -6h-90zM852 492q-59 183 -121 347.5t-127 312.5q-65 -148 -126 -312.5t-120 -347.5h494zM524 1564q0 -42 -25.5 -71t-72.5 -29t-72.5 29t-25.5 71t25.5 71t72.5 29t72.5 -29t25.5 -71zM880 1564q0 -42 -25.5 -71t-72.5 -29t-72.5 29
t-25.5 71t25.5 71t72.5 29t72.5 -29t25.5 -71z" />
    <glyph glyph-name="Aring" unicode="&#xc5;" horiz-adv-x="1218" 
d="M84 0q-35 0 -26 34q98 344 211 653t237 575q-50 24 -81 71.5t-31 112.5q0 46 17 84t45.5 65t66.5 42t81 15t81 -15t66.5 -42t45.5 -65t17 -84q0 -62 -29.5 -108t-76.5 -72q124 -266 238 -576t214 -656q9 -34 -26 -34h-98q-20 0 -30 8t-16 26q-23 85 -47 165.5t-47 160.5
h-582q-24 -80 -46.5 -160.5t-45.5 -165.5q-6 -18 -16 -26t-30 -8h-92zM852 492q-59 186 -121 355.5t-127 320.5q-65 -151 -126 -320.5t-120 -355.5h494zM486 1446q0 -56 33.5 -89t84.5 -33t84.5 33t33.5 89t-33.5 89t-84.5 33t-84.5 -33t-33.5 -89z" />
    <glyph glyph-name="AE" unicode="&#xc6;" horiz-adv-x="1770" 
d="M914 0q-20 0 -28 8t-8 28v324h-528q-47 -80 -92 -161.5t-92 -166.5q-9 -18 -20.5 -25t-31.5 -7h-104q-17 0 -22 8.5t4 23.5q195 353 392 673.5t398 590.5q12 15 25 21.5t33 6.5h782q20 0 28 -8t8 -28v-64q0 -20 -8 -28t-28 -8h-580v-432h516q20 0 28 -8t8 -28v-64
q0 -20 -8 -28t-28 -8h-516v-484h580q20 0 28 -8t8 -28v-64q0 -20 -8 -28t-28 -8h-708zM878 1198q-54 -76 -114 -164t-120 -180t-117 -184.5t-105 -177.5h456v706z" />
    <glyph glyph-name="Ccedilla" unicode="&#xc7;" horiz-adv-x="1194" 
d="M678 -102q11 3 24.5 4.5t27.5 1.5q66 0 100 -35t34 -91q0 -31 -11 -58.5t-33.5 -48.5t-57 -33t-80.5 -12q-33 0 -69.5 7t-66.5 27q-29 19 -12 48l8 14q11 18 20.5 20.5t27.5 -8.5t40 -17.5t48 -6.5q42 0 64 17t22 47q0 23 -17.5 40.5t-68.5 17.5q-12 0 -24.5 -1t-23.5 -3
q-14 -3 -21.5 -1t-18.5 11l-2 2q-17 14 -6 34l58 108q-100 6 -179 35t-140 77t-104.5 112t-71 138t-40.5 155t-13 165q0 86 14 170t44 159.5t77 139.5t112.5 111t151 73.5t193.5 26.5q115 0 216 -31t182 -99q27 -24 4 -52l-46 -58q-12 -17 -24.5 -17.5t-27.5 11.5
q-59 47 -136 75.5t-172 28.5q-111 0 -190.5 -41t-130.5 -113t-75 -170.5t-24 -213.5t24 -214t75 -172t130.5 -114.5t190.5 -41.5q100 0 182 32.5t144 85.5q27 24 48 -6l46 -58q23 -28 -4 -52q-77 -69 -172.5 -102.5t-201.5 -39.5z" />
    <glyph glyph-name="Egrave" unicode="&#xc8;" horiz-adv-x="1054" 
d="M198 0q-20 0 -28 8t-8 28v1252q0 20 8 28t28 8h708q20 0 28 -8t8 -28v-64q0 -20 -8 -28t-28 -8h-580v-432h516q20 0 28 -8t8 -28v-64q0 -20 -8 -28t-28 -8h-516v-484h580q20 0 28 -8t8 -28v-64q0 -20 -8 -28t-28 -8h-708zM668 1508q8 -8 12 -14t4 -14q0 -9 -10 -22
l-22 -28q-13 -16 -26 -16q-11 0 -26 12l-260 196q-14 11 -14 24t10 26l34 42q6 8 13 11t13 3t12 -2t14 -8z" />
    <glyph glyph-name="Eacute" unicode="&#xc9;" horiz-adv-x="1054" 
d="M198 0q-20 0 -28 8t-8 28v1252q0 20 8 28t28 8h708q20 0 28 -8t8 -28v-64q0 -20 -8 -28t-28 -8h-580v-432h516q20 0 28 -8t8 -28v-64q0 -20 -8 -28t-28 -8h-516v-484h580q20 0 28 -8t8 -28v-64q0 -20 -8 -28t-28 -8h-708zM682 1718q8 6 14 8t12 2t13 -3t13 -11l34 -42
q10 -13 10 -26t-14 -24l-260 -196q-15 -12 -26 -12q-13 0 -26 16l-22 28q-10 13 -10 22q0 8 4 14t12 14z" />
    <glyph glyph-name="Ecircumflex" unicode="&#xca;" horiz-adv-x="1054" 
d="M198 0q-20 0 -28 8t-8 28v1252q0 20 8 28t28 8h708q20 0 28 -8t8 -28v-64q0 -20 -8 -28t-28 -8h-580v-432h516q20 0 28 -8t8 -28v-64q0 -20 -8 -28t-28 -8h-516v-484h580q20 0 28 -8t8 -28v-64q0 -20 -8 -28t-28 -8h-708zM364 1444q-12 -8 -19 -10t-13 -2q-17 0 -30 16
l-16 20q-6 8 -8 13t-2 11t3.5 13t12.5 13l228 166q15 12 32 12t32 -12l228 -166q9 -6 12.5 -13t3.5 -13t-2 -11t-8 -13l-16 -20q-13 -16 -30 -16q-6 0 -13 2t-19 10l-188 116z" />
    <glyph glyph-name="Edieresis" unicode="&#xcb;" horiz-adv-x="1054" 
d="M198 0q-20 0 -28 8t-8 28v1252q0 20 8 28t28 8h708q20 0 28 -8t8 -28v-64q0 -20 -8 -28t-28 -8h-580v-432h516q20 0 28 -8t8 -28v-64q0 -20 -8 -28t-28 -8h-516v-484h580q20 0 28 -8t8 -28v-64q0 -20 -8 -28t-28 -8h-708zM472 1564q0 -42 -25.5 -71t-72.5 -29t-72.5 29
t-25.5 71t25.5 71t72.5 29t72.5 -29t25.5 -71zM828 1564q0 -42 -25.5 -71t-72.5 -29t-72.5 29t-25.5 71t25.5 71t72.5 29t72.5 -29t25.5 -71z" />
    <glyph glyph-name="Igrave" unicode="&#xcc;" horiz-adv-x="488" 
d="M198 0q-20 0 -28 8t-8 28v1252q0 20 8 28t28 8h92q20 0 28 -8t8 -28v-1252q0 -20 -8 -28t-28 -8h-92zM361 1508q8 -8 12 -14t4 -14q0 -9 -10 -22l-22 -28q-13 -16 -26 -16q-11 0 -26 12l-260 196q-14 11 -14 24t10 26l34 42q6 8 13 11t13 3t12 -2t14 -8z" />
    <glyph glyph-name="Iacute" unicode="&#xcd;" horiz-adv-x="488" 
d="M198 0q-20 0 -28 8t-8 28v1252q0 20 8 28t28 8h92q20 0 28 -8t8 -28v-1252q0 -20 -8 -28t-28 -8h-92zM374 1718q8 6 14 8t12 2t13 -3t13 -11l34 -42q10 -13 10 -26t-14 -24l-260 -196q-15 -12 -26 -12q-13 0 -26 16l-22 28q-10 13 -10 22q0 8 4 14t12 14z" />
    <glyph glyph-name="Icircumflex" unicode="&#xce;" horiz-adv-x="488" 
d="M198 0q-20 0 -28 8t-8 28v1252q0 20 8 28t28 8h92q20 0 28 -8t8 -28v-1252q0 -20 -8 -28t-28 -8h-92zM57 1444q-12 -8 -19 -10t-13 -2q-17 0 -30 16l-16 20q-6 8 -8 13t-2 11t3.5 13t12.5 13l228 166q15 12 32 12t32 -12l228 -166q9 -6 12.5 -13t3.5 -13t-2 -11t-8 -13
l-16 -20q-13 -16 -30 -16q-6 0 -13 2t-19 10l-188 116z" />
    <glyph glyph-name="Idieresis" unicode="&#xcf;" horiz-adv-x="488" 
d="M198 0q-20 0 -28 8t-8 28v1252q0 20 8 28t28 8h92q20 0 28 -8t8 -28v-1252q0 -20 -8 -28t-28 -8h-92zM165 1564q0 -42 -25.5 -71t-72.5 -29t-72.5 29t-25.5 71t25.5 71t72.5 29t72.5 -29t25.5 -71zM521 1564q0 -42 -25.5 -71t-72.5 -29t-72.5 29t-25.5 71t25.5 71
t72.5 29t72.5 -29t25.5 -71z" />
    <glyph glyph-name="Eth" unicode="&#xd0;" horiz-adv-x="1302" 
d="M70 598q-20 0 -28 8t-8 28v56q0 20 8 28t28 8h104v562q0 20 8 28t28 8h364q115 0 207.5 -25.5t163 -71.5t121 -108t82.5 -136t47 -155.5t15 -165.5t-15 -165.5t-47 -155.5t-82.5 -136t-121 -108t-163 -71.5t-207.5 -25.5h-364q-20 0 -28 8t-8 28v562h-104zM338 1188v-462
h306q20 0 28 -8t8 -28v-56q0 -20 -8 -28t-28 -8h-306v-462h228q126 0 216 39t148 108.5t85 166t27 212.5q0 115 -27 212t-85 166.5t-148 108.5t-216 39h-228z" />
    <glyph glyph-name="Ntilde" unicode="&#xd1;" horiz-adv-x="1340" 
d="M198 0q-20 0 -28 8t-8 28v1252q0 20 8 28t28 8h112q20 0 32.5 -6.5t21.5 -23.5l664 -1086v1080q0 20 8 28t28 8h78q20 0 28 -8t8 -28v-1252q0 -20 -8 -28t-28 -8h-112q-20 0 -32.5 6.5t-21.5 23.5l-664 1086v-1080q0 -20 -8 -28t-28 -8h-78zM788 1458q-34 0 -64.5 10.5
t-59 23.5t-55 23.5t-51.5 10.5q-26 0 -49.5 -11t-44.5 -31q-14 -14 -28 -14q-16 0 -30 14l-14 12q-14 11 -14 26q0 5 1.5 11.5t6.5 14.5q10 18 26.5 35t38.5 30.5t47.5 22t53.5 8.5q34 0 64.5 -10.5t59 -23.5t54.5 -23.5t52 -10.5t49.5 11t44.5 31q14 14 28 14q16 0 30 -14
l14 -12q14 -11 14 -26q0 -5 -1.5 -11.5t-6.5 -14.5q-10 -18 -26.5 -35.5t-38.5 -31t-47.5 -21.5t-53.5 -8z" />
    <glyph glyph-name="Ograve" unicode="&#xd2;" horiz-adv-x="1388" 
d="M260 662q0 -115 27 -214.5t81 -173t135.5 -116t190.5 -42.5t190.5 42.5t135.5 116t81 173t27 214.5t-27 214.5t-81 173t-135.5 116t-190.5 42.5t-190.5 -42.5t-135.5 -116t-81 -173t-27 -214.5zM1296 662q0 -141 -40.5 -265t-117.5 -217t-189 -146.5t-255 -53.5
q-146 0 -258 53t-188.5 145.5t-116 216.5t-39.5 267q0 141 40.5 265t117.5 217t189 146.5t255 53.5q145 0 257.5 -53t189 -145.5t116 -217t39.5 -266.5zM802 1508q8 -8 12 -14t4 -14q0 -9 -10 -22l-22 -28q-13 -16 -26 -16q-11 0 -26 12l-260 196q-14 11 -14 24t10 26l34 42
q6 8 13 11t13 3t12 -2t14 -8z" />
    <glyph glyph-name="Oacute" unicode="&#xd3;" horiz-adv-x="1388" 
d="M260 662q0 -115 27 -214.5t81 -173t135.5 -116t190.5 -42.5t190.5 42.5t135.5 116t81 173t27 214.5t-27 214.5t-81 173t-135.5 116t-190.5 42.5t-190.5 -42.5t-135.5 -116t-81 -173t-27 -214.5zM1296 662q0 -141 -40.5 -265t-117.5 -217t-189 -146.5t-255 -53.5
q-146 0 -258 53t-188.5 145.5t-116 216.5t-39.5 267q0 141 40.5 265t117.5 217t189 146.5t255 53.5q145 0 257.5 -53t189 -145.5t116 -217t39.5 -266.5zM816 1718q8 6 14 8t12 2t13 -3t13 -11l34 -42q10 -13 10 -26t-14 -24l-260 -196q-15 -12 -26 -12q-13 0 -26 16l-22 28
q-10 13 -10 22q0 8 4 14t12 14z" />
    <glyph glyph-name="Ocircumflex" unicode="&#xd4;" horiz-adv-x="1388" 
d="M260 662q0 -115 27 -214.5t81 -173t135.5 -116t190.5 -42.5t190.5 42.5t135.5 116t81 173t27 214.5t-27 214.5t-81 173t-135.5 116t-190.5 42.5t-190.5 -42.5t-135.5 -116t-81 -173t-27 -214.5zM1296 662q0 -141 -40.5 -265t-117.5 -217t-189 -146.5t-255 -53.5
q-146 0 -258 53t-188.5 145.5t-116 216.5t-39.5 267q0 141 40.5 265t117.5 217t189 146.5t255 53.5q145 0 257.5 -53t189 -145.5t116 -217t39.5 -266.5zM498 1444q-12 -8 -19 -10t-13 -2q-17 0 -30 16l-16 20q-6 8 -8 13t-2 11t3.5 13t12.5 13l228 166q15 12 32 12t32 -12
l228 -166q9 -6 12.5 -13t3.5 -13t-2 -11t-8 -13l-16 -20q-13 -16 -30 -16q-6 0 -13 2t-19 10l-188 116z" />
    <glyph glyph-name="Otilde" unicode="&#xd5;" horiz-adv-x="1388" 
d="M260 662q0 -115 27 -214.5t81 -173t135.5 -116t190.5 -42.5t190.5 42.5t135.5 116t81 173t27 214.5t-27 214.5t-81 173t-135.5 116t-190.5 42.5t-190.5 -42.5t-135.5 -116t-81 -173t-27 -214.5zM1296 662q0 -141 -40.5 -265t-117.5 -217t-189 -146.5t-255 -53.5
q-146 0 -258 53t-188.5 145.5t-116 216.5t-39.5 267q0 141 40.5 265t117.5 217t189 146.5t255 53.5q145 0 257.5 -53t189 -145.5t116 -217t39.5 -266.5zM804 1458q-34 0 -64.5 10.5t-59 23.5t-55 23.5t-51.5 10.5q-26 0 -49.5 -11t-44.5 -31q-14 -14 -28 -14q-16 0 -30 14
l-14 12q-14 11 -14 26q0 5 1.5 11.5t6.5 14.5q10 18 26.5 35t38.5 30.5t47.5 22t53.5 8.5q34 0 64.5 -10.5t59 -23.5t54.5 -23.5t52 -10.5t49.5 11t44.5 31q14 14 28 14q16 0 30 -14l14 -12q14 -11 14 -26q0 -5 -1.5 -11.5t-6.5 -14.5q-10 -18 -26.5 -35.5t-38.5 -31
t-47.5 -21.5t-53.5 -8z" />
    <glyph glyph-name="Odieresis" unicode="&#xd6;" horiz-adv-x="1388" 
d="M260 662q0 -115 27 -214.5t81 -173t135.5 -116t190.5 -42.5t190.5 42.5t135.5 116t81 173t27 214.5t-27 214.5t-81 173t-135.5 116t-190.5 42.5t-190.5 -42.5t-135.5 -116t-81 -173t-27 -214.5zM1296 662q0 -141 -40.5 -265t-117.5 -217t-189 -146.5t-255 -53.5
q-146 0 -258 53t-188.5 145.5t-116 216.5t-39.5 267q0 141 40.5 265t117.5 217t189 146.5t255 53.5q145 0 257.5 -53t189 -145.5t116 -217t39.5 -266.5zM606 1564q0 -42 -25.5 -71t-72.5 -29t-72.5 29t-25.5 71t25.5 71t72.5 29t72.5 -29t25.5 -71zM962 1564
q0 -42 -25.5 -71t-72.5 -29t-72.5 29t-25.5 71t25.5 71t72.5 29t72.5 -29t25.5 -71z" />
    <glyph glyph-name="multiply" unicode="&#xd7;" 
d="M238 96q-14 -14 -26 -14t-26 14l-42 42q-12 12 -12 24t14 26l294 294l-294 294q-14 14 -14 26t12 24l42 42q14 14 26 14t26 -14l294 -294l294 294q14 14 26 14t26 -14l42 -42q12 -12 12 -24t-14 -26l-294 -294l294 -294q14 -14 14 -26t-12 -24l-42 -42q-14 -14 -26 -14
t-26 14l-294 294z" />
    <glyph glyph-name="Oslash" unicode="&#xd8;" horiz-adv-x="1396" 
d="M126 -92q-17 0 -21 8t5 22l158 220q-86 94 -129 223.5t-43 280.5q0 141 40.5 265t117.5 217t189 146.5t255 53.5q101 0 186 -26t154 -74l102 142q11 17 23.5 23.5t32.5 6.5h74q17 0 21 -8t-5 -22l-158 -222q85 -94 128.5 -222.5t43.5 -279.5q0 -141 -40.5 -265
t-117.5 -217t-189 -146.5t-255 -53.5q-103 0 -187.5 26t-152.5 74l-102 -142q-11 -17 -23.5 -23.5t-32.5 -6.5h-74zM442 200q50 -41 114 -62.5t142 -21.5q109 0 190.5 42.5t135.5 116t81 173t27 214.5q0 109 -24 203.5t-74 168.5zM698 1208q-109 0 -190.5 -42.5t-135.5 -116
t-81 -173t-27 -214.5q0 -110 24 -205t72 -167l592 834q-50 39 -113 61.5t-141 22.5z" />
    <glyph glyph-name="Ugrave" unicode="&#xd9;" horiz-adv-x="1272" 
d="M1126 512q0 -129 -33.5 -228.5t-96.5 -167t-154 -102t-206 -34.5t-206 34.5t-154 102t-96.5 167t-33.5 228.5v776q0 20 8 28t28 8h92q20 0 28 -8t8 -28v-782q0 -192 86.5 -290t239.5 -98t239.5 98t86.5 290v782q0 20 8 28t28 8h92q20 0 28 -8t8 -28v-776v0zM752 1508
q8 -8 12 -14t4 -14q0 -9 -10 -22l-22 -28q-13 -16 -26 -16q-11 0 -26 12l-260 196q-14 11 -14 24t10 26l34 42q6 8 13 11t13 3t12 -2t14 -8z" />
    <glyph glyph-name="Uacute" unicode="&#xda;" horiz-adv-x="1272" 
d="M1126 512q0 -129 -33.5 -228.5t-96.5 -167t-154 -102t-206 -34.5t-206 34.5t-154 102t-96.5 167t-33.5 228.5v776q0 20 8 28t28 8h92q20 0 28 -8t8 -28v-782q0 -192 86.5 -290t239.5 -98t239.5 98t86.5 290v782q0 20 8 28t28 8h92q20 0 28 -8t8 -28v-776v0zM766 1718
q8 6 14 8t12 2t13 -3t13 -11l34 -42q10 -13 10 -26t-14 -24l-260 -196q-15 -12 -26 -12q-13 0 -26 16l-22 28q-10 13 -10 22q0 8 4 14t12 14z" />
    <glyph glyph-name="Ucircumflex" unicode="&#xdb;" horiz-adv-x="1272" 
d="M1126 512q0 -129 -33.5 -228.5t-96.5 -167t-154 -102t-206 -34.5t-206 34.5t-154 102t-96.5 167t-33.5 228.5v776q0 20 8 28t28 8h92q20 0 28 -8t8 -28v-782q0 -192 86.5 -290t239.5 -98t239.5 98t86.5 290v782q0 20 8 28t28 8h92q20 0 28 -8t8 -28v-776v0zM448 1444
q-12 -8 -19 -10t-13 -2q-17 0 -30 16l-16 20q-6 8 -8 13t-2 11t3.5 13t12.5 13l228 166q15 12 32 12t32 -12l228 -166q9 -6 12.5 -13t3.5 -13t-2 -11t-8 -13l-16 -20q-13 -16 -30 -16q-6 0 -13 2t-19 10l-188 116z" />
    <glyph glyph-name="Udieresis" unicode="&#xdc;" horiz-adv-x="1272" 
d="M1126 512q0 -129 -33.5 -228.5t-96.5 -167t-154 -102t-206 -34.5t-206 34.5t-154 102t-96.5 167t-33.5 228.5v776q0 20 8 28t28 8h92q20 0 28 -8t8 -28v-782q0 -192 86.5 -290t239.5 -98t239.5 98t86.5 290v782q0 20 8 28t28 8h92q20 0 28 -8t8 -28v-776v0zM556 1564
q0 -42 -25.5 -71t-72.5 -29t-72.5 29t-25.5 71t25.5 71t72.5 29t72.5 -29t25.5 -71zM912 1564q0 -42 -25.5 -71t-72.5 -29t-72.5 29t-25.5 71t25.5 71t72.5 29t72.5 -29t25.5 -71z" />
    <glyph glyph-name="Yacute" unicode="&#xdd;" horiz-adv-x="1072" 
d="M490 0q-20 0 -28 8t-8 28v434q-54 82 -112 180.5t-113.5 205t-105.5 217t-89 217.5q-12 34 24 34h100q37 0 48 -34q34 -95 75 -190.5t84.5 -185t88.5 -170t88 -144.5q42 64 86 144.5t87.5 170t84.5 185t76 190.5q11 34 48 34h90q36 0 24 -34q-39 -107 -89 -217.5
t-105.5 -216.5t-113 -204t-112.5 -180v-436q0 -20 -8 -28t-28 -8h-92zM666 1718q8 6 14 8t12 2t13 -3t13 -11l34 -42q10 -13 10 -26t-14 -24l-260 -196q-15 -12 -26 -12q-13 0 -26 16l-22 28q-10 13 -10 22q0 8 4 14t12 14z" />
    <glyph glyph-name="Thorn" unicode="&#xde;" horiz-adv-x="1090" 
d="M290 1324q20 0 28 -8t8 -28v-200h240q127 0 215.5 -34.5t144 -92.5t81 -133t25.5 -156q0 -83 -26.5 -159.5t-83 -135t-144.5 -93t-210 -34.5h-242v-214q0 -20 -8 -28t-28 -8h-92q-20 0 -28 8t-8 28v1252q0 20 8 28t28 8h92zM864 668q0 58 -15.5 109.5t-51.5 90.5
t-94.5 61.5t-144.5 22.5h-232v-566h232q88 0 146.5 22.5t94 61t50.5 89.5t15 109z" />
    <glyph glyph-name="germandbls" unicode="&#xdf;" horiz-adv-x="1146" 
d="M310 36q0 -20 -8 -28t-28 -8h-84q-20 0 -28 8t-8 28v982q0 121 29.5 205t82 135.5t125.5 74.5t159 23t158.5 -20t125 -58t81.5 -94t29 -128q0 -49 -13.5 -90.5t-36 -78t-52 -68.5t-62.5 -61q-29 -26 -56 -48.5t-48 -45t-33.5 -46t-12.5 -50.5q0 -26 12.5 -44.5t33.5 -32
t49.5 -23t60.5 -18.5q55 -16 109.5 -35t98 -50.5t71 -79t27.5 -119.5q0 -65 -24.5 -118t-70.5 -90.5t-111 -57.5t-146 -20q-105 0 -180.5 31t-123.5 73q-27 21 -6 52l38 48q12 15 23.5 16.5t26.5 -10.5q47 -38 98 -60t120 -22q94 0 147 39.5t53 108.5q0 39 -17 65.5t-45 45
t-63.5 30.5t-72.5 23q-43 12 -88.5 27.5t-83 41t-62 65t-24.5 98.5q0 43 13 77.5t36.5 65t55 60t69.5 61.5q28 24 53 47.5t44 49.5t30 55.5t11 65.5q0 34 -12 69.5t-40 64t-73.5 46.5t-112.5 18q-122 0 -183 -73t-61 -231v-992z" />
    <glyph glyph-name="agrave" unicode="&#xe0;" horiz-adv-x="1010" 
d="M748 0q-20 0 -28 8t-8 28v86q-20 -26 -46.5 -51t-62.5 -45.5t-82.5 -33t-106.5 -12.5q-78 0 -138 22t-100.5 61t-61 92t-20.5 115q0 63 22.5 117t69.5 94t119 62.5t171 22.5q71 0 129 -10.5t97 -27.5v80q0 44 -8.5 87t-33 77t-69 55t-115.5 21q-66 0 -132.5 -19.5
t-117.5 -60.5q-17 -12 -27.5 -10.5t-22.5 18.5l-32 46q-19 31 8 52q62 51 149.5 78.5t188.5 27.5q97 0 167 -25.5t114.5 -71.5t65.5 -110t21 -141v-596q0 -20 -8 -28t-28 -8h-74zM440 106q75 0 143 32t119 106v170q-20 9 -46 15t-54 10t-56 5.5t-50 1.5q-68 0 -114.5 -13
t-75 -35.5t-41.5 -54.5t-13 -69q0 -30 8.5 -60t30 -54t57.5 -39t92 -15zM606 1178q8 -8 12 -14t4 -14q0 -9 -10 -22l-22 -28q-13 -16 -26 -16q-11 0 -26 12l-260 196q-14 11 -14 24t10 26l34 42q6 8 13 11t13 3t12 -2t14 -8z" />
    <glyph glyph-name="aacute" unicode="&#xe1;" horiz-adv-x="1010" 
d="M748 0q-20 0 -28 8t-8 28v86q-20 -26 -46.5 -51t-62.5 -45.5t-82.5 -33t-106.5 -12.5q-78 0 -138 22t-100.5 61t-61 92t-20.5 115q0 63 22.5 117t69.5 94t119 62.5t171 22.5q71 0 129 -10.5t97 -27.5v80q0 44 -8.5 87t-33 77t-69 55t-115.5 21q-66 0 -132.5 -19.5
t-117.5 -60.5q-17 -12 -27.5 -10.5t-22.5 18.5l-32 46q-19 31 8 52q62 51 149.5 78.5t188.5 27.5q97 0 167 -25.5t114.5 -71.5t65.5 -110t21 -141v-596q0 -20 -8 -28t-28 -8h-74zM440 106q75 0 143 32t119 106v170q-20 9 -46 15t-54 10t-56 5.5t-50 1.5q-68 0 -114.5 -13
t-75 -35.5t-41.5 -54.5t-13 -69q0 -30 8.5 -60t30 -54t57.5 -39t92 -15zM620 1388q8 6 14 8t12 2t13 -3t13 -11l34 -42q10 -13 10 -26t-14 -24l-260 -196q-15 -12 -26 -12q-13 0 -26 16l-22 28q-10 13 -10 22q0 8 4 14t12 14z" />
    <glyph glyph-name="acircumflex" unicode="&#xe2;" horiz-adv-x="1010" 
d="M748 0q-20 0 -28 8t-8 28v86q-20 -26 -46.5 -51t-62.5 -45.5t-82.5 -33t-106.5 -12.5q-78 0 -138 22t-100.5 61t-61 92t-20.5 115q0 63 22.5 117t69.5 94t119 62.5t171 22.5q71 0 129 -10.5t97 -27.5v80q0 44 -8.5 87t-33 77t-69 55t-115.5 21q-66 0 -132.5 -19.5
t-117.5 -60.5q-17 -12 -27.5 -10.5t-22.5 18.5l-32 46q-19 31 8 52q62 51 149.5 78.5t188.5 27.5q97 0 167 -25.5t114.5 -71.5t65.5 -110t21 -141v-596q0 -20 -8 -28t-28 -8h-74zM440 106q75 0 143 32t119 106v170q-20 9 -46 15t-54 10t-56 5.5t-50 1.5q-68 0 -114.5 -13
t-75 -35.5t-41.5 -54.5t-13 -69q0 -30 8.5 -60t30 -54t57.5 -39t92 -15zM302 1114q-12 -8 -19 -10t-13 -2q-17 0 -30 16l-16 20q-6 8 -8 13t-2 11t3.5 13t12.5 13l228 166q15 12 32 12t32 -12l228 -166q9 -6 12.5 -13t3.5 -13t-2 -11t-8 -13l-16 -20q-13 -16 -30 -16
q-6 0 -13 2t-19 10l-188 116z" />
    <glyph glyph-name="atilde" unicode="&#xe3;" horiz-adv-x="1010" 
d="M748 0q-20 0 -28 8t-8 28v86q-20 -26 -46.5 -51t-62.5 -45.5t-82.5 -33t-106.5 -12.5q-78 0 -138 22t-100.5 61t-61 92t-20.5 115q0 63 22.5 117t69.5 94t119 62.5t171 22.5q71 0 129 -10.5t97 -27.5v80q0 44 -8.5 87t-33 77t-69 55t-115.5 21q-66 0 -132.5 -19.5
t-117.5 -60.5q-17 -12 -27.5 -10.5t-22.5 18.5l-32 46q-19 31 8 52q62 51 149.5 78.5t188.5 27.5q97 0 167 -25.5t114.5 -71.5t65.5 -110t21 -141v-596q0 -20 -8 -28t-28 -8h-74zM440 106q75 0 143 32t119 106v170q-20 9 -46 15t-54 10t-56 5.5t-50 1.5q-68 0 -114.5 -13
t-75 -35.5t-41.5 -54.5t-13 -69q0 -30 8.5 -60t30 -54t57.5 -39t92 -15zM608 1128q-34 0 -64.5 10.5t-59 23.5t-55 23.5t-51.5 10.5q-26 0 -49.5 -11t-44.5 -31q-14 -14 -28 -14q-16 0 -30 14l-14 12q-14 11 -14 26q0 5 1.5 11.5t6.5 14.5q10 18 26.5 35t38.5 30.5t47.5 22
t53.5 8.5q34 0 64.5 -10.5t59 -23.5t54.5 -23.5t52 -10.5t49.5 11t44.5 31q14 14 28 14q16 0 30 -14l14 -12q14 -11 14 -26q0 -5 -1.5 -11.5t-6.5 -14.5q-10 -18 -26.5 -35.5t-38.5 -31t-47.5 -21.5t-53.5 -8z" />
    <glyph glyph-name="adieresis" unicode="&#xe4;" horiz-adv-x="1010" 
d="M748 0q-20 0 -28 8t-8 28v86q-20 -26 -46.5 -51t-62.5 -45.5t-82.5 -33t-106.5 -12.5q-78 0 -138 22t-100.5 61t-61 92t-20.5 115q0 63 22.5 117t69.5 94t119 62.5t171 22.5q71 0 129 -10.5t97 -27.5v80q0 44 -8.5 87t-33 77t-69 55t-115.5 21q-66 0 -132.5 -19.5
t-117.5 -60.5q-17 -12 -27.5 -10.5t-22.5 18.5l-32 46q-19 31 8 52q62 51 149.5 78.5t188.5 27.5q97 0 167 -25.5t114.5 -71.5t65.5 -110t21 -141v-596q0 -20 -8 -28t-28 -8h-74zM440 106q75 0 143 32t119 106v170q-20 9 -46 15t-54 10t-56 5.5t-50 1.5q-68 0 -114.5 -13
t-75 -35.5t-41.5 -54.5t-13 -69q0 -30 8.5 -60t30 -54t57.5 -39t92 -15zM410 1234q0 -42 -25.5 -71t-72.5 -29t-72.5 29t-25.5 71t25.5 71t72.5 29t72.5 -29t25.5 -71zM766 1234q0 -42 -25.5 -71t-72.5 -29t-72.5 29t-25.5 71t25.5 71t72.5 29t72.5 -29t25.5 -71z" />
    <glyph glyph-name="aring" unicode="&#xe5;" horiz-adv-x="1010" 
d="M748 0q-20 0 -28 8t-8 28v86q-20 -26 -46.5 -51t-62.5 -45.5t-82.5 -33t-106.5 -12.5q-78 0 -138 22t-100.5 61t-61 92t-20.5 115q0 63 22.5 117t69.5 94t119 62.5t171 22.5q71 0 129 -10.5t97 -27.5v80q0 44 -8.5 87t-33 77t-69 55t-115.5 21q-66 0 -132.5 -19.5
t-117.5 -60.5q-17 -12 -27.5 -10.5t-22.5 18.5l-32 46q-19 31 8 52q62 51 149.5 78.5t188.5 27.5q97 0 167 -25.5t114.5 -71.5t65.5 -110t21 -141v-596q0 -20 -8 -28t-28 -8h-74zM440 106q75 0 143 32t119 106v170q-20 9 -46 15t-54 10t-56 5.5t-50 1.5q-68 0 -114.5 -13
t-75 -35.5t-41.5 -54.5t-13 -69q0 -30 8.5 -60t30 -54t57.5 -39t92 -15zM700 1246q0 -46 -17 -84t-45.5 -65t-66.5 -42t-81 -15t-81 15t-66.5 42t-45.5 65t-17 84t17 84t45.5 65t66.5 42t81 15t81 -15t66.5 -42t45.5 -65t17 -84zM372 1246q0 -56 33.5 -89t84.5 -33t84.5 33
t33.5 89t-33.5 89t-84.5 33t-84.5 -33t-33.5 -89z" />
    <glyph glyph-name="ae" unicode="&#xe6;" horiz-adv-x="1626" 
d="M1460 72q-60 -48 -138 -70t-164 -22q-131 0 -220.5 46.5t-143.5 121.5q-29 -32 -66 -62t-83.5 -53.5t-104 -38t-126.5 -14.5q-76 0 -135.5 21t-100.5 58.5t-62.5 88.5t-21.5 110q0 63 25 115.5t76.5 90.5t131 59t189.5 21h186v64q0 45 -8.5 88.5t-33 77.5t-69 55
t-115.5 21q-66 0 -132.5 -20t-117.5 -62q-17 -12 -27.5 -10.5t-22.5 18.5l-32 46q-19 31 8 52q62 51 149.5 78.5t188.5 27.5q63 0 113.5 -12.5t89.5 -35.5t66.5 -55.5t44.5 -72.5q25 39 56.5 71.5t71.5 55.5t88 36t106 13q115 0 194 -44.5t128.5 -115t71.5 -157t22 -171.5
v-34q0 -30 -30 -30h-654q4 -65 22.5 -122t54.5 -100.5t91 -68.5t134 -25q60 0 120 16.5t108 51.5q17 12 27.5 10.5t22.5 -18.5l32 -48q9 -15 7 -27.5t-17 -24.5zM1388 544q-5 64 -23 120.5t-50.5 99t-79.5 67.5t-111 25q-62 0 -109 -23.5t-80 -65t-52 -99t-25 -124.5h530z
M252 266q0 -29 9 -57.5t30 -51t55 -37t84 -14.5q49 0 94.5 14t84.5 36.5t71 50t54 55.5q-14 39 -21.5 80.5t-10.5 85.5h-166q-78 0 -132 -12t-88 -33t-49 -51t-15 -66z" />
    <glyph glyph-name="ccedilla" unicode="&#xe7;" horiz-adv-x="904" 
d="M506 -102q11 3 24.5 4.5t27.5 1.5q66 0 100 -35t34 -91q0 -31 -11 -58.5t-33.5 -48.5t-57 -33t-80.5 -12q-33 0 -69.5 7t-66.5 27q-29 19 -12 48l8 14q11 18 20.5 20.5t27.5 -8.5t40 -17.5t48 -6.5q42 0 64 17t22 47q0 23 -17.5 40.5t-68.5 17.5q-12 0 -24.5 -1t-23.5 -3
q-14 -3 -21.5 -1t-18.5 11l-2 2q-17 14 -6 34l58 108q-102 8 -174 52.5t-118 112t-67 152.5t-21 175q0 63 10.5 125t33.5 118t58 104.5t84 83.5t112.5 55t143.5 20q74 0 144.5 -19.5t127.5 -64.5q26 -23 8 -52l-36 -54q-11 -17 -21 -18.5t-25 10.5q-42 35 -93 50.5
t-107 15.5q-76 0 -129 -29.5t-86 -80t-48 -117.5t-15 -143q0 -75 14.5 -141.5t47 -116.5t83.5 -79t125 -29q51 0 106 16t102 54q15 12 25.5 10.5t22.5 -18.5l34 -50q19 -31 -8 -52q-51 -42 -116 -63.5t-136 -26.5z" />
    <glyph glyph-name="egrave" unicode="&#xe8;" horiz-adv-x="1016" 
d="M932 458q0 -30 -30 -30h-654q4 -66 23 -123.5t55 -100.5t90.5 -67.5t131.5 -24.5q62 0 122 16.5t108 51.5q17 12 27.5 10.5t22.5 -18.5l32 -48q9 -15 7 -27.5t-17 -24.5q-60 -48 -138 -70t-166 -22q-123 0 -210 41.5t-142 110.5t-80.5 159t-25.5 187q0 100 26 191t79 160
t133.5 110t189.5 41q115 0 194 -44.5t128.5 -115t71.5 -157t22 -171.5v-34zM778 544q-5 64 -23 120.5t-50.5 99t-79.5 67.5t-111 25q-62 0 -109 -23.5t-80 -65t-52 -99t-25 -124.5h530zM632 1178q8 -8 12 -14t4 -14q0 -9 -10 -22l-22 -28q-13 -16 -26 -16q-11 0 -26 12
l-260 196q-14 11 -14 24t10 26l34 42q6 8 13 11t13 3t12 -2t14 -8z" />
    <glyph glyph-name="eacute" unicode="&#xe9;" horiz-adv-x="1016" 
d="M932 458q0 -30 -30 -30h-654q4 -66 23 -123.5t55 -100.5t90.5 -67.5t131.5 -24.5q62 0 122 16.5t108 51.5q17 12 27.5 10.5t22.5 -18.5l32 -48q9 -15 7 -27.5t-17 -24.5q-60 -48 -138 -70t-166 -22q-123 0 -210 41.5t-142 110.5t-80.5 159t-25.5 187q0 100 26 191t79 160
t133.5 110t189.5 41q115 0 194 -44.5t128.5 -115t71.5 -157t22 -171.5v-34zM778 544q-5 64 -23 120.5t-50.5 99t-79.5 67.5t-111 25q-62 0 -109 -23.5t-80 -65t-52 -99t-25 -124.5h530zM646 1388q8 6 14 8t12 2t13 -3t13 -11l34 -42q10 -13 10 -26t-14 -24l-260 -196
q-15 -12 -26 -12q-13 0 -26 16l-22 28q-10 13 -10 22q0 8 4 14t12 14z" />
    <glyph glyph-name="ecircumflex" unicode="&#xea;" horiz-adv-x="1016" 
d="M932 458q0 -30 -30 -30h-654q4 -66 23 -123.5t55 -100.5t90.5 -67.5t131.5 -24.5q62 0 122 16.5t108 51.5q17 12 27.5 10.5t22.5 -18.5l32 -48q9 -15 7 -27.5t-17 -24.5q-60 -48 -138 -70t-166 -22q-123 0 -210 41.5t-142 110.5t-80.5 159t-25.5 187q0 100 26 191t79 160
t133.5 110t189.5 41q115 0 194 -44.5t128.5 -115t71.5 -157t22 -171.5v-34zM778 544q-5 64 -23 120.5t-50.5 99t-79.5 67.5t-111 25q-62 0 -109 -23.5t-80 -65t-52 -99t-25 -124.5h530zM328 1114q-12 -8 -19 -10t-13 -2q-17 0 -30 16l-16 20q-6 8 -8 13t-2 11t3.5 13
t12.5 13l228 166q15 12 32 12t32 -12l228 -166q9 -6 12.5 -13t3.5 -13t-2 -11t-8 -13l-16 -20q-13 -16 -30 -16q-6 0 -13 2t-19 10l-188 116z" />
    <glyph glyph-name="edieresis" unicode="&#xeb;" horiz-adv-x="1016" 
d="M932 458q0 -30 -30 -30h-654q4 -66 23 -123.5t55 -100.5t90.5 -67.5t131.5 -24.5q62 0 122 16.5t108 51.5q17 12 27.5 10.5t22.5 -18.5l32 -48q9 -15 7 -27.5t-17 -24.5q-60 -48 -138 -70t-166 -22q-123 0 -210 41.5t-142 110.5t-80.5 159t-25.5 187q0 100 26 191t79 160
t133.5 110t189.5 41q115 0 194 -44.5t128.5 -115t71.5 -157t22 -171.5v-34zM778 544q-5 64 -23 120.5t-50.5 99t-79.5 67.5t-111 25q-62 0 -109 -23.5t-80 -65t-52 -99t-25 -124.5h530zM436 1234q0 -42 -25.5 -71t-72.5 -29t-72.5 29t-25.5 71t25.5 71t72.5 29t72.5 -29
t25.5 -71zM792 1234q0 -42 -25.5 -71t-72.5 -29t-72.5 29t-25.5 71t25.5 71t72.5 29t72.5 -29t25.5 -71z" />
    <glyph glyph-name="igrave" unicode="&#xec;" horiz-adv-x="464" 
d="M190 0q-20 0 -28 8t-8 28v888q0 20 8 28t28 8h84q20 0 28 -8t8 -28v-888q0 -20 -8 -28t-28 -8h-84zM349 1178q8 -8 12 -14t4 -14q0 -9 -10 -22l-22 -28q-13 -16 -26 -16q-11 0 -26 12l-260 196q-14 11 -14 24t10 26l34 42q6 8 13 11t13 3t12 -2t14 -8z" />
    <glyph glyph-name="iacute" unicode="&#xed;" horiz-adv-x="464" 
d="M190 0q-20 0 -28 8t-8 28v888q0 20 8 28t28 8h84q20 0 28 -8t8 -28v-888q0 -20 -8 -28t-28 -8h-84zM363 1388q8 6 14 8t12 2t13 -3t13 -11l34 -42q10 -13 10 -26t-14 -24l-260 -196q-15 -12 -26 -12q-13 0 -26 16l-22 28q-10 13 -10 22q0 8 4 14t12 14z" />
    <glyph glyph-name="icircumflex" unicode="&#xee;" horiz-adv-x="464" 
d="M190 0q-20 0 -28 8t-8 28v888q0 20 8 28t28 8h84q20 0 28 -8t8 -28v-888q0 -20 -8 -28t-28 -8h-84zM45 1114q-12 -8 -19 -10t-13 -2q-17 0 -30 16l-16 20q-6 8 -8 13t-2 11t3.5 13t12.5 13l228 166q15 12 32 12t32 -12l228 -166q9 -6 12.5 -13t3.5 -13t-2 -11t-8 -13
l-16 -20q-13 -16 -30 -16q-6 0 -13 2t-19 10l-188 116z" />
    <glyph glyph-name="idieresis" unicode="&#xef;" horiz-adv-x="464" 
d="M190 0q-20 0 -28 8t-8 28v888q0 20 8 28t28 8h84q20 0 28 -8t8 -28v-888q0 -20 -8 -28t-28 -8h-84zM153 1234q0 -42 -25.5 -71t-72.5 -29t-72.5 29t-25.5 71t25.5 71t72.5 29t72.5 -29t25.5 -71zM509 1234q0 -42 -25.5 -71t-72.5 -29t-72.5 29t-25.5 71t25.5 71t72.5 29
t72.5 -29t25.5 -71z" />
    <glyph glyph-name="eth" unicode="&#xf0;" horiz-adv-x="1060" 
d="M250 480q0 -74 15.5 -142t49.5 -120t87 -83t128 -31t128 31t87 83t49.5 120t15.5 142t-15.5 142t-49.5 120t-87 83t-128 31t-128 -31t-87 -83t-49.5 -120t-15.5 -142zM626 1262q79 -63 143 -142t109 -171.5t69.5 -197t24.5 -219.5q0 -113 -25 -213.5t-79 -175.5
t-138 -119t-202 -44q-116 0 -199.5 42t-137 111.5t-78.5 159.5t-25 185q0 97 26 187.5t79 160.5t134.5 112t192.5 42q50 0 89 -9t70.5 -25.5t57.5 -40.5t49 -53q-50 106 -114 188t-152 150l-170 -118q-13 -10 -28 -10q-13 0 -24 16l-26 36q-8 11 -8 22q0 14 20 28l132 92
q-45 26 -94.5 47t-103.5 39q-26 9 -26 26q0 6 6 24l8 22q9 28 34 28q3 0 7 -0.5t15 -3.5q68 -18 135 -44.5t129 -61.5l148 102q13 10 28 10q13 0 24 -16l26 -36q8 -11 8 -22q0 -14 -20 -28z" />
    <glyph glyph-name="ntilde" unicode="&#xf1;" horiz-adv-x="1078" 
d="M190 0q-20 0 -28 8t-8 28v888q0 20 8 28t28 8h74q20 0 28 -8t8 -28v-80q20 25 47.5 49.5t63.5 44t82 31t103 11.5q89 0 152 -29.5t103 -79t58.5 -116t18.5 -139.5v-580q0 -20 -8 -28t-28 -8h-84q-20 0 -28 8t-8 28v566q0 42 -8.5 86t-31.5 80t-63.5 59t-104.5 23
q-32 0 -65.5 -6.5t-66.5 -21.5t-64.5 -39.5t-57.5 -60.5v-686q0 -20 -8 -28t-28 -8h-84zM658 1128q-34 0 -64.5 10.5t-59 23.5t-55 23.5t-51.5 10.5q-26 0 -49.5 -11t-44.5 -31q-14 -14 -28 -14q-16 0 -30 14l-14 12q-14 11 -14 26q0 5 1.5 11.5t6.5 14.5q10 18 26.5 35
t38.5 30.5t47.5 22t53.5 8.5q34 0 64.5 -10.5t59 -23.5t54.5 -23.5t52 -10.5t49.5 11t44.5 31q14 14 28 14q16 0 30 -14l14 -12q14 -11 14 -26q0 -5 -1.5 -11.5t-6.5 -14.5q-10 -18 -26.5 -35.5t-38.5 -31t-47.5 -21.5t-53.5 -8z" />
    <glyph glyph-name="ograve" unicode="&#xf2;" horiz-adv-x="1060" 
d="M250 480q0 -74 15.5 -142t49.5 -120t87 -83t128 -31t128 31t87 83t49.5 120t15.5 142t-15.5 142t-49.5 120t-87 83t-128 31t-128 -31t-87 -83t-49.5 -120t-15.5 -142zM972 480q0 -97 -26 -187t-80 -159.5t-137.5 -111.5t-198.5 -42q-118 0 -201.5 42t-137 111.5
t-78.5 159.5t-25 187t25.5 187t79.5 159.5t137.5 111.5t199.5 42q118 0 201.5 -42t137 -111.5t78.5 -159.5t25 -187zM646 1178q8 -8 12 -14t4 -14q0 -9 -10 -22l-22 -28q-13 -16 -26 -16q-11 0 -26 12l-260 196q-14 11 -14 24t10 26l34 42q6 8 13 11t13 3t12 -2t14 -8z" />
    <glyph glyph-name="oacute" unicode="&#xf3;" horiz-adv-x="1060" 
d="M250 480q0 -74 15.5 -142t49.5 -120t87 -83t128 -31t128 31t87 83t49.5 120t15.5 142t-15.5 142t-49.5 120t-87 83t-128 31t-128 -31t-87 -83t-49.5 -120t-15.5 -142zM972 480q0 -97 -26 -187t-80 -159.5t-137.5 -111.5t-198.5 -42q-118 0 -201.5 42t-137 111.5
t-78.5 159.5t-25 187t25.5 187t79.5 159.5t137.5 111.5t199.5 42q118 0 201.5 -42t137 -111.5t78.5 -159.5t25 -187zM660 1388q8 6 14 8t12 2t13 -3t13 -11l34 -42q10 -13 10 -26t-14 -24l-260 -196q-15 -12 -26 -12q-13 0 -26 16l-22 28q-10 13 -10 22q0 8 4 14t12 14z" />
    <glyph glyph-name="ocircumflex" unicode="&#xf4;" horiz-adv-x="1060" 
d="M250 480q0 -74 15.5 -142t49.5 -120t87 -83t128 -31t128 31t87 83t49.5 120t15.5 142t-15.5 142t-49.5 120t-87 83t-128 31t-128 -31t-87 -83t-49.5 -120t-15.5 -142zM972 480q0 -97 -26 -187t-80 -159.5t-137.5 -111.5t-198.5 -42q-118 0 -201.5 42t-137 111.5
t-78.5 159.5t-25 187t25.5 187t79.5 159.5t137.5 111.5t199.5 42q118 0 201.5 -42t137 -111.5t78.5 -159.5t25 -187zM342 1114q-12 -8 -19 -10t-13 -2q-17 0 -30 16l-16 20q-6 8 -8 13t-2 11t3.5 13t12.5 13l228 166q15 12 32 12t32 -12l228 -166q9 -6 12.5 -13t3.5 -13
t-2 -11t-8 -13l-16 -20q-13 -16 -30 -16q-6 0 -13 2t-19 10l-188 116z" />
    <glyph glyph-name="otilde" unicode="&#xf5;" horiz-adv-x="1060" 
d="M250 480q0 -74 15.5 -142t49.5 -120t87 -83t128 -31t128 31t87 83t49.5 120t15.5 142t-15.5 142t-49.5 120t-87 83t-128 31t-128 -31t-87 -83t-49.5 -120t-15.5 -142zM972 480q0 -97 -26 -187t-80 -159.5t-137.5 -111.5t-198.5 -42q-118 0 -201.5 42t-137 111.5
t-78.5 159.5t-25 187t25.5 187t79.5 159.5t137.5 111.5t199.5 42q118 0 201.5 -42t137 -111.5t78.5 -159.5t25 -187zM648 1128q-34 0 -64.5 10.5t-59 23.5t-55 23.5t-51.5 10.5q-26 0 -49.5 -11t-44.5 -31q-14 -14 -28 -14q-16 0 -30 14l-14 12q-14 11 -14 26q0 5 1.5 11.5
t6.5 14.5q10 18 26.5 35t38.5 30.5t47.5 22t53.5 8.5q34 0 64.5 -10.5t59 -23.5t54.5 -23.5t52 -10.5t49.5 11t44.5 31q14 14 28 14q16 0 30 -14l14 -12q14 -11 14 -26q0 -5 -1.5 -11.5t-6.5 -14.5q-10 -18 -26.5 -35.5t-38.5 -31t-47.5 -21.5t-53.5 -8z" />
    <glyph glyph-name="odieresis" unicode="&#xf6;" horiz-adv-x="1060" 
d="M250 480q0 -74 15.5 -142t49.5 -120t87 -83t128 -31t128 31t87 83t49.5 120t15.5 142t-15.5 142t-49.5 120t-87 83t-128 31t-128 -31t-87 -83t-49.5 -120t-15.5 -142zM972 480q0 -97 -26 -187t-80 -159.5t-137.5 -111.5t-198.5 -42q-118 0 -201.5 42t-137 111.5
t-78.5 159.5t-25 187t25.5 187t79.5 159.5t137.5 111.5t199.5 42q118 0 201.5 -42t137 -111.5t78.5 -159.5t25 -187zM450 1234q0 -42 -25.5 -71t-72.5 -29t-72.5 29t-25.5 71t25.5 71t72.5 29t72.5 -29t25.5 -71zM806 1234q0 -42 -25.5 -71t-72.5 -29t-72.5 29t-25.5 71
t25.5 71t72.5 29t72.5 -29t25.5 -71z" />
    <glyph glyph-name="divide" unicode="&#xf7;" 
d="M132 416q-20 0 -28 8t-8 28v56q0 20 8 28t28 8h800q20 0 28 -8t8 -28v-56q0 -20 -8 -28t-28 -8h-800zM648 102q0 -50 -31.5 -84t-84.5 -34t-84.5 34t-31.5 84t31.5 84t84.5 34t84.5 -34t31.5 -84zM648 858q0 -50 -31.5 -84t-84.5 -34t-84.5 34t-31.5 84t31.5 84t84.5 34
t84.5 -34t31.5 -84z" />
    <glyph glyph-name="oslash" unicode="&#xf8;" horiz-adv-x="1068" 
d="M976 480q0 -97 -26 -187t-80 -159.5t-137.5 -111.5t-198.5 -42q-72 0 -131.5 15.5t-106.5 44.5l-64 -90q-11 -17 -23.5 -23.5t-32.5 -6.5h-62q-17 0 -21 8t5 22l114 162q-63 71 -91.5 166.5t-28.5 201.5q0 97 25.5 187t79.5 159.5t137.5 111.5t199.5 42q72 0 130.5 -16
t105.5 -46l66 92q11 17 23.5 23.5t32.5 6.5h62q17 0 21 -8t-5 -22l-114 -164q62 -71 91 -166.5t29 -199.5zM374 154q32 -24 71 -37t89 -13q75 0 128 31t87 83t49.5 120t15.5 142q0 65 -12 125.5t-38 110.5zM534 856q-75 0 -128 -31t-87 -83t-49.5 -120t-15.5 -142
q0 -66 11 -126t37 -110l390 560q-32 24 -71 38t-87 14z" />
    <glyph glyph-name="ugrave" unicode="&#xf9;" horiz-adv-x="1066" 
d="M766 116q-20 -26 -47 -50t-62 -43.5t-80 -31t-101 -11.5q-88 0 -150 29.5t-101 79t-57 115.5t-18 140v580q0 20 8 28t28 8h84q20 0 28 -8t8 -28v-566q0 -42 9 -86t31.5 -80t61.5 -59t100 -23q31 0 64 6.5t65.5 21.5t62.5 39.5t56 60.5v686q0 20 8 28t28 8h84q20 0 28 -8
t8 -28v-888q0 -20 -8 -28t-28 -8h-74q-20 0 -28 8t-8 28v80v0zM646 1178q8 -8 12 -14t4 -14q0 -9 -10 -22l-22 -28q-13 -16 -26 -16q-11 0 -26 12l-260 196q-14 11 -14 24t10 26l34 42q6 8 13 11t13 3t12 -2t14 -8z" />
    <glyph glyph-name="uacute" unicode="&#xfa;" horiz-adv-x="1066" 
d="M766 116q-20 -26 -47 -50t-62 -43.5t-80 -31t-101 -11.5q-88 0 -150 29.5t-101 79t-57 115.5t-18 140v580q0 20 8 28t28 8h84q20 0 28 -8t8 -28v-566q0 -42 9 -86t31.5 -80t61.5 -59t100 -23q31 0 64 6.5t65.5 21.5t62.5 39.5t56 60.5v686q0 20 8 28t28 8h84q20 0 28 -8
t8 -28v-888q0 -20 -8 -28t-28 -8h-74q-20 0 -28 8t-8 28v80v0zM660 1388q8 6 14 8t12 2t13 -3t13 -11l34 -42q10 -13 10 -26t-14 -24l-260 -196q-15 -12 -26 -12q-13 0 -26 16l-22 28q-10 13 -10 22q0 8 4 14t12 14z" />
    <glyph glyph-name="ucircumflex" unicode="&#xfb;" horiz-adv-x="1066" 
d="M766 116q-20 -26 -47 -50t-62 -43.5t-80 -31t-101 -11.5q-88 0 -150 29.5t-101 79t-57 115.5t-18 140v580q0 20 8 28t28 8h84q20 0 28 -8t8 -28v-566q0 -42 9 -86t31.5 -80t61.5 -59t100 -23q31 0 64 6.5t65.5 21.5t62.5 39.5t56 60.5v686q0 20 8 28t28 8h84q20 0 28 -8
t8 -28v-888q0 -20 -8 -28t-28 -8h-74q-20 0 -28 8t-8 28v80v0zM342 1114q-12 -8 -19 -10t-13 -2q-17 0 -30 16l-16 20q-6 8 -8 13t-2 11t3.5 13t12.5 13l228 166q15 12 32 12t32 -12l228 -166q9 -6 12.5 -13t3.5 -13t-2 -11t-8 -13l-16 -20q-13 -16 -30 -16q-6 0 -13 2
t-19 10l-188 116z" />
    <glyph glyph-name="udieresis" unicode="&#xfc;" horiz-adv-x="1066" 
d="M766 116q-20 -26 -47 -50t-62 -43.5t-80 -31t-101 -11.5q-88 0 -150 29.5t-101 79t-57 115.5t-18 140v580q0 20 8 28t28 8h84q20 0 28 -8t8 -28v-566q0 -42 9 -86t31.5 -80t61.5 -59t100 -23q31 0 64 6.5t65.5 21.5t62.5 39.5t56 60.5v686q0 20 8 28t28 8h84q20 0 28 -8
t8 -28v-888q0 -20 -8 -28t-28 -8h-74q-20 0 -28 8t-8 28v80v0zM450 1234q0 -42 -25.5 -71t-72.5 -29t-72.5 29t-25.5 71t25.5 71t72.5 29t72.5 -29t25.5 -71zM806 1234q0 -42 -25.5 -71t-72.5 -29t-72.5 29t-25.5 71t25.5 71t72.5 29t72.5 -29t25.5 -71z" />
    <glyph glyph-name="yacute" unicode="&#xfd;" horiz-adv-x="918" 
d="M382 20q-49 85 -97 190.5t-91.5 221t-80.5 235t-63 233.5q-2 6 -4 18t-2 18q0 11 6.5 17.5t23.5 6.5h88q20 0 29.5 -7t12.5 -27q19 -98 48 -200.5t63 -201.5t71.5 -190.5t75.5 -165.5q39 74 77 165.5t72.5 191t63.5 202.5t49 201q3 15 12 23.5t30 8.5h74q30 0 30 -22
q0 -6 -1.5 -13.5l-4.5 -22.5q-27 -136 -72 -276.5t-98 -271.5q-48 -120 -104.5 -231t-121 -207t-138.5 -174t-156 -132q-13 -10 -28 -10q-17 0 -28 16l-36 50q-10 13 -10 24q0 15 20 28q46 34 83.5 65.5t72 66.5t67 76t67.5 94zM594 1388q8 6 14 8t12 2t13 -3t13 -11l34 -42
q10 -13 10 -26t-14 -24l-260 -196q-15 -12 -26 -12q-13 0 -26 16l-22 28q-10 13 -10 22q0 8 4 14t12 14z" />
    <glyph glyph-name="thorn" unicode="&#xfe;" horiz-adv-x="1070" 
d="M190 -400q-20 0 -28 8t-8 28v1764q0 20 8 28t28 8h84q20 0 28 -8t8 -28v-542q41 56 107 89t161 33q93 0 167.5 -33.5t127 -97.5t81 -156.5t28.5 -210.5q0 -117 -28.5 -210t-81 -158t-127 -99.5t-167.5 -34.5q-51 0 -92.5 10t-74.5 26.5t-58 38.5t-43 47v-466
q0 -20 -8 -28t-28 -8h-84zM310 238q45 -71 107.5 -101.5t130.5 -30.5q61 0 111.5 23.5t86 70t55 116.5t19.5 164t-19.5 164t-55 116.5t-86 70t-111.5 23.5q-68 0 -130.5 -30.5t-107.5 -101.5v-484z" />
    <glyph glyph-name="ydieresis" unicode="&#xff;" horiz-adv-x="918" 
d="M382 20q-49 85 -97 190.5t-91.5 221t-80.5 235t-63 233.5q-2 6 -4 18t-2 18q0 11 6.5 17.5t23.5 6.5h88q20 0 29.5 -7t12.5 -27q19 -98 48 -200.5t63 -201.5t71.5 -190.5t75.5 -165.5q39 74 77 165.5t72.5 191t63.5 202.5t49 201q3 15 12 23.5t30 8.5h74q30 0 30 -22
q0 -6 -1.5 -13.5l-4.5 -22.5q-27 -136 -72 -276.5t-98 -271.5q-48 -120 -104.5 -231t-121 -207t-138.5 -174t-156 -132q-13 -10 -28 -10q-17 0 -28 16l-36 50q-10 13 -10 24q0 15 20 28q46 34 83.5 65.5t72 66.5t67 76t67.5 94zM384 1234q0 -42 -25.5 -71t-72.5 -29
t-72.5 29t-25.5 71t25.5 71t72.5 29t72.5 -29t25.5 -71zM740 1234q0 -42 -25.5 -71t-72.5 -29t-72.5 29t-25.5 71t25.5 71t72.5 29t72.5 -29t25.5 -71z" />
    <glyph glyph-name="Amacron" unicode="&#x100;" horiz-adv-x="1218" 
d="M86 0q-30 0 -30 20q0 6 1 11.5t3 10.5q103 349 215.5 661.5t244.5 588.5q9 18 20.5 25t31.5 7h72q20 0 31.5 -7t20.5 -25q127 -269 244.5 -584t215.5 -658q3 -11 4.5 -16t1.5 -10q0 -24 -32 -24h-94q-38 0 -46 34q-26 92 -48.5 169t-45.5 157h-582q-24 -80 -46.5 -158.5
t-47.5 -171.5q-5 -18 -14.5 -24t-29.5 -6h-90zM852 492q-59 183 -121 347.5t-127 312.5q-65 -148 -126 -312.5t-120 -347.5h494zM806 1592q20 0 28 -8t8 -28v-40q0 -20 -8 -28t-28 -8h-404q-20 0 -28 8t-8 28v40q0 20 8 28t28 8h404z" />
    <glyph glyph-name="amacron" unicode="&#x101;" horiz-adv-x="1010" 
d="M748 0q-20 0 -28 8t-8 28v86q-20 -26 -46.5 -51t-62.5 -45.5t-82.5 -33t-106.5 -12.5q-78 0 -138 22t-100.5 61t-61 92t-20.5 115q0 63 22.5 117t69.5 94t119 62.5t171 22.5q71 0 129 -10.5t97 -27.5v80q0 44 -8.5 87t-33 77t-69 55t-115.5 21q-66 0 -132.5 -19.5
t-117.5 -60.5q-17 -12 -27.5 -10.5t-22.5 18.5l-32 46q-19 31 8 52q62 51 149.5 78.5t188.5 27.5q97 0 167 -25.5t114.5 -71.5t65.5 -110t21 -141v-596q0 -20 -8 -28t-28 -8h-74zM440 106q75 0 143 32t119 106v170q-20 9 -46 15t-54 10t-56 5.5t-50 1.5q-68 0 -114.5 -13
t-75 -35.5t-41.5 -54.5t-13 -69q0 -30 8.5 -60t30 -54t57.5 -39t92 -15zM692 1262q20 0 28 -8t8 -28v-40q0 -20 -8 -28t-28 -8h-404q-20 0 -28 8t-8 28v40q0 20 8 28t28 8h404z" />
    <glyph glyph-name="Abreve" unicode="&#x102;" horiz-adv-x="1218" 
d="M86 0q-30 0 -30 20q0 6 1 11.5t3 10.5q103 349 215.5 661.5t244.5 588.5q9 18 20.5 25t31.5 7h72q20 0 31.5 -7t20.5 -25q127 -269 244.5 -584t215.5 -658q3 -11 4.5 -16t1.5 -10q0 -24 -32 -24h-94q-38 0 -46 34q-26 92 -48.5 169t-45.5 157h-582q-24 -80 -46.5 -158.5
t-47.5 -171.5q-5 -18 -14.5 -24t-29.5 -6h-90zM852 492q-59 183 -121 347.5t-127 312.5q-65 -148 -126 -312.5t-120 -347.5h494zM604 1422q-51 0 -95.5 16t-79.5 41.5t-59.5 58t-35.5 66.5q-2 5 -3 10t-1 10q0 17 20 26l34 12q15 6 24 6t14.5 -6t11.5 -18q26 -47 66.5 -75.5
t103.5 -28.5t103.5 28.5t66.5 75.5q6 12 11.5 18t14.5 6t24 -6l34 -12q20 -9 20 -26q0 -5 -1 -10t-3 -10q-11 -34 -35.5 -66.5t-59.5 -58t-79.5 -41.5t-95.5 -16z" />
    <glyph glyph-name="abreve" unicode="&#x103;" horiz-adv-x="1010" 
d="M748 0q-20 0 -28 8t-8 28v86q-20 -26 -46.5 -51t-62.5 -45.5t-82.5 -33t-106.5 -12.5q-78 0 -138 22t-100.5 61t-61 92t-20.5 115q0 63 22.5 117t69.5 94t119 62.5t171 22.5q71 0 129 -10.5t97 -27.5v80q0 44 -8.5 87t-33 77t-69 55t-115.5 21q-66 0 -132.5 -19.5
t-117.5 -60.5q-17 -12 -27.5 -10.5t-22.5 18.5l-32 46q-19 31 8 52q62 51 149.5 78.5t188.5 27.5q97 0 167 -25.5t114.5 -71.5t65.5 -110t21 -141v-596q0 -20 -8 -28t-28 -8h-74zM440 106q75 0 143 32t119 106v170q-20 9 -46 15t-54 10t-56 5.5t-50 1.5q-68 0 -114.5 -13
t-75 -35.5t-41.5 -54.5t-13 -69q0 -30 8.5 -60t30 -54t57.5 -39t92 -15zM490 1092q-51 0 -95.5 16t-79.5 41.5t-59.5 58t-35.5 66.5q-2 5 -3 10t-1 10q0 17 20 26l34 12q15 6 24 6t14.5 -6t11.5 -18q26 -47 66.5 -75.5t103.5 -28.5t103.5 28.5t66.5 75.5q6 12 11.5 18
t14.5 6t24 -6l34 -12q20 -9 20 -26q0 -5 -1 -10t-3 -10q-11 -34 -35.5 -66.5t-59.5 -58t-79.5 -41.5t-95.5 -16z" />
    <glyph glyph-name="Aogonek" unicode="&#x104;" horiz-adv-x="1218" 
d="M870 -224q0 56 35 109t95 115q-17 58 -31 107t-26.5 92t-24 82t-22.5 79h-582q-24 -80 -46.5 -158.5t-47.5 -171.5q-5 -18 -14.5 -24t-29.5 -6h-90q-30 0 -30 20q0 6 1 11.5t3 10.5q103 349 215.5 661.5t244.5 588.5q9 18 20.5 25t31.5 7h72q20 0 31.5 -7t20.5 -25
q127 -269 244.5 -584t215.5 -658q3 -11 4.5 -16t1.5 -10q0 -24 -32 -24h-42q-48 -63 -73 -106.5t-25 -85.5q0 -45 25 -65.5t61 -20.5q33 0 68 16q20 9 30 6.5t22 -20.5l6 -10q9 -14 7 -26.5t-17 -21.5q-58 -40 -140 -40q-41 0 -74.5 11t-57.5 30.5t-37 47t-13 61.5zM852 492
q-59 183 -121 347.5t-127 312.5q-65 -148 -126 -312.5t-120 -347.5h494z" />
    <glyph glyph-name="aogonek" unicode="&#x105;" horiz-adv-x="1010" 
d="M582 -224q0 56 35 109t95 115v122q-20 -26 -46.5 -51t-62.5 -45.5t-82.5 -33t-106.5 -12.5q-78 0 -138 22t-100.5 61t-61 92t-20.5 115q0 63 22.5 117t69.5 94t119 62.5t171 22.5q71 0 129 -10.5t97 -27.5v80q0 44 -8.5 87t-33 77t-69 55t-115.5 21q-66 0 -132.5 -19.5
t-117.5 -60.5q-17 -12 -27.5 -10.5t-22.5 18.5l-32 46q-19 31 8 52q62 51 149.5 78.5t188.5 27.5q97 0 167 -25.5t114.5 -71.5t65.5 -110t21 -141v-596q0 -20 -8 -28t-28 -8h-22q-48 -63 -73 -106.5t-25 -85.5q0 -45 25 -65.5t61 -20.5q33 0 68 16q20 9 30 6.5t22 -20.5
l6 -10q9 -14 7 -26.5t-17 -21.5q-58 -40 -140 -40q-41 0 -74.5 11t-57.5 30.5t-37 47t-13 61.5zM440 106q75 0 143 32t119 106v170q-20 9 -46 15t-54 10t-56 5.5t-50 1.5q-68 0 -114.5 -13t-75 -35.5t-41.5 -54.5t-13 -69q0 -30 8.5 -60t30 -54t57.5 -39t92 -15z" />
    <glyph glyph-name="Cacute" unicode="&#x106;" horiz-adv-x="1194" 
d="M1096 124q-85 -75 -190.5 -109.5t-223.5 -34.5q-107 0 -192.5 27t-151 74t-112 112t-76.5 141t-44 160t-14 170t14 170t44 159.5t77 139.5t112.5 111t151 73.5t193.5 26.5q115 0 216 -31t182 -99q27 -24 4 -52l-46 -58q-12 -17 -24.5 -17.5t-27.5 11.5q-59 47 -136 75.5
t-172 28.5q-111 0 -190.5 -41t-130.5 -113t-75 -170.5t-24 -213.5t24 -214t75 -172t130.5 -114.5t190.5 -41.5q100 0 182 32.5t144 85.5q27 24 48 -6l46 -58q23 -28 -4 -52zM782 1718q8 6 14 8t12 2t13 -3t13 -11l34 -42q10 -13 10 -26t-14 -24l-260 -196q-15 -12 -26 -12
q-13 0 -26 16l-22 28q-10 13 -10 22q0 8 4 14t12 14z" />
    <glyph glyph-name="cacute" unicode="&#x107;" horiz-adv-x="904" 
d="M802 72q-59 -48 -132.5 -70t-153.5 -22q-115 0 -196 41.5t-132.5 110.5t-75.5 158t-24 184q0 63 10.5 125t33.5 118t58 104.5t84 83.5t112.5 55t143.5 20q74 0 144.5 -19.5t127.5 -64.5q26 -23 8 -52l-36 -54q-11 -17 -21 -18.5t-25 10.5q-42 35 -93 50.5t-107 15.5
q-76 0 -129 -29.5t-86 -80t-48 -117.5t-15 -143q0 -75 14.5 -141.5t47 -116.5t83.5 -79t125 -29q51 0 106 16t102 54q15 12 25.5 10.5t22.5 -18.5l34 -50q19 -31 -8 -52zM660 1388q8 6 14 8t12 2t13 -3t13 -11l34 -42q10 -13 10 -26t-14 -24l-260 -196q-15 -12 -26 -12
q-13 0 -26 16l-22 28q-10 13 -10 22q0 8 4 14t12 14z" />
    <glyph glyph-name="Ccircumflex" unicode="&#x108;" horiz-adv-x="1194" 
d="M1096 124q-85 -75 -190.5 -109.5t-223.5 -34.5q-107 0 -192.5 27t-151 74t-112 112t-76.5 141t-44 160t-14 170t14 170t44 159.5t77 139.5t112.5 111t151 73.5t193.5 26.5q115 0 216 -31t182 -99q27 -24 4 -52l-46 -58q-12 -17 -24.5 -17.5t-27.5 11.5q-59 47 -136 75.5
t-172 28.5q-111 0 -190.5 -41t-130.5 -113t-75 -170.5t-24 -213.5t24 -214t75 -172t130.5 -114.5t190.5 -41.5q100 0 182 32.5t144 85.5q27 24 48 -6l46 -58q23 -28 -4 -52zM464 1444q-12 -8 -19 -10t-13 -2q-17 0 -30 16l-16 20q-6 8 -8 13t-2 11t3.5 13t12.5 13l228 166
q15 12 32 12t32 -12l228 -166q9 -6 12.5 -13t3.5 -13t-2 -11t-8 -13l-16 -20q-13 -16 -30 -16q-6 0 -13 2t-19 10l-188 116z" />
    <glyph glyph-name="ccircumflex" unicode="&#x109;" horiz-adv-x="904" 
d="M802 72q-59 -48 -132.5 -70t-153.5 -22q-115 0 -196 41.5t-132.5 110.5t-75.5 158t-24 184q0 63 10.5 125t33.5 118t58 104.5t84 83.5t112.5 55t143.5 20q74 0 144.5 -19.5t127.5 -64.5q26 -23 8 -52l-36 -54q-11 -17 -21 -18.5t-25 10.5q-42 35 -93 50.5t-107 15.5
q-76 0 -129 -29.5t-86 -80t-48 -117.5t-15 -143q0 -75 14.5 -141.5t47 -116.5t83.5 -79t125 -29q51 0 106 16t102 54q15 12 25.5 10.5t22.5 -18.5l34 -50q19 -31 -8 -52zM342 1114q-12 -8 -19 -10t-13 -2q-17 0 -30 16l-16 20q-6 8 -8 13t-2 11t3.5 13t12.5 13l228 166
q15 12 32 12t32 -12l228 -166q9 -6 12.5 -13t3.5 -13t-2 -11t-8 -13l-16 -20q-13 -16 -30 -16q-6 0 -13 2t-19 10l-188 116z" />
    <glyph glyph-name="Cdotaccent" unicode="&#x10a;" horiz-adv-x="1194" 
d="M1096 124q-85 -75 -190.5 -109.5t-223.5 -34.5q-107 0 -192.5 27t-151 74t-112 112t-76.5 141t-44 160t-14 170t14 170t44 159.5t77 139.5t112.5 111t151 73.5t193.5 26.5q115 0 216 -31t182 -99q27 -24 4 -52l-46 -58q-12 -17 -24.5 -17.5t-27.5 11.5q-59 47 -136 75.5
t-172 28.5q-111 0 -190.5 -41t-130.5 -113t-75 -170.5t-24 -213.5t24 -214t75 -172t130.5 -114.5t190.5 -41.5q100 0 182 32.5t144 85.5q27 24 48 -6l46 -58q23 -28 -4 -52zM750 1564q0 -42 -25.5 -71t-72.5 -29t-72.5 29t-25.5 71t25.5 71t72.5 29t72.5 -29t25.5 -71z" />
    <glyph glyph-name="cdotaccent" unicode="&#x10b;" horiz-adv-x="904" 
d="M802 72q-59 -48 -132.5 -70t-153.5 -22q-115 0 -196 41.5t-132.5 110.5t-75.5 158t-24 184q0 63 10.5 125t33.5 118t58 104.5t84 83.5t112.5 55t143.5 20q74 0 144.5 -19.5t127.5 -64.5q26 -23 8 -52l-36 -54q-11 -17 -21 -18.5t-25 10.5q-42 35 -93 50.5t-107 15.5
q-76 0 -129 -29.5t-86 -80t-48 -117.5t-15 -143q0 -75 14.5 -141.5t47 -116.5t83.5 -79t125 -29q51 0 106 16t102 54q15 12 25.5 10.5t22.5 -18.5l34 -50q19 -31 -8 -52zM628 1234q0 -42 -25.5 -71t-72.5 -29t-72.5 29t-25.5 71t25.5 71t72.5 29t72.5 -29t25.5 -71z" />
    <glyph glyph-name="Ccaron" unicode="&#x10c;" horiz-adv-x="1194" 
d="M1096 124q-85 -75 -190.5 -109.5t-223.5 -34.5q-107 0 -192.5 27t-151 74t-112 112t-76.5 141t-44 160t-14 170t14 170t44 159.5t77 139.5t112.5 111t151 73.5t193.5 26.5q115 0 216 -31t182 -99q27 -24 4 -52l-46 -58q-12 -17 -24.5 -17.5t-27.5 11.5q-59 47 -136 75.5
t-172 28.5q-111 0 -190.5 -41t-130.5 -113t-75 -170.5t-24 -213.5t24 -214t75 -172t130.5 -114.5t190.5 -41.5q100 0 182 32.5t144 85.5q27 24 48 -6l46 -58q23 -28 -4 -52zM840 1672q12 8 19 10t13 2q8 0 15 -3.5t15 -12.5l16 -20q10 -13 10 -24q0 -6 -3.5 -13t-12.5 -13
l-228 -166q-15 -12 -32 -12t-32 12l-228 166q-9 6 -12.5 13t-3.5 13q0 11 10 24l16 20q8 9 15 12.5t15 3.5q6 0 13 -2t19 -10l188 -116z" />
    <glyph glyph-name="ccaron" unicode="&#x10d;" horiz-adv-x="904" 
d="M802 72q-59 -48 -132.5 -70t-153.5 -22q-115 0 -196 41.5t-132.5 110.5t-75.5 158t-24 184q0 63 10.5 125t33.5 118t58 104.5t84 83.5t112.5 55t143.5 20q74 0 144.5 -19.5t127.5 -64.5q26 -23 8 -52l-36 -54q-11 -17 -21 -18.5t-25 10.5q-42 35 -93 50.5t-107 15.5
q-76 0 -129 -29.5t-86 -80t-48 -117.5t-15 -143q0 -75 14.5 -141.5t47 -116.5t83.5 -79t125 -29q51 0 106 16t102 54q15 12 25.5 10.5t22.5 -18.5l34 -50q19 -31 -8 -52zM718 1342q12 8 19 10t13 2q8 0 15 -3.5t15 -12.5l16 -20q10 -13 10 -24q0 -6 -3.5 -13t-12.5 -13
l-228 -166q-15 -12 -32 -12t-32 12l-228 166q-9 6 -12.5 13t-3.5 13q0 11 10 24l16 20q8 9 15 12.5t15 3.5q6 0 13 -2t19 -10l188 -116z" />
    <glyph glyph-name="Dcaron" unicode="&#x10e;" horiz-adv-x="1290" 
d="M198 0q-20 0 -28 8t-8 28v1252q0 20 8 28t28 8h364q116 0 208 -25.5t162.5 -71.5t121 -108t82.5 -136t47 -155.5t15 -165.5t-15 -165.5t-47 -155.5t-82.5 -136t-121 -108t-163 -71.5t-207.5 -25.5h-364zM326 1188v-1052h228q126 0 216 39t148 108.5t85 166t27 212.5
q0 115 -27 212t-85 166.5t-148 108.5t-216 39h-228zM780 1672q12 8 19 10t13 2q8 0 15 -3.5t15 -12.5l16 -20q10 -13 10 -24q0 -6 -3.5 -13t-12.5 -13l-228 -166q-15 -12 -32 -12t-32 12l-228 166q-9 6 -12.5 13t-3.5 13q0 11 10 24l16 20q8 9 15 12.5t15 3.5q6 0 13 -2
t19 -10l188 -116z" />
    <glyph glyph-name="dcaron" unicode="&#x10f;" horiz-adv-x="1068" 
d="M804 0q-20 0 -28 8t-8 28v80q-19 -29 -44.5 -53.5t-60 -43t-77.5 -29t-96 -10.5q-94 0 -168.5 33.5t-126.5 97.5t-79.5 156.5t-27.5 210.5q0 117 27.5 210t79.5 158t126.5 99.5t168.5 34.5q52 0 93.5 -10t74.5 -26.5t58 -38.5t42 -47v542q0 20 8 28t28 8h84q20 0 28 -8
t8 -28v-1364q0 -20 -8 -28t-28 -8h-74zM250 480q0 -94 19.5 -164t55 -116.5t85 -70t110.5 -23.5q69 0 131 30.5t107 101.5v484q-45 71 -107 101.5t-131 30.5q-61 0 -110.5 -23.5t-85 -70t-55 -116.5t-19.5 -164zM1080 1090q-18 3 -25 12t-5 26l32 288q3 30 26 30
q5 0 11.5 -1t14.5 -3l66 -14q26 -6 26 -24q0 -10 -6 -28l-96 -264q-6 -17 -16.5 -21t-27.5 -1z" />
    <glyph glyph-name="Dcroat" unicode="&#x110;" horiz-adv-x="1302" 
d="M70 598q-20 0 -28 8t-8 28v56q0 20 8 28t28 8h104v562q0 20 8 28t28 8h364q115 0 207.5 -25.5t163 -71.5t121 -108t82.5 -136t47 -155.5t15 -165.5t-15 -165.5t-47 -155.5t-82.5 -136t-121 -108t-163 -71.5t-207.5 -25.5h-364q-20 0 -28 8t-8 28v562h-104zM338 1188v-462
h306q20 0 28 -8t8 -28v-56q0 -20 -8 -28t-28 -8h-306v-462h228q126 0 216 39t148 108.5t85 166t27 212.5q0 115 -27 212t-85 166.5t-148 108.5t-216 39h-228z" />
    <glyph glyph-name="dcroat" unicode="&#x111;" horiz-adv-x="1068" 
d="M546 1122q-20 0 -28 8t-8 28v38q0 20 8 28t28 8h212v168q0 20 8 28t28 8h84q20 0 28 -8t8 -28v-168h98q20 0 28 -8t8 -28v-38q0 -20 -8 -28t-28 -8h-98v-1086q0 -20 -8 -28t-28 -8h-74q-20 0 -28 8t-8 28v80q-19 -29 -44.5 -53.5t-60 -43t-77.5 -29t-96 -10.5
q-94 0 -168.5 33.5t-126.5 97.5t-79.5 156.5t-27.5 210.5q0 117 27.5 210t79.5 158t126.5 99.5t168.5 34.5q52 0 93.5 -10t74.5 -26.5t58 -38.5t42 -47v264h-212zM250 480q0 -94 19.5 -164t55 -116.5t85 -70t110.5 -23.5q69 0 131 30.5t107 101.5v484q-45 71 -107 101.5
t-131 30.5q-61 0 -110.5 -23.5t-85 -70t-55 -116.5t-19.5 -164z" />
    <glyph glyph-name="Emacron" unicode="&#x112;" horiz-adv-x="1054" 
d="M198 0q-20 0 -28 8t-8 28v1252q0 20 8 28t28 8h708q20 0 28 -8t8 -28v-64q0 -20 -8 -28t-28 -8h-580v-432h516q20 0 28 -8t8 -28v-64q0 -20 -8 -28t-28 -8h-516v-484h580q20 0 28 -8t8 -28v-64q0 -20 -8 -28t-28 -8h-708zM754 1592q20 0 28 -8t8 -28v-40q0 -20 -8 -28
t-28 -8h-404q-20 0 -28 8t-8 28v40q0 20 8 28t28 8h404z" />
    <glyph glyph-name="emacron" unicode="&#x113;" horiz-adv-x="1016" 
d="M932 458q0 -30 -30 -30h-654q4 -66 23 -123.5t55 -100.5t90.5 -67.5t131.5 -24.5q62 0 122 16.5t108 51.5q17 12 27.5 10.5t22.5 -18.5l32 -48q9 -15 7 -27.5t-17 -24.5q-60 -48 -138 -70t-166 -22q-123 0 -210 41.5t-142 110.5t-80.5 159t-25.5 187q0 100 26 191t79 160
t133.5 110t189.5 41q115 0 194 -44.5t128.5 -115t71.5 -157t22 -171.5v-34zM778 544q-5 64 -23 120.5t-50.5 99t-79.5 67.5t-111 25q-62 0 -109 -23.5t-80 -65t-52 -99t-25 -124.5h530zM718 1262q20 0 28 -8t8 -28v-40q0 -20 -8 -28t-28 -8h-404q-20 0 -28 8t-8 28v40
q0 20 8 28t28 8h404z" />
    <glyph glyph-name="Ebreve" unicode="&#x114;" horiz-adv-x="1054" 
d="M198 0q-20 0 -28 8t-8 28v1252q0 20 8 28t28 8h708q20 0 28 -8t8 -28v-64q0 -20 -8 -28t-28 -8h-580v-432h516q20 0 28 -8t8 -28v-64q0 -20 -8 -28t-28 -8h-516v-484h580q20 0 28 -8t8 -28v-64q0 -20 -8 -28t-28 -8h-708zM552 1422q-51 0 -95.5 16t-79.5 41.5t-59.5 58
t-35.5 66.5q-2 5 -3 10t-1 10q0 17 20 26l34 12q15 6 24 6t14.5 -6t11.5 -18q26 -47 66.5 -75.5t103.5 -28.5t103.5 28.5t66.5 75.5q6 12 11.5 18t14.5 6t24 -6l34 -12q20 -9 20 -26q0 -5 -1 -10t-3 -10q-11 -34 -35.5 -66.5t-59.5 -58t-79.5 -41.5t-95.5 -16z" />
    <glyph glyph-name="ebreve" unicode="&#x115;" horiz-adv-x="1016" 
d="M932 458q0 -30 -30 -30h-654q4 -66 23 -123.5t55 -100.5t90.5 -67.5t131.5 -24.5q62 0 122 16.5t108 51.5q17 12 27.5 10.5t22.5 -18.5l32 -48q9 -15 7 -27.5t-17 -24.5q-60 -48 -138 -70t-166 -22q-123 0 -210 41.5t-142 110.5t-80.5 159t-25.5 187q0 100 26 191t79 160
t133.5 110t189.5 41q115 0 194 -44.5t128.5 -115t71.5 -157t22 -171.5v-34zM778 544q-5 64 -23 120.5t-50.5 99t-79.5 67.5t-111 25q-62 0 -109 -23.5t-80 -65t-52 -99t-25 -124.5h530zM516 1092q-51 0 -95.5 16t-79.5 41.5t-59.5 58t-35.5 66.5q-2 5 -3 10t-1 10
q0 17 20 26l34 12q15 6 24 6t14.5 -6t11.5 -18q26 -47 66.5 -75.5t103.5 -28.5t103.5 28.5t66.5 75.5q6 12 11.5 18t14.5 6t24 -6l34 -12q20 -9 20 -26q0 -5 -1 -10t-3 -10q-11 -34 -35.5 -66.5t-59.5 -58t-79.5 -41.5t-95.5 -16z" />
    <glyph glyph-name="Edotaccent" unicode="&#x116;" horiz-adv-x="1054" 
d="M198 0q-20 0 -28 8t-8 28v1252q0 20 8 28t28 8h708q20 0 28 -8t8 -28v-64q0 -20 -8 -28t-28 -8h-580v-432h516q20 0 28 -8t8 -28v-64q0 -20 -8 -28t-28 -8h-516v-484h580q20 0 28 -8t8 -28v-64q0 -20 -8 -28t-28 -8h-708zM650 1564q0 -42 -25.5 -71t-72.5 -29t-72.5 29
t-25.5 71t25.5 71t72.5 29t72.5 -29t25.5 -71z" />
    <glyph glyph-name="edotaccent" unicode="&#x117;" horiz-adv-x="1016" 
d="M932 458q0 -30 -30 -30h-654q4 -66 23 -123.5t55 -100.5t90.5 -67.5t131.5 -24.5q62 0 122 16.5t108 51.5q17 12 27.5 10.5t22.5 -18.5l32 -48q9 -15 7 -27.5t-17 -24.5q-60 -48 -138 -70t-166 -22q-123 0 -210 41.5t-142 110.5t-80.5 159t-25.5 187q0 100 26 191t79 160
t133.5 110t189.5 41q115 0 194 -44.5t128.5 -115t71.5 -157t22 -171.5v-34zM778 544q-5 64 -23 120.5t-50.5 99t-79.5 67.5t-111 25q-62 0 -109 -23.5t-80 -65t-52 -99t-25 -124.5h530zM614 1234q0 -42 -25.5 -71t-72.5 -29t-72.5 29t-25.5 71t25.5 71t72.5 29t72.5 -29
t25.5 -71z" />
    <glyph glyph-name="Eogonek" unicode="&#x118;" horiz-adv-x="1054" 
d="M592 -224q0 56 35 109t95 115h-524q-20 0 -28 8t-8 28v1252q0 20 8 28t28 8h708q20 0 28 -8t8 -28v-64q0 -20 -8 -28t-28 -8h-580v-432h516q20 0 28 -8t8 -28v-64q0 -20 -8 -28t-28 -8h-516v-484h580q20 0 28 -8t8 -28v-64q0 -20 -8 -28t-28 -8h-96q-48 -63 -73 -106.5
t-25 -85.5q0 -45 25 -65.5t61 -20.5q33 0 68 16q20 9 30 6.5t22 -20.5l6 -10q9 -14 7 -26.5t-17 -21.5q-58 -40 -140 -40q-41 0 -74.5 11t-57.5 30.5t-37 47t-13 61.5z" />
    <glyph glyph-name="eogonek" unicode="&#x119;" horiz-adv-x="1016" 
d="M778 544q-5 64 -23 120.5t-50.5 99t-79.5 67.5t-111 25q-62 0 -109 -23.5t-80 -65t-52 -99t-25 -124.5h530zM710 -374q-41 0 -74.5 11t-57.5 30.5t-37 47t-13 61.5q0 44 27.5 99.5t96.5 118.5q-24 -6 -53 -10t-65 -4q-117 0 -201.5 42t-138.5 111.5t-80 159.5t-26 187
q0 99 26 189.5t79 159.5t133.5 110t189.5 41q115 0 194 -44.5t128.5 -115t71.5 -157t22 -171.5v-34q0 -30 -30 -30h-654q4 -65 22.5 -122t54.5 -100.5t91 -68.5t134 -25q60 0 120 16.5t108 51.5q17 12 27.5 10.5t22.5 -18.5l30 -46q11 -17 9 -29.5t-17 -24.5
q-12 -9 -21.5 -15.5t-20.5 -14.5q-47 -32 -77.5 -64.5t-49 -64t-26 -59t-7.5 -48.5q0 -42 24 -63t62 -21q33 0 68 16q20 9 30 6.5t22 -20.5l6 -10q9 -14 7 -26.5t-17 -21.5q-58 -40 -140 -40z" />
    <glyph glyph-name="Ecaron" unicode="&#x11a;" horiz-adv-x="1054" 
d="M198 0q-20 0 -28 8t-8 28v1252q0 20 8 28t28 8h708q20 0 28 -8t8 -28v-64q0 -20 -8 -28t-28 -8h-580v-432h516q20 0 28 -8t8 -28v-64q0 -20 -8 -28t-28 -8h-516v-484h580q20 0 28 -8t8 -28v-64q0 -20 -8 -28t-28 -8h-708zM740 1672q12 8 19 10t13 2q8 0 15 -3.5t15 -12.5
l16 -20q10 -13 10 -24q0 -6 -3.5 -13t-12.5 -13l-228 -166q-15 -12 -32 -12t-32 12l-228 166q-9 6 -12.5 13t-3.5 13q0 11 10 24l16 20q8 9 15 12.5t15 3.5q6 0 13 -2t19 -10l188 -116z" />
    <glyph glyph-name="ecaron" unicode="&#x11b;" horiz-adv-x="1016" 
d="M932 458q0 -30 -30 -30h-654q4 -66 23 -123.5t55 -100.5t90.5 -67.5t131.5 -24.5q62 0 122 16.5t108 51.5q17 12 27.5 10.5t22.5 -18.5l32 -48q9 -15 7 -27.5t-17 -24.5q-60 -48 -138 -70t-166 -22q-123 0 -210 41.5t-142 110.5t-80.5 159t-25.5 187q0 100 26 191t79 160
t133.5 110t189.5 41q115 0 194 -44.5t128.5 -115t71.5 -157t22 -171.5v-34zM778 544q-5 64 -23 120.5t-50.5 99t-79.5 67.5t-111 25q-62 0 -109 -23.5t-80 -65t-52 -99t-25 -124.5h530zM704 1342q12 8 19 10t13 2q8 0 15 -3.5t15 -12.5l16 -20q10 -13 10 -24q0 -6 -3.5 -13
t-12.5 -13l-228 -166q-15 -12 -32 -12t-32 12l-228 166q-9 6 -12.5 13t-3.5 13q0 11 10 24l16 20q8 9 15 12.5t15 3.5q6 0 13 -2t19 -10l188 -116z" />
    <glyph glyph-name="Gcircumflex" unicode="&#x11c;" horiz-adv-x="1320" 
d="M1142 92q-95 -56 -208 -84t-228 -28q-114 0 -204.5 26.5t-158.5 73t-116 110.5t-78 138.5t-43.5 157t-13.5 166.5q0 86 14 170.5t44 161.5t76.5 143t113 114t153 75.5t195.5 27.5q116 0 224.5 -34.5t191.5 -109.5q27 -24 4 -52l-46 -58q-11 -15 -22 -16.5t-26 10.5
q-60 51 -144.5 84.5t-187.5 33.5q-112 0 -192 -43t-131 -117.5t-75 -174.5t-24 -215q0 -116 24.5 -214t78 -169.5t138 -112t205.5 -40.5q35 0 75 4t80 12.5t78.5 22t70.5 33.5v382h-278q-20 0 -28 8t-8 28v64q0 20 8 28t28 8h404q20 0 28 -8t8 -28v-524q0 -18 -7.5 -30.5
t-22.5 -23.5zM474 1444q-12 -8 -19 -10t-13 -2q-17 0 -30 16l-16 20q-6 8 -8 13t-2 11t3.5 13t12.5 13l228 166q15 12 32 12t32 -12l228 -166q9 -6 12.5 -13t3.5 -13t-2 -11t-8 -13l-16 -20q-13 -16 -30 -16q-6 0 -13 2t-19 10l-188 116z" />
    <glyph glyph-name="gcircumflex" unicode="&#x11d;" horiz-adv-x="966" 
d="M932 -96q0 -69 -30.5 -128.5t-90 -103t-147 -68t-202.5 -24.5q-95 0 -172 17.5t-131.5 51.5t-84.5 83t-30 112q0 78 43.5 129.5t114.5 80.5q-39 17 -63.5 49.5t-24.5 82.5q0 32 11 59t29 48.5t40.5 38.5t45.5 30q-35 25 -60 56.5t-41 67.5t-23.5 74.5t-7.5 77.5
q0 64 20 125.5t62.5 109.5t109 77.5t160.5 29.5q41 0 73 -5.5t59 -14.5h292q20 0 28 -8t8 -28v-50q0 -20 -9 -28t-27 -8q-38 0 -80 5t-72 13q51 -44 72.5 -96t21.5 -118q0 -65 -19.5 -126.5t-62.5 -109.5t-112 -77t-168 -29q-88 0 -154 24q-60 -57 -60 -112q0 -11 3.5 -22.5
t17 -20.5t38.5 -15t69 -6h242q65 0 122 -14.5t99 -44.5t66.5 -76t24.5 -109zM196 -136q0 -34 12.5 -65t43 -55t82 -38t130.5 -14q81 0 140 15.5t97 42t56.5 62t18.5 76.5q0 28 -9.5 52t-31.5 42t-58 28t-89 10h-282q-59 -27 -84.5 -66.5t-25.5 -89.5zM262 640
q0 -50 13.5 -91.5t39.5 -72t64.5 -47.5t88.5 -17t88.5 17t64.5 47.5t39.5 72t13.5 91.5q0 49 -13.5 90.5t-39.5 72t-64.5 48t-88.5 17.5t-88.5 -17.5t-64.5 -48t-39.5 -72t-13.5 -90.5zM280 1114q-12 -8 -19 -10t-13 -2q-17 0 -30 16l-16 20q-6 8 -8 13t-2 11t3.5 13
t12.5 13l228 166q15 12 32 12t32 -12l228 -166q9 -6 12.5 -13t3.5 -13t-2 -11t-8 -13l-16 -20q-13 -16 -30 -16q-6 0 -13 2t-19 10l-188 116z" />
    <glyph glyph-name="Gbreve" unicode="&#x11e;" horiz-adv-x="1320" 
d="M1142 92q-95 -56 -208 -84t-228 -28q-114 0 -204.5 26.5t-158.5 73t-116 110.5t-78 138.5t-43.5 157t-13.5 166.5q0 86 14 170.5t44 161.5t76.5 143t113 114t153 75.5t195.5 27.5q116 0 224.5 -34.5t191.5 -109.5q27 -24 4 -52l-46 -58q-11 -15 -22 -16.5t-26 10.5
q-60 51 -144.5 84.5t-187.5 33.5q-112 0 -192 -43t-131 -117.5t-75 -174.5t-24 -215q0 -116 24.5 -214t78 -169.5t138 -112t205.5 -40.5q35 0 75 4t80 12.5t78.5 22t70.5 33.5v382h-278q-20 0 -28 8t-8 28v64q0 20 8 28t28 8h404q20 0 28 -8t8 -28v-524q0 -18 -7.5 -30.5
t-22.5 -23.5zM662 1422q-51 0 -95.5 16t-79.5 41.5t-59.5 58t-35.5 66.5q-2 5 -3 10t-1 10q0 17 20 26l34 12q15 6 24 6t14.5 -6t11.5 -18q26 -47 66.5 -75.5t103.5 -28.5t103.5 28.5t66.5 75.5q6 12 11.5 18t14.5 6t24 -6l34 -12q20 -9 20 -26q0 -5 -1 -10t-3 -10
q-11 -34 -35.5 -66.5t-59.5 -58t-79.5 -41.5t-95.5 -16z" />
    <glyph glyph-name="gbreve" unicode="&#x11f;" horiz-adv-x="966" 
d="M932 -96q0 -69 -30.5 -128.5t-90 -103t-147 -68t-202.5 -24.5q-95 0 -172 17.5t-131.5 51.5t-84.5 83t-30 112q0 78 43.5 129.5t114.5 80.5q-39 17 -63.5 49.5t-24.5 82.5q0 32 11 59t29 48.5t40.5 38.5t45.5 30q-35 25 -60 56.5t-41 67.5t-23.5 74.5t-7.5 77.5
q0 64 20 125.5t62.5 109.5t109 77.5t160.5 29.5q41 0 73 -5.5t59 -14.5h292q20 0 28 -8t8 -28v-50q0 -20 -9 -28t-27 -8q-38 0 -80 5t-72 13q51 -44 72.5 -96t21.5 -118q0 -65 -19.5 -126.5t-62.5 -109.5t-112 -77t-168 -29q-88 0 -154 24q-60 -57 -60 -112q0 -11 3.5 -22.5
t17 -20.5t38.5 -15t69 -6h242q65 0 122 -14.5t99 -44.5t66.5 -76t24.5 -109zM196 -136q0 -34 12.5 -65t43 -55t82 -38t130.5 -14q81 0 140 15.5t97 42t56.5 62t18.5 76.5q0 28 -9.5 52t-31.5 42t-58 28t-89 10h-282q-59 -27 -84.5 -66.5t-25.5 -89.5zM262 640
q0 -50 13.5 -91.5t39.5 -72t64.5 -47.5t88.5 -17t88.5 17t64.5 47.5t39.5 72t13.5 91.5q0 49 -13.5 90.5t-39.5 72t-64.5 48t-88.5 17.5t-88.5 -17.5t-64.5 -48t-39.5 -72t-13.5 -90.5zM468 1092q-51 0 -95.5 16t-79.5 41.5t-59.5 58t-35.5 66.5q-2 5 -3 10t-1 10
q0 17 20 26l34 12q15 6 24 6t14.5 -6t11.5 -18q26 -47 66.5 -75.5t103.5 -28.5t103.5 28.5t66.5 75.5q6 12 11.5 18t14.5 6t24 -6l34 -12q20 -9 20 -26q0 -5 -1 -10t-3 -10q-11 -34 -35.5 -66.5t-59.5 -58t-79.5 -41.5t-95.5 -16z" />
    <glyph glyph-name="Gdotaccent" unicode="&#x120;" horiz-adv-x="1320" 
d="M1142 92q-95 -56 -208 -84t-228 -28q-114 0 -204.5 26.5t-158.5 73t-116 110.5t-78 138.5t-43.5 157t-13.5 166.5q0 86 14 170.5t44 161.5t76.5 143t113 114t153 75.5t195.5 27.5q116 0 224.5 -34.5t191.5 -109.5q27 -24 4 -52l-46 -58q-11 -15 -22 -16.5t-26 10.5
q-60 51 -144.5 84.5t-187.5 33.5q-112 0 -192 -43t-131 -117.5t-75 -174.5t-24 -215q0 -116 24.5 -214t78 -169.5t138 -112t205.5 -40.5q35 0 75 4t80 12.5t78.5 22t70.5 33.5v382h-278q-20 0 -28 8t-8 28v64q0 20 8 28t28 8h404q20 0 28 -8t8 -28v-524q0 -18 -7.5 -30.5
t-22.5 -23.5zM760 1564q0 -42 -25.5 -71t-72.5 -29t-72.5 29t-25.5 71t25.5 71t72.5 29t72.5 -29t25.5 -71z" />
    <glyph glyph-name="gdotaccent" unicode="&#x121;" horiz-adv-x="966" 
d="M932 -96q0 -69 -30.5 -128.5t-90 -103t-147 -68t-202.5 -24.5q-95 0 -172 17.5t-131.5 51.5t-84.5 83t-30 112q0 78 43.5 129.5t114.5 80.5q-39 17 -63.5 49.5t-24.5 82.5q0 32 11 59t29 48.5t40.5 38.5t45.5 30q-35 25 -60 56.5t-41 67.5t-23.5 74.5t-7.5 77.5
q0 64 20 125.5t62.5 109.5t109 77.5t160.5 29.5q41 0 73 -5.5t59 -14.5h292q20 0 28 -8t8 -28v-50q0 -20 -9 -28t-27 -8q-38 0 -80 5t-72 13q51 -44 72.5 -96t21.5 -118q0 -65 -19.5 -126.5t-62.5 -109.5t-112 -77t-168 -29q-88 0 -154 24q-60 -57 -60 -112q0 -11 3.5 -22.5
t17 -20.5t38.5 -15t69 -6h242q65 0 122 -14.5t99 -44.5t66.5 -76t24.5 -109zM196 -136q0 -34 12.5 -65t43 -55t82 -38t130.5 -14q81 0 140 15.5t97 42t56.5 62t18.5 76.5q0 28 -9.5 52t-31.5 42t-58 28t-89 10h-282q-59 -27 -84.5 -66.5t-25.5 -89.5zM262 640
q0 -50 13.5 -91.5t39.5 -72t64.5 -47.5t88.5 -17t88.5 17t64.5 47.5t39.5 72t13.5 91.5q0 49 -13.5 90.5t-39.5 72t-64.5 48t-88.5 17.5t-88.5 -17.5t-64.5 -48t-39.5 -72t-13.5 -90.5zM566 1234q0 -42 -25.5 -71t-72.5 -29t-72.5 29t-25.5 71t25.5 71t72.5 29t72.5 -29
t25.5 -71z" />
    <glyph glyph-name="Gcommaaccent" unicode="&#x122;" horiz-adv-x="1320" 
d="M1142 92q-95 -56 -208 -84t-228 -28q-114 0 -204.5 26.5t-158.5 73t-116 110.5t-78 138.5t-43.5 157t-13.5 166.5q0 86 14 170.5t44 161.5t76.5 143t113 114t153 75.5t195.5 27.5q116 0 224.5 -34.5t191.5 -109.5q27 -24 4 -52l-46 -58q-11 -15 -22 -16.5t-26 10.5
q-60 51 -144.5 84.5t-187.5 33.5q-112 0 -192 -43t-131 -117.5t-75 -174.5t-24 -215q0 -116 24.5 -214t78 -169.5t138 -112t205.5 -40.5q35 0 75 4t80 12.5t78.5 22t70.5 33.5v382h-278q-20 0 -28 8t-8 28v64q0 20 8 28t28 8h404q20 0 28 -8t8 -28v-524q0 -18 -7.5 -30.5
t-22.5 -23.5zM808 -198q0 -51 -30.5 -109.5t-83.5 -114.5q-6 -6 -11 -10t-11 -4q-9 0 -20 8l-6 4q-16 10 -16 20q0 9 8 20q24 32 30 51t6 33q0 21 -9 34.5t-19.5 25.5t-19 26.5t-8.5 37.5q0 33 22.5 57.5t69.5 24.5t72.5 -28t25.5 -76z" />
    <glyph glyph-name="gcommaaccent" unicode="&#x123;" horiz-adv-x="966" 
d="M932 -96q0 -69 -30.5 -128.5t-90 -103t-147 -68t-202.5 -24.5q-95 0 -172 17.5t-131.5 51.5t-84.5 83t-30 112q0 78 43.5 129.5t114.5 80.5q-39 17 -63.5 49.5t-24.5 82.5q0 32 11 59t29 48.5t40.5 38.5t45.5 30q-35 25 -60 56.5t-41 67.5t-23.5 74.5t-7.5 77.5
q0 64 20 125.5t62.5 109.5t109 77.5t160.5 29.5q41 0 73 -5.5t59 -14.5h292q20 0 28 -8t8 -28v-50q0 -20 -9 -28t-27 -8q-38 0 -80 5t-72 13q51 -44 72.5 -96t21.5 -118q0 -65 -19.5 -126.5t-62.5 -109.5t-112 -77t-168 -29q-88 0 -154 24q-60 -57 -60 -112q0 -11 3.5 -22.5
t17 -20.5t38.5 -15t69 -6h242q65 0 122 -14.5t99 -44.5t66.5 -76t24.5 -109zM196 -136q0 -34 12.5 -65t43 -55t82 -38t130.5 -14q81 0 140 15.5t97 42t56.5 62t18.5 76.5q0 28 -9.5 52t-31.5 42t-58 28t-89 10h-282q-59 -27 -84.5 -66.5t-25.5 -89.5zM262 640
q0 -50 13.5 -91.5t39.5 -72t64.5 -47.5t88.5 -17t88.5 17t64.5 47.5t39.5 72t13.5 91.5q0 49 -13.5 90.5t-39.5 72t-64.5 48t-88.5 17.5t-88.5 -17.5t-64.5 -48t-39.5 -72t-13.5 -90.5zM364 1216q0 51 30.5 109.5t83.5 114.5q6 6 11 10t11 4q9 0 20 -8l6 -4q16 -10 16 -20
q0 -9 -8 -20q-24 -32 -30 -51t-6 -33q0 -21 8.5 -34.5t19 -25.5t19.5 -26.5t9 -37.5q0 -33 -22.5 -57.5t-69.5 -24.5t-72.5 28t-25.5 76z" />
    <glyph glyph-name="Hcircumflex" unicode="&#x124;" horiz-adv-x="1336" 
d="M198 0q-20 0 -28 8t-8 28v1252q0 20 8 28t28 8h92q20 0 28 -8t8 -28v-552h684v552q0 20 8 28t28 8h92q20 0 28 -8t8 -28v-1252q0 -20 -8 -28t-28 -8h-92q-20 0 -28 8t-8 28v564h-684v-564q0 -20 -8 -28t-28 -8h-92zM480 1464q-12 -8 -19 -10t-13 -2q-17 0 -30 16l-16 20
q-6 8 -8 13t-2 11t3.5 13t12.5 13l228 166q15 12 32 12t32 -12l228 -166q9 -6 12.5 -13t3.5 -13t-2 -11t-8 -13l-16 -20q-13 -16 -30 -16q-6 0 -13 2t-19 10l-188 116z" />
    <glyph glyph-name="hcircumflex" unicode="&#x125;" horiz-adv-x="1078" 
d="M190 0q-20 0 -28 8t-8 28v1364q0 20 8 28t28 8h84q20 0 28 -8t8 -28v-546q21 25 48 47.5t61.5 40t78 28t96.5 10.5q90 0 153.5 -29.5t103.5 -79.5t58.5 -116t18.5 -139v-580q0 -20 -8 -28t-28 -8h-84q-20 0 -28 8t-8 28v566q0 42 -8.5 86t-31.5 80t-63.5 59t-104.5 23
q-32 0 -65.5 -6.5t-66.5 -21.5t-64.5 -39.5t-57.5 -60.5v-686q0 -20 -8 -28t-28 -8h-84zM45 1512q-12 -8 -19 -10t-13 -2q-17 0 -30 16l-16 20q-6 8 -8 13t-2 11t3.5 13t12.5 13l228 166q15 12 32 12t32 -12l228 -166q9 -6 12.5 -13t3.5 -13t-2 -11t-8 -13l-16 -20
q-13 -16 -30 -16q-6 0 -13 2t-19 10l-188 116z" />
    <glyph glyph-name="Hbar" unicode="&#x126;" horiz-adv-x="1360" 
d="M1312 1078q20 0 28 -8t8 -28v-40q0 -20 -8 -28t-28 -8h-126v-930q0 -20 -8 -28t-28 -8h-92q-20 0 -28 8t-8 28v564h-684v-564q0 -20 -8 -28t-28 -8h-92q-20 0 -28 8t-8 28v930h-126q-20 0 -28 8t-8 28v40q0 20 8 28t28 8h126v210q0 20 8 28t28 8h92q20 0 28 -8t8 -28
v-210h684v210q0 20 8 28t28 8h92q20 0 28 -8t8 -28v-210h126zM338 736h684v230h-684v-230z" />
    <glyph glyph-name="hbar" unicode="&#x127;" horiz-adv-x="1078" 
d="M56 1122q-20 0 -28 8t-8 28v38q0 20 8 28t28 8h98v168q0 20 8 28t28 8h84q20 0 28 -8t8 -28v-168h212q20 0 28 -8t8 -28v-38q0 -20 -8 -28t-28 -8h-212v-268q21 25 48 47.5t61.5 40t78 28t96.5 10.5q90 0 153.5 -29.5t103.5 -79.5t58.5 -116t18.5 -139v-580q0 -20 -8 -28
t-28 -8h-84q-20 0 -28 8t-8 28v566q0 42 -8.5 86t-31.5 80t-63.5 59t-104.5 23q-32 0 -65.5 -6.5t-66.5 -21.5t-64.5 -39.5t-57.5 -60.5v-686q0 -20 -8 -28t-28 -8h-84q-20 0 -28 8t-8 28v1086h-98z" />
    <glyph glyph-name="Itilde" unicode="&#x128;" horiz-adv-x="488" 
d="M198 0q-20 0 -28 8t-8 28v1252q0 20 8 28t28 8h92q20 0 28 -8t8 -28v-1252q0 -20 -8 -28t-28 -8h-92zM363 1458q-34 0 -64.5 10.5t-59 23.5t-55 23.5t-51.5 10.5q-26 0 -49.5 -11t-44.5 -31q-14 -14 -28 -14q-16 0 -30 14l-14 12q-14 11 -14 26q0 5 1.5 11.5t6.5 14.5
q10 18 26.5 35t38.5 30.5t47.5 22t53.5 8.5q34 0 64.5 -10.5t59 -23.5t54.5 -23.5t52 -10.5t49.5 11t44.5 31q14 14 28 14q16 0 30 -14l14 -12q14 -11 14 -26q0 -5 -1.5 -11.5t-6.5 -14.5q-10 -18 -26.5 -35.5t-38.5 -31t-47.5 -21.5t-53.5 -8z" />
    <glyph glyph-name="itilde" unicode="&#x129;" horiz-adv-x="464" 
d="M190 0q-20 0 -28 8t-8 28v888q0 20 8 28t28 8h84q20 0 28 -8t8 -28v-888q0 -20 -8 -28t-28 -8h-84zM351 1128q-34 0 -64.5 10.5t-59 23.5t-55 23.5t-51.5 10.5q-26 0 -49.5 -11t-44.5 -31q-14 -14 -28 -14q-16 0 -30 14l-14 12q-14 11 -14 26q0 5 1.5 11.5t6.5 14.5
q10 18 26.5 35t38.5 30.5t47.5 22t53.5 8.5q34 0 64.5 -10.5t59 -23.5t54.5 -23.5t52 -10.5t49.5 11t44.5 31q14 14 28 14q16 0 30 -14l14 -12q14 -11 14 -26q0 -5 -1.5 -11.5t-6.5 -14.5q-10 -18 -26.5 -35.5t-38.5 -31t-47.5 -21.5t-53.5 -8z" />
    <glyph glyph-name="Imacron" unicode="&#x12a;" horiz-adv-x="488" 
d="M198 0q-20 0 -28 8t-8 28v1252q0 20 8 28t28 8h92q20 0 28 -8t8 -28v-1252q0 -20 -8 -28t-28 -8h-92zM447 1592q20 0 28 -8t8 -28v-40q0 -20 -8 -28t-28 -8h-404q-20 0 -28 8t-8 28v40q0 20 8 28t28 8h404z" />
    <glyph glyph-name="imacron" unicode="&#x12b;" horiz-adv-x="464" 
d="M190 0q-20 0 -28 8t-8 28v888q0 20 8 28t28 8h84q20 0 28 -8t8 -28v-888q0 -20 -8 -28t-28 -8h-84zM435 1262q20 0 28 -8t8 -28v-40q0 -20 -8 -28t-28 -8h-404q-20 0 -28 8t-8 28v40q0 20 8 28t28 8h404z" />
    <glyph glyph-name="Ibreve" unicode="&#x12c;" horiz-adv-x="488" 
d="M198 0q-20 0 -28 8t-8 28v1252q0 20 8 28t28 8h92q20 0 28 -8t8 -28v-1252q0 -20 -8 -28t-28 -8h-92zM245 1422q-51 0 -95.5 16t-79.5 41.5t-59.5 58t-35.5 66.5q-2 5 -3 10t-1 10q0 17 20 26l34 12q15 6 24 6t14.5 -6t11.5 -18q26 -47 66.5 -75.5t103.5 -28.5
t103.5 28.5t66.5 75.5q6 12 11.5 18t14.5 6t24 -6l34 -12q20 -9 20 -26q0 -5 -1 -10t-3 -10q-11 -34 -35.5 -66.5t-59.5 -58t-79.5 -41.5t-95.5 -16z" />
    <glyph glyph-name="ibreve" unicode="&#x12d;" horiz-adv-x="464" 
d="M190 0q-20 0 -28 8t-8 28v888q0 20 8 28t28 8h84q20 0 28 -8t8 -28v-888q0 -20 -8 -28t-28 -8h-84zM233 1092q-51 0 -95.5 16t-79.5 41.5t-59.5 58t-35.5 66.5q-2 5 -3 10t-1 10q0 17 20 26l34 12q15 6 24 6t14.5 -6t11.5 -18q26 -47 66.5 -75.5t103.5 -28.5t103.5 28.5
t66.5 75.5q6 12 11.5 18t14.5 6t24 -6l34 -12q20 -9 20 -26q0 -5 -1 -10t-3 -10q-11 -34 -35.5 -66.5t-59.5 -58t-79.5 -41.5t-95.5 -16z" />
    <glyph glyph-name="Iogonek" unicode="&#x12e;" horiz-adv-x="488" 
d="M72 -224q0 56 35 109t95 115h-4q-20 0 -28 8t-8 28v1252q0 20 8 28t28 8h92q20 0 28 -8t8 -28v-1254q0 -34 -34 -34h-2q-48 -63 -73 -106.5t-25 -85.5q0 -45 25 -65.5t61 -20.5q33 0 68 16q20 9 30 6.5t22 -20.5l6 -10q9 -14 7 -26.5t-17 -21.5q-58 -40 -140 -40
q-41 0 -74.5 11t-57.5 30.5t-37 47t-13 61.5z" />
    <glyph glyph-name="iogonek" unicode="&#x12f;" horiz-adv-x="464" 
d="M58 -224q0 56 35 109t95 115h-2q-32 0 -32 32v892q0 20 8 28t28 8h84q20 0 28 -8t8 -28v-892q0 -32 -32 -32h-2q-48 -63 -73 -106.5t-25 -85.5q0 -45 25 -65.5t61 -20.5q33 0 68 16q20 9 30 6.5t22 -20.5l6 -10q9 -14 7 -26.5t-17 -21.5q-58 -40 -140 -40q-41 0 -74.5 11
t-57.5 30.5t-37 47t-13 61.5zM338 1306q0 -45 -28 -76.5t-78 -31.5t-78 31.5t-28 76.5t28 76.5t78 31.5t78 -31.5t28 -76.5z" />
    <glyph glyph-name="Idotaccent" unicode="&#x130;" horiz-adv-x="488" 
d="M198 0q-20 0 -28 8t-8 28v1252q0 20 8 28t28 8h92q20 0 28 -8t8 -28v-1252q0 -20 -8 -28t-28 -8h-92zM342 1564q0 -42 -25.5 -71t-72.5 -29t-72.5 29t-25.5 71t25.5 71t72.5 29t72.5 -29t25.5 -71z" />
    <glyph glyph-name="dotlessi" unicode="&#x131;" horiz-adv-x="464" 
d="M190 0q-20 0 -28 8t-8 28v888q0 20 8 28t28 8h84q20 0 28 -8t8 -28v-888q0 -20 -8 -28t-28 -8h-84z" />
    <glyph glyph-name="IJ" unicode="&#x132;" horiz-adv-x="1192" 
d="M162 540q-20 0 -28 8t-8 28v712q0 20 8 28t28 8h92q20 0 28 -8t8 -28v-712q0 -20 -8 -28t-28 -8h-92zM1046 478q0 -113 -32 -204.5t-95.5 -157t-158.5 -101t-222 -35.5q-118 0 -203 28.5t-139 75.5q-27 24 -6 54l46 62q20 28 48 6q44 -38 104.5 -62t149.5 -24
q88 0 152.5 25.5t107 73.5t63.5 115.5t21 151.5v802q0 20 8 28t28 8h92q20 0 28 -8t8 -28v-810z" />
    <glyph glyph-name="ij" unicode="&#x133;" horiz-adv-x="928" 
d="M190 0q-20 0 -28 8t-8 28v888q0 20 8 28t28 8h84q20 0 28 -8t8 -28v-888q0 -20 -8 -28t-28 -8h-84zM338 1306q0 -45 -28 -76.5t-78 -31.5t-78 31.5t-28 76.5t28 76.5t78 31.5t78 -31.5t28 -76.5zM774 -90q0 -166 -69.5 -248t-200.5 -82q-38 0 -75 6.5t-69 23.5
q-32 15 -20 48l22 52q9 18 18.5 22.5t29.5 -4.5q35 -16 76 -16q72 0 102 54t30 154v1004q0 20 8 28t28 8h84q20 0 28 -8t8 -28v-1014zM802 1306q0 -45 -28 -76.5t-78 -31.5t-78 31.5t-28 76.5t28 76.5t78 31.5t78 -31.5t28 -76.5z" />
    <glyph glyph-name="Jcircumflex" unicode="&#x134;" horiz-adv-x="904" 
d="M754 438q0 -108 -27 -193t-78 -144t-126 -90t-171 -31q-92 0 -165 26t-121 68q-27 21 -8 52l40 58q12 17 22.5 18.5t25.5 -10.5q38 -32 89 -52t113 -20q118 0 180 83t62 243v842q0 20 8 28t28 8h92q20 0 28 -8t8 -28v-850v0zM484 1444q-12 -8 -19 -10t-13 -2
q-17 0 -30 16l-16 20q-6 8 -8 13t-2 11t3.5 13t12.5 13l228 166q15 12 32 12t32 -12l228 -166q9 -6 12.5 -13t3.5 -13t-2 -11t-8 -13l-16 -20q-13 -16 -30 -16q-6 0 -13 2t-19 10l-188 116z" />
    <glyph glyph-name="jcircumflex" unicode="&#x135;" horiz-adv-x="464" 
d="M310 -90q0 -166 -69.5 -248t-200.5 -82q-38 0 -75 6.5t-69 23.5q-32 15 -20 48l22 52q9 18 18.5 22.5t29.5 -4.5q35 -16 76 -16q72 0 102 54t30 154v1004q0 20 8 28t28 8h84q20 0 28 -8t8 -28v-1014v0zM45 1114q-12 -8 -19 -10t-13 -2q-17 0 -30 16l-16 20q-6 8 -8 13
t-2 11t3.5 13t12.5 13l228 166q15 12 32 12t32 -12l228 -166q9 -6 12.5 -13t3.5 -13t-2 -11t-8 -13l-16 -20q-13 -16 -30 -16q-6 0 -13 2t-19 10l-188 116z" />
    <glyph glyph-name="Kcommaaccent" unicode="&#x136;" horiz-adv-x="1160" 
d="M984 0q-20 0 -31.5 7t-20.5 25q-35 75 -82 156.5t-101.5 162.5t-115.5 157.5t-125 141.5q-44 -39 -90.5 -73.5t-91.5 -66.5v-474q0 -20 -8 -28t-28 -8h-92q-20 0 -28 8t-8 28v1252q0 20 8 28t28 8h92q20 0 28 -8t8 -28v-618q76 56 154.5 133.5t152 162t137 170
t108.5 158.5q11 17 22.5 23.5t31.5 6.5h106q17 0 22 -8.5t-4 -23.5q-83 -142 -194 -280t-238 -260q70 -71 141.5 -160t136 -184t120 -191.5t94.5 -182.5q12 -34 -22 -34h-110zM718 -198q0 -51 -30.5 -109.5t-83.5 -114.5q-6 -6 -11 -10t-11 -4q-9 0 -20 8l-6 4
q-16 10 -16 20q0 9 8 20q24 32 30 51t6 33q0 21 -9 34.5t-19.5 25.5t-19 26.5t-8.5 37.5q0 33 22.5 57.5t69.5 24.5t72.5 -28t25.5 -76z" />
    <glyph glyph-name="kcommaaccent" unicode="&#x137;" horiz-adv-x="958" 
d="M800 0q-20 0 -31.5 7t-20.5 25q-29 52 -64.5 109t-76.5 113.5t-86.5 109.5t-92.5 98q-29 -23 -58.5 -43.5t-59.5 -40.5v-342q0 -20 -8 -28t-28 -8h-84q-20 0 -28 8t-8 28v1364q0 20 8 28t28 8h84q20 0 28 -8t8 -28v-872q55 39 110 88.5t105.5 103.5t94.5 108t76 102
q12 17 24.5 23.5t33.5 6.5h98q17 0 21 -8t-5 -22q-65 -100 -150.5 -197.5t-185.5 -186.5q55 -52 111 -115t106.5 -130.5t93.5 -136.5t73 -132q16 -32 -20 -32h-96zM630 -198q0 -51 -30.5 -109.5t-83.5 -114.5q-6 -6 -11 -10t-11 -4q-9 0 -20 8l-6 4q-16 10 -16 20q0 9 8 20
q24 32 30 51t6 33q0 21 -9 34.5t-19.5 25.5t-19 26.5t-8.5 37.5q0 33 22.5 57.5t69.5 24.5t72.5 -28t25.5 -76z" />
    <glyph glyph-name="Lacute" unicode="&#x139;" horiz-adv-x="940" 
d="M198 0q-20 0 -28 8t-8 28v1252q0 20 8 28t28 8h92q20 0 28 -8t8 -28v-1152h544q20 0 28 -8t8 -28v-64q0 -20 -8 -28t-28 -8h-672zM374 1718q8 6 14 8t12 2t13 -3t13 -11l34 -42q10 -13 10 -26t-14 -24l-260 -196q-15 -12 -26 -12q-13 0 -26 16l-22 28q-10 13 -10 22
q0 8 4 14t12 14z" />
    <glyph glyph-name="lacute" unicode="&#x13a;" horiz-adv-x="464" 
d="M190 0q-20 0 -28 8t-8 28v1364q0 20 8 28t28 8h84q20 0 28 -8t8 -28v-1364q0 -20 -8 -28t-28 -8h-84zM343 1798q8 6 14 8t12 2t13 -3t13 -11l34 -42q10 -13 10 -26t-14 -24l-260 -196q-15 -12 -26 -12q-13 0 -26 16l-22 28q-10 13 -10 22q0 8 4 14t12 14z" />
    <glyph glyph-name="Lcommaaccent" unicode="&#x13b;" horiz-adv-x="940" 
d="M198 0q-20 0 -28 8t-8 28v1252q0 20 8 28t28 8h92q20 0 28 -8t8 -28v-1152h544q20 0 28 -8t8 -28v-64q0 -20 -8 -28t-28 -8h-672zM636 -198q0 -51 -30.5 -109.5t-83.5 -114.5q-6 -6 -11 -10t-11 -4q-9 0 -20 8l-6 4q-16 10 -16 20q0 9 8 20q24 32 30 51t6 33
q0 21 -9 34.5t-19.5 25.5t-19 26.5t-8.5 37.5q0 33 22.5 57.5t69.5 24.5t72.5 -28t25.5 -76z" />
    <glyph glyph-name="lcommaaccent" unicode="&#x13c;" horiz-adv-x="464" 
d="M190 0q-20 0 -28 8t-8 28v1364q0 20 8 28t28 8h84q20 0 28 -8t8 -28v-1364q0 -20 -8 -28t-28 -8h-84zM334 -198q0 -51 -30.5 -109.5t-83.5 -114.5q-6 -6 -11 -10t-11 -4q-9 0 -20 8l-6 4q-16 10 -16 20q0 9 8 20q24 32 30 51t6 33q0 21 -9 34.5t-19.5 25.5t-19 26.5
t-8.5 37.5q0 33 22.5 57.5t69.5 24.5t72.5 -28t25.5 -76z" />
    <glyph glyph-name="Lcaron" unicode="&#x13d;" horiz-adv-x="940" 
d="M198 0q-20 0 -28 8t-8 28v1252q0 20 8 28t28 8h92q20 0 28 -8t8 -28v-1152h544q20 0 28 -8t8 -28v-64q0 -20 -8 -28t-28 -8h-672zM490 979q-18 3 -25 12t-5 26l32 288q3 30 26 30q5 0 11.5 -1t14.5 -3l66 -14q26 -6 26 -24q0 -10 -6 -28l-96 -264q-6 -17 -16.5 -21
t-27.5 -1z" />
    <glyph glyph-name="lcaron" unicode="&#x13e;" horiz-adv-x="464" 
d="M190 0q-20 0 -28 8t-8 28v1364q0 20 8 28t28 8h84q20 0 28 -8t8 -28v-1364q0 -20 -8 -28t-28 -8h-84zM476 1090q-18 3 -25 12t-5 26l32 288q3 30 26 30q5 0 11.5 -1t14.5 -3l66 -14q26 -6 26 -24q0 -10 -6 -28l-96 -264q-6 -17 -16.5 -21t-27.5 -1z" />
    <glyph glyph-name="Ldot" unicode="&#x13f;" horiz-adv-x="940" 
d="M810 678q0 -50 -31.5 -84t-84.5 -34t-84.5 34t-31.5 84t31.5 84t84.5 34t84.5 -34t31.5 -84zM198 0q-20 0 -28 8t-8 28v1252q0 20 8 28t28 8h92q20 0 28 -8t8 -28v-1152h544q20 0 28 -8t8 -28v-64q0 -20 -8 -28t-28 -8h-672z" />
    <glyph glyph-name="ldot" unicode="&#x140;" horiz-adv-x="728" 
d="M190 0q-20 0 -28 8t-8 28v1364q0 20 8 28t28 8h84q20 0 28 -8t8 -28v-1364q0 -20 -8 -28t-28 -8h-84zM710 574q0 -50 -31.5 -84t-84.5 -34t-84.5 34t-31.5 84t31.5 84t84.5 34t84.5 -34t31.5 -84z" />
    <glyph glyph-name="Lslash" unicode="&#x141;" horiz-adv-x="952" 
d="M52 476q-15 -9 -23.5 -4t-8.5 22v70q0 20 7 31.5t25 22.5l122 70v600q0 20 8 28t28 8h92q20 0 28 -8t8 -28v-518l278 160q15 9 23.5 4t8.5 -22v-70q0 -20 -7 -31.5t-25 -22.5l-278 -160v-492h544q20 0 28 -8t8 -28v-64q0 -20 -8 -28t-28 -8h-672q-20 0 -28 8t-8 28v510z
" />
    <glyph glyph-name="lslash" unicode="&#x142;" horiz-adv-x="484" 
d="M42 564q-15 -9 -23.5 -4t-8.5 22v70q0 20 7 31.5t25 22.5l122 70v624q0 20 8 28t28 8h84q20 0 28 -8t8 -28v-542l122 70q15 9 23.5 4t8.5 -22v-70q0 -20 -7 -31.5t-25 -22.5l-122 -70v-680q0 -20 -8 -28t-28 -8h-84q-20 0 -28 8t-8 28v598z" />
    <glyph glyph-name="Nacute" unicode="&#x143;" horiz-adv-x="1340" 
d="M198 0q-20 0 -28 8t-8 28v1252q0 20 8 28t28 8h112q20 0 32.5 -6.5t21.5 -23.5l664 -1086v1080q0 20 8 28t28 8h78q20 0 28 -8t8 -28v-1252q0 -20 -8 -28t-28 -8h-112q-20 0 -32.5 6.5t-21.5 23.5l-664 1086v-1080q0 -20 -8 -28t-28 -8h-78zM800 1718q8 6 14 8t12 2
t13 -3t13 -11l34 -42q10 -13 10 -26t-14 -24l-260 -196q-15 -12 -26 -12q-13 0 -26 16l-22 28q-10 13 -10 22q0 8 4 14t12 14z" />
    <glyph glyph-name="nacute" unicode="&#x144;" horiz-adv-x="1078" 
d="M190 0q-20 0 -28 8t-8 28v888q0 20 8 28t28 8h74q20 0 28 -8t8 -28v-80q20 25 47.5 49.5t63.5 44t82 31t103 11.5q89 0 152 -29.5t103 -79t58.5 -116t18.5 -139.5v-580q0 -20 -8 -28t-28 -8h-84q-20 0 -28 8t-8 28v566q0 42 -8.5 86t-31.5 80t-63.5 59t-104.5 23
q-32 0 -65.5 -6.5t-66.5 -21.5t-64.5 -39.5t-57.5 -60.5v-686q0 -20 -8 -28t-28 -8h-84zM670 1388q8 6 14 8t12 2t13 -3t13 -11l34 -42q10 -13 10 -26t-14 -24l-260 -196q-15 -12 -26 -12q-13 0 -26 16l-22 28q-10 13 -10 22q0 8 4 14t12 14z" />
    <glyph glyph-name="Ncommaaccent" unicode="&#x145;" horiz-adv-x="1340" 
d="M198 0q-20 0 -28 8t-8 28v1252q0 20 8 28t28 8h112q20 0 32.5 -6.5t21.5 -23.5l664 -1086v1080q0 20 8 28t28 8h78q20 0 28 -8t8 -28v-1252q0 -20 -8 -28t-28 -8h-112q-20 0 -32.5 6.5t-21.5 23.5l-664 1086v-1080q0 -20 -8 -28t-28 -8h-78zM772 -198q0 -51 -30.5 -109.5
t-83.5 -114.5q-6 -6 -11 -10t-11 -4q-9 0 -20 8l-6 4q-16 10 -16 20q0 9 8 20q24 32 30 51t6 33q0 21 -9 34.5t-19.5 25.5t-19 26.5t-8.5 37.5q0 33 22.5 57.5t69.5 24.5t72.5 -28t25.5 -76z" />
    <glyph glyph-name="ncommaaccent" unicode="&#x146;" horiz-adv-x="1078" 
d="M190 0q-20 0 -28 8t-8 28v888q0 20 8 28t28 8h74q20 0 28 -8t8 -28v-80q20 25 47.5 49.5t63.5 44t82 31t103 11.5q89 0 152 -29.5t103 -79t58.5 -116t18.5 -139.5v-580q0 -20 -8 -28t-28 -8h-84q-20 0 -28 8t-8 28v566q0 42 -8.5 86t-31.5 80t-63.5 59t-104.5 23
q-32 0 -65.5 -6.5t-66.5 -21.5t-64.5 -39.5t-57.5 -60.5v-686q0 -20 -8 -28t-28 -8h-84zM642 -198q0 -51 -30.5 -109.5t-83.5 -114.5q-6 -6 -11 -10t-11 -4q-9 0 -20 8l-6 4q-16 10 -16 20q0 9 8 20q24 32 30 51t6 33q0 21 -9 34.5t-19.5 25.5t-19 26.5t-8.5 37.5
q0 33 22.5 57.5t69.5 24.5t72.5 -28t25.5 -76z" />
    <glyph glyph-name="Ncaron" unicode="&#x147;" horiz-adv-x="1340" 
d="M198 0q-20 0 -28 8t-8 28v1252q0 20 8 28t28 8h112q20 0 32.5 -6.5t21.5 -23.5l664 -1086v1080q0 20 8 28t28 8h78q20 0 28 -8t8 -28v-1252q0 -20 -8 -28t-28 -8h-112q-20 0 -32.5 6.5t-21.5 23.5l-664 1086v-1080q0 -20 -8 -28t-28 -8h-78zM858 1672q12 8 19 10t13 2
q8 0 15 -3.5t15 -12.5l16 -20q10 -13 10 -24q0 -6 -3.5 -13t-12.5 -13l-228 -166q-15 -12 -32 -12t-32 12l-228 166q-9 6 -12.5 13t-3.5 13q0 11 10 24l16 20q8 9 15 12.5t15 3.5q6 0 13 -2t19 -10l188 -116z" />
    <glyph glyph-name="ncaron" unicode="&#x148;" horiz-adv-x="1078" 
d="M190 0q-20 0 -28 8t-8 28v888q0 20 8 28t28 8h74q20 0 28 -8t8 -28v-80q20 25 47.5 49.5t63.5 44t82 31t103 11.5q89 0 152 -29.5t103 -79t58.5 -116t18.5 -139.5v-580q0 -20 -8 -28t-28 -8h-84q-20 0 -28 8t-8 28v566q0 42 -8.5 86t-31.5 80t-63.5 59t-104.5 23
q-32 0 -65.5 -6.5t-66.5 -21.5t-64.5 -39.5t-57.5 -60.5v-686q0 -20 -8 -28t-28 -8h-84zM728 1342q12 8 19 10t13 2q8 0 15 -3.5t15 -12.5l16 -20q10 -13 10 -24q0 -6 -3.5 -13t-12.5 -13l-228 -166q-15 -12 -32 -12t-32 12l-228 166q-9 6 -12.5 13t-3.5 13q0 11 10 24
l16 20q8 9 15 12.5t15 3.5q6 0 13 -2t19 -10l188 -116z" />
    <glyph glyph-name="napostrophe" unicode="&#x149;" horiz-adv-x="1370" 
d="M97 1342q0 42 27 73t77 31q48 0 74 -32.5t26 -91.5q0 -33 -8.5 -73t-24 -82t-37.5 -85t-50 -82q-12 -18 -30 -18q-6 0 -12.5 2.5t-11.5 5.5l-6 4q-20 13 -20 28q0 11 8 22q30 45 39 75.5t9 54.5q0 27 -9.5 47t-20.5 38t-20.5 37.5t-9.5 45.5zM482 0q-20 0 -28 8t-8 28
v888q0 20 8 28t28 8h74q20 0 28 -8t8 -28v-80q20 25 47.5 49.5t63.5 44t82 31t103 11.5q89 0 152 -29.5t103 -79t58.5 -116t18.5 -139.5v-580q0 -20 -8 -28t-28 -8h-84q-20 0 -28 8t-8 28v566q0 42 -8.5 86t-31.5 80t-63.5 59t-104.5 23q-32 0 -65.5 -6.5t-66.5 -21.5
t-64.5 -39.5t-57.5 -60.5v-686q0 -20 -8 -28t-28 -8h-84z" />
    <glyph glyph-name="Omacron" unicode="&#x14c;" horiz-adv-x="1388" 
d="M260 662q0 -115 27 -214.5t81 -173t135.5 -116t190.5 -42.5t190.5 42.5t135.5 116t81 173t27 214.5t-27 214.5t-81 173t-135.5 116t-190.5 42.5t-190.5 -42.5t-135.5 -116t-81 -173t-27 -214.5zM1296 662q0 -141 -40.5 -265t-117.5 -217t-189 -146.5t-255 -53.5
q-146 0 -258 53t-188.5 145.5t-116 216.5t-39.5 267q0 141 40.5 265t117.5 217t189 146.5t255 53.5q145 0 257.5 -53t189 -145.5t116 -217t39.5 -266.5zM888 1592q20 0 28 -8t8 -28v-40q0 -20 -8 -28t-28 -8h-404q-20 0 -28 8t-8 28v40q0 20 8 28t28 8h404z" />
    <glyph glyph-name="omacron" unicode="&#x14d;" horiz-adv-x="1060" 
d="M250 480q0 -74 15.5 -142t49.5 -120t87 -83t128 -31t128 31t87 83t49.5 120t15.5 142t-15.5 142t-49.5 120t-87 83t-128 31t-128 -31t-87 -83t-49.5 -120t-15.5 -142zM972 480q0 -97 -26 -187t-80 -159.5t-137.5 -111.5t-198.5 -42q-118 0 -201.5 42t-137 111.5
t-78.5 159.5t-25 187t25.5 187t79.5 159.5t137.5 111.5t199.5 42q118 0 201.5 -42t137 -111.5t78.5 -159.5t25 -187zM732 1262q20 0 28 -8t8 -28v-40q0 -20 -8 -28t-28 -8h-404q-20 0 -28 8t-8 28v40q0 20 8 28t28 8h404z" />
    <glyph glyph-name="Obreve" unicode="&#x14e;" horiz-adv-x="1388" 
d="M260 662q0 -115 27 -214.5t81 -173t135.5 -116t190.5 -42.5t190.5 42.5t135.5 116t81 173t27 214.5t-27 214.5t-81 173t-135.5 116t-190.5 42.5t-190.5 -42.5t-135.5 -116t-81 -173t-27 -214.5zM1296 662q0 -141 -40.5 -265t-117.5 -217t-189 -146.5t-255 -53.5
q-146 0 -258 53t-188.5 145.5t-116 216.5t-39.5 267q0 141 40.5 265t117.5 217t189 146.5t255 53.5q145 0 257.5 -53t189 -145.5t116 -217t39.5 -266.5zM686 1422q-51 0 -95.5 16t-79.5 41.5t-59.5 58t-35.5 66.5q-2 5 -3 10t-1 10q0 17 20 26l34 12q15 6 24 6t14.5 -6
t11.5 -18q26 -47 66.5 -75.5t103.5 -28.5t103.5 28.5t66.5 75.5q6 12 11.5 18t14.5 6t24 -6l34 -12q20 -9 20 -26q0 -5 -1 -10t-3 -10q-11 -34 -35.5 -66.5t-59.5 -58t-79.5 -41.5t-95.5 -16z" />
    <glyph glyph-name="obreve" unicode="&#x14f;" horiz-adv-x="1060" 
d="M250 480q0 -74 15.5 -142t49.5 -120t87 -83t128 -31t128 31t87 83t49.5 120t15.5 142t-15.5 142t-49.5 120t-87 83t-128 31t-128 -31t-87 -83t-49.5 -120t-15.5 -142zM972 480q0 -97 -26 -187t-80 -159.5t-137.5 -111.5t-198.5 -42q-118 0 -201.5 42t-137 111.5
t-78.5 159.5t-25 187t25.5 187t79.5 159.5t137.5 111.5t199.5 42q118 0 201.5 -42t137 -111.5t78.5 -159.5t25 -187zM530 1092q-51 0 -95.5 16t-79.5 41.5t-59.5 58t-35.5 66.5q-2 5 -3 10t-1 10q0 17 20 26l34 12q15 6 24 6t14.5 -6t11.5 -18q26 -47 66.5 -75.5
t103.5 -28.5t103.5 28.5t66.5 75.5q6 12 11.5 18t14.5 6t24 -6l34 -12q20 -9 20 -26q0 -5 -1 -10t-3 -10q-11 -34 -35.5 -66.5t-59.5 -58t-79.5 -41.5t-95.5 -16z" />
    <glyph glyph-name="Ohungarumlaut" unicode="&#x150;" horiz-adv-x="1388" 
d="M260 662q0 -115 27 -214.5t81 -173t135.5 -116t190.5 -42.5t190.5 42.5t135.5 116t81 173t27 214.5t-27 214.5t-81 173t-135.5 116t-190.5 42.5t-190.5 -42.5t-135.5 -116t-81 -173t-27 -214.5zM1296 662q0 -141 -40.5 -265t-117.5 -217t-189 -146.5t-255 -53.5
q-146 0 -258 53t-188.5 145.5t-116 216.5t-39.5 267q0 141 40.5 265t117.5 217t189 146.5t255 53.5q145 0 257.5 -53t189 -145.5t116 -217t39.5 -266.5zM538 1424q-9 -11 -15.5 -14.5t-14.5 -3.5q-11 0 -26 12l-28 24q-16 13 -16 28q0 12 12 24l188 212q11 14 26 14
q12 0 24 -12l38 -36q6 -6 10 -12t4 -14q0 -12 -12 -24zM850 1424q-9 -11 -15.5 -14.5t-14.5 -3.5q-11 0 -26 12l-28 24q-16 13 -16 28q0 12 12 24l188 212q11 14 26 14q12 0 24 -12l38 -36q6 -6 10 -12t4 -14q0 -12 -12 -24z" />
    <glyph glyph-name="ohungarumlaut" unicode="&#x151;" horiz-adv-x="1060" 
d="M250 480q0 -74 15.5 -142t49.5 -120t87 -83t128 -31t128 31t87 83t49.5 120t15.5 142t-15.5 142t-49.5 120t-87 83t-128 31t-128 -31t-87 -83t-49.5 -120t-15.5 -142zM972 480q0 -97 -26 -187t-80 -159.5t-137.5 -111.5t-198.5 -42q-118 0 -201.5 42t-137 111.5
t-78.5 159.5t-25 187t25.5 187t79.5 159.5t137.5 111.5t199.5 42q118 0 201.5 -42t137 -111.5t78.5 -159.5t25 -187zM382 1094q-9 -11 -15.5 -14.5t-14.5 -3.5q-11 0 -26 12l-28 24q-16 13 -16 28q0 12 12 24l188 212q11 14 26 14q12 0 24 -12l38 -36q6 -6 10 -12t4 -14
q0 -12 -12 -24zM694 1094q-9 -11 -15.5 -14.5t-14.5 -3.5q-11 0 -26 12l-28 24q-16 13 -16 28q0 12 12 24l188 212q11 14 26 14q12 0 24 -12l38 -36q6 -6 10 -12t4 -14q0 -12 -12 -24z" />
    <glyph glyph-name="OE" unicode="&#x152;" horiz-adv-x="1856" 
d="M1744 36q0 -20 -8 -28t-28 -8h-980q-115 0 -207.5 25.5t-163 71.5t-121 108t-82.5 136t-47 155.5t-15 165.5t15 165.5t47 155.5t82.5 136t121 108t162.5 71.5t208 25.5h980q20 0 28 -8t8 -28v-64q0 -20 -8 -28t-28 -8h-580v-432h516q20 0 28 -8t8 -28v-64q0 -20 -8 -28
t-28 -8h-516v-484h580q20 0 28 -8t8 -28v-64zM964 136v1052h-228q-126 0 -216 -39t-148 -108.5t-85 -166.5t-27 -212q0 -116 27 -212.5t85 -166t148 -108.5t216 -39h228z" />
    <glyph glyph-name="oe" unicode="&#x153;" horiz-adv-x="1736" 
d="M888 192q-25 -47 -59.5 -86t-79.5 -67t-101 -43.5t-124 -15.5q-114 0 -196.5 42t-135.5 111.5t-78.5 159.5t-25.5 187t26 187.5t80 160t136.5 111t195.5 41.5q68 0 124 -15.5t101 -44t79.5 -67.5t59.5 -85q24 47 58 86t77.5 67t97 43.5t117.5 15.5q75 0 134.5 -20.5
t105.5 -56t78.5 -83.5t53.5 -102t30.5 -112t9.5 -114v-34q0 -30 -30 -30h-654q4 -65 22.5 -122t54.5 -100.5t91 -68.5t134 -25q60 0 120 16.5t108 51.5q17 12 27.5 10.5t22.5 -18.5l32 -48q9 -15 7 -27.5t-17 -24.5q-60 -48 -138.5 -70t-161.5 -22q-73 0 -132.5 15.5
t-106.5 43.5t-82.5 67t-60.5 86zM250 480q0 -74 15.5 -142t49.5 -120t87 -83t128 -31t128 31t87 83t49.5 120t15.5 142t-15.5 142t-49.5 120t-87 83t-128 31t-128 -31t-87 -83t-49.5 -120t-15.5 -142zM1498 544q-5 64 -23 120.5t-50.5 99t-79.5 67.5t-111 25
q-62 0 -109 -23.5t-80 -65t-52 -99t-25 -124.5h530z" />
    <glyph glyph-name="Racute" unicode="&#x154;" horiz-adv-x="1134" 
d="M198 0q-20 0 -28 8t-8 28v1252q0 20 8 28t28 8h354q127 0 216 -32t144.5 -86t80.5 -124t25 -146q0 -66 -20 -126t-59.5 -109t-99.5 -84.5t-139 -52.5q64 -53 120.5 -118t103 -135t84 -141t64.5 -136q15 -34 -22 -34h-108q-20 0 -31 7t-19 27q-23 55 -56.5 119t-79 131
t-103 132.5t-127.5 123.5h-200v-504q0 -20 -8 -28t-28 -8h-92zM326 676h232q82 0 138 20t90.5 54.5t49 80.5t14.5 99q0 52 -14.5 99t-48 82.5t-89.5 56t-138 20.5h-234v-512zM684 1718q8 6 14 8t12 2t13 -3t13 -11l34 -42q10 -13 10 -26t-14 -24l-260 -196q-15 -12 -26 -12
q-13 0 -26 16l-22 28q-10 13 -10 22q0 8 4 14t12 14z" />
    <glyph glyph-name="racute" unicode="&#x155;" horiz-adv-x="708" 
d="M190 0q-20 0 -28 8t-8 28v888q0 20 8 28t28 8h74q20 0 28 -8t8 -28v-90q20 26 45.5 52t58.5 47t74 34t94 13q20 0 41.5 -2t42.5 -8q35 -10 26 -44l-16 -74q-5 -20 -13.5 -25.5t-28.5 -0.5q-42 12 -84 12q-29 0 -59.5 -6t-60.5 -19.5t-58.5 -36t-51.5 -54.5v-686
q0 -20 -8 -28t-28 -8h-84zM548 1388q8 6 14 8t12 2t13 -3t13 -11l34 -42q10 -13 10 -26t-14 -24l-260 -196q-15 -12 -26 -12q-13 0 -26 16l-22 28q-10 13 -10 22q0 8 4 14t12 14z" />
    <glyph glyph-name="Rcommaaccent" unicode="&#x156;" horiz-adv-x="1134" 
d="M198 0q-20 0 -28 8t-8 28v1252q0 20 8 28t28 8h354q127 0 216 -32t144.5 -86t80.5 -124t25 -146q0 -66 -20 -126t-59.5 -109t-99.5 -84.5t-139 -52.5q64 -53 120.5 -118t103 -135t84 -141t64.5 -136q15 -34 -22 -34h-108q-20 0 -31 7t-19 27q-23 55 -56.5 119t-79 131
t-103 132.5t-127.5 123.5h-200v-504q0 -20 -8 -28t-28 -8h-92zM326 676h232q82 0 138 20t90.5 54.5t49 80.5t14.5 99q0 52 -14.5 99t-48 82.5t-89.5 56t-138 20.5h-234v-512zM718 -198q0 -51 -30.5 -109.5t-83.5 -114.5q-6 -6 -11 -10t-11 -4q-9 0 -20 8l-6 4q-16 10 -16 20
q0 9 8 20q24 32 30 51t6 33q0 21 -9 34.5t-19.5 25.5t-19 26.5t-8.5 37.5q0 33 22.5 57.5t69.5 24.5t72.5 -28t25.5 -76z" />
    <glyph glyph-name="rcommaaccent" unicode="&#x157;" horiz-adv-x="708" 
d="M190 0q-20 0 -28 8t-8 28v888q0 20 8 28t28 8h74q20 0 28 -8t8 -28v-90q20 26 45.5 52t58.5 47t74 34t94 13q20 0 41.5 -2t42.5 -8q35 -10 26 -44l-16 -74q-5 -20 -13.5 -25.5t-28.5 -0.5q-42 12 -84 12q-29 0 -59.5 -6t-60.5 -19.5t-58.5 -36t-51.5 -54.5v-686
q0 -20 -8 -28t-28 -8h-84zM334 -198q0 -51 -30.5 -109.5t-83.5 -114.5q-6 -6 -11 -10t-11 -4q-9 0 -20 8l-6 4q-16 10 -16 20q0 9 8 20q24 32 30 51t6 33q0 21 -9 34.5t-19.5 25.5t-19 26.5t-8.5 37.5q0 33 22.5 57.5t69.5 24.5t72.5 -28t25.5 -76z" />
    <glyph glyph-name="Rcaron" unicode="&#x158;" horiz-adv-x="1134" 
d="M198 0q-20 0 -28 8t-8 28v1252q0 20 8 28t28 8h354q127 0 216 -32t144.5 -86t80.5 -124t25 -146q0 -66 -20 -126t-59.5 -109t-99.5 -84.5t-139 -52.5q64 -53 120.5 -118t103 -135t84 -141t64.5 -136q15 -34 -22 -34h-108q-20 0 -31 7t-19 27q-23 55 -56.5 119t-79 131
t-103 132.5t-127.5 123.5h-200v-504q0 -20 -8 -28t-28 -8h-92zM326 676h232q82 0 138 20t90.5 54.5t49 80.5t14.5 99q0 52 -14.5 99t-48 82.5t-89.5 56t-138 20.5h-234v-512zM742 1672q12 8 19 10t13 2q8 0 15 -3.5t15 -12.5l16 -20q10 -13 10 -24q0 -6 -3.5 -13t-12.5 -13
l-228 -166q-15 -12 -32 -12t-32 12l-228 166q-9 6 -12.5 13t-3.5 13q0 11 10 24l16 20q8 9 15 12.5t15 3.5q6 0 13 -2t19 -10l188 -116z" />
    <glyph glyph-name="rcaron" unicode="&#x159;" horiz-adv-x="708" 
d="M190 0q-20 0 -28 8t-8 28v888q0 20 8 28t28 8h74q20 0 28 -8t8 -28v-90q20 26 45.5 52t58.5 47t74 34t94 13q20 0 41.5 -2t42.5 -8q35 -10 26 -44l-16 -74q-5 -20 -13.5 -25.5t-28.5 -0.5q-42 12 -84 12q-29 0 -59.5 -6t-60.5 -19.5t-58.5 -36t-51.5 -54.5v-686
q0 -20 -8 -28t-28 -8h-84zM606 1342q12 8 19 10t13 2q8 0 15 -3.5t15 -12.5l16 -20q10 -13 10 -24q0 -6 -3.5 -13t-12.5 -13l-228 -166q-15 -12 -32 -12t-32 12l-228 166q-9 6 -12.5 13t-3.5 13q0 11 10 24l16 20q8 9 15 12.5t15 3.5q6 0 13 -2t19 -10l188 -116z" />
    <glyph glyph-name="Sacute" unicode="&#x15a;" horiz-adv-x="1044" 
d="M956 352q0 -86 -32 -155t-91.5 -117t-143.5 -74t-187 -26q-68 0 -126.5 10.5t-108 28.5t-89.5 42t-70 51q-26 23 -6 52l48 60q12 15 23.5 16.5t26.5 -10.5q60 -50 134.5 -79t169.5 -29q136 0 211 58.5t75 161.5q0 54 -21.5 92t-60 66t-91 48.5t-113.5 39.5
q-44 13 -90.5 29t-91 37.5t-84.5 49.5t-69.5 66.5t-47 88.5t-17.5 115q0 87 32.5 155.5t91.5 116.5t142 73t184 25q121 0 209.5 -31t144.5 -75q28 -23 8 -52l-42 -60q-22 -28 -50 -8q-51 38 -118 61t-156 23q-77 0 -130 -18t-86.5 -48.5t-48.5 -70.5t-15 -83
q0 -54 21.5 -92.5t59 -67t89.5 -49t114 -39.5q66 -20 137 -46t130 -68.5t97 -106.5t38 -161zM666 1718q8 6 14 8t12 2t13 -3t13 -11l34 -42q10 -13 10 -26t-14 -24l-260 -196q-15 -12 -26 -12q-13 0 -26 16l-22 28q-10 13 -10 22q0 8 4 14t12 14z" />
    <glyph glyph-name="sacute" unicode="&#x15b;" horiz-adv-x="890" 
d="M802 262q0 -67 -28 -119.5t-77.5 -88.5t-116.5 -55t-144 -19q-115 0 -197.5 31t-132.5 73q-28 22 -6 50l38 50q12 15 23.5 17t26.5 -9q50 -39 111 -61.5t139 -22.5q43 0 80.5 9t66 27t45 45t16.5 63q0 40 -17 66.5t-47 45t-69.5 31t-84.5 23.5q-34 8 -71.5 17.5t-73.5 23
t-69 32.5t-58 47.5t-39.5 68t-14.5 93.5q0 64 27 116t75 88.5t115 56t147 19.5q100 0 174 -22.5t122 -57.5q28 -20 10 -50l-36 -52q-11 -17 -21 -19t-27 9q-42 29 -97.5 46.5t-126.5 17.5q-51 0 -89.5 -11.5t-64.5 -31t-39 -46t-13 -57.5q0 -41 17.5 -66.5t47 -42t68.5 -27
t83 -20.5q57 -14 115.5 -32t105.5 -49.5t77 -81t30 -125.5zM596 1388q8 6 14 8t12 2t13 -3t13 -11l34 -42q10 -13 10 -26t-14 -24l-260 -196q-15 -12 -26 -12q-13 0 -26 16l-22 28q-10 13 -10 22q0 8 4 14t12 14z" />
    <glyph glyph-name="Scircumflex" unicode="&#x15c;" horiz-adv-x="1044" 
d="M956 352q0 -86 -32 -155t-91.5 -117t-143.5 -74t-187 -26q-68 0 -126.5 10.5t-108 28.5t-89.5 42t-70 51q-26 23 -6 52l48 60q12 15 23.5 16.5t26.5 -10.5q60 -50 134.5 -79t169.5 -29q136 0 211 58.5t75 161.5q0 54 -21.5 92t-60 66t-91 48.5t-113.5 39.5
q-44 13 -90.5 29t-91 37.5t-84.5 49.5t-69.5 66.5t-47 88.5t-17.5 115q0 87 32.5 155.5t91.5 116.5t142 73t184 25q121 0 209.5 -31t144.5 -75q28 -23 8 -52l-42 -60q-22 -28 -50 -8q-51 38 -118 61t-156 23q-77 0 -130 -18t-86.5 -48.5t-48.5 -70.5t-15 -83
q0 -54 21.5 -92.5t59 -67t89.5 -49t114 -39.5q66 -20 137 -46t130 -68.5t97 -106.5t38 -161zM348 1444q-12 -8 -19 -10t-13 -2q-17 0 -30 16l-16 20q-6 8 -8 13t-2 11t3.5 13t12.5 13l228 166q15 12 32 12t32 -12l228 -166q9 -6 12.5 -13t3.5 -13t-2 -11t-8 -13l-16 -20
q-13 -16 -30 -16q-6 0 -13 2t-19 10l-188 116z" />
    <glyph glyph-name="scircumflex" unicode="&#x15d;" horiz-adv-x="890" 
d="M802 262q0 -67 -28 -119.5t-77.5 -88.5t-116.5 -55t-144 -19q-115 0 -197.5 31t-132.5 73q-28 22 -6 50l38 50q12 15 23.5 17t26.5 -9q50 -39 111 -61.5t139 -22.5q43 0 80.5 9t66 27t45 45t16.5 63q0 40 -17 66.5t-47 45t-69.5 31t-84.5 23.5q-34 8 -71.5 17.5t-73.5 23
t-69 32.5t-58 47.5t-39.5 68t-14.5 93.5q0 64 27 116t75 88.5t115 56t147 19.5q100 0 174 -22.5t122 -57.5q28 -20 10 -50l-36 -52q-11 -17 -21 -19t-27 9q-42 29 -97.5 46.5t-126.5 17.5q-51 0 -89.5 -11.5t-64.5 -31t-39 -46t-13 -57.5q0 -41 17.5 -66.5t47 -42t68.5 -27
t83 -20.5q57 -14 115.5 -32t105.5 -49.5t77 -81t30 -125.5zM278 1114q-12 -8 -19 -10t-13 -2q-17 0 -30 16l-16 20q-6 8 -8 13t-2 11t3.5 13t12.5 13l228 166q15 12 32 12t32 -12l228 -166q9 -6 12.5 -13t3.5 -13t-2 -11t-8 -13l-16 -20q-13 -16 -30 -16q-6 0 -13 2t-19 10
l-188 116z" />
    <glyph glyph-name="Scedilla" unicode="&#x15e;" horiz-adv-x="1044" 
d="M492 -102q11 3 24.5 4.5t27.5 1.5q66 0 100 -35t34 -91q0 -31 -11 -58.5t-33.5 -48.5t-57 -33t-80.5 -12q-33 0 -69.5 7t-66.5 27q-29 19 -12 48l8 14q11 18 20.5 20.5t27.5 -8.5t40 -17.5t48 -6.5q42 0 64 17t22 47q0 23 -17.5 40.5t-68.5 17.5q-12 0 -24.5 -1t-23.5 -3
q-14 -3 -21.5 -1t-18.5 11l-2 2q-17 14 -6 34l58 108q-117 6 -204 43t-142 87q-26 23 -6 52l48 60q12 15 23.5 16.5t26.5 -10.5q60 -50 134.5 -79t169.5 -29q136 0 211 58.5t75 161.5q0 54 -21.5 92t-60 66t-91 48.5t-113.5 39.5q-44 13 -90.5 29t-91 37.5t-84.5 49.5
t-69.5 66.5t-47 88.5t-17.5 115q0 87 32.5 155.5t91.5 116.5t142 73t184 25q121 0 209.5 -31t144.5 -75q28 -23 8 -52l-42 -60q-22 -28 -50 -8q-51 38 -118 61t-156 23q-77 0 -130 -18t-86.5 -48.5t-48.5 -70.5t-15 -83q0 -54 21.5 -92.5t59 -67t89.5 -49t114 -39.5
q66 -20 137 -46t130 -68.5t97 -106.5t38 -161q0 -83 -29.5 -150t-84.5 -114.5t-132.5 -74.5t-173.5 -31z" />
    <glyph glyph-name="scedilla" unicode="&#x15f;" horiz-adv-x="890" 
d="M426 -102q11 3 24.5 4.5t27.5 1.5q66 0 100 -35t34 -91q0 -31 -11 -58.5t-33.5 -48.5t-57 -33t-80.5 -12q-33 0 -69.5 7t-66.5 27q-29 19 -12 48l8 14q11 18 20.5 20.5t27.5 -8.5t40 -17.5t48 -6.5q42 0 64 17t22 47q0 23 -17.5 40.5t-68.5 17.5q-12 0 -24.5 -1t-23.5 -3
q-14 -3 -21.5 -1t-18.5 11l-2 2q-17 14 -6 34l58 108q-97 6 -167 35t-115 67q-28 22 -6 50l38 50q12 15 23.5 17t26.5 -9q50 -39 111 -61.5t139 -22.5q43 0 80.5 9t66 27t45 45t16.5 63q0 40 -17 66.5t-47 45t-69.5 31t-84.5 23.5q-34 8 -71.5 17.5t-73.5 23t-69 32.5
t-58 47.5t-39.5 68t-14.5 93.5q0 64 27 116t75 88.5t115 56t147 19.5q100 0 174 -22.5t122 -57.5q28 -20 10 -50l-36 -52q-11 -17 -21 -19t-27 9q-42 29 -97.5 46.5t-126.5 17.5q-51 0 -89.5 -11.5t-64.5 -31t-39 -46t-13 -57.5q0 -41 17.5 -66.5t47 -42t68.5 -27t83 -20.5
q57 -14 115.5 -32t105.5 -49.5t77 -81t30 -125.5q0 -63 -25 -113t-69.5 -86t-105.5 -56.5t-132 -24.5z" />
    <glyph glyph-name="Scaron" unicode="&#x160;" horiz-adv-x="1044" 
d="M956 352q0 -86 -32 -155t-91.5 -117t-143.5 -74t-187 -26q-68 0 -126.5 10.5t-108 28.5t-89.5 42t-70 51q-26 23 -6 52l48 60q12 15 23.5 16.5t26.5 -10.5q60 -50 134.5 -79t169.5 -29q136 0 211 58.5t75 161.5q0 54 -21.5 92t-60 66t-91 48.5t-113.5 39.5
q-44 13 -90.5 29t-91 37.5t-84.5 49.5t-69.5 66.5t-47 88.5t-17.5 115q0 87 32.5 155.5t91.5 116.5t142 73t184 25q121 0 209.5 -31t144.5 -75q28 -23 8 -52l-42 -60q-22 -28 -50 -8q-51 38 -118 61t-156 23q-77 0 -130 -18t-86.5 -48.5t-48.5 -70.5t-15 -83
q0 -54 21.5 -92.5t59 -67t89.5 -49t114 -39.5q66 -20 137 -46t130 -68.5t97 -106.5t38 -161zM724 1672q12 8 19 10t13 2q8 0 15 -3.5t15 -12.5l16 -20q10 -13 10 -24q0 -6 -3.5 -13t-12.5 -13l-228 -166q-15 -12 -32 -12t-32 12l-228 166q-9 6 -12.5 13t-3.5 13q0 11 10 24
l16 20q8 9 15 12.5t15 3.5q6 0 13 -2t19 -10l188 -116z" />
    <glyph glyph-name="scaron" unicode="&#x161;" horiz-adv-x="890" 
d="M802 262q0 -67 -28 -119.5t-77.5 -88.5t-116.5 -55t-144 -19q-115 0 -197.5 31t-132.5 73q-28 22 -6 50l38 50q12 15 23.5 17t26.5 -9q50 -39 111 -61.5t139 -22.5q43 0 80.5 9t66 27t45 45t16.5 63q0 40 -17 66.5t-47 45t-69.5 31t-84.5 23.5q-34 8 -71.5 17.5t-73.5 23
t-69 32.5t-58 47.5t-39.5 68t-14.5 93.5q0 64 27 116t75 88.5t115 56t147 19.5q100 0 174 -22.5t122 -57.5q28 -20 10 -50l-36 -52q-11 -17 -21 -19t-27 9q-42 29 -97.5 46.5t-126.5 17.5q-51 0 -89.5 -11.5t-64.5 -31t-39 -46t-13 -57.5q0 -41 17.5 -66.5t47 -42t68.5 -27
t83 -20.5q57 -14 115.5 -32t105.5 -49.5t77 -81t30 -125.5zM654 1342q12 8 19 10t13 2q8 0 15 -3.5t15 -12.5l16 -20q10 -13 10 -24q0 -6 -3.5 -13t-12.5 -13l-228 -166q-15 -12 -32 -12t-32 12l-228 166q-9 6 -12.5 13t-3.5 13q0 11 10 24l16 20q8 9 15 12.5t15 3.5
q6 0 13 -2t19 -10l188 -116z" />
    <glyph glyph-name="Tcommaaccent" unicode="&#x162;" horiz-adv-x="1000" 
d="M454 0q-20 0 -28 8t-8 28v1152h-352q-20 0 -28 8t-8 28v64q0 20 8 28t28 8h868q20 0 28 -8t8 -28v-64q0 -20 -8 -28t-28 -8h-352v-1152q0 -20 -8 -28t-28 -8h-92zM602 -198q0 -51 -30.5 -109.5t-83.5 -114.5q-6 -6 -11 -10t-11 -4q-9 0 -20 8l-6 4q-16 10 -16 20
q0 9 8 20q24 32 30 51t6 33q0 21 -9 34.5t-19.5 25.5t-19 26.5t-8.5 37.5q0 33 22.5 57.5t69.5 24.5t72.5 -28t25.5 -76z" />
    <glyph glyph-name="tcommaaccent" unicode="&#x163;" horiz-adv-x="710" 
d="M66 838q-20 0 -28 8t-8 28v50q0 20 8 28t28 8h128v222q0 20 8 28t28 8h84q20 0 28 -8t8 -28v-222h272q20 0 28 -8t8 -28v-50q0 -20 -8 -28t-28 -8h-272v-564q0 -80 27.5 -122t98.5 -42q33 0 60.5 8.5t53.5 23.5q17 9 26.5 6t17.5 -20l22 -52q14 -34 -16 -52
q-42 -24 -88 -34t-96 -10q-63 0 -112 15t-82 49.5t-50.5 89t-17.5 134.5v570h-128zM536 -198q0 -51 -30.5 -109.5t-83.5 -114.5q-6 -6 -11 -10t-11 -4q-9 0 -20 8l-6 4q-16 10 -16 20q0 9 8 20q24 32 30 51t6 33q0 21 -9 34.5t-19.5 25.5t-19 26.5t-8.5 37.5q0 33 22.5 57.5
t69.5 24.5t72.5 -28t25.5 -76z" />
    <glyph glyph-name="Tcaron" unicode="&#x164;" horiz-adv-x="1000" 
d="M454 0q-20 0 -28 8t-8 28v1152h-352q-20 0 -28 8t-8 28v64q0 20 8 28t28 8h868q20 0 28 -8t8 -28v-64q0 -20 -8 -28t-28 -8h-352v-1152q0 -20 -8 -28t-28 -8h-92zM688 1672q12 8 19 10t13 2q8 0 15 -3.5t15 -12.5l16 -20q10 -13 10 -24q0 -6 -3.5 -13t-12.5 -13
l-228 -166q-15 -12 -32 -12t-32 12l-228 166q-9 6 -12.5 13t-3.5 13q0 11 10 24l16 20q8 9 15 12.5t15 3.5q6 0 13 -2t19 -10l188 -116z" />
    <glyph glyph-name="tcaron" unicode="&#x165;" horiz-adv-x="710" 
d="M66 838q-20 0 -28 8t-8 28v50q0 20 8 28t28 8h128v222q0 20 8 28t28 8h84q20 0 28 -8t8 -28v-222h272q20 0 28 -8t8 -28v-50q0 -20 -8 -28t-28 -8h-272v-564q0 -80 27.5 -122t98.5 -42q33 0 60.5 8.5t53.5 23.5q17 9 26.5 6t17.5 -20l22 -52q14 -34 -16 -52
q-42 -24 -88 -34t-96 -10q-63 0 -112 15t-82 49.5t-50.5 89t-17.5 134.5v570h-128zM516 1090q-18 3 -25 12t-5 26l32 288q3 30 26 30q5 0 11.5 -1t14.5 -3l66 -14q26 -6 26 -24q0 -10 -6 -28l-96 -264q-6 -17 -16.5 -21t-27.5 -1z" />
    <glyph glyph-name="Tbar" unicode="&#x166;" horiz-adv-x="1000" 
d="M454 0q-20 0 -28 8t-8 28v570h-160q-20 0 -28 8t-8 28v56q0 20 8 28t28 8h160v454h-352q-20 0 -28 8t-8 28v64q0 20 8 28t28 8h868q20 0 28 -8t8 -28v-64q0 -20 -8 -28t-28 -8h-352v-454h160q20 0 28 -8t8 -28v-56q0 -20 -8 -28t-28 -8h-160v-570q0 -20 -8 -28t-28 -8
h-92z" />
    <glyph glyph-name="tbar" unicode="&#x167;" horiz-adv-x="730" 
d="M76 838q-20 0 -28 8t-8 28v50q0 20 8 28t28 8h128v222q0 20 8 28t28 8h84q20 0 28 -8t8 -28v-222h272q20 0 28 -8t8 -28v-50q0 -20 -8 -28t-28 -8h-272v-232h222q20 0 28 -8t8 -28v-38q0 -20 -8 -28t-28 -8h-222v-222q0 -80 27.5 -122t98.5 -42q33 0 60.5 8.5t53.5 23.5
q17 9 26.5 6t17.5 -20l22 -52q14 -34 -16 -52q-42 -24 -88 -34t-96 -10q-63 0 -112 15t-82 49.5t-50.5 89t-17.5 134.5v228h-88q-20 0 -28 8t-8 28v38q0 20 8 28t28 8h88v232h-128z" />
    <glyph glyph-name="Utilde" unicode="&#x168;" horiz-adv-x="1272" 
d="M1126 512q0 -129 -33.5 -228.5t-96.5 -167t-154 -102t-206 -34.5t-206 34.5t-154 102t-96.5 167t-33.5 228.5v776q0 20 8 28t28 8h92q20 0 28 -8t8 -28v-782q0 -192 86.5 -290t239.5 -98t239.5 98t86.5 290v782q0 20 8 28t28 8h92q20 0 28 -8t8 -28v-776v0zM754 1458
q-34 0 -64.5 10.5t-59 23.5t-55 23.5t-51.5 10.5q-26 0 -49.5 -11t-44.5 -31q-14 -14 -28 -14q-16 0 -30 14l-14 12q-14 11 -14 26q0 5 1.5 11.5t6.5 14.5q10 18 26.5 35t38.5 30.5t47.5 22t53.5 8.5q34 0 64.5 -10.5t59 -23.5t54.5 -23.5t52 -10.5t49.5 11t44.5 31
q14 14 28 14q16 0 30 -14l14 -12q14 -11 14 -26q0 -5 -1.5 -11.5t-6.5 -14.5q-10 -18 -26.5 -35.5t-38.5 -31t-47.5 -21.5t-53.5 -8z" />
    <glyph glyph-name="utilde" unicode="&#x169;" horiz-adv-x="1066" 
d="M766 116q-20 -26 -47 -50t-62 -43.5t-80 -31t-101 -11.5q-88 0 -150 29.5t-101 79t-57 115.5t-18 140v580q0 20 8 28t28 8h84q20 0 28 -8t8 -28v-566q0 -42 9 -86t31.5 -80t61.5 -59t100 -23q31 0 64 6.5t65.5 21.5t62.5 39.5t56 60.5v686q0 20 8 28t28 8h84q20 0 28 -8
t8 -28v-888q0 -20 -8 -28t-28 -8h-74q-20 0 -28 8t-8 28v80v0zM648 1128q-34 0 -64.5 10.5t-59 23.5t-55 23.5t-51.5 10.5q-26 0 -49.5 -11t-44.5 -31q-14 -14 -28 -14q-16 0 -30 14l-14 12q-14 11 -14 26q0 5 1.5 11.5t6.5 14.5q10 18 26.5 35t38.5 30.5t47.5 22t53.5 8.5
q34 0 64.5 -10.5t59 -23.5t54.5 -23.5t52 -10.5t49.5 11t44.5 31q14 14 28 14q16 0 30 -14l14 -12q14 -11 14 -26q0 -5 -1.5 -11.5t-6.5 -14.5q-10 -18 -26.5 -35.5t-38.5 -31t-47.5 -21.5t-53.5 -8z" />
    <glyph glyph-name="Umacron" unicode="&#x16a;" horiz-adv-x="1272" 
d="M1126 512q0 -129 -33.5 -228.5t-96.5 -167t-154 -102t-206 -34.5t-206 34.5t-154 102t-96.5 167t-33.5 228.5v776q0 20 8 28t28 8h92q20 0 28 -8t8 -28v-782q0 -192 86.5 -290t239.5 -98t239.5 98t86.5 290v782q0 20 8 28t28 8h92q20 0 28 -8t8 -28v-776v0zM838 1592
q20 0 28 -8t8 -28v-40q0 -20 -8 -28t-28 -8h-404q-20 0 -28 8t-8 28v40q0 20 8 28t28 8h404z" />
    <glyph glyph-name="umacron" unicode="&#x16b;" horiz-adv-x="1066" 
d="M766 116q-20 -26 -47 -50t-62 -43.5t-80 -31t-101 -11.5q-88 0 -150 29.5t-101 79t-57 115.5t-18 140v580q0 20 8 28t28 8h84q20 0 28 -8t8 -28v-566q0 -42 9 -86t31.5 -80t61.5 -59t100 -23q31 0 64 6.5t65.5 21.5t62.5 39.5t56 60.5v686q0 20 8 28t28 8h84q20 0 28 -8
t8 -28v-888q0 -20 -8 -28t-28 -8h-74q-20 0 -28 8t-8 28v80v0zM732 1262q20 0 28 -8t8 -28v-40q0 -20 -8 -28t-28 -8h-404q-20 0 -28 8t-8 28v40q0 20 8 28t28 8h404z" />
    <glyph glyph-name="Ubreve" unicode="&#x16c;" horiz-adv-x="1272" 
d="M1126 512q0 -129 -33.5 -228.5t-96.5 -167t-154 -102t-206 -34.5t-206 34.5t-154 102t-96.5 167t-33.5 228.5v776q0 20 8 28t28 8h92q20 0 28 -8t8 -28v-782q0 -192 86.5 -290t239.5 -98t239.5 98t86.5 290v782q0 20 8 28t28 8h92q20 0 28 -8t8 -28v-776v0zM636 1422
q-51 0 -95.5 16t-79.5 41.5t-59.5 58t-35.5 66.5q-2 5 -3 10t-1 10q0 17 20 26l34 12q15 6 24 6t14.5 -6t11.5 -18q26 -47 66.5 -75.5t103.5 -28.5t103.5 28.5t66.5 75.5q6 12 11.5 18t14.5 6t24 -6l34 -12q20 -9 20 -26q0 -5 -1 -10t-3 -10q-11 -34 -35.5 -66.5t-59.5 -58
t-79.5 -41.5t-95.5 -16z" />
    <glyph glyph-name="ubreve" unicode="&#x16d;" horiz-adv-x="1066" 
d="M766 116q-20 -26 -47 -50t-62 -43.5t-80 -31t-101 -11.5q-88 0 -150 29.5t-101 79t-57 115.5t-18 140v580q0 20 8 28t28 8h84q20 0 28 -8t8 -28v-566q0 -42 9 -86t31.5 -80t61.5 -59t100 -23q31 0 64 6.5t65.5 21.5t62.5 39.5t56 60.5v686q0 20 8 28t28 8h84q20 0 28 -8
t8 -28v-888q0 -20 -8 -28t-28 -8h-74q-20 0 -28 8t-8 28v80v0zM530 1092q-51 0 -95.5 16t-79.5 41.5t-59.5 58t-35.5 66.5q-2 5 -3 10t-1 10q0 17 20 26l34 12q15 6 24 6t14.5 -6t11.5 -18q26 -47 66.5 -75.5t103.5 -28.5t103.5 28.5t66.5 75.5q6 12 11.5 18t14.5 6t24 -6
l34 -12q20 -9 20 -26q0 -5 -1 -10t-3 -10q-11 -34 -35.5 -66.5t-59.5 -58t-79.5 -41.5t-95.5 -16z" />
    <glyph glyph-name="Uring" unicode="&#x16e;" horiz-adv-x="1272" 
d="M1126 512q0 -129 -33.5 -228.5t-96.5 -167t-154 -102t-206 -34.5t-206 34.5t-154 102t-96.5 167t-33.5 228.5v776q0 20 8 28t28 8h92q20 0 28 -8t8 -28v-782q0 -192 86.5 -290t239.5 -98t239.5 98t86.5 290v782q0 20 8 28t28 8h92q20 0 28 -8t8 -28v-776v0zM846 1576
q0 -46 -17 -84t-45.5 -65t-66.5 -42t-81 -15t-81 15t-66.5 42t-45.5 65t-17 84t17 84t45.5 65t66.5 42t81 15t81 -15t66.5 -42t45.5 -65t17 -84zM518 1576q0 -56 33.5 -89t84.5 -33t84.5 33t33.5 89t-33.5 89t-84.5 33t-84.5 -33t-33.5 -89z" />
    <glyph glyph-name="uring" unicode="&#x16f;" horiz-adv-x="1066" 
d="M766 116q-20 -26 -47 -50t-62 -43.5t-80 -31t-101 -11.5q-88 0 -150 29.5t-101 79t-57 115.5t-18 140v580q0 20 8 28t28 8h84q20 0 28 -8t8 -28v-566q0 -42 9 -86t31.5 -80t61.5 -59t100 -23q31 0 64 6.5t65.5 21.5t62.5 39.5t56 60.5v686q0 20 8 28t28 8h84q20 0 28 -8
t8 -28v-888q0 -20 -8 -28t-28 -8h-74q-20 0 -28 8t-8 28v80v0zM740 1246q0 -46 -17 -84t-45.5 -65t-66.5 -42t-81 -15t-81 15t-66.5 42t-45.5 65t-17 84t17 84t45.5 65t66.5 42t81 15t81 -15t66.5 -42t45.5 -65t17 -84zM412 1246q0 -56 33.5 -89t84.5 -33t84.5 33t33.5 89
t-33.5 89t-84.5 33t-84.5 -33t-33.5 -89z" />
    <glyph glyph-name="Uhungarumlaut" unicode="&#x170;" horiz-adv-x="1272" 
d="M1126 512q0 -129 -33.5 -228.5t-96.5 -167t-154 -102t-206 -34.5t-206 34.5t-154 102t-96.5 167t-33.5 228.5v776q0 20 8 28t28 8h92q20 0 28 -8t8 -28v-782q0 -192 86.5 -290t239.5 -98t239.5 98t86.5 290v782q0 20 8 28t28 8h92q20 0 28 -8t8 -28v-776v0zM488 1424
q-9 -11 -15.5 -14.5t-14.5 -3.5q-11 0 -26 12l-28 24q-16 13 -16 28q0 12 12 24l188 212q11 14 26 14q12 0 24 -12l38 -36q6 -6 10 -12t4 -14q0 -12 -12 -24zM800 1424q-9 -11 -15.5 -14.5t-14.5 -3.5q-11 0 -26 12l-28 24q-16 13 -16 28q0 12 12 24l188 212q11 14 26 14
q12 0 24 -12l38 -36q6 -6 10 -12t4 -14q0 -12 -12 -24z" />
    <glyph glyph-name="uhungarumlaut" unicode="&#x171;" horiz-adv-x="1066" 
d="M766 116q-20 -26 -47 -50t-62 -43.5t-80 -31t-101 -11.5q-88 0 -150 29.5t-101 79t-57 115.5t-18 140v580q0 20 8 28t28 8h84q20 0 28 -8t8 -28v-566q0 -42 9 -86t31.5 -80t61.5 -59t100 -23q31 0 64 6.5t65.5 21.5t62.5 39.5t56 60.5v686q0 20 8 28t28 8h84q20 0 28 -8
t8 -28v-888q0 -20 -8 -28t-28 -8h-74q-20 0 -28 8t-8 28v80v0zM382 1094q-9 -11 -15.5 -14.5t-14.5 -3.5q-11 0 -26 12l-28 24q-16 13 -16 28q0 12 12 24l188 212q11 14 26 14q12 0 24 -12l38 -36q6 -6 10 -12t4 -14q0 -12 -12 -24zM694 1094q-9 -11 -15.5 -14.5t-14.5 -3.5
q-11 0 -26 12l-28 24q-16 13 -16 28q0 12 12 24l188 212q11 14 26 14q12 0 24 -12l38 -36q6 -6 10 -12t4 -14q0 -12 -12 -24z" />
    <glyph glyph-name="Uogonek" unicode="&#x172;" horiz-adv-x="1272" 
d="M492 -224q0 54 33 109t99 97q-112 2 -200.5 37.5t-150 103t-94.5 165t-33 224.5v776q0 20 8 28t28 8h92q20 0 28 -8t8 -28v-782q0 -192 86.5 -290t239.5 -98t239.5 98t86.5 290v782q0 20 8 28t28 8h92q20 0 28 -8t8 -28v-776q0 -98 -16.5 -171.5t-43.5 -127t-62 -89.5
t-71.5 -60.5t-72.5 -39t-64 -24.5q-54 -20 -89.5 -44.5t-56.5 -50.5t-29.5 -51.5t-8.5 -45.5q0 -45 25 -65.5t61 -20.5q33 0 68 16q20 9 30 6.5t22 -20.5l6 -10q9 -14 7 -26.5t-17 -21.5q-58 -40 -140 -40q-41 0 -74.5 11t-57.5 30.5t-37 47t-13 61.5z" />
    <glyph glyph-name="uogonek" unicode="&#x173;" horiz-adv-x="1066" 
d="M636 -224q0 56 35 109t95 115v116q-20 -26 -47 -50t-62 -43.5t-80 -31t-101 -11.5q-88 0 -150 29.5t-101 79t-57 115.5t-18 140v580q0 20 8 28t28 8h84q20 0 28 -8t8 -28v-566q0 -42 9 -86t31.5 -80t61.5 -59t100 -23q31 0 64 6.5t65.5 21.5t62.5 39.5t56 60.5v686
q0 20 8 28t28 8h84q20 0 28 -8t8 -28v-888q0 -20 -8 -28t-28 -8h-22q-48 -63 -73 -106.5t-25 -85.5q0 -45 25 -65.5t61 -20.5q33 0 68 16q20 9 30 6.5t22 -20.5l6 -10q9 -14 7 -26.5t-17 -21.5q-58 -40 -140 -40q-41 0 -74.5 11t-57.5 30.5t-37 47t-13 61.5z" />
    <glyph glyph-name="Wcircumflex" unicode="&#x174;" horiz-adv-x="1872" 
d="M1776 1324q18 0 24 -9.5t6 -20.5q0 -5 -1 -11.5t-3 -14.5q-21 -107 -47 -220t-55.5 -225.5t-62 -222.5t-66 -212t-67.5 -192.5t-66 -163.5q-8 -17 -19 -24.5t-31 -7.5h-68q-20 0 -31.5 7t-20.5 25q-56 119 -106 246t-92 256.5t-76 259.5t-58 256q-23 -126 -57 -256
t-76 -259.5t-92.5 -256.5t-106.5 -246q-9 -18 -20.5 -25t-31.5 -7h-68q-20 0 -31 7.5t-19 24.5q-31 74 -64.5 165t-67 193.5t-66 213t-62.5 223t-56.5 224.5t-47.5 217q-2 8 -3 14.5t-1 11.5q0 11 6 20.5t24 9.5h96q20 0 29.5 -8t12.5 -28q23 -139 56 -289t71.5 -297
t80 -284t82.5 -250q32 76 65 162.5t65 180t61.5 192t55.5 198t47 197t36 190.5q3 20 12.5 28t29.5 8h80q20 0 29.5 -8t12.5 -28q23 -139 59.5 -289t80.5 -297t93 -284t97 -250q27 76 55.5 162.5t55.5 180t53 192t49 198t42.5 197t34.5 190.5q3 20 12.5 28t29.5 8h96z
M748 1444q-12 -8 -19 -10t-13 -2q-17 0 -30 16l-16 20q-6 8 -8 13t-2 11t3.5 13t12.5 13l228 166q15 12 32 12t32 -12l228 -166q9 -6 12.5 -13t3.5 -13t-2 -11t-8 -13l-16 -20q-13 -16 -30 -16q-6 0 -13 2t-19 10l-188 116z" />
    <glyph glyph-name="wcircumflex" unicode="&#x175;" horiz-adv-x="1476" 
d="M1396 960q30 0 30 -26q0 -6 -1 -13t-3 -15q-23 -114 -54.5 -235t-68.5 -236.5t-77 -219.5t-80 -183q-8 -15 -20 -23.5t-32 -8.5h-76q-20 0 -31 7.5t-19 24.5q-86 199 -141 367.5t-85 324.5q-29 -156 -84.5 -324t-139.5 -366q-8 -18 -19 -26t-31 -8h-78q-37 0 -52 32
q-38 81 -78 185t-77.5 219t-70 235.5t-54.5 234.5q-2 8 -3 15t-1 13q0 26 30 26h86q20 0 29.5 -8t12.5 -28q17 -98 42 -202.5t54.5 -205.5t61 -194t62.5 -166q34 73 68 166t65.5 194t57.5 205.5t43 202.5q3 20 12.5 28t29.5 8h68q20 0 29.5 -8t12.5 -28q18 -98 44.5 -202.5
t58 -205.5t65.5 -194t68 -166q31 73 62.5 166t61 194t54.5 205.5t42 202.5q3 20 12.5 28t29.5 8h84zM550 1114q-12 -8 -19 -10t-13 -2q-17 0 -30 16l-16 20q-6 8 -8 13t-2 11t3.5 13t12.5 13l228 166q15 12 32 12t32 -12l228 -166q9 -6 12.5 -13t3.5 -13t-2 -11t-8 -13
l-16 -20q-13 -16 -30 -16q-6 0 -13 2t-19 10l-188 116z" />
    <glyph glyph-name="Ycircumflex" unicode="&#x176;" horiz-adv-x="1072" 
d="M490 0q-20 0 -28 8t-8 28v434q-54 82 -112 180.5t-113.5 205t-105.5 217t-89 217.5q-12 34 24 34h100q37 0 48 -34q34 -95 75 -190.5t84.5 -185t88.5 -170t88 -144.5q42 64 86 144.5t87.5 170t84.5 185t76 190.5q11 34 48 34h90q36 0 24 -34q-39 -107 -89 -217.5
t-105.5 -216.5t-113 -204t-112.5 -180v-436q0 -20 -8 -28t-28 -8h-92zM348 1444q-12 -8 -19 -10t-13 -2q-17 0 -30 16l-16 20q-6 8 -8 13t-2 11t3.5 13t12.5 13l228 166q15 12 32 12t32 -12l228 -166q9 -6 12.5 -13t3.5 -13t-2 -11t-8 -13l-16 -20q-13 -16 -30 -16
q-6 0 -13 2t-19 10l-188 116z" />
    <glyph glyph-name="ycircumflex" unicode="&#x177;" horiz-adv-x="918" 
d="M382 20q-49 85 -97 190.5t-91.5 221t-80.5 235t-63 233.5q-2 6 -4 18t-2 18q0 11 6.5 17.5t23.5 6.5h88q20 0 29.5 -7t12.5 -27q19 -98 48 -200.5t63 -201.5t71.5 -190.5t75.5 -165.5q39 74 77 165.5t72.5 191t63.5 202.5t49 201q3 15 12 23.5t30 8.5h74q30 0 30 -22
q0 -6 -1.5 -13.5l-4.5 -22.5q-27 -136 -72 -276.5t-98 -271.5q-48 -120 -104.5 -231t-121 -207t-138.5 -174t-156 -132q-13 -10 -28 -10q-17 0 -28 16l-36 50q-10 13 -10 24q0 15 20 28q46 34 83.5 65.5t72 66.5t67 76t67.5 94zM276 1114q-12 -8 -19 -10t-13 -2
q-17 0 -30 16l-16 20q-6 8 -8 13t-2 11t3.5 13t12.5 13l228 166q15 12 32 12t32 -12l228 -166q9 -6 12.5 -13t3.5 -13t-2 -11t-8 -13l-16 -20q-13 -16 -30 -16q-6 0 -13 2t-19 10l-188 116z" />
    <glyph glyph-name="Ydieresis" unicode="&#x178;" horiz-adv-x="1072" 
d="M490 0q-20 0 -28 8t-8 28v434q-54 82 -112 180.5t-113.5 205t-105.5 217t-89 217.5q-12 34 24 34h100q37 0 48 -34q34 -95 75 -190.5t84.5 -185t88.5 -170t88 -144.5q42 64 86 144.5t87.5 170t84.5 185t76 190.5q11 34 48 34h90q36 0 24 -34q-39 -107 -89 -217.5
t-105.5 -216.5t-113 -204t-112.5 -180v-436q0 -20 -8 -28t-28 -8h-92zM456 1564q0 -42 -25.5 -71t-72.5 -29t-72.5 29t-25.5 71t25.5 71t72.5 29t72.5 -29t25.5 -71zM812 1564q0 -42 -25.5 -71t-72.5 -29t-72.5 29t-25.5 71t25.5 71t72.5 29t72.5 -29t25.5 -71z" />
    <glyph glyph-name="Zacute" unicode="&#x179;" horiz-adv-x="1062" 
d="M124 0q-20 0 -28 8t-8 28v56q0 14 4 31t10 31q19 39 55 99t82.5 132t101 153t109.5 162t108 158t96.5 142t75 113.5t44.5 72.5h-616q-20 0 -28 8t-8 28v66q0 20 8 28t28 8h758q20 0 28 -8t8 -28v-56q0 -14 -4 -31t-10 -31q-19 -39 -55 -99t-82.5 -132t-101 -153
t-109.5 -162t-108 -158t-96.5 -142t-75 -113.5t-44.5 -72.5h684q20 0 28 -8t8 -28v-66q0 -20 -8 -28t-28 -8h-826zM666 1718q8 6 14 8t12 2t13 -3t13 -11l34 -42q10 -13 10 -26t-14 -24l-260 -196q-15 -12 -26 -12q-13 0 -26 16l-22 28q-10 13 -10 22q0 8 4 14t12 14z" />
    <glyph glyph-name="zacute" unicode="&#x17a;" horiz-adv-x="876" 
d="M762 824q-22 -39 -63.5 -99.5t-93 -131t-107 -144.5t-103.5 -139t-83.5 -115.5t-47.5 -72.5h500q20 0 28 -8t8 -28v-50q0 -20 -8 -28t-28 -8h-644q-20 0 -28 8t-8 28v40q0 14 4 31t12 29q21 39 63 99.5t93.5 131t106.5 144.5t103.5 139t84 115t47.5 73h-454q-20 0 -28 8
t-8 28v50q0 20 8 28t28 8h598q20 0 28 -8t8 -28v-40q0 -14 -4 -31t-12 -29zM572 1388q8 6 14 8t12 2t13 -3t13 -11l34 -42q10 -13 10 -26t-14 -24l-260 -196q-15 -12 -26 -12q-13 0 -26 16l-22 28q-10 13 -10 22q0 8 4 14t12 14z" />
    <glyph glyph-name="Zdotaccent" unicode="&#x17b;" horiz-adv-x="1062" 
d="M124 0q-20 0 -28 8t-8 28v56q0 14 4 31t10 31q19 39 55 99t82.5 132t101 153t109.5 162t108 158t96.5 142t75 113.5t44.5 72.5h-616q-20 0 -28 8t-8 28v66q0 20 8 28t28 8h758q20 0 28 -8t8 -28v-56q0 -14 -4 -31t-10 -31q-19 -39 -55 -99t-82.5 -132t-101 -153
t-109.5 -162t-108 -158t-96.5 -142t-75 -113.5t-44.5 -72.5h684q20 0 28 -8t8 -28v-66q0 -20 -8 -28t-28 -8h-826zM634 1564q0 -42 -25.5 -71t-72.5 -29t-72.5 29t-25.5 71t25.5 71t72.5 29t72.5 -29t25.5 -71z" />
    <glyph glyph-name="zdotaccent" unicode="&#x17c;" horiz-adv-x="876" 
d="M762 824q-22 -39 -63.5 -99.5t-93 -131t-107 -144.5t-103.5 -139t-83.5 -115.5t-47.5 -72.5h500q20 0 28 -8t8 -28v-50q0 -20 -8 -28t-28 -8h-644q-20 0 -28 8t-8 28v40q0 14 4 31t12 29q21 39 63 99.5t93.5 131t106.5 144.5t103.5 139t84 115t47.5 73h-454q-20 0 -28 8
t-8 28v50q0 20 8 28t28 8h598q20 0 28 -8t8 -28v-40q0 -14 -4 -31t-12 -29zM540 1234q0 -42 -25.5 -71t-72.5 -29t-72.5 29t-25.5 71t25.5 71t72.5 29t72.5 -29t25.5 -71z" />
    <glyph glyph-name="Zcaron" unicode="&#x17d;" horiz-adv-x="1062" 
d="M124 0q-20 0 -28 8t-8 28v56q0 14 4 31t10 31q19 39 55 99t82.5 132t101 153t109.5 162t108 158t96.5 142t75 113.5t44.5 72.5h-616q-20 0 -28 8t-8 28v66q0 20 8 28t28 8h758q20 0 28 -8t8 -28v-56q0 -14 -4 -31t-10 -31q-19 -39 -55 -99t-82.5 -132t-101 -153
t-109.5 -162t-108 -158t-96.5 -142t-75 -113.5t-44.5 -72.5h684q20 0 28 -8t8 -28v-66q0 -20 -8 -28t-28 -8h-826zM724 1672q12 8 19 10t13 2q8 0 15 -3.5t15 -12.5l16 -20q10 -13 10 -24q0 -6 -3.5 -13t-12.5 -13l-228 -166q-15 -12 -32 -12t-32 12l-228 166q-9 6 -12.5 13
t-3.5 13q0 11 10 24l16 20q8 9 15 12.5t15 3.5q6 0 13 -2t19 -10l188 -116z" />
    <glyph glyph-name="zcaron" unicode="&#x17e;" horiz-adv-x="876" 
d="M762 824q-22 -39 -63.5 -99.5t-93 -131t-107 -144.5t-103.5 -139t-83.5 -115.5t-47.5 -72.5h500q20 0 28 -8t8 -28v-50q0 -20 -8 -28t-28 -8h-644q-20 0 -28 8t-8 28v40q0 14 4 31t12 29q21 39 63 99.5t93.5 131t106.5 144.5t103.5 139t84 115t47.5 73h-454q-20 0 -28 8
t-8 28v50q0 20 8 28t28 8h598q20 0 28 -8t8 -28v-40q0 -14 -4 -31t-12 -29zM630 1342q12 8 19 10t13 2q8 0 15 -3.5t15 -12.5l16 -20q10 -13 10 -24q0 -6 -3.5 -13t-12.5 -13l-228 -166q-15 -12 -32 -12t-32 12l-228 166q-9 6 -12.5 13t-3.5 13q0 11 10 24l16 20
q8 9 15 12.5t15 3.5q6 0 13 -2t19 -10l188 -116z" />
    <glyph glyph-name="florin" unicode="&#x192;" 
d="M576 732h198q36 0 30 -36l-6 -54q-3 -20 -12.5 -28t-29.5 -8h-198l-100 -628q-19 -118 -54.5 -195t-83 -122t-105 -63t-119.5 -18q-54 0 -97 10.5t-73 27.5q-20 10 -20 28q0 8 6 20l30 54q8 12 13.5 17t14.5 5q10 0 22 -6q47 -22 100 -22q85 0 135.5 64t70.5 188l102 640
h-170q-36 0 -30 36l6 54q3 20 12.5 28t29.5 8h170l34 214q19 118 54.5 195t83 122t105 63t119.5 18q54 0 97 -10.5t73 -27.5q20 -10 20 -28q0 -8 -6 -20l-30 -54q-8 -12 -13.5 -17t-14.5 -5q-10 0 -22 6q-47 22 -100 22q-85 0 -135.5 -64t-70.5 -188z" />
    <glyph glyph-name="Scommaaccent" unicode="&#x218;" horiz-adv-x="1044" 
d="M956 352q0 -86 -32 -155t-91.5 -117t-143.5 -74t-187 -26q-68 0 -126.5 10.5t-108 28.5t-89.5 42t-70 51q-26 23 -6 52l48 60q12 15 23.5 16.5t26.5 -10.5q60 -50 134.5 -79t169.5 -29q136 0 211 58.5t75 161.5q0 54 -21.5 92t-60 66t-91 48.5t-113.5 39.5
q-44 13 -90.5 29t-91 37.5t-84.5 49.5t-69.5 66.5t-47 88.5t-17.5 115q0 87 32.5 155.5t91.5 116.5t142 73t184 25q121 0 209.5 -31t144.5 -75q28 -23 8 -52l-42 -60q-22 -28 -50 -8q-51 38 -118 61t-156 23q-77 0 -130 -18t-86.5 -48.5t-48.5 -70.5t-15 -83
q0 -54 21.5 -92.5t59 -67t89.5 -49t114 -39.5q66 -20 137 -46t130 -68.5t97 -106.5t38 -161zM604 -198q0 -51 -30.5 -109.5t-83.5 -114.5q-6 -6 -11 -10t-11 -4q-9 0 -20 8l-6 4q-16 10 -16 20q0 9 8 20q24 32 30 51t6 33q0 21 -9 34.5t-19.5 25.5t-19 26.5t-8.5 37.5
q0 33 22.5 57.5t69.5 24.5t72.5 -28t25.5 -76z" />
    <glyph glyph-name="scommaaccent" unicode="&#x219;" horiz-adv-x="890" 
d="M802 262q0 -67 -28 -119.5t-77.5 -88.5t-116.5 -55t-144 -19q-115 0 -197.5 31t-132.5 73q-28 22 -6 50l38 50q12 15 23.5 17t26.5 -9q50 -39 111 -61.5t139 -22.5q43 0 80.5 9t66 27t45 45t16.5 63q0 40 -17 66.5t-47 45t-69.5 31t-84.5 23.5q-34 8 -71.5 17.5t-73.5 23
t-69 32.5t-58 47.5t-39.5 68t-14.5 93.5q0 64 27 116t75 88.5t115 56t147 19.5q100 0 174 -22.5t122 -57.5q28 -20 10 -50l-36 -52q-11 -17 -21 -19t-27 9q-42 29 -97.5 46.5t-126.5 17.5q-51 0 -89.5 -11.5t-64.5 -31t-39 -46t-13 -57.5q0 -41 17.5 -66.5t47 -42t68.5 -27
t83 -20.5q57 -14 115.5 -32t105.5 -49.5t77 -81t30 -125.5zM538 -198q0 -51 -30.5 -109.5t-83.5 -114.5q-6 -6 -11 -10t-11 -4q-9 0 -20 8l-6 4q-16 10 -16 20q0 9 8 20q24 32 30 51t6 33q0 21 -9 34.5t-19.5 25.5t-19 26.5t-8.5 37.5q0 33 22.5 57.5t69.5 24.5t72.5 -28
t25.5 -76z" />
    <glyph glyph-name="uni021A" unicode="&#x21a;" horiz-adv-x="1000" 
d="M454 0q-20 0 -28 8t-8 28v1152h-352q-20 0 -28 8t-8 28v64q0 20 8 28t28 8h868q20 0 28 -8t8 -28v-64q0 -20 -8 -28t-28 -8h-352v-1152q0 -20 -8 -28t-28 -8h-92zM602 -198q0 -51 -30.5 -109.5t-83.5 -114.5q-6 -6 -11 -10t-11 -4q-9 0 -20 8l-6 4q-16 10 -16 20
q0 9 8 20q24 32 30 51t6 33q0 21 -9 34.5t-19.5 25.5t-19 26.5t-8.5 37.5q0 33 22.5 57.5t69.5 24.5t72.5 -28t25.5 -76z" />
    <glyph glyph-name="uni021B" unicode="&#x21b;" horiz-adv-x="710" 
d="M66 838q-20 0 -28 8t-8 28v50q0 20 8 28t28 8h128v222q0 20 8 28t28 8h84q20 0 28 -8t8 -28v-222h272q20 0 28 -8t8 -28v-50q0 -20 -8 -28t-28 -8h-272v-564q0 -80 27.5 -122t98.5 -42q33 0 60.5 8.5t53.5 23.5q17 9 26.5 6t17.5 -20l22 -52q14 -34 -16 -52
q-42 -24 -88 -34t-96 -10q-63 0 -112 15t-82 49.5t-50.5 89t-17.5 134.5v570h-128zM536 -198q0 -51 -30.5 -109.5t-83.5 -114.5q-6 -6 -11 -10t-11 -4q-9 0 -20 8l-6 4q-16 10 -16 20q0 9 8 20q24 32 30 51t6 33q0 21 -9 34.5t-19.5 25.5t-19 26.5t-8.5 37.5q0 33 22.5 57.5
t69.5 24.5t72.5 -28t25.5 -76z" />
    <glyph glyph-name="dotlessj" unicode="&#x237;" horiz-adv-x="464" 
d="M310 -90q0 -166 -69.5 -248t-200.5 -82q-38 0 -75 6.5t-69 23.5q-32 15 -20 48l22 52q9 18 18.5 22.5t29.5 -4.5q35 -16 76 -16q72 0 102 54t30 154v1004q0 20 8 28t28 8h84q20 0 28 -8t8 -28v-1014v0z" />
    <glyph glyph-name="circumflex" unicode="&#x2c6;" horiz-adv-x="780" 
d="M202 1114q-12 -8 -19 -10t-13 -2q-17 0 -30 16l-16 20q-6 8 -8 13t-2 11t3.5 13t12.5 13l228 166q15 12 32 12t32 -12l228 -166q9 -6 12.5 -13t3.5 -13t-2 -11t-8 -13l-16 -20q-13 -16 -30 -16q-6 0 -13 2t-19 10l-188 116z" />
    <glyph glyph-name="caron" unicode="&#x2c7;" horiz-adv-x="780" 
d="M578 1342q12 8 19 10t13 2q8 0 15 -3.5t15 -12.5l16 -20q10 -13 10 -24q0 -6 -3.5 -13t-12.5 -13l-228 -166q-15 -12 -32 -12t-32 12l-228 166q-9 6 -12.5 13t-3.5 13q0 11 10 24l16 20q8 9 15 12.5t15 3.5q6 0 13 -2t19 -10l188 -116z" />
    <glyph glyph-name="breve" unicode="&#x2d8;" horiz-adv-x="760" 
d="M380 1092q-51 0 -95.5 16t-79.5 41.5t-59.5 58t-35.5 66.5q-2 5 -3 10t-1 10q0 17 20 26l34 12q15 6 24 6t14.5 -6t11.5 -18q26 -47 66.5 -75.5t103.5 -28.5t103.5 28.5t66.5 75.5q6 12 11.5 18t14.5 6t24 -6l34 -12q20 -9 20 -26q0 -5 -1 -10t-3 -10
q-11 -34 -35.5 -66.5t-59.5 -58t-79.5 -41.5t-95.5 -16z" />
    <glyph glyph-name="dotaccent" unicode="&#x2d9;" horiz-adv-x="396" 
d="M296 1234q0 -42 -25.5 -71t-72.5 -29t-72.5 29t-25.5 71t25.5 71t72.5 29t72.5 -29t25.5 -71z" />
    <glyph glyph-name="ring" unicode="&#x2da;" horiz-adv-x="620" 
d="M520 1246q0 -46 -17 -84t-45.5 -65t-66.5 -42t-81 -15t-81 15t-66.5 42t-45.5 65t-17 84t17 84t45.5 65t66.5 42t81 15t81 -15t66.5 -42t45.5 -65t17 -84zM192 1246q0 -56 33.5 -89t84.5 -33t84.5 33t33.5 89t-33.5 89t-84.5 33t-84.5 -33t-33.5 -89z" />
    <glyph glyph-name="ogonek" unicode="&#x2db;" horiz-adv-x="550" 
d="M100 -224q0 56 35 109t95 115h88q-48 -63 -73 -106.5t-25 -85.5q0 -45 25 -65.5t61 -20.5q33 0 68 16q20 9 30 6.5t22 -20.5l6 -10q9 -14 7 -26.5t-17 -21.5q-58 -40 -140 -40q-41 0 -74.5 11t-57.5 30.5t-37 47t-13 61.5z" />
    <glyph glyph-name="tilde" unicode="&#x2dc;" horiz-adv-x="804" 
d="M520 1128q-34 0 -64.5 10.5t-59 23.5t-55 23.5t-51.5 10.5q-26 0 -49.5 -11t-44.5 -31q-14 -14 -28 -14q-16 0 -30 14l-14 12q-14 11 -14 26q0 5 1.5 11.5t6.5 14.5q10 18 26.5 35t38.5 30.5t47.5 22t53.5 8.5q34 0 64.5 -10.5t59 -23.5t54.5 -23.5t52 -10.5t49.5 11
t44.5 31q14 14 28 14q16 0 30 -14l14 -12q14 -11 14 -26q0 -5 -1.5 -11.5t-6.5 -14.5q-10 -18 -26.5 -35.5t-38.5 -31t-47.5 -21.5t-53.5 -8z" />
    <glyph glyph-name="hungarumlaut" unicode="&#x2dd;" horiz-adv-x="838" 
d="M212 1094q-9 -11 -15.5 -14.5t-14.5 -3.5q-11 0 -26 12l-28 24q-16 13 -16 28q0 12 12 24l188 212q11 14 26 14q12 0 24 -12l38 -36q6 -6 10 -12t4 -14q0 -12 -12 -24zM524 1094q-9 -11 -15.5 -14.5t-14.5 -3.5q-11 0 -26 12l-28 24q-16 13 -16 28q0 12 12 24l188 212
q11 14 26 14q12 0 24 -12l38 -36q6 -6 10 -12t4 -14q0 -12 -12 -24z" />
    <glyph glyph-name="commatop" unicode="&#x312;" horiz-adv-x="390" 
d="M100 1216q0 51 30.5 109.5t83.5 114.5q6 6 11 10t11 4q9 0 20 -8l6 -4q16 -10 16 -20q0 -9 -8 -20q-24 -32 -30 -51t-6 -33q0 -21 8.5 -34.5t19 -25.5t19.5 -26.5t9 -37.5q0 -33 -22.5 -57.5t-69.5 -24.5t-72.5 28t-25.5 76z" />
    <glyph glyph-name="caronslovak" unicode="&#x315;" horiz-adv-x="390" 
d="M134 1090q-18 3 -25 12t-5 26l32 288q3 30 26 30q5 0 11.5 -1t14.5 -3l66 -14q26 -6 26 -24q0 -10 -6 -28l-96 -264q-6 -17 -16.5 -21t-27.5 -1z" />
    <glyph glyph-name="commaaccent" unicode="&#x326;" horiz-adv-x="390" 
d="M290 -198q0 -51 -30.5 -109.5t-83.5 -114.5q-6 -6 -11 -10t-11 -4q-9 0 -20 8l-6 4q-16 10 -16 20q0 9 8 20q24 32 30 51t6 33q0 21 -9 34.5t-19.5 25.5t-19 26.5t-8.5 37.5q0 33 22.5 57.5t69.5 24.5t72.5 -28t25.5 -76z" />
    <glyph glyph-name="pi" unicode="&#x3c0;" horiz-adv-x="1092" 
d="M984 960q20 0 28 -8t8 -28v-50q0 -20 -8 -28t-28 -8h-126v-540q0 -45 5 -80t18 -59t35 -36.5t56 -12.5q18 0 35.5 3t32.5 11q20 8 29.5 3t18.5 -23l22 -50q12 -33 -20 -48q-30 -14 -64.5 -20t-69.5 -6q-254 0 -254 312v546h-350v-802q0 -20 -8 -28t-28 -8h-84
q-20 0 -28 8t-8 28v802h-126q-20 0 -28 8t-8 28v50q0 20 8 28t28 8h914z" />
    <glyph glyph-name="Wgrave" unicode="&#x1e80;" horiz-adv-x="1872" 
d="M1776 1324q18 0 24 -9.5t6 -20.5q0 -5 -1 -11.5t-3 -14.5q-21 -107 -47 -220t-55.5 -225.5t-62 -222.5t-66 -212t-67.5 -192.5t-66 -163.5q-8 -17 -19 -24.5t-31 -7.5h-68q-20 0 -31.5 7t-20.5 25q-56 119 -106 246t-92 256.5t-76 259.5t-58 256q-23 -126 -57 -256
t-76 -259.5t-92.5 -256.5t-106.5 -246q-9 -18 -20.5 -25t-31.5 -7h-68q-20 0 -31 7.5t-19 24.5q-31 74 -64.5 165t-67 193.5t-66 213t-62.5 223t-56.5 224.5t-47.5 217q-2 8 -3 14.5t-1 11.5q0 11 6 20.5t24 9.5h96q20 0 29.5 -8t12.5 -28q23 -139 56 -289t71.5 -297
t80 -284t82.5 -250q32 76 65 162.5t65 180t61.5 192t55.5 198t47 197t36 190.5q3 20 12.5 28t29.5 8h80q20 0 29.5 -8t12.5 -28q23 -139 59.5 -289t80.5 -297t93 -284t97 -250q27 76 55.5 162.5t55.5 180t53 192t49 198t42.5 197t34.5 190.5q3 20 12.5 28t29.5 8h96z
M1052 1508q8 -8 12 -14t4 -14q0 -9 -10 -22l-22 -28q-13 -16 -26 -16q-11 0 -26 12l-260 196q-14 11 -14 24t10 26l34 42q6 8 13 11t13 3t12 -2t14 -8z" />
    <glyph glyph-name="wgrave" unicode="&#x1e81;" horiz-adv-x="1476" 
d="M1396 960q30 0 30 -26q0 -6 -1 -13t-3 -15q-23 -114 -54.5 -235t-68.5 -236.5t-77 -219.5t-80 -183q-8 -15 -20 -23.5t-32 -8.5h-76q-20 0 -31 7.5t-19 24.5q-86 199 -141 367.5t-85 324.5q-29 -156 -84.5 -324t-139.5 -366q-8 -18 -19 -26t-31 -8h-78q-37 0 -52 32
q-38 81 -78 185t-77.5 219t-70 235.5t-54.5 234.5q-2 8 -3 15t-1 13q0 26 30 26h86q20 0 29.5 -8t12.5 -28q17 -98 42 -202.5t54.5 -205.5t61 -194t62.5 -166q34 73 68 166t65.5 194t57.5 205.5t43 202.5q3 20 12.5 28t29.5 8h68q20 0 29.5 -8t12.5 -28q18 -98 44.5 -202.5
t58 -205.5t65.5 -194t68 -166q31 73 62.5 166t61 194t54.5 205.5t42 202.5q3 20 12.5 28t29.5 8h84zM854 1178q8 -8 12 -14t4 -14q0 -9 -10 -22l-22 -28q-13 -16 -26 -16q-11 0 -26 12l-260 196q-14 11 -14 24t10 26l34 42q6 8 13 11t13 3t12 -2t14 -8z" />
    <glyph glyph-name="Wacute" unicode="&#x1e82;" horiz-adv-x="1872" 
d="M1776 1324q18 0 24 -9.5t6 -20.5q0 -5 -1 -11.5t-3 -14.5q-21 -107 -47 -220t-55.5 -225.5t-62 -222.5t-66 -212t-67.5 -192.5t-66 -163.5q-8 -17 -19 -24.5t-31 -7.5h-68q-20 0 -31.5 7t-20.5 25q-56 119 -106 246t-92 256.5t-76 259.5t-58 256q-23 -126 -57 -256
t-76 -259.5t-92.5 -256.5t-106.5 -246q-9 -18 -20.5 -25t-31.5 -7h-68q-20 0 -31 7.5t-19 24.5q-31 74 -64.5 165t-67 193.5t-66 213t-62.5 223t-56.5 224.5t-47.5 217q-2 8 -3 14.5t-1 11.5q0 11 6 20.5t24 9.5h96q20 0 29.5 -8t12.5 -28q23 -139 56 -289t71.5 -297
t80 -284t82.5 -250q32 76 65 162.5t65 180t61.5 192t55.5 198t47 197t36 190.5q3 20 12.5 28t29.5 8h80q20 0 29.5 -8t12.5 -28q23 -139 59.5 -289t80.5 -297t93 -284t97 -250q27 76 55.5 162.5t55.5 180t53 192t49 198t42.5 197t34.5 190.5q3 20 12.5 28t29.5 8h96z
M1066 1718q8 6 14 8t12 2t13 -3t13 -11l34 -42q10 -13 10 -26t-14 -24l-260 -196q-15 -12 -26 -12q-13 0 -26 16l-22 28q-10 13 -10 22q0 8 4 14t12 14z" />
    <glyph glyph-name="wacute" unicode="&#x1e83;" horiz-adv-x="1476" 
d="M1396 960q30 0 30 -26q0 -6 -1 -13t-3 -15q-23 -114 -54.5 -235t-68.5 -236.5t-77 -219.5t-80 -183q-8 -15 -20 -23.5t-32 -8.5h-76q-20 0 -31 7.5t-19 24.5q-86 199 -141 367.5t-85 324.5q-29 -156 -84.5 -324t-139.5 -366q-8 -18 -19 -26t-31 -8h-78q-37 0 -52 32
q-38 81 -78 185t-77.5 219t-70 235.5t-54.5 234.5q-2 8 -3 15t-1 13q0 26 30 26h86q20 0 29.5 -8t12.5 -28q17 -98 42 -202.5t54.5 -205.5t61 -194t62.5 -166q34 73 68 166t65.5 194t57.5 205.5t43 202.5q3 20 12.5 28t29.5 8h68q20 0 29.5 -8t12.5 -28q18 -98 44.5 -202.5
t58 -205.5t65.5 -194t68 -166q31 73 62.5 166t61 194t54.5 205.5t42 202.5q3 20 12.5 28t29.5 8h84zM868 1388q8 6 14 8t12 2t13 -3t13 -11l34 -42q10 -13 10 -26t-14 -24l-260 -196q-15 -12 -26 -12q-13 0 -26 16l-22 28q-10 13 -10 22q0 8 4 14t12 14z" />
    <glyph glyph-name="Wdieresis" unicode="&#x1e84;" horiz-adv-x="1872" 
d="M1776 1324q18 0 24 -9.5t6 -20.5q0 -5 -1 -11.5t-3 -14.5q-21 -107 -47 -220t-55.5 -225.5t-62 -222.5t-66 -212t-67.5 -192.5t-66 -163.5q-8 -17 -19 -24.5t-31 -7.5h-68q-20 0 -31.5 7t-20.5 25q-56 119 -106 246t-92 256.5t-76 259.5t-58 256q-23 -126 -57 -256
t-76 -259.5t-92.5 -256.5t-106.5 -246q-9 -18 -20.5 -25t-31.5 -7h-68q-20 0 -31 7.5t-19 24.5q-31 74 -64.5 165t-67 193.5t-66 213t-62.5 223t-56.5 224.5t-47.5 217q-2 8 -3 14.5t-1 11.5q0 11 6 20.5t24 9.5h96q20 0 29.5 -8t12.5 -28q23 -139 56 -289t71.5 -297
t80 -284t82.5 -250q32 76 65 162.5t65 180t61.5 192t55.5 198t47 197t36 190.5q3 20 12.5 28t29.5 8h80q20 0 29.5 -8t12.5 -28q23 -139 59.5 -289t80.5 -297t93 -284t97 -250q27 76 55.5 162.5t55.5 180t53 192t49 198t42.5 197t34.5 190.5q3 20 12.5 28t29.5 8h96z
M856 1564q0 -42 -25.5 -71t-72.5 -29t-72.5 29t-25.5 71t25.5 71t72.5 29t72.5 -29t25.5 -71zM1212 1564q0 -42 -25.5 -71t-72.5 -29t-72.5 29t-25.5 71t25.5 71t72.5 29t72.5 -29t25.5 -71z" />
    <glyph glyph-name="wdieresis" unicode="&#x1e85;" horiz-adv-x="1476" 
d="M1396 960q30 0 30 -26q0 -6 -1 -13t-3 -15q-23 -114 -54.5 -235t-68.5 -236.5t-77 -219.5t-80 -183q-8 -15 -20 -23.5t-32 -8.5h-76q-20 0 -31 7.5t-19 24.5q-86 199 -141 367.5t-85 324.5q-29 -156 -84.5 -324t-139.5 -366q-8 -18 -19 -26t-31 -8h-78q-37 0 -52 32
q-38 81 -78 185t-77.5 219t-70 235.5t-54.5 234.5q-2 8 -3 15t-1 13q0 26 30 26h86q20 0 29.5 -8t12.5 -28q17 -98 42 -202.5t54.5 -205.5t61 -194t62.5 -166q34 73 68 166t65.5 194t57.5 205.5t43 202.5q3 20 12.5 28t29.5 8h68q20 0 29.5 -8t12.5 -28q18 -98 44.5 -202.5
t58 -205.5t65.5 -194t68 -166q31 73 62.5 166t61 194t54.5 205.5t42 202.5q3 20 12.5 28t29.5 8h84zM658 1234q0 -42 -25.5 -71t-72.5 -29t-72.5 29t-25.5 71t25.5 71t72.5 29t72.5 -29t25.5 -71zM1014 1234q0 -42 -25.5 -71t-72.5 -29t-72.5 29t-25.5 71t25.5 71t72.5 29
t72.5 -29t25.5 -71z" />
    <glyph glyph-name="Ygrave" unicode="&#x1ef2;" horiz-adv-x="1072" 
d="M490 0q-20 0 -28 8t-8 28v434q-54 82 -112 180.5t-113.5 205t-105.5 217t-89 217.5q-12 34 24 34h100q37 0 48 -34q34 -95 75 -190.5t84.5 -185t88.5 -170t88 -144.5q42 64 86 144.5t87.5 170t84.5 185t76 190.5q11 34 48 34h90q36 0 24 -34q-39 -107 -89 -217.5
t-105.5 -216.5t-113 -204t-112.5 -180v-436q0 -20 -8 -28t-28 -8h-92zM652 1508q8 -8 12 -14t4 -14q0 -9 -10 -22l-22 -28q-13 -16 -26 -16q-11 0 -26 12l-260 196q-14 11 -14 24t10 26l34 42q6 8 13 11t13 3t12 -2t14 -8z" />
    <glyph glyph-name="ygrave" unicode="&#x1ef3;" horiz-adv-x="918" 
d="M382 20q-49 85 -97 190.5t-91.5 221t-80.5 235t-63 233.5q-2 6 -4 18t-2 18q0 11 6.5 17.5t23.5 6.5h88q20 0 29.5 -7t12.5 -27q19 -98 48 -200.5t63 -201.5t71.5 -190.5t75.5 -165.5q39 74 77 165.5t72.5 191t63.5 202.5t49 201q3 15 12 23.5t30 8.5h74q30 0 30 -22
q0 -6 -1.5 -13.5l-4.5 -22.5q-27 -136 -72 -276.5t-98 -271.5q-48 -120 -104.5 -231t-121 -207t-138.5 -174t-156 -132q-13 -10 -28 -10q-17 0 -28 16l-36 50q-10 13 -10 24q0 15 20 28q46 34 83.5 65.5t72 66.5t67 76t67.5 94zM580 1178q8 -8 12 -14t4 -14q0 -9 -10 -22
l-22 -28q-13 -16 -26 -16q-11 0 -26 12l-260 196q-14 11 -14 24t10 26l34 42q6 8 13 11t13 3t12 -2t14 -8z" />
    <glyph glyph-name="endash" unicode="&#x2013;" horiz-adv-x="1000" 
d="M140 510q-20 0 -28 8t-8 28v48q0 20 8 28t28 8h720q20 0 28 -8t8 -28v-48q0 -20 -8 -28t-28 -8h-720z" />
    <glyph glyph-name="emdash" unicode="&#x2014;" horiz-adv-x="1600" 
d="M140 510q-20 0 -28 8t-8 28v48q0 20 8 28t28 8h1320q20 0 28 -8t8 -28v-48q0 -20 -8 -28t-28 -8h-1320z" />
    <glyph glyph-name="quoteleft" unicode="&#x2018;" horiz-adv-x="392" 
d="M294 1084q0 -42 -27 -73t-77 -31q-48 0 -74 32.5t-26 91.5q0 33 8.5 73t24 82t37.5 85t50 82q12 18 30 18q6 0 12.5 -2.5t11.5 -5.5l6 -4q20 -13 20 -28q0 -11 -8 -22q-30 -45 -39 -75.5t-9 -54.5q0 -27 9.5 -47t20.5 -38t20.5 -37.5t9.5 -45.5z" />
    <glyph glyph-name="quoteright" unicode="&#x2019;" horiz-adv-x="392" 
d="M98 1342q0 42 27 73t77 31q48 0 74 -32.5t26 -91.5q0 -33 -8.5 -73t-24 -82t-37.5 -85t-50 -82q-12 -18 -30 -18q-6 0 -12.5 2.5t-11.5 5.5l-6 4q-20 13 -20 28q0 11 8 22q30 45 39 75.5t9 54.5q0 27 -9.5 47t-20.5 38t-20.5 37.5t-9.5 45.5z" />
    <glyph glyph-name="quotesinglbase" unicode="&#x201a;" horiz-adv-x="392" 
d="M98 114q0 42 27 73t77 31q48 0 74 -32.5t26 -91.5q0 -33 -8.5 -73t-24 -82t-37.5 -85t-50 -82q-12 -18 -30 -18q-6 0 -12.5 2.5t-11.5 5.5l-6 4q-20 13 -20 28q0 11 8 22q30 45 39 75.5t9 54.5q0 27 -9.5 47t-20.5 38t-20.5 37.5t-9.5 45.5z" />
    <glyph glyph-name="quotedblleft" unicode="&#x201c;" horiz-adv-x="680" 
d="M294 1084q0 -42 -27 -73t-77 -31q-48 0 -74 32.5t-26 91.5q0 33 8.5 73t24 82t37.5 85t50 82q12 18 30 18q6 0 12.5 -2.5t11.5 -5.5l6 -4q20 -13 20 -28q0 -11 -8 -22q-30 -45 -39 -75.5t-9 -54.5q0 -27 9.5 -47t20.5 -38t20.5 -37.5t9.5 -45.5zM582 1084q0 -42 -27 -73
t-77 -31q-48 0 -74 32.5t-26 91.5q0 33 8.5 73t24 82t37.5 85t50 82q12 18 30 18q6 0 12.5 -2.5t11.5 -5.5l6 -4q20 -13 20 -28q0 -11 -8 -22q-30 -45 -39 -75.5t-9 -54.5q0 -27 9.5 -47t20.5 -38t20.5 -37.5t9.5 -45.5z" />
    <glyph glyph-name="quotedblright" unicode="&#x201d;" horiz-adv-x="680" 
d="M98 1342q0 42 27 73t77 31q48 0 74 -32.5t26 -91.5q0 -33 -8.5 -73t-24 -82t-37.5 -85t-50 -82q-12 -18 -30 -18q-6 0 -12.5 2.5t-11.5 5.5l-6 4q-20 13 -20 28q0 11 8 22q30 45 39 75.5t9 54.5q0 27 -9.5 47t-20.5 38t-20.5 37.5t-9.5 45.5zM386 1342q0 42 27 73t77 31
q48 0 74 -32.5t26 -91.5q0 -33 -8.5 -73t-24 -82t-37.5 -85t-50 -82q-12 -18 -30 -18q-6 0 -12.5 2.5t-11.5 5.5l-6 4q-20 13 -20 28q0 11 8 22q30 45 39 75.5t9 54.5q0 27 -9.5 47t-20.5 38t-20.5 37.5t-9.5 45.5z" />
    <glyph glyph-name="quotedblbase" unicode="&#x201e;" horiz-adv-x="684" 
d="M98 114q0 42 27 73t77 31q48 0 74 -32.5t26 -91.5q0 -33 -8.5 -73t-24 -82t-37.5 -85t-50 -82q-12 -18 -30 -18q-6 0 -12.5 2.5t-11.5 5.5l-6 4q-20 13 -20 28q0 11 8 22q30 45 39 75.5t9 54.5q0 27 -9.5 47t-20.5 38t-20.5 37.5t-9.5 45.5zM390 114q0 42 27 73t77 31
q48 0 74 -32.5t26 -91.5q0 -33 -8.5 -73t-24 -82t-37.5 -85t-50 -82q-12 -18 -30 -18q-6 0 -12.5 2.5t-11.5 5.5l-6 4q-20 13 -20 28q0 11 8 22q30 45 39 75.5t9 54.5q0 27 -9.5 47t-20.5 38t-20.5 37.5t-9.5 45.5z" />
    <glyph glyph-name="dagger" unicode="&#x2020;" horiz-adv-x="920" 
d="M156 1046q-20 0 -28 8t-8 28v36q0 20 8 28t28 8h246v246q0 20 8 28t28 8h44q20 0 28 -8t8 -28v-246h246q20 0 28 -8t8 -28v-36q0 -20 -8 -28t-28 -8h-246v-586q0 -20 -8 -28t-28 -8h-44q-20 0 -28 8t-8 28v586h-246z" />
    <glyph glyph-name="daggerdbl" unicode="&#x2021;" horiz-adv-x="920" 
d="M518 296q0 -20 -8 -28t-28 -8h-44q-20 0 -28 8t-8 28v360h-246q-20 0 -28 8t-8 28v36q0 20 8 28t28 8h246v282h-246q-20 0 -28 8t-8 28v36q0 20 8 28t28 8h246v246q0 20 8 28t28 8h44q20 0 28 -8t8 -28v-246h246q20 0 28 -8t8 -28v-36q0 -20 -8 -28t-28 -8h-246v-282h246
q20 0 28 -8t8 -28v-36q0 -20 -8 -28t-28 -8h-246v-360z" />
    <glyph glyph-name="bullet" unicode="&#x2022;" horiz-adv-x="670" 
d="M554 576q0 -46 -17 -85.5t-47 -69t-70 -46.5t-86 -17q-45 0 -84.5 17t-69.5 46.5t-47 69t-17 85.5t17 85.5t47 69t69.5 46.5t84.5 17q46 0 86 -17t70 -46.5t47 -69t17 -85.5z" />
    <glyph glyph-name="ellipsis" unicode="&#x2026;" horiz-adv-x="1152" 
d="M316 102q0 -50 -31.5 -84t-84.5 -34t-84.5 34t-31.5 84t31.5 84t84.5 34t84.5 -34t31.5 -84zM692 102q0 -50 -31.5 -84t-84.5 -34t-84.5 34t-31.5 84t31.5 84t84.5 34t84.5 -34t31.5 -84zM1068 102q0 -50 -31.5 -84t-84.5 -34t-84.5 34t-31.5 84t31.5 84t84.5 34
t84.5 -34t31.5 -84z" />
    <glyph glyph-name="perthousand" unicode="&#x2030;" horiz-adv-x="2352" 
d="M204 988q0 -50 9.5 -95t31 -79.5t56.5 -55t85 -20.5t85 20.5t56.5 55t31 79.5t9.5 95q0 49 -9.5 94.5t-31 80t-56.5 55t-85 20.5t-85 -20.5t-56.5 -55t-31 -80t-9.5 -94.5zM700 988q0 -69 -18.5 -133.5t-57 -114t-97.5 -79t-141 -29.5t-141 29.5t-97.5 79t-57 114
t-18.5 133.5t18.5 133t57 113.5t97.5 79.5t141 30t141 -30t97.5 -79.5t57 -113.5t18.5 -133zM318 0q-17 0 -21 8t5 22l866 1264q11 17 23.5 23.5t32.5 6.5h74q17 0 21 -8t-5 -22l-866 -1264q-11 -17 -23.5 -23.5t-32.5 -6.5h-74zM1412 336q0 49 -9.5 94.5t-31 80t-56.5 55
t-85 20.5t-85 -20.5t-56.5 -55t-31 -80t-9.5 -94.5q0 -50 9.5 -95t31 -79.5t56.5 -55t85 -20.5t85 20.5t56.5 55t31 79.5t9.5 95zM916 336q0 69 18.5 133t57 113.5t97.5 79.5t141 30t141 -30t97.5 -79.5t57 -113.5t18.5 -133t-18.5 -133.5t-57 -114t-97.5 -79t-141 -29.5
t-141 29.5t-97.5 79t-57 114t-18.5 133.5zM2148 336q0 49 -9.5 94.5t-31 80t-56.5 55t-85 20.5t-85 -20.5t-56.5 -55t-31 -80t-9.5 -94.5q0 -50 9.5 -95t31 -79.5t56.5 -55t85 -20.5t85 20.5t56.5 55t31 79.5t9.5 95zM1652 336q0 69 18.5 133t57 113.5t97.5 79.5t141 30
t141 -30t97.5 -79.5t57 -113.5t18.5 -133t-18.5 -133.5t-57 -114t-97.5 -79t-141 -29.5t-141 29.5t-97.5 79t-57 114t-18.5 133.5z" />
    <glyph glyph-name="guilsinglleft" unicode="&#x2039;" horiz-adv-x="556" 
d="M452 224q8 -11 8 -22q0 -16 -18 -28l-36 -22q-11 -8 -24 -8t-28 18l-248 330q-12 15 -12 30t12 30l248 330q15 18 28 18t24 -8l36 -22q18 -12 18 -28q0 -11 -8 -22l-196 -298z" />
    <glyph glyph-name="guilsinglright" unicode="&#x203a;" horiz-adv-x="556" 
d="M104 820q-8 11 -8 22q0 16 18 28l36 22q11 8 24 8t28 -18l248 -330q12 -15 12 -30t-12 -30l-248 -330q-15 -18 -28 -18t-24 8l-36 22q-18 12 -18 28q0 11 8 22l196 298z" />
    <glyph glyph-name="fraction" unicode="&#x2044;" horiz-adv-x="276" 
d="M-230 30q-12 -17 -24 -23.5t-32 -6.5h-60q-11 0 -15.5 5t-4.5 13q0 6 2.5 10.5t5.5 9.5l864 1256q12 17 24 23.5t32 6.5h60q11 0 15.5 -5t4.5 -13q0 -6 -2.5 -10.5t-5.5 -9.5z" />
    <glyph glyph-name="uni2082" unicode="&#x2082;" horiz-adv-x="700" 
d="M106 62q0 59 16.5 106t46 86t70 72.5t89.5 65.5q26 17 50.5 34t43 36.5t29.5 44t11 57.5q0 48 -28.5 78t-99.5 30q-41 0 -76 -10.5t-64 -27.5q-18 -11 -29 -8t-23 20l-18 28q-19 32 10 50q35 23 85.5 39.5t118.5 16.5q66 0 114 -17t79 -46.5t46 -69t15 -85.5
q0 -53 -17 -91t-44.5 -68t-62 -54t-68.5 -47q-24 -17 -51.5 -37.5t-50.5 -45.5t-38.5 -54t-15.5 -61h322q20 0 28 -8t8 -28v-32q0 -20 -8 -28t-28 -8h-424q-20 0 -28 8t-8 28v26z" />
    <glyph glyph-name="uni2084" unicode="&#x2084;" horiz-adv-x="700" 
d="M100 164q-20 0 -28 8t-8 28v14q0 18 4 34.5t12 33.5l238 454q9 18 20.5 25t31.5 7h58q17 0 22.5 -8.5t-2.5 -23.5l-250 -474h232v248q0 20 8 28t28 8h50q20 0 28 -8t8 -28v-248h68q20 0 28 -8t8 -28v-26q0 -20 -8 -28t-28 -8h-68v-128q0 -20 -8 -28t-28 -8h-50
q-20 0 -28 8t-8 28v128h-330z" />
    </font>
</defs>
</svg>
