<?xml version="1.0" standalone="no"?>
<!DOCTYPE svg PUBLIC "-//W3C//DTD SVG 1.1//EN" "http://www.w3.org/Graphics/SVG/1.1/DTD/svg11.dtd" >
<svg xmlns="http://www.w3.org/2000/svg" xmlns:xlink="http://www.w3.org/1999/xlink" version="1.1">
<metadata>
Created by FontForge 20160405 at Mon Aug 22 03:54:40 2016
 By www-data
Designed by Paul van der Laan, Pieter van Rosmalen &#38; Mike Abbink 2013. Produced by Bold Monday. FOR EXCLUSIVE USE BY GENERAL ELECTRIC COMPANY AND ITS AFFILIATES ONLY.
</metadata>
<defs>
<font id="GESans-BoldItalic" horiz-adv-x="1200" >
  <font-face 
    font-family="GE Sans"
    font-weight="700"
    font-style="italic"
    font-stretch="normal"
    units-per-em="2048"
    panose-1="2 11 8 3 6 0 0 0 0 3"
    ascent="1588"
    descent="-460"
    x-height="980"
    cap-height="1324"
    bbox="-474 -468 2468 1906"
    underline-thickness="204"
    underline-position="-432"
    slope="-9"
    unicode-range="U+0020-FB02"
  />
<missing-glyph horiz-adv-x="410" 
d="M144 -380q-44 0 -44 44v1752q0 44 44 44h122q44 0 44 -44v-1752q0 -44 -44 -44h-122z" />
    <glyph glyph-name="f_b" unicode="fb" horiz-adv-x="1786" 
d="M740 0q-44 0 -38 44l186 1170q-50 22 -118 22q-47 0 -83.5 -11t-63.5 -36t-45 -65t-28 -98l-8 -46h148q45 0 36 -44l-18 -120q-5 -24 -16.5 -34t-35.5 -10h-146l-178 -1128q-3 -24 -14.5 -34t-35.5 -10h-192q-44 0 -38 44l180 1128h-124q-45 0 -36 44l18 120
q5 24 16.5 34t35.5 10h122l6 34q22 123 64.5 207.5t104 136.5t140 75t171.5 23q50 0 93 -5.5t81 -14.5h236q44 0 38 -44l-86 -542q44 71 114.5 110.5t167.5 39.5q80 0 140 -27.5t99.5 -80t59 -127.5t19.5 -169q0 -129 -34.5 -241.5t-97.5 -195.5t-150 -131t-192 -48
q-92 0 -154.5 34t-91.5 82l-8 -52q-5 -24 -16.5 -34t-35.5 -10h-192zM1424 572q0 115 -40 164.5t-112 49.5q-21 0 -51.5 -7.5t-62 -36t-59 -85.5t-43.5 -157l-34 -216q20 -36 60.5 -62t97.5 -26q62 0 108 33t76 86.5t45 121t15 135.5z" />
    <glyph glyph-name="f_f" unicode="ff" horiz-adv-x="1276" 
d="M1278 1456q78 0 131.5 -16.5t92.5 -43.5q20 -14 20 -34q0 -12 -14 -34l-70 -102q-15 -23 -27 -25.5t-35 9.5q-20 11 -41 16.5t-47 5.5q-36 0 -60.5 -12t-41.5 -36t-28 -61t-20 -87l-10 -56h174q23 0 31 -10.5t5 -33.5l-18 -120q-5 -24 -16.5 -34t-35.5 -10h-172
l-178 -1128q-3 -24 -14.5 -34t-35.5 -10h-192q-44 0 -38 44l180 1128h-308l-178 -1128q-3 -24 -14.5 -34t-35.5 -10h-192q-20 0 -28 9.5t-8 26.5v9.5t2 14.5l176 1112h-124q-23 0 -31 10.5t-5 33.5l18 120q5 24 16.5 34t35.5 10h122l6 34q22 123 65.5 207.5t106 136.5
t142 75t172.5 23q92 0 161.5 -19t116.5 -49q51 36 112 52t132 16zM542 980h308l10 60q4 28 8.5 50.5t9.5 42t11.5 38.5t14.5 39q-26 15 -60 23.5t-76 8.5q-96 0 -147.5 -52.5t-70.5 -163.5z" />
    <glyph glyph-name="f_h" unicode="fh" horiz-adv-x="1772" 
d="M750 1456q50 0 93 -5.5t81 -14.5h236q44 0 38 -44l-86 -538q45 68 114 107t170 39q79 0 132 -24t85.5 -63t46.5 -89.5t14 -103.5q0 -16 -1 -39t-3 -47.5t-4.5 -48.5t-5.5 -41l-80 -500q-3 -24 -14.5 -34t-35.5 -10h-192q-44 0 -38 44l82 510q2 13 3.5 27t2.5 27.5
t1.5 24.5t0.5 17q0 22 -5.5 45t-18.5 41.5t-34 30t-52 11.5q-29 0 -63 -13.5t-66 -47.5t-58.5 -92t-40.5 -147l-70 -434q-3 -24 -14.5 -34t-35.5 -10h-192q-44 0 -38 44l186 1170q-50 22 -118 22q-47 0 -83.5 -11t-63.5 -36t-45 -65t-28 -98l-8 -46h148q45 0 36 -44
l-18 -120q-5 -24 -16.5 -34t-35.5 -10h-146l-178 -1128q-3 -24 -14.5 -34t-35.5 -10h-192q-44 0 -38 44l180 1128h-124q-45 0 -36 44l18 120q5 24 16.5 34t35.5 10h122l6 34q22 123 64.5 207.5t104 136.5t140 75t171.5 23z" />
    <glyph glyph-name="f_i" unicode="fi" horiz-adv-x="1188" 
d="M982 44q-5 -24 -15.5 -34t-34.5 -10h-192q-20 0 -28 9.5t-8 26.5v9.5t2 14.5l114 712h-310l-178 -1128q-3 -24 -14.5 -34t-35.5 -10h-192q-20 0 -28 9.5t-8 26.5v9.5t2 14.5l176 1112h-124q-23 0 -31 10.5t-5 33.5l18 120q5 24 16.5 34t35.5 10h122l6 34
q22 123 65.5 207.5t106 136.5t143 75t175.5 23q106 0 185.5 -22t126.5 -60q32 -26 8 -62l-84 -118q-15 -20 -28.5 -22t-33.5 12q-32 24 -72 38t-96 14q-47 0 -83 -12t-62.5 -37.5t-43.5 -65.5t-27 -95l-8 -46h546q20 0 28 -9.5t8 -26.5v-9.5t-2 -14.5z" />
    <glyph glyph-name="f_j" unicode="fj" horiz-adv-x="1188" 
d="M1088 980q20 0 28 -9.5t8 -26.5v-9.5t-2 -14.5l-158 -994q-27 -170 -111.5 -258t-246.5 -88q-53 0 -98.5 9.5t-83.5 30.5q-37 21 -18 62l54 110q11 24 23.5 28.5t36.5 -6.5q12 -5 24 -7.5t26 -2.5q33 0 54 14.5t34.5 38.5t21 54.5t12.5 62.5l126 798h-308l-178 -1128
q-3 -24 -14.5 -34t-35.5 -10h-192q-20 0 -28 9.5t-8 26.5v9.5t2 14.5l176 1112h-124q-45 0 -36 44l18 120q5 24 16.5 34t35.5 10h122l6 34q22 123 65.5 207.5t106 136.5t143 75t175.5 23q106 0 185 -23t127 -59q17 -14 19.5 -29.5t-11.5 -32.5l-84 -118q-15 -20 -28.5 -22
t-33.5 12q-32 24 -72 38t-96 14q-47 0 -83 -12t-62.5 -37.5t-43.5 -65.5t-27 -95l-8 -46h546v0z" />
    <glyph glyph-name="f_k" unicode="fk" horiz-adv-x="1722" 
d="M982 44q-3 -24 -14.5 -34t-35.5 -10h-192q-44 0 -38 44l186 1170q-50 22 -118 22q-47 0 -83.5 -11t-63.5 -36t-45 -65t-28 -98l-8 -46h148q23 0 31 -10.5t5 -33.5l-18 -120q-5 -24 -16.5 -34t-35.5 -10h-146l-178 -1128q-5 -24 -15.5 -34t-34.5 -10h-192q-20 0 -28 9.5
t-8 26.5v9.5t2 14.5l176 1112h-124q-23 0 -31 10.5t-5 33.5l18 120q5 24 16.5 34t35.5 10h122l6 34q22 123 64.5 207.5t104 136.5t140 75t171.5 23q50 0 93 -5.5t81 -14.5h236q44 0 38 -44l-132 -822q49 40 98 86.5t94 96t85.5 98.5t72.5 93q15 20 30.5 28t41.5 8h200
q14 0 19 -5t5 -13q0 -9 -10 -22q-74 -97 -160 -192.5t-186 -187.5q38 -55 74.5 -119.5t68 -132t56 -136t39.5 -130.5q12 -42 -34 -42h-210q-24 0 -36 9.5t-20 32.5q-24 85 -60 175t-84 167q-32 -24 -63.5 -46.5t-64.5 -43.5z" />
    <glyph glyph-name="f_l" unicode="fl" horiz-adv-x="1188" 
d="M1160 1436q20 0 28 -9.5t8 -26.5v-9.5t-2 -14.5l-212 -1332q-5 -24 -15.5 -34t-34.5 -10h-192q-44 0 -38 44l186 1170q-50 22 -118 22q-47 0 -83.5 -11t-63.5 -36t-45 -65t-28 -98l-8 -46h148q45 0 36 -44l-18 -120q-5 -24 -16.5 -34t-35.5 -10h-146l-178 -1128
q-3 -24 -14.5 -34t-35.5 -10h-192q-20 0 -28 9.5t-8 26.5v9.5t2 14.5l176 1112h-124q-45 0 -36 44l18 120q5 24 16.5 34t35.5 10h122l6 34q22 123 64.5 207.5t104 136.5t140 75t171.5 23q50 0 93 -5.5t81 -14.5h236v0z" />
    <glyph glyph-name="f_f_b" unicode="ffb" horiz-adv-x="2372" 
d="M1336 1456q50 0 93 -5.5t81 -14.5h236q44 0 38 -44l-86 -542q44 71 114.5 110.5t167.5 39.5q80 0 140 -27.5t99.5 -80t59 -127.5t19.5 -169q0 -129 -34.5 -241.5t-97.5 -195.5t-150 -131t-192 -48q-92 0 -154.5 34t-91.5 82l-8 -52q-5 -24 -16.5 -34t-35.5 -10h-192
q-44 0 -38 44l186 1170q-50 22 -118 22q-47 0 -83.5 -11t-63.5 -36t-45 -65t-28 -98l-8 -46h148q45 0 36 -44l-18 -120q-5 -24 -16.5 -34t-35.5 -10h-146l-178 -1128q-3 -24 -14.5 -34t-35.5 -10h-192q-44 0 -38 44l180 1128h-308l-178 -1128q-3 -24 -14.5 -34t-35.5 -10
h-192q-44 0 -38 44l180 1128h-124q-45 0 -36 44l18 120q5 24 16.5 34t35.5 10h122l6 34q22 123 65.5 207.5t106 136.5t142 75t172.5 23q98 0 174 -21.5t124 -54.5q57 39 128 57.5t154 18.5zM768 1242q-96 0 -147.5 -52.5t-70.5 -163.5l-8 -46h308l6 34q9 56 23.5 104
t32.5 86q-27 18 -63 28t-81 10zM2010 572q0 115 -40 164.5t-112 49.5q-21 0 -51.5 -7.5t-62 -36t-59 -85.5t-43.5 -157l-34 -216q20 -36 60.5 -62t97.5 -26q62 0 108 33t76 86.5t45 121t15 135.5z" />
    <glyph glyph-name="f_f_h" unicode="ffh" horiz-adv-x="2358" 
d="M1336 1456q50 0 93 -5.5t81 -14.5h236q44 0 38 -44l-86 -538q45 68 114 107t170 39q79 0 132 -24t85.5 -63t46.5 -89.5t14 -103.5q0 -16 -1 -39t-3 -47.5t-4.5 -48.5t-5.5 -41l-80 -500q-3 -24 -14.5 -34t-35.5 -10h-192q-44 0 -38 44l82 510q2 13 3.5 27t2.5 27.5
t1.5 24.5t0.5 17q0 22 -5.5 45t-18.5 41.5t-34 30t-52 11.5q-29 0 -63 -13.5t-66 -47.5t-58.5 -92t-40.5 -147l-70 -434q-3 -24 -14.5 -34t-35.5 -10h-192q-44 0 -38 44l186 1170q-50 22 -118 22q-47 0 -83.5 -11t-63.5 -36t-45 -65t-28 -98l-8 -46h148q45 0 36 -44
l-18 -120q-5 -24 -16.5 -34t-35.5 -10h-146l-178 -1128q-3 -24 -14.5 -34t-35.5 -10h-192q-44 0 -38 44l180 1128h-308l-178 -1128q-3 -24 -14.5 -34t-35.5 -10h-192q-44 0 -38 44l180 1128h-124q-45 0 -36 44l18 120q5 24 16.5 34t35.5 10h122l6 34q22 123 65.5 207.5
t106 136.5t142 75t172.5 23q98 0 174 -21.5t124 -54.5q57 39 128 57.5t154 18.5zM768 1242q-96 0 -147.5 -52.5t-70.5 -163.5l-8 -46h308l6 34q9 56 23.5 104t32.5 86q-27 18 -63 28t-81 10z" />
    <glyph glyph-name="f_f_i" unicode="ffi" horiz-adv-x="1774" 
d="M768 1242q-96 0 -147.5 -52.5t-70.5 -163.5l-8 -46h308l6 34q9 56 24.5 103.5t33.5 86.5q-26 18 -63.5 28t-82.5 10zM1096 772l-178 -1128q-3 -24 -14.5 -34t-35.5 -10h-192q-44 0 -38 44l180 1128h-308l-178 -1128q-3 -24 -14.5 -34t-35.5 -10h-192q-20 0 -28 9.5
t-8 26.5v9.5t2 14.5l176 1112h-124q-23 0 -31 10.5t-5 33.5l18 120q5 24 16.5 34t35.5 10h122l6 34q22 123 65.5 207.5t106 136.5t142 75t172.5 23q100 0 175.5 -21.5t122.5 -56.5q60 41 133 59.5t159 18.5q106 0 185 -23t127 -59q17 -14 19.5 -29.5t-11.5 -32.5l-84 -118
q-15 -20 -28.5 -22t-33.5 12q-32 24 -72 38t-96 14q-47 0 -83 -12t-62.5 -37.5t-43.5 -65.5t-27 -95l-8 -46h546q20 0 28 -9.5t8 -26.5v-9.5t-2 -14.5l-140 -876q-5 -24 -15.5 -34t-34.5 -10h-192q-20 0 -28 9.5t-8 26.5v9.5t2 14.5l114 712h-310z" />
    <glyph glyph-name="f_f_j" unicode="ffj" horiz-adv-x="1774" 
d="M1550 -74q-27 -170 -111.5 -258t-246.5 -88q-53 0 -98.5 9.5t-83.5 30.5q-37 21 -18 62l54 110q11 24 23.5 28.5t36.5 -6.5q12 -5 24 -7.5t26 -2.5q33 0 54 14.5t34.5 38.5t21 54.5t12.5 62.5l128 798h-310l-178 -1128q-3 -24 -14.5 -34t-35.5 -10h-192q-44 0 -38 44
l180 1128h-308l-178 -1128q-3 -24 -14.5 -34t-35.5 -10h-192q-20 0 -28 9.5t-8 26.5v9.5t2 14.5l176 1112h-124q-23 0 -31 10.5t-5 33.5l18 120q5 24 16.5 34t35.5 10h122l6 34q22 123 65.5 207.5t106 136.5t142 75t172.5 23q100 0 175.5 -21.5t122.5 -56.5q60 41 133 59.5
t159 18.5q106 0 185 -23t127 -59q17 -14 19.5 -29.5t-11.5 -32.5l-84 -118q-15 -20 -28.5 -22t-33.5 12q-32 24 -72 38t-96 14q-47 0 -83 -12t-62.5 -37.5t-43.5 -65.5t-27 -95l-8 -46h546q20 0 28 -9.5t8 -26.5v-9.5t-2 -14.5zM768 1242q-96 0 -147.5 -52.5t-70.5 -163.5
l-8 -46h308l6 34q9 56 24.5 103.5t33.5 86.5q-26 18 -63.5 28t-82.5 10z" />
    <glyph glyph-name="f_f_k" unicode="ffk" horiz-adv-x="2308" 
d="M1652 570q49 40 98 86.5t94 96t85.5 98.5t72.5 93q15 20 30.5 28t41.5 8h200q14 0 19 -5t5 -13q0 -9 -10 -22q-74 -97 -160 -192.5t-186 -187.5q38 -55 74.5 -119.5t68 -132t56 -136t39.5 -130.5q12 -42 -34 -42h-210q-24 0 -36 9.5t-20 32.5q-24 85 -60 175t-84 167
q-32 -24 -63.5 -46.5t-64.5 -43.5l-40 -250q-3 -24 -14.5 -34t-35.5 -10h-192q-44 0 -38 44l186 1170q-50 22 -118 22q-47 0 -83.5 -11t-63.5 -36t-45 -65t-28 -98l-8 -46h148q23 0 31 -10.5t5 -33.5l-18 -120q-5 -24 -16.5 -34t-35.5 -10h-146l-178 -1128q-3 -24 -14.5 -34
t-35.5 -10h-192q-44 0 -38 44l180 1128h-308l-178 -1128q-3 -24 -14.5 -34t-35.5 -10h-192q-20 0 -28 9.5t-8 26.5v9.5t2 14.5l176 1112h-124q-23 0 -31 10.5t-5 33.5l18 120q5 24 16.5 34t35.5 10h122l6 34q22 123 65.5 207.5t106 136.5t142 75t172.5 23q98 0 174 -21.5
t124 -54.5q57 39 128 57.5t154 18.5q50 0 93 -5.5t81 -14.5h236q44 0 38 -44zM768 1242q-96 0 -147.5 -52.5t-70.5 -163.5l-8 -46h308l6 34q9 56 23.5 104t32.5 86q-27 18 -63 28t-81 10z" />
    <glyph glyph-name="f_f_l" unicode="ffl" horiz-adv-x="1774" 
d="M768 1242q-96 0 -147.5 -52.5t-70.5 -163.5l-8 -46h308l6 34q9 56 23.5 104t32.5 86q-27 18 -63 28t-81 10zM1746 1436q20 0 28 -9.5t8 -26.5v-9.5t-2 -14.5l-212 -1332q-5 -24 -15.5 -34t-34.5 -10h-192q-44 0 -38 44l186 1170q-50 22 -118 22q-47 0 -83.5 -11
t-63.5 -36t-45 -65t-28 -98l-8 -46h148q23 0 31 -10.5t5 -33.5l-18 -120q-5 -24 -16.5 -34t-35.5 -10h-146l-178 -1128q-3 -24 -14.5 -34t-35.5 -10h-192q-44 0 -38 44l180 1128h-308l-178 -1128q-3 -24 -14.5 -34t-35.5 -10h-192q-20 0 -28 9.5t-8 26.5v9.5t2 14.5
l176 1112h-124q-23 0 -31 10.5t-5 33.5l18 120q5 24 16.5 34t35.5 10h122l6 34q22 123 65.5 207.5t106 136.5t142 75t172.5 23q98 0 174 -21.5t124 -54.5q57 39 128 57.5t154 18.5q50 0 93 -5.5t81 -14.5h236z" />
    <glyph glyph-name=".notdef" horiz-adv-x="410" 
d="M144 -380q-44 0 -44 44v1752q0 44 44 44h122q44 0 44 -44v-1752q0 -44 -44 -44h-122z" />
    <glyph glyph-name=".null" horiz-adv-x="0" 
 />
    <glyph glyph-name="nonmarkingreturn" horiz-adv-x="460" 
 />
    <glyph glyph-name="space" unicode=" " horiz-adv-x="460" 
 />
    <glyph glyph-name="exclam" unicode="!" horiz-adv-x="750" 
d="M344 452q-44 0 -44 44l12 784q0 44 44 44h302q44 0 32 -42l-240 -788q-6 -23 -19 -32.5t-37 -9.5h-50zM502 172q0 -40 -15.5 -75t-42.5 -61t-64 -41t-80 -15q-37 0 -67 11.5t-51 32.5t-32.5 49.5t-11.5 62.5q0 40 15.5 75t42.5 61t64 41t80 15q37 0 67 -11.5t51 -32.5
t32.5 -49.5t11.5 -62.5z" />
    <glyph glyph-name="quotedbl" unicode="&#x22;" horiz-adv-x="774" 
d="M246 846q-45 0 -42 44l10 502q0 44 46 44h176q34 0 34 -24q0 -5 -1.5 -14t-4.5 -18l-146 -492q-6 -23 -19 -32.5t-37 -9.5h-16zM610 846q-45 0 -42 44l10 502q0 44 46 44h176q34 0 34 -24q0 -5 -1.5 -14t-4.5 -18l-146 -492q-6 -23 -19 -32.5t-37 -9.5h-16z" />
    <glyph glyph-name="numbersign" unicode="#" horiz-adv-x="1206" 
d="M770 802h-246l-88 -280h246zM1162 980q20 0 28 -8.5t8 -25.5v-9t-2 -15l-14 -86q-5 -24 -15.5 -34t-34.5 -10h-160l-82 -260h130q44 0 38 -44l-18 -100q-5 -24 -15.5 -34t-34.5 -10h-158l-94 -302q-8 -23 -21 -32.5t-37 -9.5h-128q-21 0 -29.5 10.5t-0.5 31.5l94 302
h-226l-94 -302q-8 -23 -21 -32.5t-37 -9.5h-128q-21 0 -29.5 10.5t-0.5 31.5l94 302h-130q-20 0 -28 8.5t-8 25.5v9t2 15l14 86q5 24 15.5 34t34.5 10h160l82 260h-130q-44 0 -38 44l18 100q5 24 15.5 34t34.5 10h158l94 302q8 23 21 32.5t37 9.5h128q21 0 29.5 -10.5
t0.5 -31.5l-94 -302h226l94 302q8 23 21 32.5t37 9.5h128q21 0 29.5 -10.5t0.5 -31.5l-94 -302h130z" />
    <glyph glyph-name="dollar" unicode="$" 
d="M476 -128q-44 0 -38 44l18 106q-119 11 -216 43t-156 73q-18 12 -20 27.5t12 32.5l100 130q15 20 28.5 22t33.5 -12q50 -33 113.5 -57.5t140.5 -30.5l48 304q-90 22 -157.5 52t-112.5 71t-67.5 94.5t-22.5 124.5q0 92 36.5 164t100.5 123t151.5 81t189.5 38l18 106
q3 24 14.5 34t35.5 10h76q44 0 38 -44l-18 -108q97 -9 180 -32.5t136 -55.5q18 -11 21 -26t-9 -32l-90 -130q-15 -20 -29 -23t-35 9q-41 23 -94.5 39.5t-115.5 22.5l-48 -298q74 -18 140 -41.5t115.5 -61t78 -93.5t28.5 -138q0 -93 -36 -167t-100.5 -127t-152.5 -85
t-191 -41l-16 -104q-5 -24 -16.5 -34t-35.5 -10h-76zM656 250q72 15 116 53t44 95q0 45 -29.5 74.5t-88.5 47.5zM620 1072q-71 -15 -112.5 -52.5t-41.5 -93.5q0 -47 29 -74t85 -44z" />
    <glyph glyph-name="percent" unicode="%" horiz-adv-x="1800" 
d="M338 906q0 -69 24.5 -111.5t83.5 -42.5q45 0 79.5 24t57.5 63t35 88.5t12 100.5q0 69 -24.5 111.5t-83.5 42.5q-45 0 -79.5 -24t-57.5 -63t-35 -88.5t-12 -100.5zM324 0q-20 0 -24 9.5t8 24.5l988 1256q15 18 31.5 26t40.5 8h136q20 0 24 -9.5t-8 -24.5l-988 -1256
q-15 -18 -31.5 -26t-40.5 -8h-136zM832 1026q0 -85 -25 -163.5t-75 -139t-124.5 -97t-173.5 -36.5q-77 0 -133.5 23t-93 65t-54 100.5t-17.5 129.5q0 85 25 163.5t75 139t124.5 97t173.5 36.5q77 0 133.5 -23.5t93 -65.5t54 -100.5t17.5 -128.5zM1198 296q0 -69 24.5 -111.5
t83.5 -42.5q45 0 79.5 24t57.5 63t35 88.5t12 100.5q0 69 -24.5 111.5t-83.5 42.5q-45 0 -79.5 -24t-57.5 -63t-35 -88.5t-12 -100.5zM1692 416q0 -85 -25 -163.5t-75 -139t-124.5 -97t-173.5 -36.5q-77 0 -133.5 23t-93 65t-54 100.5t-17.5 129.5q0 85 25 163.5t75 139
t124.5 97t173.5 36.5q77 0 133.5 -23.5t93 -65.5t54 -100.5t17.5 -128.5z" />
    <glyph glyph-name="ampersand" unicode="&#x26;" horiz-adv-x="1366" 
d="M1174 12q-30 -34 -62 -2l-148 134q-86 -74 -198.5 -119t-255.5 -45q-108 0 -192.5 27.5t-142.5 76t-88.5 115.5t-30.5 147q0 122 70.5 224t201.5 170q-44 59 -64 115.5t-20 118.5q0 80 34 148t97 117.5t153.5 77t203.5 27.5q64 0 117.5 -8.5t98 -23t79.5 -33t61 -37.5
q34 -28 6 -62l-104 -118q-15 -20 -29 -20.5t-35 14.5q-38 29 -87.5 46.5t-112.5 17.5q-97 0 -147.5 -43t-50.5 -109q0 -29 10.5 -55.5t32.5 -55.5t56.5 -63.5t82.5 -77.5l252 -230q21 45 38.5 100t29.5 126q5 24 16.5 34t35.5 10h160q45 0 36 -44q-23 -114 -57.5 -206
t-86.5 -174l152 -138q17 -17 17 -31t-15 -31zM330 378q0 -40 15.5 -73.5t44 -57.5t70 -37.5t94.5 -13.5q74 0 134.5 26t111.5 70l-342 312q-56 -44 -92 -102.5t-36 -123.5z" />
    <glyph glyph-name="quotesingle" unicode="'" horiz-adv-x="410" 
d="M246 846q-45 0 -42 44l10 502q0 44 46 44h176q34 0 34 -24q0 -5 -1.5 -14t-4.5 -18l-146 -492q-6 -23 -19 -32.5t-37 -9.5h-16z" />
    <glyph glyph-name="parenleft" unicode="(" horiz-adv-x="630" 
d="M300 -210q-6 -2 -10.5 -3t-9.5 -1q-26 0 -38 30q-21 49 -40.5 108t-34.5 128.5t-24 149t-9 168.5q0 180 34 346.5t87.5 309.5t118 257.5t126.5 190.5q6 8 14.5 15t25.5 7q6 0 13 -1.5t15 -6.5l96 -52q20 -12 24 -26t-8 -34q-144 -249 -221 -506.5t-77 -537.5
q0 -116 13.5 -228.5t40.5 -219.5q6 -23 -0.5 -35.5t-29.5 -20.5z" />
    <glyph glyph-name="parenright" unicode=")" horiz-adv-x="630" 
d="M378 1494q6 2 10.5 3t9.5 1q26 0 38 -30q21 -49 40.5 -108t34.5 -128.5t24 -149t9 -168.5q0 -120 -15.5 -234.5t-42.5 -220.5t-63.5 -201.5t-77 -178t-83.5 -151t-84 -118.5q-6 -8 -14.5 -15t-25.5 -7q-6 0 -13 1.5t-15 6.5l-96 52q-20 12 -24 26t8 34
q72 124 127.5 250.5t93.5 256t57.5 263.5t19.5 274q0 116 -13.5 228.5t-40.5 219.5q-6 23 0.5 35.5t29.5 20.5z" />
    <glyph glyph-name="asterisk" unicode="*" horiz-adv-x="840" 
d="M622 740q-37 -24 -54 16l-86 180l-134 -184q-25 -37 -60 -8l-76 58q-18 15 -18.5 29t14.5 31l170 170l-194 50q-30 6 -30 28q0 10 6 22l44 92q9 21 23 26.5t35 -2.5l176 -74l8 218q3 44 46 44h110q43 0 34 -42l-48 -216l196 78q41 15 50 -26l24 -90q2 -5 3 -12t1 -12
q0 -28 -34 -34l-218 -54l112 -172q24 -36 -12 -60z" />
    <glyph glyph-name="plus" unicode="+" 
d="M508 578l56 346q5 24 16.5 34t35.5 10h124q45 0 36 -44l-56 -346h322q20 0 28 -8.5t8 -25.5v-9t-2 -15l-14 -92q-5 -24 -15.5 -31t-34.5 -7h-322l-56 -346q-3 -24 -14.5 -34t-35.5 -10h-124q-44 0 -38 44l56 346h-318q-20 0 -28 8.5t-8 25.5v9t2 15l14 92q5 24 15.5 31
t34.5 7h318z" />
    <glyph glyph-name="comma" unicode="," horiz-adv-x="502" 
d="M372 174q0 -61 -23 -126.5t-62 -129.5t-91 -123.5t-110 -108.5q-17 -14 -34 -14t-34 14l-26 20q-18 15 -18.5 29t14.5 31q52 58 79 98.5t27 79.5q0 29 -13 47.5t-29 37.5t-29 45t-13 70t15.5 82t42.5 66t63.5 44t78.5 16q33 0 62.5 -10.5t51.5 -32.5t35 -55.5t13 -79.5z
" />
    <glyph glyph-name="hyphen" unicode="-" horiz-adv-x="726" 
d="M630 680q20 0 28 -8.5t8 -25.5v-9t-2 -15l-22 -136q-5 -24 -15.5 -31t-34.5 -7h-480q-20 0 -28 8.5t-8 25.5v9t2 15l22 136q5 24 15.5 31t34.5 7h480z" />
    <glyph glyph-name="period" unicode="." horiz-adv-x="502" 
d="M372 186q0 -43 -15.5 -80.5t-42.5 -65.5t-63.5 -44t-78.5 -16q-37 0 -67 12.5t-51 34.5t-32.5 52.5t-11.5 66.5q0 43 15.5 80.5t42.5 65.5t63.5 44t78.5 16q37 0 67 -12.5t51 -34.5t32.5 -52.5t11.5 -66.5z" />
    <glyph glyph-name="slash" unicode="/" horiz-adv-x="620" 
d="M568 1464q9 21 22.5 30.5t37.5 9.5h116q20 0 28 -8t8 -20q0 -5 -2 -13t-8 -23l-652 -1580q-9 -21 -22.5 -30.5t-37.5 -9.5h-116q-20 0 -28 8t-8 20q0 5 2 13t8 23l652 1580v0z" />
    <glyph glyph-name="zero" unicode="0" 
d="M370 470q0 -55 8.5 -105t29 -88t54.5 -60.5t84 -22.5q64 0 113 36t85 94t60 131t39 146t21 140t6 113q0 55 -8.5 105t-29 88t-54.5 60.5t-84 22.5q-64 0 -113 -36t-85 -94t-60 -131t-39 -146t-21 -140t-6 -113zM1160 810q0 -92 -14.5 -189t-46.5 -189t-82 -174t-120 -144
t-162 -98t-207 -36q-223 0 -335.5 136.5t-112.5 397.5q0 91 14.5 188.5t46.5 189.5t82 174t120 144t161.5 98t207.5 36q223 0 335.5 -136.5t112.5 -397.5z" />
    <glyph glyph-name="one" unicode="1" 
d="M484 216l132 824l-224 -114q-21 -11 -33.5 -5t-20.5 27l-34 110q-8 23 -1.5 37t27.5 25l368 184q40 20 84 20h116q44 0 38 -44l-170 -1064h218q20 0 28 -8.5t8 -25.5v-9t-2 -15l-18 -120q-5 -24 -15.5 -31t-34.5 -7h-738q-20 0 -28 8.5t-8 25.5v9t2 15l18 120
q5 24 15.5 31t34.5 7h238z" />
    <glyph glyph-name="two" unicode="2" 
d="M112 0q-44 0 -38 44l10 66q15 103 56.5 184.5t103.5 149t142 124.5t172 110q44 25 92 54t87.5 64t65 78.5t25.5 99.5q0 65 -40.5 102.5t-129.5 37.5q-72 0 -142.5 -25t-127.5 -67q-34 -26 -54 14l-58 118q-18 41 16 66t77.5 47.5t95 39.5t111 27t126.5 10
q106 0 182.5 -26.5t126 -73.5t73.5 -111t24 -139q0 -94 -33.5 -165.5t-91 -130t-135.5 -110t-166 -104.5q-42 -26 -88 -55.5t-86.5 -63t-69.5 -71t-36 -78.5h564q44 0 38 -44l-22 -128q-3 -24 -14.5 -34t-35.5 -10h-820z" />
    <glyph glyph-name="three" unicode="3" 
d="M1050 474q0 -99 -37 -188.5t-108.5 -157.5t-176 -108t-240.5 -40q-69 0 -126 10.5t-104 27.5t-84.5 39.5t-67.5 46.5q-32 29 -6 64l98 122q15 18 28.5 19.5t31.5 -13.5q21 -17 45.5 -32.5t54 -27.5t64.5 -19t76 -7q67 0 118 20t85.5 53.5t51.5 77.5t17 93q0 41 -12.5 74
t-39.5 55.5t-69.5 34.5t-102.5 12h-32q-32 0 -48 22l-58 70q-29 35 2 66l316 320h-388q-44 0 -38 44l22 128q3 24 14.5 34t35.5 10h700q44 0 38 -44l-14 -76q-6 -43 -36 -76l-120 -128q-28 -29 -59 -57t-61 -52t-57 -43t-47 -32q90 -6 153.5 -36.5t103.5 -77.5t58.5 -106
t18.5 -122z" />
    <glyph glyph-name="four" unicode="4" 
d="M54 398q5 33 13.5 54.5t20.5 39.5l548 796q14 20 29 28t39 8h198q20 0 25.5 -9.5t-5.5 -26.5l-556 -808h340l64 396q3 24 14.5 34t35.5 10h176q44 0 38 -44l-64 -396h130q20 0 28 -8.5t8 -25.5v-9t-2 -15l-18 -112q-5 -24 -15.5 -31t-34.5 -7h-128l-36 -228
q-5 -24 -16.5 -34t-35.5 -10h-176q-45 0 -36 44l36 228h-596q-20 0 -28 8.5t-8 25.5v9t2 15z" />
    <glyph glyph-name="five" unicode="5" 
d="M1050 470q0 -102 -37.5 -191.5t-109.5 -155.5t-176 -104.5t-237 -38.5q-71 0 -129.5 10.5t-106.5 28.5t-85.5 40.5t-66.5 46.5q-33 30 -6 62l98 122q15 18 28.5 19.5t31.5 -13.5q21 -17 45.5 -32.5t54 -27.5t64.5 -19t76 -7q67 0 117.5 19t85 52t52 77t17.5 94
q0 41 -12.5 75.5t-38.5 59t-66.5 38t-96.5 13.5q-41 0 -82.5 -7.5t-83.5 -24.5q-24 -9 -40 -7t-36 19l-42 34q-18 15 -24 31t0 39l146 560q5 23 17.5 32.5t36.5 9.5h628q44 0 38 -44l-22 -128q-3 -24 -14.5 -34t-35.5 -10h-436l-70 -276q27 6 58.5 10t69.5 4
q100 0 173.5 -29t121.5 -80t71.5 -119.5t23.5 -147.5z" />
    <glyph glyph-name="six" unicode="6" 
d="M1084 464q0 -107 -36 -195.5t-103 -153t-162 -100t-213 -35.5q-95 0 -179 27t-146.5 90.5t-98.5 169t-36 263.5q0 103 17 204t53.5 191t93 167t135.5 133t181 87.5t230 31.5q95 0 165 -15.5t115 -36.5q41 -17 22 -58l-64 -132q-11 -23 -24 -27t-34 7q-35 17 -75.5 27.5
t-96.5 10.5q-160 0 -263 -92.5t-139 -275.5q57 54 124.5 84t155.5 30q82 0 151.5 -27t120 -78.5t78.5 -126.5t28 -170zM806 450q0 101 -54 151.5t-152 50.5q-57 0 -107 -17t-95 -47q-5 -30 -7.5 -61.5t-2.5 -64.5q0 -72 14.5 -124t40 -86t61.5 -50t80 -16q53 0 94.5 22
t70 58.5t43 84t14.5 99.5z" />
    <glyph glyph-name="seven" unicode="7" 
d="M1168 1204q-5 -24 -13 -43t-23 -37q-77 -90 -160 -210t-161 -260t-144.5 -295.5t-110.5 -316.5q-8 -23 -20 -32.5t-36 -9.5h-208q-43 0 -34 42q45 166 110 319.5t140.5 290t156 252t157.5 204.5h-540q-20 0 -28 8.5t-8 25.5v9t2 15l18 114q5 24 16.5 34t35.5 10h826
q20 0 28 -8.5t8 -25.5v-9t-2 -15z" />
    <glyph glyph-name="eight" unicode="8" 
d="M1072 364q0 -96 -44.5 -168t-120 -120t-175.5 -72t-210 -24t-196.5 23t-146.5 64t-91.5 98t-31.5 125q0 73 33 133.5t86 108.5t119 83t132 57q-48 21 -88.5 48.5t-69.5 64t-45.5 82.5t-16.5 105q0 90 38.5 159.5t104.5 116.5t155.5 71.5t191.5 24.5q100 0 180 -23
t136.5 -64t87 -98.5t30.5 -126.5q0 -62 -24 -115.5t-67 -99t-102.5 -82t-130.5 -63.5q57 -21 105.5 -47.5t84.5 -63t56 -85t20 -112.5zM344 326q0 -35 14.5 -61.5t40 -45t61 -28t76.5 -9.5q43 0 87.5 11t80 33.5t58 56.5t22.5 81q0 37 -14.5 67t-40 54t-59 43t-70.5 36
q-36 -13 -80.5 -34t-83.5 -50.5t-65.5 -68t-26.5 -85.5zM848 1016q0 33 -12 57t-33 39t-49.5 22.5t-61.5 7.5q-38 0 -74.5 -10t-65 -31t-46.5 -54t-18 -79q0 -62 35 -106t109 -80q36 15 74 37t69.5 51.5t52 65.5t20.5 80z" />
    <glyph glyph-name="nine" unicode="9" 
d="M1134 794q0 -104 -17 -204.5t-53.5 -190.5t-93 -167t-135.5 -133t-181.5 -87.5t-229.5 -31.5q-95 0 -165 15.5t-115 36.5q-41 17 -22 58l64 132q11 23 24 27t34 -7q35 -17 75.5 -27.5t96.5 -10.5q160 0 263 92.5t139 275.5q-57 -54 -124.5 -84t-155.5 -30q-83 0 -152 27
t-119.5 78.5t-78.5 126.5t-28 170q0 106 36 195t103 153.5t162 100t213 35.5q95 0 179 -27t146.5 -90.5t98.5 -169.5t36 -263zM438 874q0 -101 54 -151.5t152 -50.5q57 0 107 17t95 47q5 30 7.5 61.5t2.5 64.5q0 72 -14.5 124t-40 86t-62 50t-79.5 16q-53 0 -94.5 -22
t-70 -58.5t-43 -84t-14.5 -99.5z" />
    <glyph glyph-name="colon" unicode=":" horiz-adv-x="550" 
d="M400 186q0 -43 -15.5 -80.5t-42.5 -65.5t-63.5 -44t-78.5 -16q-37 0 -67 12.5t-51 34.5t-32.5 52.5t-11.5 66.5q0 43 15.5 80.5t42.5 65.5t63.5 44t78.5 16q37 0 67 -12.5t51 -34.5t32.5 -52.5t11.5 -66.5zM504 832q0 -43 -15.5 -80.5t-42.5 -65.5t-63.5 -44t-78.5 -16
q-37 0 -67 12.5t-51 34.5t-32.5 52.5t-11.5 66.5q0 43 15.5 80.5t42.5 65.5t63.5 44t78.5 16q37 0 67 -12.5t51 -34.5t32.5 -52.5t11.5 -66.5z" />
    <glyph glyph-name="semicolon" unicode=";" horiz-adv-x="550" 
d="M508 832q0 -43 -15.5 -80.5t-42.5 -65.5t-63.5 -44t-78.5 -16q-37 0 -67 12.5t-51 34.5t-32.5 52.5t-11.5 66.5q0 43 15.5 80.5t42.5 65.5t63.5 44t78.5 16q37 0 67 -12.5t51 -34.5t32.5 -52.5t11.5 -66.5zM404 174q0 -61 -23 -126.5t-62 -129.5t-91 -123.5t-110 -108.5
q-17 -14 -34 -14t-34 14l-26 20q-18 15 -18.5 29t14.5 31q52 58 79 98.5t27 79.5q0 29 -13 47.5t-29 37.5t-29 45t-13 70t15.5 82t42.5 66t63.5 44t78.5 16q33 0 62.5 -10.5t51.5 -32.5t35 -55.5t13 -79.5z" />
    <glyph glyph-name="less" unicode="&#x3c;" 
d="M412 478l480 -270q20 -12 24 -26t-8 -34l-46 -82q-15 -24 -34 -24q-13 0 -26 8l-576 328q-18 11 -25 22.5t-7 29.5v10.5t2 19.5l8 64q3 24 13 38.5t33 25.5l686 332q12 6 26 6q22 0 34 -26l34 -80q18 -41 -26 -60z" />
    <glyph glyph-name="equal" unicode="=" 
d="M1046 790q20 0 28 -8.5t8 -25.5v-9t-2 -15l-14 -92q-5 -24 -15.5 -31t-34.5 -7h-792q-20 0 -28 8.5t-8 25.5v9t2 15l14 92q5 24 15.5 31t34.5 7h792zM978 366q20 0 28 -8.5t8 -25.5v-9t-2 -15l-14 -92q-5 -24 -15.5 -31t-34.5 -7h-792q-20 0 -28 8.5t-8 25.5v9t2 15
l14 92q5 24 15.5 31t34.5 7h792z" />
    <glyph glyph-name="greater" unicode="&#x3e;" 
d="M788 490l-480 270q-20 12 -24 26t8 34l46 82q15 24 34 24q13 0 26 -8l576 -328q18 -11 25 -22.5t7 -29.5v-10.5t-2 -19.5l-8 -64q-3 -24 -13 -38.5t-33 -25.5l-686 -332q-12 -6 -26 -6q-22 0 -34 26l-34 80q-18 41 26 60z" />
    <glyph glyph-name="question" unicode="?" horiz-adv-x="900" 
d="M518 172q0 -40 -15.5 -75t-42.5 -61t-64 -41t-80 -15q-37 0 -67 11.5t-51 32.5t-32.5 49.5t-11.5 62.5q0 40 15.5 75t42.5 61t64 41t80 15q37 0 67 -11.5t51 -32.5t32.5 -49.5t11.5 -62.5zM350 408q-44 0 -44 44v64q0 71 17 120t45.5 84.5t65.5 61.5t76 52
q25 16 51.5 35.5t48 42t35 49t13.5 57.5q0 47 -33 68.5t-95 21.5q-71 0 -134 -24t-116 -62q-20 -14 -32.5 -10.5t-23.5 24.5l-62 122q-21 38 14 64q31 23 72.5 45t91.5 39t109 27.5t127 10.5q95 0 165.5 -22.5t117 -61.5t69 -93t22.5 -117q0 -69 -24.5 -123t-63 -97.5
t-85.5 -78t-91 -63.5q-43 -29 -77.5 -52.5t-62.5 -49.5t-50 -58t-38 -78q-9 -24 -21.5 -33t-38.5 -9h-48z" />
    <glyph glyph-name="at" unicode="@" horiz-adv-x="1726" 
d="M1204 -194q-40 -22 -88 -42.5t-105 -36.5t-122.5 -25.5t-138.5 -9.5q-156 0 -280.5 48.5t-211.5 137.5t-133.5 215t-46.5 281q0 133 33.5 252.5t94.5 221.5t146 184.5t188.5 140t221.5 88.5t246 31q154 0 276.5 -45.5t207 -126.5t129.5 -193t45 -245q0 -67 -11.5 -138.5
t-35 -140t-59 -130t-83.5 -107.5t-109 -73t-134 -27q-44 0 -83.5 10.5t-70 32.5t-48.5 56t-18 81q-16 -27 -44.5 -55t-66.5 -50.5t-84.5 -36.5t-98.5 -14q-62 0 -112 22t-85 64t-54 102.5t-19 137.5q0 106 34 193t91 149.5t130 97t151 34.5t131.5 -31.5t76.5 -76.5l8 48
q5 24 16.5 34t35.5 10h144q45 0 36 -44l-78 -488q-5 -26 -6.5 -43.5t-1.5 -28.5q0 -29 13 -40.5t39 -11.5q33 0 72.5 31t73.5 87.5t57 135.5t23 176q0 112 -33 202.5t-96 154.5t-156 98.5t-213 34.5q-100 0 -194 -24t-177 -70t-152 -112t-118.5 -150t-77 -184t-27.5 -214
q0 -135 38 -236t106.5 -168t163.5 -100.5t208 -33.5q111 0 201.5 28t164.5 66q21 12 34 7.5t24 -25.5l30 -56q21 -39 -18 -60zM688 434q0 -47 9 -78t25.5 -50.5t39 -27.5t50.5 -8q47 0 83 20t61 51t40 68.5t20 72.5l22 144q-12 25 -28.5 41t-35.5 25.5t-38.5 13.5t-37.5 4
q-44 0 -82 -19t-66.5 -55t-45 -87t-16.5 -115z" />
    <glyph glyph-name="A" unicode="A" horiz-adv-x="1270" 
d="M-2 0q-32 0 -32 24q0 5 1.5 10.5t6.5 17.5q62 166 135.5 331t153 322t161.5 303.5t162 277.5q14 21 29 29.5t39 8.5h210q24 0 37 -9.5t19 -32.5q81 -266 139 -578.5t93 -659.5q3 -44 -40 -44h-208q-23 0 -33.5 10t-12.5 34q-3 59 -8 115.5t-14 116.5h-480
q-51 -117 -96 -234q-8 -23 -21 -32.5t-37 -9.5h-204zM804 504q-18 139 -40.5 275.5t-51.5 258.5q-69 -119 -136.5 -256.5t-127.5 -277.5h356z" />
    <glyph glyph-name="B" unicode="B" horiz-adv-x="1220" 
d="M112 0q-44 0 -38 44l198 1236q3 24 14.5 34t35.5 10h398q123 0 207.5 -28t136.5 -74.5t75 -106t23 -123.5q0 -106 -54.5 -185t-151.5 -121q52 -23 87.5 -54t57 -67t30.5 -77t9 -84q0 -104 -43.5 -180.5t-117.5 -126t-172.5 -73.5t-208.5 -24h-486zM398 220h220
q103 0 160.5 51.5t57.5 146.5q0 32 -8 58.5t-29 45t-56.5 28.5t-90.5 10h-200zM486 772h132q67 0 112.5 16.5t74 43.5t41 63t12.5 75q0 30 -8 54.5t-27 42.5t-51 27.5t-80 9.5h-152z" />
    <glyph glyph-name="C" unicode="C" horiz-adv-x="1260" 
d="M1126 132q-107 -80 -227.5 -116t-250.5 -36q-141 0 -244 40t-170 113t-99.5 175.5t-32.5 227.5q0 95 18.5 192t57.5 186.5t99.5 168t144 136.5t191 91.5t241.5 33.5q127 0 230.5 -33t175.5 -107q32 -32 2 -64l-126 -134q-17 -18 -30 -18t-30 18q-47 47 -110.5 71.5
t-135.5 24.5t-131 -23t-105.5 -63t-81.5 -94t-58 -115.5t-34.5 -128.5t-11.5 -132q0 -160 67 -242t201 -82q85 0 166.5 31.5t149.5 88.5q18 15 31 13.5t25 -21.5l88 -138q26 -37 -10 -64z" />
    <glyph glyph-name="D" unicode="D" horiz-adv-x="1368" 
d="M112 0q-44 0 -38 44l198 1236q3 24 14.5 34t35.5 10h458q150 0 254.5 -45t169.5 -120t94.5 -172.5t29.5 -202.5q0 -157 -44.5 -299t-137.5 -250t-236 -171.5t-340 -63.5h-458zM400 224h186q115 0 197.5 49t135.5 128.5t78 178.5t25 200q0 67 -16 125.5t-51 102t-91.5 68
t-137.5 24.5h-188z" />
    <glyph glyph-name="E" unicode="E" horiz-adv-x="1096" 
d="M1086 1140q-5 -24 -15.5 -34t-34.5 -10h-498l-50 -312h428q44 0 38 -44l-24 -140q-5 -24 -15.5 -34t-34.5 -10h-428l-52 -328h498q44 0 38 -44l-24 -140q-5 -24 -15.5 -34t-34.5 -10h-750q-20 0 -28 9.5t-8 26.5v9.5t2 14.5l194 1220q5 24 15.5 34t34.5 10h750
q20 0 28 -9.5t8 -26.5v-9.5t-2 -14.5z" />
    <glyph glyph-name="F" unicode="F" horiz-adv-x="1058" 
d="M1078 1138q-5 -24 -15.5 -33t-34.5 -9h-490l-54 -340h414q44 0 38 -44l-24 -140q-5 -24 -15.5 -34t-34.5 -10h-414l-78 -484q-3 -24 -14.5 -34t-35.5 -10h-208q-20 0 -28 9.5t-8 26.5v9.5t2 14.5l194 1220q5 24 15.5 34t34.5 10h742q20 0 28 -9.5t8 -26.5v-9.5t-2 -14.5z
" />
    <glyph glyph-name="G" unicode="G" horiz-adv-x="1390" 
d="M1154 88q-109 -54 -232 -81t-250 -27q-149 0 -256.5 37t-177 107.5t-103 173.5t-33.5 234q0 99 19 197.5t58.5 189t101 168t146 135t193.5 90t244 32.5q65 0 128.5 -8.5t122 -26.5t109.5 -46.5t92 -68.5q32 -29 2 -62l-120 -128q-17 -18 -30.5 -18.5t-31.5 16.5
q-29 24 -63.5 42.5t-73 31.5t-79 19.5t-80.5 6.5q-110 0 -191 -47t-134.5 -124.5t-80 -177t-26.5 -203.5q0 -80 16 -141.5t51.5 -104t92 -64.5t136.5 -22q63 0 124 13.5t112 40.5l38 246h-194q-44 0 -38 44l24 140q3 24 14.5 34t35.5 10h430q44 0 38 -44l-90 -552
q-3 -23 -13.5 -37t-30.5 -25z" />
    <glyph glyph-name="H" unicode="H" horiz-adv-x="1384" 
d="M488 790h496l78 490q5 24 15.5 34t34.5 10h208q20 0 28 -9.5t8 -26.5v-9.5t-2 -14.5l-194 -1220q-5 -24 -15.5 -34t-34.5 -10h-208q-20 0 -28 9.5t-8 26.5v9.5t2 14.5l78 490h-496l-80 -506q-5 -24 -15.5 -34t-34.5 -10h-208q-20 0 -28 9.5t-8 26.5v9.5t2 14.5l194 1220
q5 24 15.5 34t34.5 10h208q20 0 28 -9.5t8 -26.5v-9.5t-2 -14.5z" />
    <glyph glyph-name="I" unicode="I" horiz-adv-x="594" 
d="M370 44q-5 -24 -15.5 -34t-34.5 -10h-208q-20 0 -28 9.5t-8 26.5v9.5t2 14.5l194 1220q5 24 15.5 34t34.5 10h208q20 0 28 -9.5t8 -26.5v-9.5t-2 -14.5z" />
    <glyph glyph-name="J" unicode="J" horiz-adv-x="938" 
d="M794 488q-20 -127 -58.5 -222t-99.5 -158.5t-146 -95.5t-198 -32q-92 0 -166 19.5t-128 58.5q-11 9 -16.5 17t-5.5 19q0 13 8 26l86 134q14 21 26.5 23.5t33.5 -11.5q33 -21 72.5 -33.5t75.5 -12.5q80 0 139 62t79 184l130 814q3 24 14.5 34t35.5 10h208q20 0 28 -9.5
t8 -26.5v-9.5t-2 -14.5z" />
    <glyph glyph-name="K" unicode="K" horiz-adv-x="1272" 
d="M482 750q67 56 135 124t131.5 139t119.5 142t100 133q14 20 29 28t39 8h244q14 0 20 -5t6 -13q0 -3 -1.5 -8t-4.5 -10q-46 -69 -103.5 -141t-121 -142.5t-130.5 -137.5t-131 -125q53 -71 102.5 -156.5t91.5 -177.5t75.5 -186t56.5 -180q9 -42 -34 -42h-230q-24 0 -36 9.5
t-18 32.5q-17 64 -42 131.5t-56 135t-67.5 132t-76.5 121.5q-36 -30 -72.5 -58t-71.5 -52l-66 -408q-5 -24 -15.5 -34t-34.5 -10h-208q-20 0 -28 9.5t-8 26.5v9.5t2 14.5l194 1220q5 24 15.5 34t34.5 10h208q20 0 28 -9.5t8 -26.5v-9.5t-2 -14.5z" />
    <glyph glyph-name="L" unicode="L" horiz-adv-x="992" 
d="M868 240q20 0 28 -9.5t8 -26.5v-9.5t-2 -14.5l-22 -138q-5 -24 -15.5 -33t-34.5 -9h-718q-20 0 -28 9.5t-8 26.5v9.5t2 14.5l194 1220q5 24 15.5 34t34.5 10h208q44 0 38 -44l-166 -1040h466v0z" />
    <glyph glyph-name="M" unicode="M" horiz-adv-x="1642" 
d="M1578 1324q20 0 28 -9.5t8 -26.5v-9.5t-2 -14.5l-194 -1220q-5 -24 -15.5 -34t-34.5 -10h-188q-44 0 -38 44l146 918l-370 -584q-14 -21 -29 -29.5t-39 -8.5h-126q-24 0 -37 9.5t-19 32.5l-172 580l-146 -918q-3 -24 -14.5 -34t-35.5 -10h-188q-20 0 -28 9.5t-8 26.5v9.5
t2 14.5l194 1220q5 24 15.5 34t34.5 10h262q24 0 37 -9.5t21 -32.5l194 -624l398 628q14 21 29 29.5t39 8.5h276v0z" />
    <glyph glyph-name="N" unicode="N" horiz-adv-x="1432" 
d="M1368 1324q20 0 28 -9.5t8 -26.5v-9.5t-2 -14.5l-194 -1220q-5 -24 -15.5 -34t-34.5 -10h-252q-24 0 -37.5 9.5t-22.5 30.5l-354 904l-142 -900q-3 -24 -14.5 -34t-35.5 -10h-188q-20 0 -28 9.5t-8 26.5v9.5t2 14.5l194 1220q5 24 15.5 34t34.5 10h252q24 0 37.5 -9.5
t22.5 -30.5l354 -904l142 900q3 24 14.5 34t35.5 10h188v0z" />
    <glyph glyph-name="O" unicode="O" horiz-adv-x="1454" 
d="M400 578q0 -80 17 -146t51.5 -113.5t87.5 -74t126 -26.5q97 0 173 45.5t128.5 120t80.5 169.5t28 193q0 79 -17 145.5t-51.5 114t-87.5 74t-126 26.5q-97 0 -173 -45.5t-128.5 -120t-80.5 -169.5t-28 -193zM1398 744q0 -93 -21 -186t-62.5 -177.5t-103 -158t-142.5 -127
t-180.5 -84.5t-216.5 -31q-161 0 -271 46.5t-178.5 127.5t-98.5 190.5t-30 235.5q0 93 21 186t62.5 177.5t103 158t142.5 127t180 84.5t217 31q160 0 270.5 -46.5t179 -127.5t98.5 -190.5t30 -235.5z" />
    <glyph glyph-name="P" unicode="P" horiz-adv-x="1186" 
d="M112 0q-44 0 -38 44l198 1236q3 24 14.5 34t35.5 10h374q136 0 230 -29t152.5 -82t85 -127t26.5 -164q0 -109 -36.5 -202t-114.5 -161t-198.5 -106.5t-288.5 -38.5h-122l-60 -370q-3 -24 -14.5 -34t-35.5 -10h-208zM466 642h136q76 0 129.5 23t87.5 61t49.5 87t15.5 101
q0 40 -10.5 73.5t-34.5 57.5t-64.5 37.5t-100.5 13.5h-136z" />
    <glyph glyph-name="Q" unicode="Q" horiz-adv-x="1454" 
d="M1084 -342q-41 -12 -90 -19t-96 -7q-168 0 -261.5 91.5t-108.5 268.5q-119 19 -202 72t-134.5 130.5t-74.5 176t-23 209.5q0 93 21 186t62.5 177.5t103 158t142.5 127t180 84.5t217 31q160 0 270.5 -46.5t179 -127.5t98.5 -190.5t30 -235.5t-38.5 -250t-113.5 -227.5
t-185 -176.5t-253 -98q1 -31 11.5 -57t30 -45.5t47.5 -30.5t65 -11q18 0 39 3t41 9q24 6 34.5 0t15.5 -32l26 -114q9 -41 -34 -56zM400 578q0 -80 17 -146t51.5 -113.5t87.5 -74t126 -26.5q97 0 173 45.5t128.5 120t80.5 169.5t28 193q0 79 -17 145.5t-51.5 114t-87.5 74
t-126 26.5q-97 0 -173 -45.5t-128.5 -120t-80.5 -169.5t-28 -193z" />
    <glyph glyph-name="R" unicode="R" horiz-adv-x="1232" 
d="M112 0q-44 0 -38 44l198 1236q3 24 14.5 34t35.5 10h386q130 0 220 -27.5t145.5 -76t80 -116t24.5 -146.5q0 -69 -18 -132t-54.5 -116t-93 -95t-132.5 -69q43 -50 77.5 -111t61 -127t45.5 -134t32 -130q9 -44 -36 -44h-218q-24 0 -35.5 10t-16.5 34q-10 48 -25.5 103
t-38 112t-52.5 113t-70 106h-164l-70 -434q-3 -24 -14.5 -34t-35.5 -10h-208zM474 690h128q73 0 124 20.5t83 55t46.5 79.5t14.5 93q0 37 -9 67.5t-30.5 52.5t-57.5 34t-91 12h-142z" />
    <glyph glyph-name="S" unicode="S" horiz-adv-x="1118" 
d="M1028 426q0 -109 -42.5 -192t-116.5 -139.5t-174.5 -85.5t-216.5 -29q-72 0 -139.5 10.5t-126.5 28t-107.5 40t-82.5 47.5q-18 12 -20 27.5t10 32.5l112 144q15 18 28.5 20t33.5 -12q56 -44 131.5 -72t166.5 -28q52 0 97 10.5t78 31.5t52 52.5t19 73.5q0 34 -12.5 57.5
t-36.5 40.5t-60 29.5t-83 24.5q-99 25 -173 56.5t-123 75t-73.5 101.5t-24.5 137q0 109 43 190.5t117.5 136t174.5 82t213 27.5q61 0 120.5 -7.5t112.5 -20.5t97 -31t76 -39q17 -11 20 -26t-8 -32l-102 -144q-14 -20 -27.5 -23t-34.5 11q-47 32 -114.5 53t-145.5 21
q-52 0 -96.5 -10.5t-77.5 -31.5t-51.5 -52.5t-18.5 -73.5q0 -35 13 -57.5t37 -38t59.5 -27t80.5 -23.5q80 -22 152 -46t126 -63.5t86 -100.5t32 -156z" />
    <glyph glyph-name="T" unicode="T" horiz-adv-x="1058" 
d="M1120 1128q-5 -24 -15.5 -34t-34.5 -10h-302l-166 -1040q-3 -24 -14.5 -34t-35.5 -10h-208q-44 0 -38 44l166 1040h-304q-20 0 -28 9.5t-8 26.5v9.5t2 14.5l22 136q5 24 15.5 34t34.5 10h902q20 0 28 -9.5t8 -26.5v-9.5t-2 -14.5z" />
    <glyph glyph-name="U" unicode="U" horiz-adv-x="1342" 
d="M1218 552q-23 -148 -67.5 -255.5t-115 -178t-169 -104.5t-230.5 -34q-243 0 -373.5 111t-130.5 323q0 63 12 138l118 728q3 24 14.5 34t35.5 10h208q44 0 38 -44l-120 -754q-6 -42 -6 -80q0 -226 200 -226q118 0 190 77t96 229l120 754q3 24 14.5 34t35.5 10h208
q44 0 38 -44l-116 -728v0z" />
    <glyph glyph-name="V" unicode="V" horiz-adv-x="1226" 
d="M430 0q-24 0 -37 9.5t-19 32.5q-38 132 -74 288.5t-64 320t-45 325t-17 304.5q0 44 44 44h200q44 0 44 -44q8 -273 37.5 -521.5t76.5 -462.5q113 216 226.5 463.5t211.5 522.5q8 23 21 32.5t37 9.5h200q30 0 30 -26q0 -3 -1 -12t-7 -24q-63 -166 -133.5 -328.5t-146 -318
t-154.5 -301t-158 -276.5q-12 -21 -27 -29.5t-39 -8.5h-206z" />
    <glyph glyph-name="W" unicode="W" horiz-adv-x="1918" 
d="M386 0q-24 0 -37 9.5t-19 32.5q-19 75 -37 166.5t-34 194.5t-29.5 213t-23 223t-15 224.5t-5.5 216.5q0 44 44 44h202q44 0 44 -44q-2 -264 10 -506t50 -462q56 109 111.5 230.5t107 246.5t97.5 250t84 243q8 23 21 32.5t37 9.5h174q44 0 44 -44q1 -118 9.5 -243.5
t22.5 -251t32.5 -247t41.5 -230.5q108 220 193 465t163 509q6 23 19 32.5t37 9.5h214q34 0 34 -26q0 -5 -1 -9t-3 -9q-35 -106 -76 -218.5t-86 -225.5t-93 -223.5t-96.5 -213.5t-96.5 -194.5t-92 -166.5q-12 -21 -27 -29.5t-39 -8.5h-170q-24 0 -36.5 9.5t-17.5 32.5
q-53 208 -85 425t-35 431q-72 -214 -173.5 -432t-220.5 -428q-12 -21 -27 -29.5t-39 -8.5h-178z" />
    <glyph glyph-name="X" unicode="X" horiz-adv-x="1220" 
d="M8 0q-30 0 -30 22q0 3 0.5 9t5.5 15q38 82 91 166t116 166.5t134.5 161t148.5 150.5q-92 137 -158 288t-92 302q-6 44 38 44h216q24 0 35.5 -10t16.5 -34q18 -104 54.5 -205.5t93.5 -198.5q83 98 149 201t119 207q12 23 26 31.5t38 8.5h208q15 0 22.5 -6.5t7.5 -17.5
t-3.5 -20.5t-6.5 -15.5q-33 -72 -79 -147t-100.5 -148.5t-115.5 -144t-125 -134.5q47 -71 90.5 -149.5t79.5 -161t63 -167.5t41 -168q6 -44 -38 -44h-206q-26 0 -37.5 10t-16.5 34q-23 115 -69.5 230t-114.5 228q-100 -116 -182 -231t-142 -231q-12 -23 -26 -31.5t-38 -8.5
h-214z" />
    <glyph glyph-name="Y" unicode="Y" horiz-adv-x="1160" 
d="M396 0q-44 0 -38 44l66 412q-40 79 -78.5 174t-72.5 197t-61.5 208.5t-45.5 210.5q-2 8 -3 21.5t-1 22.5q0 34 38 34h198q24 0 34.5 -10t13.5 -34q8 -76 22 -154.5t33.5 -156.5t45 -153t57.5 -142q106 134 197.5 290.5t156.5 319.5q9 23 22.5 31.5t37.5 8.5h198
q30 0 30 -22q0 -5 -1 -9.5t-7 -18.5q-47 -107 -109 -218t-131 -218t-141.5 -205t-140.5 -177l-66 -412q-3 -24 -14.5 -34t-35.5 -10h-204z" />
    <glyph glyph-name="Z" unicode="Z" horiz-adv-x="1136" 
d="M1122 1324q20 0 28 -9.5t8 -26.5v-10.5t-2 -15.5l-14 -98q-3 -18 -11 -37.5t-19 -36.5q-38 -56 -98 -127t-131.5 -149.5t-149 -160t-150 -158.5t-134 -146t-101.5 -121h646q44 0 38 -44l-24 -140q-5 -24 -15.5 -34t-34.5 -10h-930q-20 0 -28 9.5t-8 26.5v10.5t2 15.5
l14 98q3 18 11 37.5t19 36.5q37 56 97 127t131.5 149.5t149 160t149.5 158.5t133.5 145.5t101.5 121.5h-556q-44 0 -38 44l24 140q5 24 15.5 34t34.5 10h842v0z" />
    <glyph glyph-name="bracketleft" unicode="[" horiz-adv-x="600" 
d="M516 1312l-214 -1340h144q44 0 38 -44l-14 -80q-3 -24 -14.5 -34t-35.5 -10h-338q-20 0 -28 9.5t-8 26.5v9.5t2 14.5l250 1576q3 23 14.5 31.5t35.5 8.5h338q20 0 28 -8.5t8 -25.5v-9t-2 -15l-10 -72q-5 -24 -15.5 -31t-34.5 -7h-144z" />
    <glyph glyph-name="backslash" unicode="\" horiz-adv-x="620" 
d="M154 1440q-2 15 -2 19.5v6.5q0 38 40 38h110q24 0 34.5 -10t13.5 -34l162 -1576q2 -15 2 -19.5v-6.5q0 -38 -40 -38h-110q-24 0 -34.5 10t-13.5 34z" />
    <glyph glyph-name="bracketright" unicode="]" horiz-adv-x="600" 
d="M134 -28l214 1340h-144q-44 0 -38 44l14 80q3 24 14.5 34t35.5 10h338q20 0 28 -9.5t8 -26.5v-9.5t-2 -14.5l-250 -1576q-3 -23 -14.5 -31.5t-35.5 -8.5h-338q-20 0 -28 8.5t-8 25.5v9t2 15l10 72q5 24 15.5 31t34.5 7h144z" />
    <glyph glyph-name="asciicircum" unicode="^" horiz-adv-x="1100" 
d="M932 638q-40 -20 -60 20l-236 468l-388 -474q-28 -34 -62 -6l-72 56q-18 15 -18 32q0 8 2 14.5t10 15.5l434 526q15 18 31.5 26t40.5 8h88q24 0 38.5 -8.5t25.5 -31.5l272 -530q6 -12 8 -20t2 -14q0 -20 -26 -34z" />
    <glyph glyph-name="underscore" unicode="_" horiz-adv-x="854" 
d="M662 0q20 0 28 -8.5t8 -25.5v-9t-2 -15l-14 -92q-5 -24 -15.5 -31t-34.5 -7h-616q-20 0 -28 8.5t-8 25.5v9t2 15l14 92q5 24 15.5 31t34.5 7h616z" />
    <glyph glyph-name="grave" unicode="`" horiz-adv-x="652" 
d="M630 1200q18 -15 18 -34q0 -15 -14 -32l-26 -32q-9 -11 -17 -16.5t-19 -5.5q-13 0 -30 10l-294 182q-22 14 -22 32q0 13 10 26l80 106q8 9 15.5 14.5t18.5 5.5q6 0 14 -3t22 -17z" />
    <glyph glyph-name="a" unicode="a" horiz-adv-x="1132" 
d="M1026 980q44 0 38 -44l-144 -892q-3 -24 -14.5 -34t-35.5 -10h-176q-44 0 -38 44l18 106q-42 -80 -118 -125t-180 -45q-80 0 -139 27.5t-97.5 79.5t-57 126.5t-18.5 168.5q0 85 15 164t44 147.5t70 125t93 97t114 62.5t132 22q92 0 152.5 -34t89.5 -82l8 52q5 24 16.5 34
t35.5 10h192zM352 408q0 -58 9.5 -98.5t27.5 -66t45.5 -37.5t63.5 -12q21 0 51 7.5t60.5 36t57.5 85.5t43 157l34 216q-20 36 -58.5 62t-95.5 26q-62 0 -107 -33.5t-74 -87.5t-43 -121t-14 -134z" />
    <glyph glyph-name="b" unicode="b" horiz-adv-x="1146" 
d="M100 0q-44 0 -38 44l216 1348q3 24 14.5 34t35.5 10h192q44 0 38 -44l-86 -542q44 71 114.5 110.5t167.5 39.5q80 0 140 -27.5t99.5 -80t59 -127.5t19.5 -169q0 -129 -34.5 -241.5t-97.5 -195.5t-150 -131t-192 -48q-92 0 -154.5 34t-91.5 82l-8 -52q-5 -24 -16.5 -34
t-35.5 -10h-192zM784 572q0 115 -40 164.5t-112 49.5q-21 0 -51.5 -7.5t-62 -36t-59 -85.5t-43.5 -157l-34 -216q20 -36 60.5 -62t97.5 -26q62 0 108 33t76 86.5t45 121t15 135.5z" />
    <glyph glyph-name="c" unicode="c" horiz-adv-x="940" 
d="M798 80q-38 -26 -81 -44.5t-87 -31t-87 -18.5t-81 -6q-93 0 -168 27.5t-128 80.5t-81.5 131.5t-28.5 180.5q0 118 36 226t107.5 190.5t178 132t248.5 49.5q89 0 159 -22t123 -64q35 -28 8 -64l-74 -104q-15 -20 -28.5 -22.5t-33.5 12.5q-35 23 -75 37.5t-85 14.5
q-71 0 -123 -35t-85.5 -89.5t-49.5 -122t-16 -131.5q0 -46 9 -84.5t28 -67t48.5 -44.5t70.5 -16q47 0 98 16t96 48q20 14 33 11t25 -23l60 -106q21 -39 -16 -62z" />
    <glyph glyph-name="d" unicode="d" horiz-adv-x="1136" 
d="M1108 1436q44 0 38 -44l-216 -1348q-3 -24 -14.5 -34t-35.5 -10h-176q-44 0 -38 44l18 106q-42 -80 -120 -125t-182 -45q-80 0 -140 27.5t-99.5 80t-59 127t-19.5 169.5q0 129 34.5 241.5t97.5 195.5t150 131t192 48q92 0 154.5 -34t91.5 -82l82 508q3 24 14.5 34
t35.5 10h192zM352 408q0 -58 10 -98.5t29.5 -66t48 -37.5t64.5 -12q21 0 51.5 7.5t62 36t59 85.5t43.5 157l34 216q-20 36 -60.5 62t-97.5 26q-62 0 -108 -33t-76 -86.5t-45 -121t-15 -135.5z" />
    <glyph glyph-name="e" unicode="e" horiz-adv-x="1012" 
d="M856 80q-78 -53 -169.5 -76.5t-186.5 -23.5q-121 0 -205.5 34.5t-137.5 94.5t-77 140.5t-24 172.5q0 107 32 211t98 185.5t166.5 131.5t237.5 50q80 0 147.5 -18.5t116.5 -55t76.5 -90.5t27.5 -124q0 -54 -20.5 -111t-75.5 -105q-32 -27 -73.5 -47.5t-95.5 -34t-122 -20
t-153 -6.5h-88q6 -61 26.5 -98.5t49.5 -58.5t63.5 -28t68.5 -7q54 0 110 15.5t106 48.5q20 14 33 11.5t25 -23.5l60 -106q21 -39 -16 -62zM702 698q0 28 -11 48.5t-29 34t-41.5 19.5t-48.5 6q-50 0 -88 -20.5t-66 -55t-47 -78.5t-29 -90h76q82 0 137 10.5t87.5 29t46 43
t13.5 53.5z" />
    <glyph glyph-name="f" unicode="f" horiz-adv-x="690" 
d="M90 -400q-20 0 -28 9.5t-8 26.5v9.5t2 14.5l176 1112h-124q-23 0 -31 10.5t-5 33.5l18 120q5 24 16.5 34t35.5 10h122l10 60q19 121 57.5 201.5t92.5 128t121.5 67t144.5 19.5q80 0 133.5 -16.5t92.5 -43.5q20 -14 20 -34q0 -12 -14 -34l-70 -102q-15 -23 -27 -25.5
t-35 9.5q-20 11 -41 16.5t-47 5.5q-66 0 -100 -45.5t-50 -150.5l-10 -56h174q23 0 31 -10.5t5 -33.5l-18 -120q-5 -24 -16.5 -34t-35.5 -10h-172l-176 -1124q-6 -48 -52 -48h-192v0z" />
    <glyph glyph-name="g" unicode="g" horiz-adv-x="1142" 
d="M1036 980q44 0 38 -44l-142 -882q-39 -245 -172.5 -359.5t-365.5 -114.5q-69 0 -123 9t-95 22.5t-71 30t-51 32.5q-33 27 -8 64l76 104q15 20 28.5 22.5t33.5 -12.5q32 -23 77 -40.5t113 -17.5q74 0 124 24t82.5 64.5t50 94.5t27.5 115l6 38q-44 -71 -114.5 -110.5
t-167.5 -39.5q-80 0 -140 27.5t-99.5 80t-59 127t-19.5 169.5q0 129 34.5 241.5t97.5 195.5t150 131t192 48q92 0 154.5 -34t91.5 -82l8 52q5 24 16.5 34t35.5 10h192zM352 408q0 -58 10 -98.5t29.5 -66t48 -37.5t64.5 -12q21 0 51.5 7.5t62 36t59 85.5t43.5 157l34 216
q-20 36 -60.5 62t-97.5 26q-62 0 -108 -33t-76 -86.5t-45 -121t-15 -135.5z" />
    <glyph glyph-name="h" unicode="h" horiz-adv-x="1132" 
d="M278 1392q3 24 14.5 34t35.5 10h192q44 0 38 -44l-86 -538q45 68 114 107t170 39q79 0 132 -24t85.5 -63t46.5 -89.5t14 -103.5q0 -16 -1 -39t-3 -47.5t-4.5 -48.5t-5.5 -41l-80 -500q-3 -24 -14.5 -34t-35.5 -10h-192q-44 0 -38 44l82 510q2 13 3.5 27t2.5 27.5
t1.5 24.5t0.5 17q0 22 -5.5 45t-18.5 41.5t-34 30t-52 11.5q-29 0 -63 -13.5t-66 -47.5t-58.5 -92t-40.5 -147l-70 -434q-3 -24 -14.5 -34t-35.5 -10h-192q-44 0 -38 44z" />
    <glyph glyph-name="i" unicode="i" horiz-adv-x="548" 
d="M566 1300q0 -39 -14.5 -73.5t-39.5 -60t-59 -40t-73 -14.5q-34 0 -61.5 11.5t-47 31.5t-30.5 48t-11 61q0 39 14.5 73t39.5 59.5t59 40.5t73 15q68 0 109 -42t41 -110zM100 0q-44 0 -38 44l144 892q3 24 14.5 34t35.5 10h192q44 0 38 -44l-144 -892q-3 -24 -14.5 -34
t-35.5 -10h-192z" />
    <glyph glyph-name="j" unicode="j" horiz-adv-x="548" 
d="M324 -74q-27 -170 -114.5 -258t-253.5 -88q-54 0 -101.5 9.5t-86.5 32.5q-36 21 -18 60l54 110q12 24 24 28.5t36 -4.5q30 -12 58 -12q35 0 58 14.5t37 38.5t22 54.5t13 62.5l154 962q3 24 14.5 34t35.5 10h192q44 0 38 -44zM566 1300q0 -39 -14.5 -73.5t-39.5 -60
t-59 -40t-73 -14.5q-34 0 -61.5 11.5t-47 31.5t-30.5 48t-11 61q0 39 14.5 73t39.5 59.5t59 40.5t73 15q68 0 109 -42t41 -110z" />
    <glyph glyph-name="k" unicode="k" horiz-adv-x="1082" 
d="M426 570q49 40 98 86.5t94 96t85.5 98.5t72.5 93q15 20 30.5 28t41.5 8h200q14 0 19 -5t5 -13q0 -9 -10 -22q-74 -97 -160 -192.5t-186 -187.5q38 -55 74.5 -119.5t68 -132t56 -136t39.5 -130.5q12 -42 -34 -42h-210q-24 0 -36 9.5t-20 32.5q-24 85 -60 175t-84 167
q-32 -24 -63.5 -46.5t-64.5 -43.5l-40 -250q-5 -24 -15.5 -34t-34.5 -10h-192q-20 0 -28 9.5t-8 26.5v9.5t2 14.5l212 1332q5 24 15.5 34t34.5 10h192q20 0 28 -9.5t8 -26.5v-9.5t-2 -14.5z" />
    <glyph glyph-name="l" unicode="l" horiz-adv-x="548" 
d="M342 44q-5 -24 -15.5 -34t-34.5 -10h-192q-20 0 -28 9.5t-8 26.5v9.5t2 14.5l212 1332q5 24 15.5 34t34.5 10h192q20 0 28 -9.5t8 -26.5v-9.5t-2 -14.5z" />
    <glyph glyph-name="m" unicode="m" horiz-adv-x="1690" 
d="M1256 0q-44 0 -38 44l82 510q5 26 6.5 55.5t1.5 44.5q0 21 -4 43t-15 40t-30.5 29.5t-50.5 11.5q-29 0 -61.5 -13.5t-62.5 -47.5t-55 -92t-39 -147l-70 -434q-3 -24 -14.5 -34t-35.5 -10h-192q-44 0 -38 44l82 510q5 26 6.5 55.5t1.5 44.5q0 21 -4 43t-15 40t-30.5 29.5
t-50.5 11.5q-29 0 -61.5 -13.5t-62.5 -47.5t-55 -92t-39 -147l-70 -434q-3 -24 -14.5 -34t-35.5 -10h-192q-44 0 -38 44l144 892q3 24 14.5 34t35.5 10h170q44 0 38 -44l-18 -106q22 34 48.5 65t61 54.5t79 37t103.5 13.5q58 0 101 -13.5t74.5 -36t51.5 -52t31 -60.5
q58 73 138 117.5t188 44.5q79 0 131.5 -24t83 -63t43 -89t12.5 -102q0 -17 -1 -40t-3 -48t-4.5 -49t-5.5 -41l-80 -500q-3 -24 -14.5 -34t-35.5 -10h-192z" />
    <glyph glyph-name="n" unicode="n" horiz-adv-x="1130" 
d="M100 0q-44 0 -38 44l144 892q3 24 14.5 34t35.5 10h170q44 0 38 -44l-18 -106q22 34 50 65t64.5 54.5t83.5 37t108 13.5q80 0 134 -24t87 -63t47 -89.5t14 -103.5q0 -16 -1 -39t-3 -47.5t-4.5 -48.5t-5.5 -41l-80 -500q-3 -24 -14.5 -34t-35.5 -10h-192q-44 0 -38 44
l82 510q2 13 3.5 27t2.5 27.5t1.5 24.5t0.5 17q0 22 -5.5 45t-18.5 41.5t-34 30t-52 11.5q-29 0 -63 -13.5t-66 -47.5t-58.5 -92t-40.5 -147l-70 -434q-3 -24 -14.5 -34t-35.5 -10h-192z" />
    <glyph glyph-name="o" unicode="o" horiz-adv-x="1092" 
d="M344 412q0 -102 37.5 -163t118.5 -61q61 0 107.5 34t78 88t47 122t15.5 136q0 102 -37.5 163t-118.5 61q-62 0 -108 -34t-77.5 -88t-47 -122t-15.5 -136zM1036 566q0 -113 -35 -219t-104.5 -187.5t-173.5 -130.5t-241 -49q-108 0 -188 32t-133 89t-79 137t-26 176
q0 113 35 219t104.5 187.5t173.5 130.5t241 49q108 0 188 -32t133 -89t79 -137t26 -176z" />
    <glyph glyph-name="p" unicode="p" horiz-adv-x="1148" 
d="M36 -400q-44 0 -38 44l208 1292q3 24 14.5 34t35.5 10h176q44 0 38 -44l-18 -106q42 80 120 125t182 45q80 0 140 -27.5t99.5 -80t59 -127.5t19.5 -169q0 -129 -34.5 -241.5t-97.5 -195.5t-150 -131t-192 -48q-92 0 -154.5 34t-91.5 82l-72 -452q-5 -24 -16.5 -34
t-35.5 -10h-192zM784 572q0 115 -40 164.5t-112 49.5q-21 0 -51.5 -7.5t-62 -36t-59 -85.5t-43.5 -157l-34 -216q20 -36 60.5 -62t97.5 -26q62 0 108 33t76 86.5t45 121t15 135.5z" />
    <glyph glyph-name="q" unicode="q" horiz-adv-x="1142" 
d="M1036 980q44 0 38 -44l-208 -1292q-3 -24 -14.5 -34t-35.5 -10h-192q-44 0 -38 44l78 486q-44 -71 -114.5 -110.5t-167.5 -39.5q-80 0 -140 27.5t-99.5 80t-59 127t-19.5 169.5q0 129 34.5 241.5t97.5 195.5t150 131t192 48q92 0 154.5 -34t91.5 -82l8 52q5 24 16.5 34
t35.5 10h192zM352 408q0 -58 10 -98.5t29.5 -66t48 -37.5t64.5 -12q21 0 51.5 7.5t62 36t59 85.5t43.5 157l34 216q-20 36 -60.5 62t-97.5 26q-62 0 -108 -33t-76 -86.5t-45 -121t-15 -135.5z" />
    <glyph glyph-name="r" unicode="r" horiz-adv-x="832" 
d="M206 936q5 24 15.5 34t34.5 10h164q44 0 38 -44l-24 -150q28 61 66 102t80 66t85.5 35.5t82.5 10.5q27 0 55 -5t57 -17q28 -12 28 -34q0 -8 -2 -14.5t-4 -11.5l-66 -170q-9 -23 -21 -28t-35 6q-29 14 -59.5 21t-54.5 7q-25 0 -59 -10t-68.5 -41t-64 -88t-44.5 -151
l-68 -420q-3 -24 -14.5 -34t-35.5 -10h-192q-20 0 -28 9.5t-8 26.5v9.5t2 14.5z" />
    <glyph glyph-name="s" unicode="s" horiz-adv-x="904" 
d="M814 310q0 -91 -38.5 -154t-101.5 -102t-143 -56.5t-163 -17.5q-62 0 -114 8.5t-94 22.5t-74.5 32t-57.5 37q-34 26 -10 62l78 106q15 20 28.5 22t33.5 -12q41 -32 98 -52t128 -20q29 0 56.5 4.5t48.5 14.5t34 26.5t13 40.5q0 25 -14 43.5t-38.5 32t-58 24.5t-73.5 22
q-53 15 -99.5 36.5t-81 54.5t-55 79t-20.5 110q0 88 38.5 150t101.5 101t143 57t163 18q101 0 178.5 -22t127.5 -52q38 -25 12 -60l-74 -110q-14 -20 -27.5 -23t-34.5 9q-38 23 -86 37.5t-110 14.5q-68 0 -111 -21.5t-43 -70.5q0 -30 16.5 -49t43.5 -32t62 -22.5t72 -20.5
q56 -17 101.5 -39t77.5 -53t49.5 -74t17.5 -102z" />
    <glyph glyph-name="t" unicode="t" horiz-adv-x="782" 
d="M98 772q-45 0 -36 44l18 120q5 24 16.5 34t35.5 10h118l38 236q3 24 14.5 34t35.5 10h192q44 0 38 -44l-38 -236h236q45 0 36 -44l-18 -120q-5 -24 -16.5 -34t-35.5 -10h-236l-60 -390q-3 -20 -4.5 -38.5t-1.5 -33.5q0 -50 20 -77t70 -27q42 0 78 18q23 12 35 7.5
t23 -27.5l48 -102q18 -41 -18 -62q-56 -32 -116.5 -46t-125.5 -14q-145 0 -221.5 68.5t-76.5 211.5q0 27 2.5 59.5t7.5 62.5l60 390h-118z" />
    <glyph glyph-name="u" unicode="u" horiz-adv-x="1122" 
d="M1016 980q44 0 38 -44l-144 -892q-3 -24 -14.5 -34t-35.5 -10h-170q-44 0 -38 44l18 106q-23 -35 -50 -65.5t-63 -54t-82 -37t-107 -13.5q-80 0 -133.5 24t-85.5 63t-45.5 89.5t-13.5 103.5q0 16 1 39t3 47.5t4.5 48.5t5.5 41l80 500q3 24 14.5 34t35.5 10h192
q44 0 38 -44l-82 -510q-2 -13 -3.5 -27t-2.5 -27.5t-1.5 -24.5t-0.5 -17q0 -23 5 -45.5t17 -41t32.5 -30t51.5 -11.5q29 0 62.5 13.5t64.5 47.5t57 92t40 147l70 434q3 24 14.5 34t35.5 10h192z" />
    <glyph glyph-name="v" unicode="v" horiz-adv-x="1016" 
d="M326 0q-23 0 -37 9.5t-25 30.5q-26 55 -47.5 127t-39 152.5t-30.5 165t-21.5 165.5t-13 154.5t-4.5 131.5q0 23 9.5 33.5t32.5 10.5h196q44 0 44 -44q1 -87 5.5 -183t14 -189.5t24.5 -178.5t36 -149q43 69 85 154.5t80.5 178.5t72.5 187.5t62 181.5q8 23 21 32.5t37 9.5
h186q34 0 34 -24q0 -5 -1 -9t-3 -9q-40 -118 -89 -242.5t-105.5 -243.5t-118.5 -226.5t-127 -191.5q-15 -18 -31 -26t-39 -8h-208z" />
    <glyph glyph-name="w" unicode="w" horiz-adv-x="1584" 
d="M288 0q-23 0 -35.5 9.5t-20.5 32.5q-26 84 -46 184.5t-34.5 214.5t-22 238.5t-7.5 256.5q0 44 44 44h192q45 0 42 -44q-4 -86 -3 -176.5t6 -177.5t13.5 -166.5t19.5 -143.5q34 64 73 144t78 167t76 178t67 177q8 23 21 32.5t37 9.5h160q23 0 33.5 -10t12.5 -34
q3 -86 10.5 -175.5t18 -176.5t22.5 -166.5t25 -143.5q34 65 67.5 144.5t64.5 166.5t58.5 177t49.5 176q6 23 18 32.5t36 9.5h188q34 0 34 -26q0 -3 -0.5 -8t-3.5 -16q-33 -115 -77 -237t-94.5 -240t-105 -225t-107.5 -192q-12 -20 -27.5 -28t-38.5 -8h-172q-24 0 -37 9.5
t-19 32.5q-18 63 -34 133t-28 141.5t-20 141.5t-10 132q-26 -65 -57.5 -136t-67 -142.5t-74 -141t-77.5 -132.5q-14 -21 -29 -29.5t-39 -8.5h-180z" />
    <glyph glyph-name="x" unicode="x" horiz-adv-x="1002" 
d="M10 0q-30 0 -30 22q0 5 2 11.5t8 18.5q27 53 65.5 109t84.5 112t98 111t106 106q-75 104 -127.5 217.5t-76.5 228.5q-9 44 36 44h202q26 0 37.5 -10t16.5 -34q14 -69 39 -138.5t63 -135.5q62 65 114.5 134.5t91.5 143.5q12 23 26 31.5t40 8.5h192q15 0 22.5 -6.5
t7.5 -17.5q0 -5 -1.5 -12t-6.5 -16q-27 -54 -65 -111t-83 -113.5t-96 -111.5t-104 -104q77 -103 130 -215.5t76 -228.5q6 -44 -36 -44h-204q-24 0 -36 9.5t-18 32.5q-15 72 -39.5 141t-66.5 137q-63 -66 -117.5 -137t-96.5 -145q-12 -21 -26 -29.5t-40 -8.5h-188z" />
    <glyph glyph-name="y" unicode="y" horiz-adv-x="1122" 
d="M1016 980q44 0 38 -44l-140 -882q-39 -245 -172.5 -359.5t-365.5 -114.5q-69 0 -123 9t-95 22.5t-71 30t-51 32.5q-33 27 -8 64l76 104q15 20 28.5 22.5t33.5 -12.5q32 -23 77 -40.5t113 -17.5q74 0 124 24t82.5 64.5t50 94.5t27.5 115l6 38q-44 -71 -112.5 -110.5
t-165.5 -39.5q-80 0 -133.5 24t-85.5 63t-45.5 89.5t-13.5 103.5q0 16 1 39t3 47.5t4.5 48.5t5.5 41l80 500q3 24 14.5 34t35.5 10h192q44 0 38 -44l-82 -510q-2 -13 -3.5 -27t-2.5 -27.5t-1.5 -24.5t-0.5 -17q0 -23 5 -45.5t17 -41t32.5 -30t51.5 -11.5q29 0 62.5 13.5
t64.5 47.5t57 92t40 147l70 434q3 24 14.5 34t35.5 10h192z" />
    <glyph glyph-name="z" unicode="z" horiz-adv-x="928" 
d="M790 214q44 0 38 -44l-20 -126q-3 -24 -14.5 -34t-35.5 -10h-746q-20 0 -28 9.5t-8 26.5q0 3 0.5 11.5t3.5 28.5l8 58q3 18 11.5 37.5t20.5 34.5q29 37 72 84.5t93.5 99t104.5 105t104 103t92.5 93t71.5 75.5h-402q-44 0 -38 44l22 126q3 24 14.5 34t35.5 10h700
q20 0 28 -9.5t8 -26.5q0 -3 -0.5 -11.5t-3.5 -28.5l-8 -58q-3 -18 -11.5 -37.5t-20.5 -34.5q-29 -38 -72 -85t-93.5 -98.5t-104.5 -105t-104 -103t-93 -93t-71 -75.5h446z" />
    <glyph glyph-name="braceleft" unicode="{" horiz-adv-x="630" 
d="M92 558q-32 3 -32 34v9t2 15l10 72q3 23 13 29.5t31 8.5q74 5 112 72.5t58 191.5l20 130q17 109 53.5 185t86.5 115q28 22 61 34.5t67.5 18t68.5 6.5t65 1h24q20 0 28 -8.5t8 -25.5v-9t-2 -15l-10 -72q-5 -24 -15.5 -31t-34.5 -7h-12q-63 0 -92 -32q-12 -14 -28.5 -50
t-27.5 -104l-20 -126q-8 -52 -18 -93.5t-22 -76t-26.5 -62.5t-33.5 -52q-21 -27 -46 -48t-54 -38q48 -36 72 -89.5t24 -128.5q0 -33 -4 -74.5t-12 -89.5l-16 -98q-6 -45 -6 -74q0 -48 21.5 -76t74.5 -28h12q20 0 28 -8.5t8 -25.5v-9t-2 -15l-10 -72q-5 -24 -15.5 -31
t-34.5 -7h-24q-64 0 -118 14.5t-93 46t-61 80.5t-22 119q0 26 2.5 56t7.5 62l18 116q5 33 7.5 62t2.5 56q0 69 -21.5 103t-72.5 39z" />
    <glyph glyph-name="bar" unicode="|" horiz-adv-x="620" 
d="M528 1480q20 0 28 -9.5t8 -26.5v-9.5t-2 -14.5l-252 -1576q-5 -24 -15.5 -32t-34.5 -8h-116q-20 0 -28 9.5t-8 26.5v9.5t2 14.5l252 1576q5 24 15.5 32t34.5 8h116z" />
    <glyph glyph-name="braceright" unicode="}" horiz-adv-x="630" 
d="M586 726q32 -3 32 -34v-9t-2 -15l-10 -72q-3 -23 -13 -29.5t-31 -8.5q-74 -5 -112 -72.5t-58 -191.5l-20 -130q-17 -109 -53.5 -185t-86.5 -115q-29 -23 -61.5 -35t-67 -17.5t-68.5 -6.5t-65 -1h-24q-20 0 -28 8.5t-8 25.5v9t2 15l10 72q5 24 15.5 31t34.5 7h12
q63 0 92 32q12 14 28.5 50t27.5 104l20 126q8 52 17.5 93.5t21.5 76t27 62.5t34 52q21 27 46 48t54 38q-48 36 -72 89.5t-24 128.5q0 33 4 74.5t12 89.5l16 98q6 45 6 74q0 48 -21.5 76t-74.5 28h-12q-20 0 -28 8.5t-8 25.5v9t2 15l10 72q5 24 15.5 31t34.5 7h24
q64 0 118 -14.5t93 -46t61 -80.5t22 -119q0 -26 -2.5 -56t-7.5 -62l-18 -116q-5 -33 -7.5 -62t-2.5 -56q0 -69 21.5 -103t72.5 -39z" />
    <glyph glyph-name="asciitilde" unicode="~" 
d="M760 308q-55 0 -101.5 24t-87.5 53t-78 53t-71 24q-47 0 -81.5 -32t-64.5 -80q-8 -14 -16.5 -18t-17.5 -4q-8 0 -15 2.5t-13 5.5l-68 36q-28 14 -28 36q0 8 8 24q24 49 57.5 90.5t74 72t87.5 48t97 17.5q55 0 101.5 -24t87.5 -53t77.5 -53t71.5 -24q47 0 81.5 32t64.5 80
q8 14 16.5 18t17.5 4q8 0 15 -2.5t13 -5.5l68 -36q28 -14 28 -36q0 -8 -8 -24q-24 -49 -57.5 -90.5t-74 -72t-87.5 -48t-97 -17.5z" />
    <glyph glyph-name="uni00A0" unicode="&#xa0;" horiz-adv-x="460" 
 />
    <glyph glyph-name="exclamdown" unicode="&#xa1;" horiz-adv-x="650" 
d="M28 -344q-44 0 -32 42l240 788q6 23 19 32.5t37 9.5h50q44 0 44 -44l-12 -784q0 -44 -44 -44h-302zM548 844q0 -40 -15.5 -75t-42.5 -61t-64 -41t-80 -15q-37 0 -67 11.5t-51 32.5t-32.5 49.5t-11.5 62.5q0 40 15.5 75t42.5 61t64 41t80 15q37 0 67 -11.5t51 -32.5
t32.5 -49.5t11.5 -62.5z" />
    <glyph glyph-name="cent" unicode="&#xa2;" 
d="M552 -128q-44 0 -38 44l16 106q-83 7 -150 38t-114.5 84.5t-73.5 129t-26 172.5q0 108 33.5 209.5t100 182t165 133t229.5 63.5l18 110q3 24 14.5 34t35.5 10h74q44 0 38 -44l-18 -114q124 -18 202 -78q33 -27 8 -62l-72 -98q-15 -21 -30 -23.5t-36 9.5q-26 15 -54 26.5
t-58 17.5l-92 -586q65 19 124 62q38 26 58 -14l56 -98q21 -39 -14 -62q-57 -39 -122.5 -62t-131.5 -34l-18 -112q-3 -24 -14.5 -34t-35.5 -10h-74zM666 822q-56 -17 -97 -54.5t-68.5 -87t-41 -108t-13.5 -118.5q0 -38 6 -73t21 -63.5t39 -49t60 -30.5z" />
    <glyph glyph-name="sterling" unicode="&#xa3;" 
d="M180 550q-44 0 -38 44l18 114q3 24 14.5 34t35.5 10h92q-5 30 -7.5 60.5t-2.5 63.5q0 115 34.5 203t98.5 146.5t155 88.5t204 30q128 0 221.5 -32.5t150.5 -77.5q35 -26 10 -64l-84 -114q-15 -20 -27.5 -21.5t-32.5 13.5q-42 32 -102.5 52t-131.5 20q-118 0 -171 -63.5
t-53 -194.5q0 -47 6 -110h350q44 0 38 -44l-18 -114q-3 -24 -14.5 -34t-35.5 -10h-300v-32q0 -56 -12.5 -103t-34 -84.5t-50.5 -66t-61 -48.5h530q45 0 36 -44l-20 -128q-5 -24 -16.5 -34t-35.5 -10h-800q-44 0 -38 44l18 112q5 27 14.5 40.5t33.5 25.5q35 19 67.5 44.5
t57.5 59.5t40 76t15 94q0 15 -1 30.5t-3 23.5h-150z" />
    <glyph glyph-name="currency" unicode="&#xa4;" 
d="M424 1052q50 26 108 40t124 14q141 0 230 -52l114 100q17 17 31 16t31 -18l64 -72q17 -17 16 -31t-18 -31l-110 -96q23 -45 33.5 -98t10.5 -110q0 -86 -30.5 -169.5t-87.5 -152.5l84 -102q15 -18 13.5 -32.5t-19.5 -31.5l-80 -70q-18 -17 -32.5 -15.5t-29.5 19.5l-88 108
q-51 -26 -108.5 -39t-123.5 -13q-72 0 -129.5 13t-102.5 37l-112 -98q-17 -17 -31 -16t-31 18l-64 72q-17 17 -16 31t18 31l110 96q-23 45 -33.5 97t-10.5 111q0 86 29.5 169.5t86.5 152.5l-82 102q-15 18 -13.5 32.5t19.5 31.5l80 70q18 17 32.5 15.5t29.5 -19.5zM404 616
q0 -84 40 -135t126 -51q56 0 100.5 23.5t75 62.5t46.5 88.5t16 101.5q0 84 -40.5 135t-125.5 51q-56 0 -100.5 -23.5t-75 -62.5t-46.5 -88.5t-16 -101.5z" />
    <glyph glyph-name="yen" unicode="&#xa5;" 
d="M136 484q-44 0 -38 44l16 88q3 24 14.5 34t35.5 10h182q-56 143 -99.5 303t-66.5 317q-6 44 38 44h186q24 0 34.5 -10t13.5 -34q15 -143 51.5 -297t96.5 -323q50 75 98 153.5t91.5 158t82 158t70.5 154.5q9 23 22.5 31.5t37.5 8.5h200q15 0 21.5 -6.5t6.5 -17.5
q0 -10 -6 -22q-38 -79 -80 -159t-88 -158.5t-95 -154.5t-99 -146h182q44 0 38 -44l-16 -88q-3 -24 -14.5 -34t-35.5 -10h-298l-24 -150h298q44 0 38 -44l-16 -88q-3 -24 -14.5 -34t-35.5 -10h-298l-18 -114q-3 -24 -14.5 -34t-35.5 -10h-196q-44 0 -38 44l18 114h-298
q-20 0 -29 6.5t-9 23.5v6.5t2 15.5l14 84q3 24 14.5 32t35.5 8h298l24 150h-298z" />
    <glyph glyph-name="brokenbar" unicode="&#xa6;" horiz-adv-x="620" 
d="M362 444q20 0 28 -9.5t8 -26.5v-9.5t-2 -14.5l-86 -540q-5 -24 -15.5 -32t-34.5 -8h-116q-20 0 -28 9.5t-8 26.5v9.5t2 14.5l86 540q5 24 15.5 32t34.5 8h116zM528 1480q20 0 28 -9.5t8 -26.5v-9.5t-2 -14.5l-86 -540q-5 -24 -15.5 -32t-34.5 -8h-116q-20 0 -28 9.5
t-8 26.5v9.5t2 14.5l86 540q5 24 15.5 32t34.5 8h116z" />
    <glyph glyph-name="section" unicode="&#xa7;" horiz-adv-x="1120" 
d="M870 -4q0 -91 -38 -160.5t-103.5 -117t-154 -72t-188.5 -24.5q-56 0 -109 7t-100.5 19t-87.5 28t-69 34q-17 11 -20 26t8 32l82 118q15 20 29 23t35 -11q42 -27 104 -47.5t136 -20.5q46 0 85 9.5t67.5 27.5t45 45t16.5 62q0 36 -17 59t-46 39t-68 28t-83 26t-96 35.5
t-97 57.5t-75 89.5t-30 133.5q0 55 16 103.5t46 88.5t72 71t94 53q-42 36 -67 86.5t-25 125.5q0 91 38 160.5t103.5 117t153 72t187.5 24.5q52 0 102 -6.5t95 -17.5t83 -26t66 -32q18 -11 21.5 -26t-7.5 -32l-82 -118q-15 -20 -29 -23t-35 11q-41 26 -98.5 44t-123.5 18
q-45 0 -84 -9.5t-67.5 -27.5t-44.5 -45t-16 -62q0 -36 17 -59t46 -39t68 -28t83 -26t96 -35.5t97 -57.5t75 -90t30 -133q0 -56 -16.5 -104.5t-46.5 -88t-72.5 -70.5t-94.5 -53q44 -35 69 -86t25 -126zM760 482q0 39 -16.5 65.5t-43 44.5t-59.5 30t-65 22q-20 6 -44.5 13.5
t-47.5 16.5q-32 -11 -58 -30.5t-44.5 -45t-29 -54.5t-10.5 -60q0 -39 16.5 -65.5t43 -44.5t59.5 -30t65 -22q20 -6 44.5 -13.5t47.5 -16.5q31 11 57.5 30.5t45 45t29 54.5t10.5 60z" />
    <glyph glyph-name="dieresis" unicode="&#xa8;" horiz-adv-x="848" 
d="M492 1256q0 -33 -12 -62t-33 -51t-49.5 -34.5t-61.5 -12.5q-57 0 -91.5 35.5t-34.5 92.5q0 33 12 62t33 51t49.5 34.5t61.5 12.5q57 0 91.5 -35.5t34.5 -92.5zM858 1256q0 -33 -12 -62t-33 -51t-49.5 -34.5t-61.5 -12.5q-57 0 -91.5 35.5t-34.5 92.5q0 33 12 62t33 51
t49.5 34.5t61.5 12.5q57 0 91.5 -35.5t34.5 -92.5z" />
    <glyph glyph-name="copyright" unicode="&#xa9;" horiz-adv-x="1492" 
d="M946 356q-53 -36 -116 -54t-126 -18q-67 0 -120 20t-90.5 59.5t-57.5 97.5t-20 135q0 86 26 166.5t77 142t128 98.5t179 37q60 0 109 -14t87 -40q37 -25 12 -60l-36 -52q-14 -20 -27.5 -23t-34.5 11q-23 14 -50 23t-62 9q-62 0 -106.5 -27t-73 -69t-41.5 -93.5
t-13 -100.5q0 -38 8 -69.5t25 -54t43.5 -35.5t63.5 -13q35 0 70.5 11t65.5 29q21 14 34.5 10.5t27.5 -24.5l30 -42q24 -36 -12 -60zM242 582q0 -93 23 -178.5t75.5 -151.5t136 -105t205.5 -39q142 0 251 53t182.5 141.5t111 203t37.5 236.5q0 93 -23 178.5t-75.5 151.5
t-136.5 105t-205 39q-143 0 -251.5 -53t-182 -141.5t-111 -203t-37.5 -236.5zM1410 756q0 -98 -22 -194t-64.5 -182.5t-106 -159.5t-146 -126.5t-183.5 -83.5t-220 -30q-152 0 -260 47.5t-177.5 128.5t-102 187t-32.5 223q0 99 22 194.5t64.5 182t106 160t146 127t183.5 84
t220 30.5q151 0 259.5 -48t178 -129t102 -187.5t32.5 -223.5z" />
    <glyph glyph-name="ordfeminine" unicode="&#xaa;" horiz-adv-x="768" 
d="M780 1442q44 0 38 -44l-96 -598q-3 -24 -14.5 -34t-35.5 -10h-98q-45 0 -36 44l10 60q-27 -56 -80 -87t-122 -31q-106 0 -166 75t-60 215q0 84 22.5 160.5t64.5 135t101 93.5t132 35q68 0 111.5 -26.5t66.5 -61.5l4 30q5 24 16.5 34t35.5 10h106zM320 1042
q0 -77 26.5 -113.5t79.5 -36.5q18 0 39.5 6t42 27t38 60t28.5 105l24 152q-12 26 -40.5 44t-67.5 18q-45 0 -77 -24t-53 -61.5t-30.5 -84t-9.5 -92.5z" />
    <glyph glyph-name="guillemotleft" unicode="&#xab;" horiz-adv-x="990" 
d="M330 132q-8 -5 -15 -6.5t-13 -1.5q-21 0 -36 24l-192 344q-10 20 -10 34q0 22 18 40l314 354q9 9 17 13.5t19 4.5q6 0 13.5 -2.5t18.5 -13.5l60 -56q12 -11 15 -21.5t1.5 -19t-5.5 -15t-7 -10.5l-222 -282l126 -278q9 -21 4.5 -35.5t-24.5 -26.5zM738 132q-8 -5 -15 -6.5
t-13 -1.5q-21 0 -36 24l-192 344q-10 20 -10 34q0 22 18 40l314 354q9 9 17 13.5t19 4.5q6 0 13.5 -2.5t18.5 -13.5l60 -56q12 -11 15 -21.5t1.5 -19t-5.5 -15t-7 -10.5l-222 -282l126 -278q9 -21 4.5 -35.5t-24.5 -26.5z" />
    <glyph glyph-name="logicalnot" unicode="&#xac;" 
d="M980 44q-5 -24 -16.5 -34t-35.5 -10h-124q-44 0 -38 44l56 346h-662q-20 0 -28 8.5t-8 25.5v9t2 15l14 92q5 24 15.5 31t34.5 7h832q20 0 28 -8.5t8 -25.5v-9t-2 -15z" />
    <glyph glyph-name="uni00AD" unicode="&#xad;" horiz-adv-x="726" 
d="M630 680q20 0 28 -8.5t8 -25.5v-9t-2 -15l-22 -136q-5 -24 -15.5 -31t-34.5 -7h-480q-20 0 -28 8.5t-8 25.5v9t2 15l22 136q5 24 15.5 31t34.5 7h480z" />
    <glyph glyph-name="registered" unicode="&#xae;" horiz-adv-x="1256" 
d="M426 532q-44 0 -38 44l90 560q3 24 14.5 34t35.5 10h158q69 0 117.5 -13t79.5 -36t45 -55.5t14 -71.5q0 -65 -35 -119t-103 -93q14 -18 28.5 -43.5t27 -54t23 -59.5t17.5 -59q9 -44 -34 -44h-100q-26 0 -37 9t-17 35q-6 22 -14 45.5t-17 45.5t-19 41t-20 32h-58l-26 -164
q-3 -24 -14.5 -34t-35.5 -10h-82zM606 872h48q45 0 76.5 25.5t31.5 72.5q0 29 -15.5 49.5t-56.5 20.5h-58zM218 784q0 -82 20.5 -157t66.5 -132.5t120 -92t181 -34.5q125 0 221 47t160.5 125t97.5 179t33 209q0 82 -20.5 157t-66.5 132.5t-120 92t-181 34.5q-125 0 -221 -47
t-160.5 -125t-97.5 -179t-33 -209zM1246 930q0 -83 -18.5 -165.5t-55.5 -157.5t-91 -139t-125.5 -111.5t-159.5 -74t-192 -26.5q-134 0 -231 43.5t-160 116t-93 167.5t-30 199q0 83 18.5 165.5t55.5 157.5t91 139t125.5 111.5t159.5 74t192 26.5q134 0 231 -43.5t160 -116
t93 -168t30 -198.5z" />
    <glyph glyph-name="macron" unicode="&#xaf;" horiz-adv-x="750" 
d="M716 1328q20 0 28 -8.5t8 -25.5q0 -3 -0.5 -10.5t-3.5 -27.5l-12 -74q-5 -24 -15.5 -31t-34.5 -7h-432q-20 0 -28 8.5t-8 25.5q0 3 0.5 10.5t3.5 27.5l12 74q5 24 15.5 31t34.5 7h432z" />
    <glyph glyph-name="degree" unicode="&#xb0;" horiz-adv-x="688" 
d="M286 1014q0 -53 27.5 -83.5t78.5 -30.5q36 0 65 15t50 39t32 55.5t11 64.5q0 53 -27.5 83.5t-78.5 30.5q-36 0 -65 -15t-50 -39t-32 -55.5t-11 -64.5zM716 1086q0 -64 -22.5 -125.5t-65.5 -109.5t-105.5 -77.5t-142.5 -29.5q-66 0 -115 20.5t-81 55.5t-48 82t-16 100
q0 64 22.5 125.5t65.5 109.5t105.5 77.5t142.5 29.5q66 0 115 -20.5t81 -55.5t48 -82t16 -100z" />
    <glyph glyph-name="plusminus" unicode="&#xb1;" 
d="M970 188q20 0 28 -8.5t8 -25.5v-9t-2 -15l-14 -92q-5 -24 -15.5 -31t-34.5 -7h-852q-20 0 -28 8.5t-8 25.5v9t2 15l14 92q5 24 15.5 31t34.5 7h852zM532 798l44 266q5 24 16.5 34t35.5 10h124q45 0 36 -44l-44 -266h322q20 0 28 -8.5t8 -25.5v-9t-2 -15l-14 -92
q-5 -24 -15.5 -31t-34.5 -7h-322l-40 -266q-3 -24 -14.5 -34t-35.5 -10h-124q-44 0 -38 44l40 266h-318q-20 0 -28 8.5t-8 25.5v9t2 15l14 92q5 24 15.5 31t34.5 7h318z" />
    <glyph glyph-name="twosuperior" unicode="&#xb2;" horiz-adv-x="780" 
d="M126 620q8 58 30 104.5t57.5 85.5t84 73t110.5 67q23 13 49 27.5t48 33t36.5 41.5t14.5 52q0 33 -20.5 52.5t-65.5 19.5q-36 0 -73 -13t-69 -37q-37 -26 -54 14l-30 60q-19 41 18 64q44 29 104.5 50.5t137.5 21.5q65 0 112.5 -17t78.5 -46.5t46 -70t15 -86.5
q0 -52 -18 -92.5t-51.5 -76t-82.5 -68t-110 -67.5q-14 -8 -36.5 -21t-44 -27.5t-38 -29t-19.5 -26.5h312q44 0 38 -44l-12 -66q-5 -24 -15.5 -33t-34.5 -9h-482q-23 0 -32 13.5t-6 36.5z" />
    <glyph glyph-name="threesuperior" unicode="&#xb3;" horiz-adv-x="780" 
d="M704 834q0 -58 -23 -110.5t-67 -92.5t-108.5 -63.5t-147.5 -23.5q-80 0 -134 20.5t-90 47.5q-34 28 -6 62l52 66q15 18 29.5 19.5t34.5 -13.5q21 -17 50.5 -29.5t73.5 -12.5q35 0 61 10t42.5 26.5t24.5 37.5t8 44q0 92 -128 92h-8q-17 0 -23.5 3t-12.5 9l-32 38
q-15 18 -14 32.5t18 31.5l160 144h-192q-44 0 -38 44l12 64q3 24 14.5 34t35.5 10h396q23 0 32 -8.5t6 -31.5l-6 -36q-5 -24 -13 -37.5t-25 -30.5l-48 -46q-41 -39 -76 -64t-58 -36q53 -5 91 -22.5t62 -44t35.5 -60.5t11.5 -73z" />
    <glyph glyph-name="acute" unicode="&#xb4;" horiz-adv-x="652" 
d="M488 1434q14 14 22 17t14 3q11 0 18.5 -5.5t15.5 -14.5l78 -104q10 -13 10 -26q0 -18 -22 -32l-294 -182q-17 -10 -30 -10q-11 0 -19 5.5t-17 16.5l-26 32q-14 17 -14 32q0 19 18 34z" />
    <glyph glyph-name="mu" unicode="&#xb5;" horiz-adv-x="1142" 
d="M204 936q5 24 15.5 34t34.5 10h192q44 0 38 -44l-82 -510q-2 -13 -3.5 -27t-2.5 -27.5t-1.5 -24.5t-0.5 -17q0 -23 5 -45.5t17 -41t32.5 -30t51.5 -11.5q29 0 62.5 13.5t64.5 47.5t57 92t40 147l70 434q3 24 14.5 34t35.5 10h192q20 0 28 -9.5t8 -26.5v-9.5t-2 -14.5
l-140 -876q-5 -24 -15.5 -34t-34.5 -10h-170q-44 0 -38 44l18 106q-24 -37 -53 -68t-62.5 -53.5t-71.5 -35.5t-81 -13q-45 0 -70 12.5t-42 29.5q6 -36 3 -99.5t-15 -140.5l-22 -138q-3 -24 -14.5 -34t-35.5 -10h-190q-20 0 -28 9.5t-8 26.5v9.5t2 14.5z" />
    <glyph glyph-name="paragraph" unicode="&#xb6;" horiz-adv-x="1232" 
d="M678 -240q-44 0 -38 44l210 1322h-174l-210 -1322q-3 -24 -14.5 -34t-35.5 -10h-134q-44 0 -38 44l132 830q-77 12 -127.5 38t-81 63t-43 84t-12.5 101q0 96 34.5 171t96.5 127t148.5 79t190.5 27h636q38 0 38 -34q0 -3 -1 -13t-3 -21l-14 -86q-3 -24 -14.5 -34
t-35.5 -10h-116l-210 -1322q-3 -24 -14.5 -34t-35.5 -10h-134z" />
    <glyph glyph-name="periodcentered" unicode="&#xb7;" horiz-adv-x="496" 
d="M430 604q0 -43 -15.5 -80.5t-42.5 -65.5t-63.5 -44t-78.5 -16q-37 0 -67 12.5t-51 34.5t-32.5 52.5t-11.5 66.5q0 43 15.5 80.5t42.5 65.5t63.5 44t78.5 16q37 0 67 -12.5t51 -34.5t32.5 -52.5t11.5 -66.5z" />
    <glyph glyph-name="cedilla" unicode="&#xb8;" horiz-adv-x="644" 
d="M294 0l-68 -88q12 5 28 6.5t30 1.5q71 0 110.5 -37t39.5 -103q0 -43 -17.5 -80t-50.5 -64.5t-80 -43.5t-106 -16q-47 0 -88 10.5t-70 31.5q-17 11 -19.5 27t9.5 33l18 26q15 23 27.5 25.5t36.5 -9.5q20 -11 41.5 -15.5t42.5 -4.5q44 0 67 18t23 50q0 21 -14 35.5
t-52 14.5q-9 0 -20 -1t-22 -3q-21 -3 -33 0t-27 18q-12 12 -13.5 23t9.5 25l88 120h110z" />
    <glyph glyph-name="onesuperior" unicode="&#xb9;" horiz-adv-x="780" 
d="M648 708q21 0 29.5 -10t8.5 -28q0 -3 -0.5 -10.5t-3.5 -25.5l-6 -38q-3 -24 -14.5 -32t-35.5 -8h-420q-21 0 -29.5 10t-8.5 28q0 3 0.5 10.5t3.5 27.5l6 36q3 24 14.5 32t35.5 8h114l68 424l-102 -50q-40 -20 -52 22l-16 54q-6 23 0.5 37t27.5 23l196 88q39 18 84 18h52
q44 0 38 -44l-92 -572h102z" />
    <glyph glyph-name="ordmasculine" unicode="&#xba;" horiz-adv-x="768" 
d="M322 1044q0 -72 26.5 -115t83.5 -43q43 0 75.5 23.5t54.5 61.5t33 85.5t11 95.5q0 72 -26.5 115t-83.5 43q-43 0 -75.5 -23.5t-54.5 -61.5t-33 -85.5t-11 -95.5zM808 1150q0 -78 -24 -152t-72 -131t-120.5 -92t-169.5 -35q-76 0 -132.5 22t-94 62t-56.5 96.5t-19 125.5
q0 78 24 152t72 131t120.5 92t169.5 35q76 0 132.5 -22t94 -62t56.5 -96.5t19 -125.5z" />
    <glyph glyph-name="guillemotright" unicode="&#xbb;" horiz-adv-x="990" 
d="M252 932q8 5 15 6.5t13 1.5q21 0 36 -24l192 -344q10 -20 10 -34q0 -22 -18 -40l-314 -354q-9 -9 -17 -13.5t-19 -4.5q-6 0 -13.5 2.5t-18.5 13.5l-60 56q-12 11 -15.5 21.5t-2 19t6 15t7.5 10.5l222 282l-126 278q-9 21 -4.5 35.5t24.5 26.5zM660 932q8 5 15 6.5t13 1.5
q21 0 36 -24l192 -344q10 -20 10 -34q0 -22 -18 -40l-314 -354q-9 -9 -17 -13.5t-19 -4.5q-6 0 -13.5 2.5t-18.5 13.5l-60 56q-12 11 -15.5 21.5t-2 19t6 15t7.5 10.5l222 282l-126 278q-9 21 -4.5 35.5t24.5 26.5z" />
    <glyph glyph-name="onequarter" unicode="&#xbc;" horiz-adv-x="1832" 
d="M648 708q21 0 29.5 -10t8.5 -28q0 -3 -0.5 -10.5t-3.5 -25.5l-6 -38q-3 -24 -14.5 -32t-35.5 -8h-420q-21 0 -29.5 10t-8.5 28q0 3 0.5 10.5t3.5 27.5l6 36q3 24 14.5 32t35.5 8h114l68 424l-102 -50q-40 -20 -52 22l-16 54q-6 23 0.5 37t27.5 23l196 88q39 18 84 18h52
q44 0 38 -44l-92 -572h102zM1300 1288q14 18 31 27t41 9h130q12 0 18 -5t6 -13q0 -9 -8 -20l-986 -1250q-15 -18 -31.5 -27t-40.5 -9h-130q-12 0 -18 5t-6 13q0 9 8 20zM1112 150q-21 0 -29.5 7t-8.5 21q0 6 1 15.5t3 20.5l4 22q5 23 11.5 42.5t20.5 37.5l290 416
q15 20 30.5 28t39.5 8h116q20 0 25 -9.5t-7 -26.5l-306 -436h172l28 178q3 24 14.5 34t35.5 10h100q44 0 38 -44l-28 -178h50q21 0 29.5 -7t8.5 -21q0 -6 -1 -15.5t-3 -20.5l-6 -38q-3 -24 -14.5 -34t-35.5 -10h-52l-18 -106q-3 -24 -14.5 -34t-35.5 -10h-100q-44 0 -38 44
l18 106h-338v0z" />
    <glyph glyph-name="onehalf" unicode="&#xbd;" horiz-adv-x="1832" 
d="M648 708q21 0 29.5 -10t8.5 -28q0 -3 -0.5 -10.5t-3.5 -25.5l-6 -38q-3 -24 -14.5 -32t-35.5 -8h-420q-21 0 -29.5 10t-8.5 28q0 3 0.5 10.5t3.5 27.5l6 36q3 24 14.5 32t35.5 8h114l68 424l-102 -50q-40 -20 -52 22l-16 54q-6 23 0.5 37t27.5 23l196 88q39 18 84 18h52
q44 0 38 -44l-92 -572h102zM1300 1288q14 18 31 27t41 9h130q12 0 18 -5t6 -13q0 -9 -8 -20l-986 -1250q-15 -18 -31.5 -27t-40.5 -9h-130q-12 0 -18 5t-6 13q0 9 8 20zM1090 64q8 58 30 104.5t57.5 85.5t84 73t110.5 67q23 13 49 27.5t48 33t36.5 41.5t14.5 52
q0 33 -20.5 52.5t-65.5 19.5q-36 0 -73 -13t-69 -37q-37 -26 -54 14l-30 60q-19 41 18 64q44 29 104.5 50.5t137.5 21.5q65 0 112.5 -17t78.5 -46.5t46 -70t15 -86.5q0 -52 -18 -92.5t-51.5 -76t-82.5 -68t-110 -67.5q-14 -8 -36.5 -21t-44 -27.5t-38 -29t-19.5 -26.5h312
q44 0 38 -44l-12 -66q-5 -24 -15.5 -33t-34.5 -9h-482q-23 0 -32 13.5t-6 36.5z" />
    <glyph glyph-name="threequarters" unicode="&#xbe;" horiz-adv-x="1832" 
d="M704 834q0 -58 -23 -110.5t-67 -92.5t-108.5 -63.5t-147.5 -23.5q-80 0 -134 20.5t-90 47.5q-34 28 -6 62l52 66q15 18 29.5 19.5t34.5 -13.5q21 -17 50.5 -29.5t73.5 -12.5q35 0 61 10t42.5 26.5t24.5 37.5t8 44q0 92 -128 92h-8q-17 0 -23.5 3t-12.5 9l-32 38
q-15 18 -14 32.5t18 31.5l160 144h-192q-44 0 -38 44l12 64q3 24 14.5 34t35.5 10h396q23 0 32 -8.5t6 -31.5l-6 -36q-5 -24 -13 -37.5t-25 -30.5l-48 -46q-41 -39 -76 -64t-58 -36q53 -5 91 -22.5t62 -44t35.5 -60.5t11.5 -73zM1300 1288q14 18 31 27t41 9h130q12 0 18 -5
t6 -13q0 -9 -8 -20l-986 -1250q-15 -18 -31.5 -27t-40.5 -9h-130q-12 0 -18 5t-6 13q0 9 8 20zM1112 150q-21 0 -29.5 7t-8.5 21q0 6 1 15.5t3 20.5l4 22q5 23 11.5 42.5t20.5 37.5l290 416q15 20 30.5 28t39.5 8h116q20 0 25 -9.5t-7 -26.5l-306 -436h172l28 178
q3 24 14.5 34t35.5 10h100q44 0 38 -44l-28 -178h50q21 0 29.5 -7t8.5 -21q0 -6 -1 -15.5t-3 -20.5l-6 -38q-3 -24 -14.5 -34t-35.5 -10h-52l-18 -106q-3 -24 -14.5 -34t-35.5 -10h-100q-44 0 -38 44l18 106h-338v0z" />
    <glyph glyph-name="questiondown" unicode="&#xbf;" horiz-adv-x="760" 
d="M674 844q0 -40 -15.5 -75t-42.5 -61t-64 -41t-80 -15q-37 0 -67 11.5t-51 32.5t-32.5 49.5t-11.5 62.5q0 40 15.5 75t42.5 61t64 41t80 15q37 0 67 -11.5t51 -32.5t32.5 -49.5t11.5 -62.5zM652 -242q-32 -23 -73 -45t-91 -39t-109.5 -27.5t-126.5 -10.5
q-95 0 -165.5 22.5t-117 61.5t-69 93t-22.5 117q0 69 24.5 123t63 97.5t85.5 78t91 63.5q43 28 77.5 52t62.5 50t49.5 58t38.5 78q9 24 21.5 33t38.5 9h48q44 0 44 -44v-64q0 -71 -17.5 -120t-46 -84.5t-65 -62t-75.5 -51.5q-26 -17 -52 -36t-47.5 -41.5t-35 -49
t-13.5 -57.5q0 -47 33 -68.5t95 -21.5q71 0 134 24t116 62q20 14 32.5 10.5t23.5 -24.5l62 -122q21 -38 -14 -64z" />
    <glyph glyph-name="Agrave" unicode="&#xc0;" horiz-adv-x="1270" 
d="M-2 0q-32 0 -32 24q0 5 1.5 10.5t6.5 17.5q62 166 135.5 331t153 322t161.5 303.5t162 277.5q14 21 29 29.5t39 8.5h210q24 0 37 -9.5t19 -32.5q81 -266 139 -578.5t93 -659.5q3 -44 -40 -44h-208q-23 0 -33.5 10t-12.5 34q-3 59 -8 115.5t-14 116.5h-480
q-51 -117 -96 -234q-8 -23 -21 -32.5t-37 -9.5h-204zM804 504q-18 139 -40.5 275.5t-51.5 258.5q-69 -119 -136.5 -256.5t-127.5 -277.5h356zM894 1530q18 -15 18 -34q0 -15 -14 -32l-26 -32q-9 -11 -17 -16.5t-19 -5.5q-13 0 -30 10l-294 182q-22 14 -22 32q0 13 10 26
l80 106q8 9 15.5 14.5t18.5 5.5q6 0 14 -3t22 -17z" />
    <glyph glyph-name="Aacute" unicode="&#xc1;" horiz-adv-x="1270" 
d="M-2 0q-32 0 -32 24q0 5 1.5 10.5t6.5 17.5q62 166 135.5 331t153 322t161.5 303.5t162 277.5q14 21 29 29.5t39 8.5h210q24 0 37 -9.5t19 -32.5q81 -266 139 -578.5t93 -659.5q3 -44 -40 -44h-208q-23 0 -33.5 10t-12.5 34q-3 59 -8 115.5t-14 116.5h-480
q-51 -117 -96 -234q-8 -23 -21 -32.5t-37 -9.5h-204zM804 504q-18 139 -40.5 275.5t-51.5 258.5q-69 -119 -136.5 -256.5t-127.5 -277.5h356zM882 1764q14 14 22 17t14 3q11 0 18.5 -5.5t15.5 -14.5l78 -104q10 -13 10 -26q0 -18 -22 -32l-294 -182q-17 -10 -30 -10
q-11 0 -19 5.5t-17 16.5l-26 32q-14 17 -14 32q0 19 18 34z" />
    <glyph glyph-name="Acircumflex" unicode="&#xc2;" horiz-adv-x="1270" 
d="M-2 0q-32 0 -32 24q0 5 1.5 10.5t6.5 17.5q62 166 135.5 331t153 322t161.5 303.5t162 277.5q14 21 29 29.5t39 8.5h210q24 0 37 -9.5t19 -32.5q81 -266 139 -578.5t93 -659.5q3 -44 -40 -44h-208q-23 0 -33.5 10t-12.5 34q-3 59 -8 115.5t-14 116.5h-480
q-51 -117 -96 -234q-8 -23 -21 -32.5t-37 -9.5h-204zM804 504q-18 139 -40.5 275.5t-51.5 258.5q-69 -119 -136.5 -256.5t-127.5 -277.5h356zM574 1418q-18 -11 -34 -8.5t-30 22.5l-26 36q-12 18 -12 32q0 16 20 30l288 214q11 8 19.5 10t14.5 2q22 0 38 -16l220 -202
q18 -18 18 -34q0 -13 -14 -30l-36 -44q-15 -18 -29.5 -20t-34.5 12l-180 126z" />
    <glyph glyph-name="Atilde" unicode="&#xc3;" horiz-adv-x="1270" 
d="M-2 0q-32 0 -32 24q0 5 1.5 10.5t6.5 17.5q62 166 135.5 331t153 322t161.5 303.5t162 277.5q14 21 29 29.5t39 8.5h210q24 0 37 -9.5t19 -32.5q81 -266 139 -578.5t93 -659.5q3 -44 -40 -44h-208q-23 0 -33.5 10t-12.5 34q-3 59 -8 115.5t-14 116.5h-480
q-51 -117 -96 -234q-8 -23 -21 -32.5t-37 -9.5h-204zM804 504q-18 139 -40.5 275.5t-51.5 258.5q-69 -119 -136.5 -256.5t-127.5 -277.5h356zM924 1616q24 0 49 15t51 39q18 18 34 18q15 0 32 -14l38 -32q18 -15 18 -32q0 -14 -12 -32q-41 -65 -105.5 -101.5t-132.5 -36.5
q-43 0 -75 13t-57.5 28t-48 28t-45.5 13q-24 0 -49 -15t-51 -39q-18 -18 -34 -18q-15 0 -32 14l-38 32q-18 15 -18 32q0 14 12 32q41 65 105.5 101.5t132.5 36.5q43 0 75 -13t57.5 -28t48 -28t45.5 -13z" />
    <glyph glyph-name="Adieresis" unicode="&#xc4;" horiz-adv-x="1270" 
d="M-2 0q-32 0 -32 24q0 5 1.5 10.5t6.5 17.5q62 166 135.5 331t153 322t161.5 303.5t162 277.5q14 21 29 29.5t39 8.5h210q24 0 37 -9.5t19 -32.5q81 -266 139 -578.5t93 -659.5q3 -44 -40 -44h-208q-23 0 -33.5 10t-12.5 34q-3 59 -8 115.5t-14 116.5h-480
q-51 -117 -96 -234q-8 -23 -21 -32.5t-37 -9.5h-204zM804 504q-18 139 -40.5 275.5t-51.5 258.5q-69 -119 -136.5 -256.5t-127.5 -277.5h356zM752 1586q0 -33 -12 -62t-33 -51t-49.5 -34.5t-61.5 -12.5q-57 0 -91.5 35.5t-34.5 92.5q0 33 12 62t33 51t49.5 34.5t61.5 12.5
q57 0 91.5 -35.5t34.5 -92.5zM1118 1586q0 -33 -12 -62t-33 -51t-49.5 -34.5t-61.5 -12.5q-57 0 -91.5 35.5t-34.5 92.5q0 33 12 62t33 51t49.5 34.5t61.5 12.5q57 0 91.5 -35.5t34.5 -92.5z" />
    <glyph glyph-name="Aring" unicode="&#xc5;" horiz-adv-x="1270" 
d="M-2 0q-43 0 -28 42q64 166 136.5 329t150.5 319t158 301t159 275q-29 30 -42.5 69.5t-13.5 84.5q0 50 18 99t53.5 88t88 63t120.5 24q58 0 101 -17.5t71.5 -47.5t43 -69.5t14.5 -83.5q0 -60 -26 -117.5t-76 -96.5q78 -263 135.5 -570t90.5 -648q3 -44 -40 -44h-208
q-23 0 -33.5 10t-12.5 34q-3 59 -8 115.5t-14 116.5h-480q-51 -117 -96 -234q-8 -23 -21 -32.5t-37 -9.5h-204zM804 504q-18 139 -40.5 275.5t-51.5 258.5q-69 -119 -136.5 -256.5t-127.5 -277.5h356zM656 1426q0 -44 24 -73t74 -29q31 0 56.5 12.5t43 33.5t27 47t9.5 53
q0 44 -24 73t-74 29q-32 0 -57 -12.5t-42.5 -33.5t-27 -47t-9.5 -53z" />
    <glyph glyph-name="AE" unicode="&#xc6;" horiz-adv-x="1830" 
d="M1806 1324q20 0 28 -9.5t8 -26.5v-9.5t-2 -14.5l-20 -124q-5 -24 -15.5 -34t-34.5 -10h-498l-50 -312h428q44 0 38 -44l-24 -140q-3 -24 -14.5 -34t-35.5 -10h-428l-52 -328h498q44 0 38 -44l-24 -140q-3 -24 -14.5 -34t-35.5 -10h-750q-45 0 -36 44l36 226h-478
q-36 -53 -73.5 -111t-76.5 -121q-14 -21 -29 -29.5t-39 -8.5h-222q-28 0 -28 20q0 11 10 28q107 169 220.5 336t228 326t228.5 305.5t223 274.5q15 18 31.5 26t40.5 8h924zM982 1128q-89 -113 -158 -203t-123 -164.5t-97.5 -136.5t-81.5 -118h362z" />
    <glyph glyph-name="Ccedilla" unicode="&#xc7;" horiz-adv-x="1260" 
d="M838 -220q0 -43 -17.5 -80t-50.5 -64.5t-80 -43.5t-106 -16q-47 0 -88 10.5t-70 31.5q-17 11 -19.5 27t9.5 33l18 26q15 23 27.5 25.5t36.5 -9.5q20 -11 41.5 -15.5t42.5 -4.5q44 0 67 18t23 50q0 21 -14 35.5t-52 14.5q-9 0 -20 -1t-22 -3q-21 -3 -33 0t-27 18
q-23 23 -4 48l76 104q-122 10 -211.5 53.5t-148 115.5t-86.5 169t-28 214q0 95 18.5 192t57.5 186.5t99.5 168t144 136.5t191 91.5t241.5 33.5q127 0 230.5 -33t175.5 -107q32 -32 2 -64l-126 -134q-17 -18 -30 -18t-30 18q-47 47 -110.5 71.5t-135.5 24.5t-131 -23
t-105.5 -63t-81.5 -94t-58 -115.5t-34.5 -128.5t-11.5 -132q0 -160 67 -242t201 -82q85 0 166.5 31.5t149.5 88.5q18 15 31 13.5t25 -21.5l88 -138q26 -37 -10 -64q-100 -74 -211.5 -110.5t-232.5 -41.5l-52 -68q12 5 28 6.5t30 1.5q71 0 110.5 -37t39.5 -103z" />
    <glyph glyph-name="Egrave" unicode="&#xc8;" horiz-adv-x="1096" 
d="M1086 1140q-5 -24 -15.5 -34t-34.5 -10h-498l-50 -312h428q44 0 38 -44l-24 -140q-5 -24 -15.5 -34t-34.5 -10h-428l-52 -328h498q44 0 38 -44l-24 -140q-5 -24 -15.5 -34t-34.5 -10h-750q-20 0 -28 9.5t-8 26.5v9.5t2 14.5l194 1220q5 24 15.5 34t34.5 10h750
q20 0 28 -9.5t8 -26.5v-9.5t-2 -14.5zM840 1530q18 -15 18 -34q0 -15 -14 -32l-26 -32q-9 -11 -17 -16.5t-19 -5.5q-13 0 -30 10l-294 182q-22 14 -22 32q0 13 10 26l80 106q8 9 15.5 14.5t18.5 5.5q6 0 14 -3t22 -17z" />
    <glyph glyph-name="Eacute" unicode="&#xc9;" horiz-adv-x="1096" 
d="M1086 1140q-5 -24 -15.5 -34t-34.5 -10h-498l-50 -312h428q44 0 38 -44l-24 -140q-5 -24 -15.5 -34t-34.5 -10h-428l-52 -328h498q44 0 38 -44l-24 -140q-5 -24 -15.5 -34t-34.5 -10h-750q-20 0 -28 9.5t-8 26.5v9.5t2 14.5l194 1220q5 24 15.5 34t34.5 10h750
q20 0 28 -9.5t8 -26.5v-9.5t-2 -14.5zM828 1764q14 14 22 17t14 3q11 0 18.5 -5.5t15.5 -14.5l78 -104q10 -13 10 -26q0 -18 -22 -32l-294 -182q-17 -10 -30 -10q-11 0 -19 5.5t-17 16.5l-26 32q-14 17 -14 32q0 19 18 34z" />
    <glyph glyph-name="Ecircumflex" unicode="&#xca;" horiz-adv-x="1096" 
d="M1086 1140q-5 -24 -15.5 -34t-34.5 -10h-498l-50 -312h428q44 0 38 -44l-24 -140q-5 -24 -15.5 -34t-34.5 -10h-428l-52 -328h498q44 0 38 -44l-24 -140q-5 -24 -15.5 -34t-34.5 -10h-750q-20 0 -28 9.5t-8 26.5v9.5t2 14.5l194 1220q5 24 15.5 34t34.5 10h750
q20 0 28 -9.5t8 -26.5v-9.5t-2 -14.5zM520 1418q-18 -11 -34 -8.5t-30 22.5l-26 36q-12 18 -12 32q0 16 20 30l288 214q11 8 19.5 10t14.5 2q22 0 38 -16l220 -202q18 -18 18 -34q0 -13 -14 -30l-36 -44q-15 -18 -29.5 -20t-34.5 12l-180 126z" />
    <glyph glyph-name="Edieresis" unicode="&#xcb;" horiz-adv-x="1096" 
d="M1086 1140q-5 -24 -15.5 -34t-34.5 -10h-498l-50 -312h428q44 0 38 -44l-24 -140q-5 -24 -15.5 -34t-34.5 -10h-428l-52 -328h498q44 0 38 -44l-24 -140q-5 -24 -15.5 -34t-34.5 -10h-750q-20 0 -28 9.5t-8 26.5v9.5t2 14.5l194 1220q5 24 15.5 34t34.5 10h750
q20 0 28 -9.5t8 -26.5v-9.5t-2 -14.5zM698 1586q0 -33 -12 -62t-33 -51t-49.5 -34.5t-61.5 -12.5q-57 0 -91.5 35.5t-34.5 92.5q0 33 12 62t33 51t49.5 34.5t61.5 12.5q57 0 91.5 -35.5t34.5 -92.5zM1064 1586q0 -33 -12 -62t-33 -51t-49.5 -34.5t-61.5 -12.5
q-57 0 -91.5 35.5t-34.5 92.5q0 33 12 62t33 51t49.5 34.5t61.5 12.5q57 0 91.5 -35.5t34.5 -92.5z" />
    <glyph glyph-name="Igrave" unicode="&#xcc;" horiz-adv-x="594" 
d="M370 44q-5 -24 -15.5 -34t-34.5 -10h-208q-20 0 -28 9.5t-8 26.5v9.5t2 14.5l194 1220q5 24 15.5 34t34.5 10h208q20 0 28 -9.5t8 -26.5v-9.5t-2 -14.5zM567 1530q18 -15 18 -34q0 -15 -14 -32l-26 -32q-9 -11 -17 -16.5t-19 -5.5q-13 0 -30 10l-294 182q-22 14 -22 32
q0 13 10 26l80 106q8 9 15.5 14.5t18.5 5.5q6 0 14 -3t22 -17z" />
    <glyph glyph-name="Iacute" unicode="&#xcd;" horiz-adv-x="594" 
d="M370 44q-5 -24 -15.5 -34t-34.5 -10h-208q-20 0 -28 9.5t-8 26.5v9.5t2 14.5l194 1220q5 24 15.5 34t34.5 10h208q20 0 28 -9.5t8 -26.5v-9.5t-2 -14.5zM555 1764q14 14 22 17t14 3q11 0 18.5 -5.5t15.5 -14.5l78 -104q10 -13 10 -26q0 -18 -22 -32l-294 -182
q-17 -10 -30 -10q-11 0 -19 5.5t-17 16.5l-26 32q-14 17 -14 32q0 19 18 34z" />
    <glyph glyph-name="Icircumflex" unicode="&#xce;" horiz-adv-x="594" 
d="M370 44q-5 -24 -15.5 -34t-34.5 -10h-208q-20 0 -28 9.5t-8 26.5v9.5t2 14.5l194 1220q5 24 15.5 34t34.5 10h208q20 0 28 -9.5t8 -26.5v-9.5t-2 -14.5zM247 1418q-18 -11 -34 -8.5t-30 22.5l-26 36q-12 18 -12 32q0 16 20 30l288 214q11 8 19.5 10t14.5 2q22 0 38 -16
l220 -202q18 -18 18 -34q0 -13 -14 -30l-36 -44q-15 -18 -29.5 -20t-34.5 12l-180 126z" />
    <glyph glyph-name="Idieresis" unicode="&#xcf;" horiz-adv-x="594" 
d="M370 44q-5 -24 -15.5 -34t-34.5 -10h-208q-20 0 -28 9.5t-8 26.5v9.5t2 14.5l194 1220q5 24 15.5 34t34.5 10h208q20 0 28 -9.5t8 -26.5v-9.5t-2 -14.5zM425 1586q0 -33 -12 -62t-33 -51t-49.5 -34.5t-61.5 -12.5q-57 0 -91.5 35.5t-34.5 92.5q0 33 12 62t33 51
t49.5 34.5t61.5 12.5q57 0 91.5 -35.5t34.5 -92.5zM791 1586q0 -33 -12 -62t-33 -51t-49.5 -34.5t-61.5 -12.5q-57 0 -91.5 35.5t-34.5 92.5q0 33 12 62t33 51t49.5 34.5t61.5 12.5q57 0 91.5 -35.5t34.5 -92.5z" />
    <glyph glyph-name="Eth" unicode="&#xd0;" horiz-adv-x="1388" 
d="M94 556q-45 0 -36 44l18 122q5 24 16.5 34t35.5 10h80l82 514q5 24 16.5 34t35.5 10h458q150 0 254.5 -45t169.5 -120t94.5 -172.5t29.5 -202.5q0 -157 -44.5 -299t-137.5 -250t-236 -171.5t-340 -63.5h-458q-44 0 -38 44l82 512h-82zM420 224h186q115 0 197.5 49
t135.5 128.5t78 178.5t25 200q0 67 -16 125.5t-51 102t-91.5 68t-137.5 24.5h-188l-54 -334h208q45 0 36 -44l-18 -122q-5 -24 -16.5 -34t-35.5 -10h-206z" />
    <glyph glyph-name="Ntilde" unicode="&#xd1;" horiz-adv-x="1432" 
d="M1368 1324q20 0 28 -9.5t8 -26.5v-9.5t-2 -14.5l-194 -1220q-5 -24 -15.5 -34t-34.5 -10h-252q-24 0 -37.5 9.5t-22.5 30.5l-354 904l-142 -900q-3 -24 -14.5 -34t-35.5 -10h-188q-20 0 -28 9.5t-8 26.5v9.5t2 14.5l194 1220q5 24 15.5 34t34.5 10h252q24 0 37.5 -9.5
t22.5 -30.5l354 -904l142 900q3 24 14.5 34t35.5 10h188v0zM1016 1616q24 0 49 15t51 39q18 18 34 18q15 0 32 -14l38 -32q18 -15 18 -32q0 -14 -12 -32q-41 -65 -105.5 -101.5t-132.5 -36.5q-43 0 -75 13t-57.5 28t-48 28t-45.5 13q-24 0 -49 -15t-51 -39q-18 -18 -34 -18
q-15 0 -32 14l-38 32q-18 15 -18 32q0 14 12 32q41 65 105.5 101.5t132.5 36.5q43 0 75 -13t57.5 -28t48 -28t45.5 -13z" />
    <glyph glyph-name="Ograve" unicode="&#xd2;" horiz-adv-x="1454" 
d="M400 578q0 -80 17 -146t51.5 -113.5t87.5 -74t126 -26.5q97 0 173 45.5t128.5 120t80.5 169.5t28 193q0 79 -17 145.5t-51.5 114t-87.5 74t-126 26.5q-97 0 -173 -45.5t-128.5 -120t-80.5 -169.5t-28 -193zM1398 744q0 -93 -21 -186t-62.5 -177.5t-103 -158t-142.5 -127
t-180.5 -84.5t-216.5 -31q-161 0 -271 46.5t-178.5 127.5t-98.5 190.5t-30 235.5q0 93 21 186t62.5 177.5t103 158t142.5 127t180 84.5t217 31q160 0 270.5 -46.5t179 -127.5t98.5 -190.5t30 -235.5zM960 1530q18 -15 18 -34q0 -15 -14 -32l-26 -32q-9 -11 -17 -16.5
t-19 -5.5q-13 0 -30 10l-294 182q-22 14 -22 32q0 13 10 26l80 106q8 9 15.5 14.5t18.5 5.5q6 0 14 -3t22 -17z" />
    <glyph glyph-name="Oacute" unicode="&#xd3;" horiz-adv-x="1454" 
d="M400 578q0 -80 17 -146t51.5 -113.5t87.5 -74t126 -26.5q97 0 173 45.5t128.5 120t80.5 169.5t28 193q0 79 -17 145.5t-51.5 114t-87.5 74t-126 26.5q-97 0 -173 -45.5t-128.5 -120t-80.5 -169.5t-28 -193zM1398 744q0 -93 -21 -186t-62.5 -177.5t-103 -158t-142.5 -127
t-180.5 -84.5t-216.5 -31q-161 0 -271 46.5t-178.5 127.5t-98.5 190.5t-30 235.5q0 93 21 186t62.5 177.5t103 158t142.5 127t180 84.5t217 31q160 0 270.5 -46.5t179 -127.5t98.5 -190.5t30 -235.5zM948 1764q14 14 22 17t14 3q11 0 18.5 -5.5t15.5 -14.5l78 -104
q10 -13 10 -26q0 -18 -22 -32l-294 -182q-17 -10 -30 -10q-11 0 -19 5.5t-17 16.5l-26 32q-14 17 -14 32q0 19 18 34z" />
    <glyph glyph-name="Ocircumflex" unicode="&#xd4;" horiz-adv-x="1454" 
d="M400 578q0 -80 17 -146t51.5 -113.5t87.5 -74t126 -26.5q97 0 173 45.5t128.5 120t80.5 169.5t28 193q0 79 -17 145.5t-51.5 114t-87.5 74t-126 26.5q-97 0 -173 -45.5t-128.5 -120t-80.5 -169.5t-28 -193zM1398 744q0 -93 -21 -186t-62.5 -177.5t-103 -158t-142.5 -127
t-180.5 -84.5t-216.5 -31q-161 0 -271 46.5t-178.5 127.5t-98.5 190.5t-30 235.5q0 93 21 186t62.5 177.5t103 158t142.5 127t180 84.5t217 31q160 0 270.5 -46.5t179 -127.5t98.5 -190.5t30 -235.5zM640 1418q-18 -11 -34 -8.5t-30 22.5l-26 36q-12 18 -12 32q0 16 20 30
l288 214q11 8 19.5 10t14.5 2q22 0 38 -16l220 -202q18 -18 18 -34q0 -13 -14 -30l-36 -44q-15 -18 -29.5 -20t-34.5 12l-180 126z" />
    <glyph glyph-name="Otilde" unicode="&#xd5;" horiz-adv-x="1454" 
d="M400 578q0 -80 17 -146t51.5 -113.5t87.5 -74t126 -26.5q97 0 173 45.5t128.5 120t80.5 169.5t28 193q0 79 -17 145.5t-51.5 114t-87.5 74t-126 26.5q-97 0 -173 -45.5t-128.5 -120t-80.5 -169.5t-28 -193zM1398 744q0 -93 -21 -186t-62.5 -177.5t-103 -158t-142.5 -127
t-180.5 -84.5t-216.5 -31q-161 0 -271 46.5t-178.5 127.5t-98.5 190.5t-30 235.5q0 93 21 186t62.5 177.5t103 158t142.5 127t180 84.5t217 31q160 0 270.5 -46.5t179 -127.5t98.5 -190.5t30 -235.5zM990 1616q24 0 49 15t51 39q18 18 34 18q15 0 32 -14l38 -32
q18 -15 18 -32q0 -14 -12 -32q-41 -65 -105.5 -101.5t-132.5 -36.5q-43 0 -75 13t-57.5 28t-48 28t-45.5 13q-24 0 -49 -15t-51 -39q-18 -18 -34 -18q-15 0 -32 14l-38 32q-18 15 -18 32q0 14 12 32q41 65 105.5 101.5t132.5 36.5q43 0 75 -13t57.5 -28t48 -28t45.5 -13z
" />
    <glyph glyph-name="Odieresis" unicode="&#xd6;" horiz-adv-x="1454" 
d="M400 578q0 -80 17 -146t51.5 -113.5t87.5 -74t126 -26.5q97 0 173 45.5t128.5 120t80.5 169.5t28 193q0 79 -17 145.5t-51.5 114t-87.5 74t-126 26.5q-97 0 -173 -45.5t-128.5 -120t-80.5 -169.5t-28 -193zM1398 744q0 -93 -21 -186t-62.5 -177.5t-103 -158t-142.5 -127
t-180.5 -84.5t-216.5 -31q-161 0 -271 46.5t-178.5 127.5t-98.5 190.5t-30 235.5q0 93 21 186t62.5 177.5t103 158t142.5 127t180 84.5t217 31q160 0 270.5 -46.5t179 -127.5t98.5 -190.5t30 -235.5zM818 1586q0 -33 -12 -62t-33 -51t-49.5 -34.5t-61.5 -12.5
q-57 0 -91.5 35.5t-34.5 92.5q0 33 12 62t33 51t49.5 34.5t61.5 12.5q57 0 91.5 -35.5t34.5 -92.5zM1184 1586q0 -33 -12 -62t-33 -51t-49.5 -34.5t-61.5 -12.5q-57 0 -91.5 35.5t-34.5 92.5q0 33 12 62t33 51t49.5 34.5t61.5 12.5q57 0 91.5 -35.5t34.5 -92.5z" />
    <glyph glyph-name="multiply" unicode="&#xd7;" 
d="M940 908q8 6 15.5 10t16.5 4t18.5 -6t15.5 -14l66 -76q6 -8 10 -15t4 -15q0 -17 -20 -34l-330 -284l228 -278q6 -8 10 -15t4 -15q0 -17 -20 -34l-88 -76q-17 -14 -32 -14q-17 0 -32 18l-228 276l-324 -280q-8 -6 -15.5 -10t-16.5 -4t-18.5 6t-15.5 14l-66 76
q-14 17 -14 30q0 17 20 34l328 284l-226 278q-14 17 -14 30q0 17 20 34l88 76q17 14 32 14q17 0 32 -18l226 -278z" />
    <glyph glyph-name="Oslash" unicode="&#xd8;" horiz-adv-x="1478" 
d="M26 -120q-20 0 -24 9.5t8 24.5l210 256q-62 80 -88 184.5t-26 225.5q0 93 21 186t62.5 177.5t103 158t142.5 127t180 84.5t217 31q98 0 176 -17.5t140 -50.5l112 134q15 18 31.5 26t40.5 8h158q20 0 24 -9.5t-8 -24.5l-212 -256q62 -81 89 -185t27 -225q0 -93 -21 -186
t-62.5 -177.5t-103 -158t-142.5 -127t-180.5 -84.5t-216.5 -31q-98 0 -177 17t-141 49l-110 -132q-15 -18 -31.5 -26t-40.5 -8h-158zM534 264q32 -23 71 -34.5t89 -11.5q97 0 173 45.5t128.5 120t80.5 169.5t28 193q0 95 -24 170zM822 1106q-97 0 -173 -45.5t-128.5 -120
t-80.5 -169.5t-28 -193q0 -97 24 -172l546 652q-32 23 -72 35.5t-88 12.5z" />
    <glyph glyph-name="Ugrave" unicode="&#xd9;" horiz-adv-x="1342" 
d="M1218 552q-23 -148 -67.5 -255.5t-115 -178t-169 -104.5t-230.5 -34q-243 0 -373.5 111t-130.5 323q0 63 12 138l118 728q3 24 14.5 34t35.5 10h208q44 0 38 -44l-120 -754q-6 -42 -6 -80q0 -226 200 -226q118 0 190 77t96 229l120 754q3 24 14.5 34t35.5 10h208
q44 0 38 -44l-116 -728v0zM944 1530q18 -15 18 -34q0 -15 -14 -32l-26 -32q-9 -11 -17 -16.5t-19 -5.5q-13 0 -30 10l-294 182q-22 14 -22 32q0 13 10 26l80 106q8 9 15.5 14.5t18.5 5.5q6 0 14 -3t22 -17z" />
    <glyph glyph-name="Uacute" unicode="&#xda;" horiz-adv-x="1342" 
d="M1218 552q-23 -148 -67.5 -255.5t-115 -178t-169 -104.5t-230.5 -34q-243 0 -373.5 111t-130.5 323q0 63 12 138l118 728q3 24 14.5 34t35.5 10h208q44 0 38 -44l-120 -754q-6 -42 -6 -80q0 -226 200 -226q118 0 190 77t96 229l120 754q3 24 14.5 34t35.5 10h208
q44 0 38 -44l-116 -728v0zM932 1764q14 14 22 17t14 3q11 0 18.5 -5.5t15.5 -14.5l78 -104q10 -13 10 -26q0 -18 -22 -32l-294 -182q-17 -10 -30 -10q-11 0 -19 5.5t-17 16.5l-26 32q-14 17 -14 32q0 19 18 34z" />
    <glyph glyph-name="Ucircumflex" unicode="&#xdb;" horiz-adv-x="1342" 
d="M1218 552q-23 -148 -67.5 -255.5t-115 -178t-169 -104.5t-230.5 -34q-243 0 -373.5 111t-130.5 323q0 63 12 138l118 728q3 24 14.5 34t35.5 10h208q44 0 38 -44l-120 -754q-6 -42 -6 -80q0 -226 200 -226q118 0 190 77t96 229l120 754q3 24 14.5 34t35.5 10h208
q44 0 38 -44l-116 -728v0zM624 1418q-18 -11 -34 -8.5t-30 22.5l-26 36q-12 18 -12 32q0 16 20 30l288 214q11 8 19.5 10t14.5 2q22 0 38 -16l220 -202q18 -18 18 -34q0 -13 -14 -30l-36 -44q-15 -18 -29.5 -20t-34.5 12l-180 126z" />
    <glyph glyph-name="Udieresis" unicode="&#xdc;" horiz-adv-x="1342" 
d="M1218 552q-23 -148 -67.5 -255.5t-115 -178t-169 -104.5t-230.5 -34q-243 0 -373.5 111t-130.5 323q0 63 12 138l118 728q3 24 14.5 34t35.5 10h208q44 0 38 -44l-120 -754q-6 -42 -6 -80q0 -226 200 -226q118 0 190 77t96 229l120 754q3 24 14.5 34t35.5 10h208
q44 0 38 -44l-116 -728v0zM802 1586q0 -33 -12 -62t-33 -51t-49.5 -34.5t-61.5 -12.5q-57 0 -91.5 35.5t-34.5 92.5q0 33 12 62t33 51t49.5 34.5t61.5 12.5q57 0 91.5 -35.5t34.5 -92.5zM1168 1586q0 -33 -12 -62t-33 -51t-49.5 -34.5t-61.5 -12.5q-57 0 -91.5 35.5
t-34.5 92.5q0 33 12 62t33 51t49.5 34.5t61.5 12.5q57 0 91.5 -35.5t34.5 -92.5z" />
    <glyph glyph-name="Yacute" unicode="&#xdd;" horiz-adv-x="1160" 
d="M396 0q-44 0 -38 44l66 412q-40 79 -78.5 174t-72.5 197t-61.5 208.5t-45.5 210.5q-2 8 -3 21.5t-1 22.5q0 34 38 34h198q24 0 34.5 -10t13.5 -34q8 -76 22 -154.5t33.5 -156.5t45 -153t57.5 -142q106 134 197.5 290.5t156.5 319.5q9 23 22.5 31.5t37.5 8.5h198
q30 0 30 -22q0 -5 -1 -9.5t-7 -18.5q-47 -107 -109 -218t-131 -218t-141.5 -205t-140.5 -177l-66 -412q-3 -24 -14.5 -34t-35.5 -10h-204zM834 1764q14 14 22 17t14 3q11 0 18.5 -5.5t15.5 -14.5l78 -104q10 -13 10 -26q0 -18 -22 -32l-294 -182q-17 -10 -30 -10
q-11 0 -19 5.5t-17 16.5l-26 32q-14 17 -14 32q0 19 18 34z" />
    <glyph glyph-name="Thorn" unicode="&#xde;" horiz-adv-x="1186" 
d="M272 1280q3 24 14.5 34t35.5 10h208q45 0 36 -44l-24 -154h122q136 0 230 -29t152.5 -82t85 -127t26.5 -164q0 -109 -36.5 -202t-114.5 -161t-198.5 -106.5t-288.5 -38.5h-122l-28 -172q-3 -24 -14.5 -34t-35.5 -10h-208q-44 0 -38 44zM852 716q0 40 -10.5 73.5
t-34.5 57.5t-64.5 37.5t-100.5 13.5h-136l-72 -454h136q76 0 129.5 23t87.5 61t49.5 87t15.5 101z" />
    <glyph glyph-name="germandbls" unicode="&#xdf;" horiz-adv-x="1216" 
d="M334 44q-3 -24 -14.5 -34t-35.5 -10h-184q-44 0 -38 44l148 926q22 136 71 229t119 150t157.5 82t186.5 25q94 0 170 -20t128.5 -58t81 -92.5t28.5 -123.5q0 -54 -17 -100t-47 -87t-71 -78.5t-89 -74.5q-26 -20 -52 -39t-47 -38t-34 -38.5t-13 -38.5q0 -17 10 -30
t28 -23.5t41.5 -20.5t50.5 -20q48 -19 91.5 -40.5t76.5 -52t52.5 -72.5t19.5 -101q0 -70 -28 -130t-82 -104t-132 -69t-178 -25q-105 0 -175.5 25t-110.5 57q-17 14 -19.5 29.5t11.5 32.5l78 106q15 20 27.5 21.5t32.5 -13.5q33 -24 73 -38t85 -14q29 0 55.5 6.5t46.5 19.5
t32 32.5t12 45.5q0 25 -12 42.5t-34 31t-52.5 25.5t-67.5 27q-34 13 -66.5 29.5t-58 41t-41.5 59.5t-16 86t16.5 91.5t43.5 74.5t62.5 63.5t73.5 58.5q22 16 47 36.5t46.5 46t36 56t14.5 67.5q0 26 -8 49t-26 39.5t-45.5 26t-66.5 9.5q-103 0 -162 -69.5t-82 -212.5z" />
    <glyph glyph-name="agrave" unicode="&#xe0;" horiz-adv-x="1132" 
d="M1026 980q44 0 38 -44l-144 -892q-3 -24 -14.5 -34t-35.5 -10h-176q-44 0 -38 44l18 106q-42 -80 -118 -125t-180 -45q-80 0 -139 27.5t-97.5 79.5t-57 126.5t-18.5 168.5q0 85 15 164t44 147.5t70 125t93 97t114 62.5t132 22q92 0 152.5 -34t89.5 -82l8 52q5 24 16.5 34
t35.5 10h192zM352 408q0 -58 9.5 -98.5t27.5 -66t45.5 -37.5t63.5 -12q21 0 51 7.5t60.5 36t57.5 85.5t43 157l34 216q-20 36 -58.5 62t-95.5 26q-62 0 -107 -33.5t-74 -87.5t-43 -121t-14 -134zM762 1200q18 -15 18 -34q0 -15 -14 -32l-26 -32q-9 -11 -17 -16.5t-19 -5.5
q-13 0 -30 10l-294 182q-22 14 -22 32q0 13 10 26l80 106q8 9 15.5 14.5t18.5 5.5q6 0 14 -3t22 -17z" />
    <glyph glyph-name="aacute" unicode="&#xe1;" horiz-adv-x="1132" 
d="M1026 980q44 0 38 -44l-144 -892q-3 -24 -14.5 -34t-35.5 -10h-176q-44 0 -38 44l18 106q-42 -80 -118 -125t-180 -45q-80 0 -139 27.5t-97.5 79.5t-57 126.5t-18.5 168.5q0 85 15 164t44 147.5t70 125t93 97t114 62.5t132 22q92 0 152.5 -34t89.5 -82l8 52q5 24 16.5 34
t35.5 10h192zM352 408q0 -58 9.5 -98.5t27.5 -66t45.5 -37.5t63.5 -12q21 0 51 7.5t60.5 36t57.5 85.5t43 157l34 216q-20 36 -58.5 62t-95.5 26q-62 0 -107 -33.5t-74 -87.5t-43 -121t-14 -134zM750 1434q14 14 22 17t14 3q11 0 18.5 -5.5t15.5 -14.5l78 -104
q10 -13 10 -26q0 -18 -22 -32l-294 -182q-17 -10 -30 -10q-11 0 -19 5.5t-17 16.5l-26 32q-14 17 -14 32q0 19 18 34z" />
    <glyph glyph-name="acircumflex" unicode="&#xe2;" horiz-adv-x="1132" 
d="M1026 980q44 0 38 -44l-144 -892q-3 -24 -14.5 -34t-35.5 -10h-176q-44 0 -38 44l18 106q-42 -80 -118 -125t-180 -45q-80 0 -139 27.5t-97.5 79.5t-57 126.5t-18.5 168.5q0 85 15 164t44 147.5t70 125t93 97t114 62.5t132 22q92 0 152.5 -34t89.5 -82l8 52q5 24 16.5 34
t35.5 10h192zM352 408q0 -58 9.5 -98.5t27.5 -66t45.5 -37.5t63.5 -12q21 0 51 7.5t60.5 36t57.5 85.5t43 157l34 216q-20 36 -58.5 62t-95.5 26q-62 0 -107 -33.5t-74 -87.5t-43 -121t-14 -134zM446 1088q-18 -11 -34 -8.5t-30 22.5l-26 36q-12 18 -12 32q0 16 20 30
l288 214q11 8 19.5 10t14.5 2q22 0 38 -16l220 -202q18 -18 18 -34q0 -13 -14 -30l-36 -44q-15 -18 -29.5 -20t-34.5 12l-180 126z" />
    <glyph glyph-name="atilde" unicode="&#xe3;" horiz-adv-x="1132" 
d="M1026 980q44 0 38 -44l-144 -892q-3 -24 -14.5 -34t-35.5 -10h-176q-44 0 -38 44l18 106q-42 -80 -118 -125t-180 -45q-80 0 -139 27.5t-97.5 79.5t-57 126.5t-18.5 168.5q0 85 15 164t44 147.5t70 125t93 97t114 62.5t132 22q92 0 152.5 -34t89.5 -82l8 52q5 24 16.5 34
t35.5 10h192zM352 408q0 -58 9.5 -98.5t27.5 -66t45.5 -37.5t63.5 -12q21 0 51 7.5t60.5 36t57.5 85.5t43 157l34 216q-20 36 -58.5 62t-95.5 26q-62 0 -107 -33.5t-74 -87.5t-43 -121t-14 -134zM794 1286q24 0 49 15t51 39q18 18 34 18q15 0 32 -14l38 -32q18 -15 18 -32
q0 -14 -12 -32q-41 -65 -105.5 -101.5t-132.5 -36.5q-43 0 -75 13t-57.5 28t-48 28t-45.5 13q-24 0 -49 -15t-51 -39q-18 -18 -34 -18q-15 0 -32 14l-38 32q-18 15 -18 32q0 14 12 32q41 65 105.5 101.5t132.5 36.5q43 0 75 -13t57.5 -28t48 -28t45.5 -13z" />
    <glyph glyph-name="adieresis" unicode="&#xe4;" horiz-adv-x="1132" 
d="M1026 980q44 0 38 -44l-144 -892q-3 -24 -14.5 -34t-35.5 -10h-176q-44 0 -38 44l18 106q-42 -80 -118 -125t-180 -45q-80 0 -139 27.5t-97.5 79.5t-57 126.5t-18.5 168.5q0 85 15 164t44 147.5t70 125t93 97t114 62.5t132 22q92 0 152.5 -34t89.5 -82l8 52q5 24 16.5 34
t35.5 10h192zM352 408q0 -58 9.5 -98.5t27.5 -66t45.5 -37.5t63.5 -12q21 0 51 7.5t60.5 36t57.5 85.5t43 157l34 216q-20 36 -58.5 62t-95.5 26q-62 0 -107 -33.5t-74 -87.5t-43 -121t-14 -134zM618 1256q0 -33 -12 -62t-33 -51t-49.5 -34.5t-61.5 -12.5q-57 0 -91.5 35.5
t-34.5 92.5q0 33 12 62t33 51t49.5 34.5t61.5 12.5q57 0 91.5 -35.5t34.5 -92.5zM984 1256q0 -33 -12 -62t-33 -51t-49.5 -34.5t-61.5 -12.5q-57 0 -91.5 35.5t-34.5 92.5q0 33 12 62t33 51t49.5 34.5t61.5 12.5q57 0 91.5 -35.5t34.5 -92.5z" />
    <glyph glyph-name="aring" unicode="&#xe5;" horiz-adv-x="1132" 
d="M1026 980q44 0 38 -44l-144 -892q-3 -24 -14.5 -34t-35.5 -10h-176q-44 0 -38 44l18 106q-42 -80 -118 -125t-180 -45q-80 0 -139 27.5t-97.5 79.5t-57 126.5t-18.5 168.5q0 85 15 164t44 147.5t70 125t93 97t114 62.5t132 22q92 0 152.5 -34t89.5 -82l8 52q5 24 16.5 34
t35.5 10h192zM352 408q0 -58 9.5 -98.5t27.5 -66t45.5 -37.5t63.5 -12q21 0 51 7.5t60.5 36t57.5 85.5t43 157l34 216q-20 36 -58.5 62t-95.5 26q-62 0 -107 -33.5t-74 -87.5t-43 -121t-14 -134zM556 1290q0 -44 24 -73t74 -29q31 0 56.5 12.5t43 33.5t27 47t9.5 53
q0 44 -24 73t-74 29q-32 0 -57 -12.5t-42.5 -33.5t-27 -47t-9.5 -53zM928 1340q0 -50 -18 -99t-53.5 -88t-88 -63t-120.5 -24q-58 0 -101 17.5t-71.5 47.5t-43 69.5t-14.5 83.5q0 50 18 99t53.5 88t88 63t120.5 24q58 0 101 -17.5t71.5 -47.5t43 -69.5t14.5 -83.5z" />
    <glyph glyph-name="ae" unicode="&#xe6;" horiz-adv-x="1614" 
d="M1458 80q-80 -53 -170.5 -76.5t-179.5 -23.5q-68 0 -122 13t-96 36.5t-72 56t-50 72.5q-57 -80 -147.5 -129t-220.5 -49q-77 0 -142.5 18t-113.5 54t-75 88.5t-27 121.5q0 55 21 112t77 102q28 23 67 41.5t92.5 31.5t123 20t159.5 7h102q3 15 4.5 34.5t1.5 31.5
q0 71 -44 107.5t-132 36.5q-59 0 -118.5 -18.5t-121.5 -63.5q-20 -14 -33 -12t-25 22l-68 102q-23 38 12 64q77 54 181 87t219 33q63 0 111 -10.5t84 -30t60.5 -46t40.5 -57.5q56 65 141.5 104.5t204.5 39.5q76 0 141.5 -18t113.5 -54t75.5 -88.5t27.5 -121.5
q0 -56 -21.5 -112.5t-76.5 -101.5q-29 -23 -67.5 -42t-92 -32.5t-123 -20.5t-159.5 -7h-88q6 -65 26.5 -105.5t50 -63t64 -30t69.5 -7.5q53 0 108.5 15.5t105.5 48.5q20 14 33 11.5t25 -23.5l60 -106q21 -39 -16 -62zM298 278q0 -29 10.5 -48.5t28.5 -32t41.5 -18t49.5 -5.5
q52 0 91.5 20.5t68.5 53t47.5 73t28.5 81.5h-98q-77 0 -128 -8.5t-82.5 -24.5t-44.5 -39t-13 -52zM1304 702q0 28 -10.5 48t-28.5 32.5t-41 18t-48 5.5q-53 0 -93 -21t-69 -54t-47.5 -74t-28.5 -81h98q76 0 127.5 8.5t83 25t44.5 40t13 52.5z" />
    <glyph glyph-name="ccedilla" unicode="&#xe7;" horiz-adv-x="940" 
d="M652 -220q0 -43 -17.5 -80t-50.5 -64.5t-80 -43.5t-106 -16q-47 0 -88 10.5t-70 31.5q-17 11 -19.5 27t9.5 33l18 26q15 23 27.5 25.5t36.5 -9.5q20 -11 41.5 -15.5t42.5 -4.5q44 0 67 18t23 50q0 21 -14 35.5t-52 14.5q-9 0 -20 -1t-22 -3q-21 -3 -33 0t-27 18
q-23 23 -4 48l76 104q-77 10 -139 41.5t-105.5 84t-66.5 125.5t-23 165q0 118 36 226t107.5 190.5t178 132t248.5 49.5q89 0 159 -22t123 -64q35 -28 8 -64l-74 -104q-15 -20 -28.5 -22.5t-33.5 12.5q-35 23 -75 37.5t-85 14.5q-71 0 -123 -35t-85.5 -89.5t-49.5 -122
t-16 -131.5q0 -46 9 -84.5t28 -67t48.5 -44.5t70.5 -16q47 0 98 16t96 48q20 14 33 11t25 -23l60 -106q21 -39 -16 -62q-68 -45 -148 -69t-154 -29l-52 -70q12 5 28 6.5t30 1.5q71 0 110.5 -37t39.5 -103z" />
    <glyph glyph-name="egrave" unicode="&#xe8;" horiz-adv-x="1012" 
d="M856 80q-78 -53 -169.5 -76.5t-186.5 -23.5q-121 0 -205.5 34.5t-137.5 94.5t-77 140.5t-24 172.5q0 107 32 211t98 185.5t166.5 131.5t237.5 50q80 0 147.5 -18.5t116.5 -55t76.5 -90.5t27.5 -124q0 -54 -20.5 -111t-75.5 -105q-32 -27 -73.5 -47.5t-95.5 -34t-122 -20
t-153 -6.5h-88q6 -61 26.5 -98.5t49.5 -58.5t63.5 -28t68.5 -7q54 0 110 15.5t106 48.5q20 14 33 11.5t25 -23.5l60 -106q21 -39 -16 -62zM702 698q0 28 -11 48.5t-29 34t-41.5 19.5t-48.5 6q-50 0 -88 -20.5t-66 -55t-47 -78.5t-29 -90h76q82 0 137 10.5t87.5 29t46 43
t13.5 53.5zM720 1200q18 -15 18 -34q0 -15 -14 -32l-26 -32q-9 -11 -17 -16.5t-19 -5.5q-13 0 -30 10l-294 182q-22 14 -22 32q0 13 10 26l80 106q8 9 15.5 14.5t18.5 5.5q6 0 14 -3t22 -17z" />
    <glyph glyph-name="eacute" unicode="&#xe9;" horiz-adv-x="1012" 
d="M856 80q-78 -53 -169.5 -76.5t-186.5 -23.5q-121 0 -205.5 34.5t-137.5 94.5t-77 140.5t-24 172.5q0 107 32 211t98 185.5t166.5 131.5t237.5 50q80 0 147.5 -18.5t116.5 -55t76.5 -90.5t27.5 -124q0 -54 -20.5 -111t-75.5 -105q-32 -27 -73.5 -47.5t-95.5 -34t-122 -20
t-153 -6.5h-88q6 -61 26.5 -98.5t49.5 -58.5t63.5 -28t68.5 -7q54 0 110 15.5t106 48.5q20 14 33 11.5t25 -23.5l60 -106q21 -39 -16 -62zM702 698q0 28 -11 48.5t-29 34t-41.5 19.5t-48.5 6q-50 0 -88 -20.5t-66 -55t-47 -78.5t-29 -90h76q82 0 137 10.5t87.5 29t46 43
t13.5 53.5zM708 1434q14 14 22 17t14 3q11 0 18.5 -5.5t15.5 -14.5l78 -104q10 -13 10 -26q0 -18 -22 -32l-294 -182q-17 -10 -30 -10q-11 0 -19 5.5t-17 16.5l-26 32q-14 17 -14 32q0 19 18 34z" />
    <glyph glyph-name="ecircumflex" unicode="&#xea;" horiz-adv-x="1012" 
d="M856 80q-78 -53 -169.5 -76.5t-186.5 -23.5q-121 0 -205.5 34.5t-137.5 94.5t-77 140.5t-24 172.5q0 107 32 211t98 185.5t166.5 131.5t237.5 50q80 0 147.5 -18.5t116.5 -55t76.5 -90.5t27.5 -124q0 -54 -20.5 -111t-75.5 -105q-32 -27 -73.5 -47.5t-95.5 -34t-122 -20
t-153 -6.5h-88q6 -61 26.5 -98.5t49.5 -58.5t63.5 -28t68.5 -7q54 0 110 15.5t106 48.5q20 14 33 11.5t25 -23.5l60 -106q21 -39 -16 -62zM702 698q0 28 -11 48.5t-29 34t-41.5 19.5t-48.5 6q-50 0 -88 -20.5t-66 -55t-47 -78.5t-29 -90h76q82 0 137 10.5t87.5 29t46 43
t13.5 53.5zM404 1088q-18 -11 -34 -8.5t-30 22.5l-26 36q-12 18 -12 32q0 16 20 30l288 214q11 8 19.5 10t14.5 2q22 0 38 -16l220 -202q18 -18 18 -34q0 -13 -14 -30l-36 -44q-15 -18 -29.5 -20t-34.5 12l-180 126z" />
    <glyph glyph-name="edieresis" unicode="&#xeb;" horiz-adv-x="1012" 
d="M856 80q-78 -53 -169.5 -76.5t-186.5 -23.5q-121 0 -205.5 34.5t-137.5 94.5t-77 140.5t-24 172.5q0 107 32 211t98 185.5t166.5 131.5t237.5 50q80 0 147.5 -18.5t116.5 -55t76.5 -90.5t27.5 -124q0 -54 -20.5 -111t-75.5 -105q-32 -27 -73.5 -47.5t-95.5 -34t-122 -20
t-153 -6.5h-88q6 -61 26.5 -98.5t49.5 -58.5t63.5 -28t68.5 -7q54 0 110 15.5t106 48.5q20 14 33 11.5t25 -23.5l60 -106q21 -39 -16 -62zM702 698q0 28 -11 48.5t-29 34t-41.5 19.5t-48.5 6q-50 0 -88 -20.5t-66 -55t-47 -78.5t-29 -90h76q82 0 137 10.5t87.5 29t46 43
t13.5 53.5zM576 1256q0 -33 -12 -62t-33 -51t-49.5 -34.5t-61.5 -12.5q-57 0 -91.5 35.5t-34.5 92.5q0 33 12 62t33 51t49.5 34.5t61.5 12.5q57 0 91.5 -35.5t34.5 -92.5zM942 1256q0 -33 -12 -62t-33 -51t-49.5 -34.5t-61.5 -12.5q-57 0 -91.5 35.5t-34.5 92.5q0 33 12 62
t33 51t49.5 34.5t61.5 12.5q57 0 91.5 -35.5t34.5 -92.5z" />
    <glyph glyph-name="igrave" unicode="&#xec;" horiz-adv-x="548" 
d="M342 44q-5 -24 -15.5 -34t-34.5 -10h-192q-20 0 -28 9.5t-8 26.5v9.5t2 14.5l140 876q5 24 15.5 34t34.5 10h192q20 0 28 -9.5t8 -26.5v-9.5t-2 -14.5zM495 1200q18 -15 18 -34q0 -15 -14 -32l-26 -32q-9 -11 -17 -16.5t-19 -5.5q-13 0 -30 10l-294 182q-22 14 -22 32
q0 13 10 26l80 106q8 9 15.5 14.5t18.5 5.5q6 0 14 -3t22 -17z" />
    <glyph glyph-name="iacute" unicode="&#xed;" horiz-adv-x="548" 
d="M342 44q-5 -24 -15.5 -34t-34.5 -10h-192q-20 0 -28 9.5t-8 26.5v9.5t2 14.5l140 876q5 24 15.5 34t34.5 10h192q20 0 28 -9.5t8 -26.5v-9.5t-2 -14.5zM483 1434q14 14 22 17t14 3q11 0 18.5 -5.5t15.5 -14.5l78 -104q10 -13 10 -26q0 -18 -22 -32l-294 -182
q-17 -10 -30 -10q-11 0 -19 5.5t-17 16.5l-26 32q-14 17 -14 32q0 19 18 34z" />
    <glyph glyph-name="icircumflex" unicode="&#xee;" horiz-adv-x="548" 
d="M342 44q-5 -24 -15.5 -34t-34.5 -10h-192q-20 0 -28 9.5t-8 26.5v9.5t2 14.5l140 876q5 24 15.5 34t34.5 10h192q20 0 28 -9.5t8 -26.5v-9.5t-2 -14.5zM179 1088q-18 -11 -34 -8.5t-30 22.5l-26 36q-12 18 -12 32q0 16 20 30l288 214q11 8 19.5 10t14.5 2q22 0 38 -16
l220 -202q18 -18 18 -34q0 -13 -14 -30l-36 -44q-15 -18 -29.5 -20t-34.5 12l-180 126z" />
    <glyph glyph-name="idieresis" unicode="&#xef;" horiz-adv-x="548" 
d="M342 44q-5 -24 -15.5 -34t-34.5 -10h-192q-20 0 -28 9.5t-8 26.5v9.5t2 14.5l140 876q5 24 15.5 34t34.5 10h192q20 0 28 -9.5t8 -26.5v-9.5t-2 -14.5zM351 1256q0 -33 -12 -62t-33 -51t-49.5 -34.5t-61.5 -12.5q-57 0 -91.5 35.5t-34.5 92.5q0 33 12 62t33 51t49.5 34.5
t61.5 12.5q57 0 91.5 -35.5t34.5 -92.5zM717 1256q0 -33 -12 -62t-33 -51t-49.5 -34.5t-61.5 -12.5q-57 0 -91.5 35.5t-34.5 92.5q0 33 12 62t33 51t49.5 34.5t61.5 12.5q57 0 91.5 -35.5t34.5 -92.5z" />
    <glyph glyph-name="eth" unicode="&#xf0;" horiz-adv-x="1112" 
d="M480 1024q-37 -23 -60 14l-36 70q-12 20 -8 34t24 28l98 60q-30 18 -61.5 31.5t-64.5 24.5q-23 8 -28 20.5t4 35.5l32 74q13 32 38 32q5 0 9.5 -1t10.5 -3q37 -10 68.5 -20.5t61 -22.5t57.5 -26.5t57 -30.5l164 104q8 5 15 6.5t13 1.5q20 0 32 -24l36 -66q24 -38 -16 -64
l-100 -64q67 -63 111.5 -135t71 -147t37 -150.5t10.5 -145.5q0 -74 -11 -152.5t-37.5 -154.5t-69.5 -143.5t-106 -118.5t-149 -81t-197 -30q-110 0 -191 29.5t-134 83.5t-79 129t-26 166q0 72 16 142t46 133t73.5 116t98.5 91.5t121 60t141 21.5q81 0 143.5 -29t110.5 -97
q-14 41 -30 82t-36 79.5t-44.5 73t-53.5 63.5zM344 390q0 -95 37 -148.5t117 -53.5q62 0 109 31.5t78.5 82.5t47 114t15.5 126q0 95 -37 148.5t-117 53.5q-62 0 -109 -31.5t-78.5 -82.5t-47 -114t-15.5 -126z" />
    <glyph glyph-name="ntilde" unicode="&#xf1;" horiz-adv-x="1130" 
d="M100 0q-44 0 -38 44l144 892q3 24 14.5 34t35.5 10h170q44 0 38 -44l-18 -106q22 34 50 65t64.5 54.5t83.5 37t108 13.5q80 0 134 -24t87 -63t47 -89.5t14 -103.5q0 -16 -1 -39t-3 -47.5t-4.5 -48.5t-5.5 -41l-80 -500q-3 -24 -14.5 -34t-35.5 -10h-192q-44 0 -38 44
l82 510q2 13 3.5 27t2.5 27.5t1.5 24.5t0.5 17q0 22 -5.5 45t-18.5 41.5t-34 30t-52 11.5q-29 0 -63 -13.5t-66 -47.5t-58.5 -92t-40.5 -147l-70 -434q-3 -24 -14.5 -34t-35.5 -10h-192zM826 1286q24 0 49 15t51 39q18 18 34 18q15 0 32 -14l38 -32q18 -15 18 -32
q0 -14 -12 -32q-41 -65 -105.5 -101.5t-132.5 -36.5q-43 0 -75 13t-57.5 28t-48 28t-45.5 13q-24 0 -49 -15t-51 -39q-18 -18 -34 -18q-15 0 -32 14l-38 32q-18 15 -18 32q0 14 12 32q41 65 105.5 101.5t132.5 36.5q43 0 75 -13t57.5 -28t48 -28t45.5 -13z" />
    <glyph glyph-name="ograve" unicode="&#xf2;" horiz-adv-x="1092" 
d="M344 412q0 -102 37.5 -163t118.5 -61q61 0 107.5 34t78 88t47 122t15.5 136q0 102 -37.5 163t-118.5 61q-62 0 -108 -34t-77.5 -88t-47 -122t-15.5 -136zM1036 566q0 -113 -35 -219t-104.5 -187.5t-173.5 -130.5t-241 -49q-108 0 -188 32t-133 89t-79 137t-26 176
q0 113 35 219t104.5 187.5t173.5 130.5t241 49q108 0 188 -32t133 -89t79 -137t26 -176zM752 1200q18 -15 18 -34q0 -15 -14 -32l-26 -32q-9 -11 -17 -16.5t-19 -5.5q-13 0 -30 10l-294 182q-22 14 -22 32q0 13 10 26l80 106q8 9 15.5 14.5t18.5 5.5q6 0 14 -3t22 -17z" />
    <glyph glyph-name="oacute" unicode="&#xf3;" horiz-adv-x="1092" 
d="M344 412q0 -102 37.5 -163t118.5 -61q61 0 107.5 34t78 88t47 122t15.5 136q0 102 -37.5 163t-118.5 61q-62 0 -108 -34t-77.5 -88t-47 -122t-15.5 -136zM1036 566q0 -113 -35 -219t-104.5 -187.5t-173.5 -130.5t-241 -49q-108 0 -188 32t-133 89t-79 137t-26 176
q0 113 35 219t104.5 187.5t173.5 130.5t241 49q108 0 188 -32t133 -89t79 -137t26 -176zM740 1434q14 14 22 17t14 3q11 0 18.5 -5.5t15.5 -14.5l78 -104q10 -13 10 -26q0 -18 -22 -32l-294 -182q-17 -10 -30 -10q-11 0 -19 5.5t-17 16.5l-26 32q-14 17 -14 32q0 19 18 34z
" />
    <glyph glyph-name="ocircumflex" unicode="&#xf4;" horiz-adv-x="1092" 
d="M344 412q0 -102 37.5 -163t118.5 -61q61 0 107.5 34t78 88t47 122t15.5 136q0 102 -37.5 163t-118.5 61q-62 0 -108 -34t-77.5 -88t-47 -122t-15.5 -136zM1036 566q0 -113 -35 -219t-104.5 -187.5t-173.5 -130.5t-241 -49q-108 0 -188 32t-133 89t-79 137t-26 176
q0 113 35 219t104.5 187.5t173.5 130.5t241 49q108 0 188 -32t133 -89t79 -137t26 -176zM436 1088q-18 -11 -34 -8.5t-30 22.5l-26 36q-12 18 -12 32q0 16 20 30l288 214q11 8 19.5 10t14.5 2q22 0 38 -16l220 -202q18 -18 18 -34q0 -13 -14 -30l-36 -44q-15 -18 -29.5 -20
t-34.5 12l-180 126z" />
    <glyph glyph-name="otilde" unicode="&#xf5;" horiz-adv-x="1092" 
d="M344 412q0 -102 37.5 -163t118.5 -61q61 0 107.5 34t78 88t47 122t15.5 136q0 102 -37.5 163t-118.5 61q-62 0 -108 -34t-77.5 -88t-47 -122t-15.5 -136zM1036 566q0 -113 -35 -219t-104.5 -187.5t-173.5 -130.5t-241 -49q-108 0 -188 32t-133 89t-79 137t-26 176
q0 113 35 219t104.5 187.5t173.5 130.5t241 49q108 0 188 -32t133 -89t79 -137t26 -176zM784 1286q24 0 49 15t51 39q18 18 34 18q15 0 32 -14l38 -32q18 -15 18 -32q0 -14 -12 -32q-41 -65 -105.5 -101.5t-132.5 -36.5q-43 0 -75 13t-57.5 28t-48 28t-45.5 13
q-24 0 -49 -15t-51 -39q-18 -18 -34 -18q-15 0 -32 14l-38 32q-18 15 -18 32q0 14 12 32q41 65 105.5 101.5t132.5 36.5q43 0 75 -13t57.5 -28t48 -28t45.5 -13z" />
    <glyph glyph-name="odieresis" unicode="&#xf6;" horiz-adv-x="1092" 
d="M344 412q0 -102 37.5 -163t118.5 -61q61 0 107.5 34t78 88t47 122t15.5 136q0 102 -37.5 163t-118.5 61q-62 0 -108 -34t-77.5 -88t-47 -122t-15.5 -136zM1036 566q0 -113 -35 -219t-104.5 -187.5t-173.5 -130.5t-241 -49q-108 0 -188 32t-133 89t-79 137t-26 176
q0 113 35 219t104.5 187.5t173.5 130.5t241 49q108 0 188 -32t133 -89t79 -137t26 -176zM608 1256q0 -33 -12 -62t-33 -51t-49.5 -34.5t-61.5 -12.5q-57 0 -91.5 35.5t-34.5 92.5q0 33 12 62t33 51t49.5 34.5t61.5 12.5q57 0 91.5 -35.5t34.5 -92.5zM974 1256q0 -33 -12 -62
t-33 -51t-49.5 -34.5t-61.5 -12.5q-57 0 -91.5 35.5t-34.5 92.5q0 33 12 62t33 51t49.5 34.5t61.5 12.5q57 0 91.5 -35.5t34.5 -92.5z" />
    <glyph glyph-name="divide" unicode="&#xf7;" 
d="M800 872q0 -33 -12 -62t-33 -51t-49.5 -34.5t-61.5 -12.5q-59 0 -93.5 36t-34.5 92q0 33 12.5 62t33.5 51t50 34.5t62 12.5q57 0 91.5 -35.5t34.5 -92.5zM160 396q-44 0 -38 44l18 100q3 24 14.5 34t35.5 10h852q44 0 38 -44l-18 -100q-3 -24 -14.5 -34t-35.5 -10h-852z
M684 140q0 -33 -12 -62t-33 -51t-49.5 -34.5t-61.5 -12.5q-59 0 -93.5 36t-34.5 92q0 33 12.5 62t33.5 51t50 34.5t62 12.5q57 0 91.5 -35.5t34.5 -92.5z" />
    <glyph glyph-name="oslash" unicode="&#xf8;" horiz-adv-x="1112" 
d="M14 -100q-20 0 -24 9.5t8 24.5l154 188q-44 57 -65 130.5t-21 161.5q0 113 35 219t104.5 187.5t173.5 130.5t241 49q63 0 117.5 -11.5t98.5 -32.5l74 90q15 18 31.5 26t40.5 8h116q20 0 24 -9.5t-8 -24.5l-154 -190q44 -56 65 -129t21 -161q0 -113 -35 -219
t-104.5 -187.5t-173.5 -130.5t-241 -49q-65 0 -119 11.5t-99 32.5l-72 -90q-15 -18 -31.5 -26t-40.5 -8h-116zM416 220q35 -32 94 -32q61 0 107.5 34t78 88t47 122t15.5 136q0 17 -1 33t-3 31zM602 792q-62 0 -108 -34t-77.5 -88t-47 -122t-15.5 -136q0 -18 0.5 -34.5
t3.5 -31.5l338 414q-38 32 -94 32z" />
    <glyph glyph-name="ugrave" unicode="&#xf9;" horiz-adv-x="1122" 
d="M1016 980q44 0 38 -44l-144 -892q-3 -24 -14.5 -34t-35.5 -10h-170q-44 0 -38 44l18 106q-23 -35 -50 -65.5t-63 -54t-82 -37t-107 -13.5q-80 0 -133.5 24t-85.5 63t-45.5 89.5t-13.5 103.5q0 16 1 39t3 47.5t4.5 48.5t5.5 41l80 500q3 24 14.5 34t35.5 10h192
q44 0 38 -44l-82 -510q-2 -13 -3.5 -27t-2.5 -27.5t-1.5 -24.5t-0.5 -17q0 -23 5 -45.5t17 -41t32.5 -30t51.5 -11.5q29 0 62.5 13.5t64.5 47.5t57 92t40 147l70 434q3 24 14.5 34t35.5 10h192zM768 1200q18 -15 18 -34q0 -15 -14 -32l-26 -32q-9 -11 -17 -16.5t-19 -5.5
q-13 0 -30 10l-294 182q-22 14 -22 32q0 13 10 26l80 106q8 9 15.5 14.5t18.5 5.5q6 0 14 -3t22 -17z" />
    <glyph glyph-name="uacute" unicode="&#xfa;" horiz-adv-x="1122" 
d="M1016 980q44 0 38 -44l-144 -892q-3 -24 -14.5 -34t-35.5 -10h-170q-44 0 -38 44l18 106q-23 -35 -50 -65.5t-63 -54t-82 -37t-107 -13.5q-80 0 -133.5 24t-85.5 63t-45.5 89.5t-13.5 103.5q0 16 1 39t3 47.5t4.5 48.5t5.5 41l80 500q3 24 14.5 34t35.5 10h192
q44 0 38 -44l-82 -510q-2 -13 -3.5 -27t-2.5 -27.5t-1.5 -24.5t-0.5 -17q0 -23 5 -45.5t17 -41t32.5 -30t51.5 -11.5q29 0 62.5 13.5t64.5 47.5t57 92t40 147l70 434q3 24 14.5 34t35.5 10h192zM756 1434q14 14 22 17t14 3q11 0 18.5 -5.5t15.5 -14.5l78 -104q10 -13 10 -26
q0 -18 -22 -32l-294 -182q-17 -10 -30 -10q-11 0 -19 5.5t-17 16.5l-26 32q-14 17 -14 32q0 19 18 34z" />
    <glyph glyph-name="ucircumflex" unicode="&#xfb;" horiz-adv-x="1122" 
d="M1016 980q44 0 38 -44l-144 -892q-3 -24 -14.5 -34t-35.5 -10h-170q-44 0 -38 44l18 106q-23 -35 -50 -65.5t-63 -54t-82 -37t-107 -13.5q-80 0 -133.5 24t-85.5 63t-45.5 89.5t-13.5 103.5q0 16 1 39t3 47.5t4.5 48.5t5.5 41l80 500q3 24 14.5 34t35.5 10h192
q44 0 38 -44l-82 -510q-2 -13 -3.5 -27t-2.5 -27.5t-1.5 -24.5t-0.5 -17q0 -23 5 -45.5t17 -41t32.5 -30t51.5 -11.5q29 0 62.5 13.5t64.5 47.5t57 92t40 147l70 434q3 24 14.5 34t35.5 10h192zM452 1088q-18 -11 -34 -8.5t-30 22.5l-26 36q-12 18 -12 32q0 16 20 30
l288 214q11 8 19.5 10t14.5 2q22 0 38 -16l220 -202q18 -18 18 -34q0 -13 -14 -30l-36 -44q-15 -18 -29.5 -20t-34.5 12l-180 126z" />
    <glyph glyph-name="udieresis" unicode="&#xfc;" horiz-adv-x="1122" 
d="M1016 980q44 0 38 -44l-144 -892q-3 -24 -14.5 -34t-35.5 -10h-170q-44 0 -38 44l18 106q-23 -35 -50 -65.5t-63 -54t-82 -37t-107 -13.5q-80 0 -133.5 24t-85.5 63t-45.5 89.5t-13.5 103.5q0 16 1 39t3 47.5t4.5 48.5t5.5 41l80 500q3 24 14.5 34t35.5 10h192
q44 0 38 -44l-82 -510q-2 -13 -3.5 -27t-2.5 -27.5t-1.5 -24.5t-0.5 -17q0 -23 5 -45.5t17 -41t32.5 -30t51.5 -11.5q29 0 62.5 13.5t64.5 47.5t57 92t40 147l70 434q3 24 14.5 34t35.5 10h192zM624 1256q0 -33 -12 -62t-33 -51t-49.5 -34.5t-61.5 -12.5q-57 0 -91.5 35.5
t-34.5 92.5q0 33 12 62t33 51t49.5 34.5t61.5 12.5q57 0 91.5 -35.5t34.5 -92.5zM990 1256q0 -33 -12 -62t-33 -51t-49.5 -34.5t-61.5 -12.5q-57 0 -91.5 35.5t-34.5 92.5q0 33 12 62t33 51t49.5 34.5t61.5 12.5q57 0 91.5 -35.5t34.5 -92.5z" />
    <glyph glyph-name="yacute" unicode="&#xfd;" horiz-adv-x="1122" 
d="M1016 980q44 0 38 -44l-140 -882q-39 -245 -172.5 -359.5t-365.5 -114.5q-69 0 -123 9t-95 22.5t-71 30t-51 32.5q-33 27 -8 64l76 104q15 20 28.5 22.5t33.5 -12.5q32 -23 77 -40.5t113 -17.5q74 0 124 24t82.5 64.5t50 94.5t27.5 115l6 38q-44 -71 -112.5 -110.5
t-165.5 -39.5q-80 0 -133.5 24t-85.5 63t-45.5 89.5t-13.5 103.5q0 16 1 39t3 47.5t4.5 48.5t5.5 41l80 500q3 24 14.5 34t35.5 10h192q44 0 38 -44l-82 -510q-2 -13 -3.5 -27t-2.5 -27.5t-1.5 -24.5t-0.5 -17q0 -23 5 -45.5t17 -41t32.5 -30t51.5 -11.5q29 0 62.5 13.5
t64.5 47.5t57 92t40 147l70 434q3 24 14.5 34t35.5 10h192zM754 1434q14 14 22 17t14 3q11 0 18.5 -5.5t15.5 -14.5l78 -104q10 -13 10 -26q0 -18 -22 -32l-294 -182q-17 -10 -30 -10q-11 0 -19 5.5t-17 16.5l-26 32q-14 17 -14 32q0 19 18 34z" />
    <glyph glyph-name="thorn" unicode="&#xfe;" horiz-adv-x="1148" 
d="M36 -400q-44 0 -38 44l280 1748q3 24 14.5 34t35.5 10h192q44 0 38 -44l-86 -542q44 71 114.5 110.5t167.5 39.5q80 0 140 -27.5t99.5 -80t59 -127.5t19.5 -169q0 -129 -34.5 -241.5t-97.5 -195.5t-150 -131t-192 -48q-92 0 -154.5 34t-91.5 82l-72 -452
q-5 -24 -16.5 -34t-35.5 -10h-192zM784 572q0 115 -40 164.5t-112 49.5q-21 0 -51.5 -7.5t-62 -36t-59 -85.5t-43.5 -157l-34 -216q20 -36 60.5 -62t97.5 -26q62 0 108 33t76 86.5t45 121t15 135.5z" />
    <glyph glyph-name="ydieresis" unicode="&#xff;" horiz-adv-x="1122" 
d="M1016 980q44 0 38 -44l-140 -882q-39 -245 -172.5 -359.5t-365.5 -114.5q-69 0 -123 9t-95 22.5t-71 30t-51 32.5q-33 27 -8 64l76 104q15 20 28.5 22.5t33.5 -12.5q32 -23 77 -40.5t113 -17.5q74 0 124 24t82.5 64.5t50 94.5t27.5 115l6 38q-44 -71 -112.5 -110.5
t-165.5 -39.5q-80 0 -133.5 24t-85.5 63t-45.5 89.5t-13.5 103.5q0 16 1 39t3 47.5t4.5 48.5t5.5 41l80 500q3 24 14.5 34t35.5 10h192q44 0 38 -44l-82 -510q-2 -13 -3.5 -27t-2.5 -27.5t-1.5 -24.5t-0.5 -17q0 -23 5 -45.5t17 -41t32.5 -30t51.5 -11.5q29 0 62.5 13.5
t64.5 47.5t57 92t40 147l70 434q3 24 14.5 34t35.5 10h192zM622 1256q0 -33 -12 -62t-33 -51t-49.5 -34.5t-61.5 -12.5q-57 0 -91.5 35.5t-34.5 92.5q0 33 12 62t33 51t49.5 34.5t61.5 12.5q57 0 91.5 -35.5t34.5 -92.5zM988 1256q0 -33 -12 -62t-33 -51t-49.5 -34.5
t-61.5 -12.5q-57 0 -91.5 35.5t-34.5 92.5q0 33 12 62t33 51t49.5 34.5t61.5 12.5q57 0 91.5 -35.5t34.5 -92.5z" />
    <glyph glyph-name="Amacron" unicode="&#x100;" horiz-adv-x="1270" 
d="M-2 0q-32 0 -32 24q0 5 1.5 10.5t6.5 17.5q62 166 135.5 331t153 322t161.5 303.5t162 277.5q14 21 29 29.5t39 8.5h210q24 0 37 -9.5t19 -32.5q81 -266 139 -578.5t93 -659.5q3 -44 -40 -44h-208q-23 0 -33.5 10t-12.5 34q-3 59 -8 115.5t-14 116.5h-480
q-51 -117 -96 -234q-8 -23 -21 -32.5t-37 -9.5h-204zM804 504q-18 139 -40.5 275.5t-51.5 258.5q-69 -119 -136.5 -256.5t-127.5 -277.5h356zM1024 1658q20 0 28 -8.5t8 -25.5q0 -3 -0.5 -10.5t-3.5 -27.5l-12 -74q-5 -24 -15.5 -31t-34.5 -7h-432q-20 0 -28 8.5t-8 25.5
q0 3 0.5 10.5t3.5 27.5l12 74q5 24 15.5 31t34.5 7h432z" />
    <glyph glyph-name="amacron" unicode="&#x101;" horiz-adv-x="1132" 
d="M1026 980q44 0 38 -44l-144 -892q-3 -24 -14.5 -34t-35.5 -10h-176q-44 0 -38 44l18 106q-42 -80 -118 -125t-180 -45q-80 0 -139 27.5t-97.5 79.5t-57 126.5t-18.5 168.5q0 85 15 164t44 147.5t70 125t93 97t114 62.5t132 22q92 0 152.5 -34t89.5 -82l8 52q5 24 16.5 34
t35.5 10h192zM352 408q0 -58 9.5 -98.5t27.5 -66t45.5 -37.5t63.5 -12q21 0 51 7.5t60.5 36t57.5 85.5t43 157l34 216q-20 36 -58.5 62t-95.5 26q-62 0 -107 -33.5t-74 -87.5t-43 -121t-14 -134zM890 1328q20 0 28 -8.5t8 -25.5q0 -3 -0.5 -10.5t-3.5 -27.5l-12 -74
q-5 -24 -15.5 -31t-34.5 -7h-432q-20 0 -28 8.5t-8 25.5q0 3 0.5 10.5t3.5 27.5l12 74q5 24 15.5 31t34.5 7h432z" />
    <glyph glyph-name="Abreve" unicode="&#x102;" horiz-adv-x="1270" 
d="M-2 0q-32 0 -32 24q0 5 1.5 10.5t6.5 17.5q62 166 135.5 331t153 322t161.5 303.5t162 277.5q14 21 29 29.5t39 8.5h210q24 0 37 -9.5t19 -32.5q81 -266 139 -578.5t93 -659.5q3 -44 -40 -44h-208q-23 0 -33.5 10t-12.5 34q-3 59 -8 115.5t-14 116.5h-480
q-51 -117 -96 -234q-8 -23 -21 -32.5t-37 -9.5h-204zM804 504q-18 139 -40.5 275.5t-51.5 258.5q-69 -119 -136.5 -256.5t-127.5 -277.5h356zM644 1706q21 -47 57.5 -71.5t84.5 -24.5t93.5 25t80.5 73q15 21 28 25.5t36 -7.5l66 -32q24 -12 24 -32q0 -13 -8 -26
q-25 -44 -58 -81t-74.5 -64.5t-90.5 -43t-105 -15.5q-54 0 -98 14.5t-78 40t-57 60t-35 73.5q-5 14 -5.5 20t-0.5 12q0 29 30 44l52 28q21 11 35 8t23 -26z" />
    <glyph glyph-name="abreve" unicode="&#x103;" horiz-adv-x="1132" 
d="M1026 980q44 0 38 -44l-144 -892q-3 -24 -14.5 -34t-35.5 -10h-176q-44 0 -38 44l18 106q-42 -80 -118 -125t-180 -45q-80 0 -139 27.5t-97.5 79.5t-57 126.5t-18.5 168.5q0 85 15 164t44 147.5t70 125t93 97t114 62.5t132 22q92 0 152.5 -34t89.5 -82l8 52q5 24 16.5 34
t35.5 10h192zM352 408q0 -58 9.5 -98.5t27.5 -66t45.5 -37.5t63.5 -12q21 0 51 7.5t60.5 36t57.5 85.5t43 157l34 216q-20 36 -58.5 62t-95.5 26q-62 0 -107 -33.5t-74 -87.5t-43 -121t-14 -134zM514 1376q21 -47 57.5 -71.5t84.5 -24.5t93.5 25t80.5 73q15 21 28 25.5
t36 -7.5l66 -32q24 -12 24 -32q0 -13 -8 -26q-25 -44 -58 -81t-74.5 -64.5t-90.5 -43t-105 -15.5q-54 0 -98 14.5t-78 40t-57 60t-35 73.5q-5 14 -5.5 20t-0.5 12q0 29 30 44l52 28q21 11 35 8t23 -26z" />
    <glyph glyph-name="Aogonek" unicode="&#x104;" horiz-adv-x="1270" 
d="M666 -274q0 42 17.5 81t45 73.5t62 64.5t69.5 55q-3 71 -8 138t-16 138h-480q-51 -117 -96 -234q-8 -23 -21 -32.5t-37 -9.5h-204q-32 0 -32 24q0 5 1.5 10.5t6.5 17.5q62 166 135.5 331t153 322t161.5 303.5t162 277.5q14 21 29 29.5t39 8.5h210q24 0 37 -9.5t19 -32.5
q81 -266 139 -578.5t93 -659.5q3 -44 -40 -44h-136q-17 -20 -39 -43t-41.5 -49t-32.5 -54t-13 -56q0 -33 20 -53.5t62 -20.5q14 0 29.5 2t32.5 10q26 12 38 7.5t26 -27.5l14 -22q11 -18 8 -34.5t-20 -27.5q-42 -27 -94 -41.5t-108 -14.5q-48 0 -84 11.5t-60 31.5t-36 47.5
t-12 59.5zM804 504q-18 139 -40.5 275.5t-51.5 258.5q-69 -119 -136.5 -256.5t-127.5 -277.5h356z" />
    <glyph glyph-name="aogonek" unicode="&#x105;" horiz-adv-x="1132" 
d="M456 -274q0 42 17.5 81t45 73.5t62 64.5t69.5 55l24 150q-42 -80 -118 -125t-180 -45q-80 0 -139 27.5t-97.5 79.5t-57 126.5t-18.5 168.5q0 85 15 164t44 147.5t70 125t93 97t114 62.5t132 22q92 0 152.5 -34t89.5 -82l8 52q5 24 16.5 34t35.5 10h192q44 0 38 -44
l-144 -892q-3 -24 -14.5 -34t-35.5 -10h-104q-17 -20 -39 -43t-41.5 -49t-32.5 -54t-13 -56q0 -33 20 -53.5t62 -20.5q14 0 29.5 2t32.5 10q26 12 38 7.5t26 -27.5l16 -24q11 -18 7 -33.5t-21 -26.5q-42 -27 -94 -41.5t-108 -14.5q-48 0 -84 11.5t-60 31.5t-36 47.5
t-12 59.5zM352 408q0 -58 9.5 -98.5t27.5 -66t45.5 -37.5t63.5 -12q21 0 51 7.5t60.5 36t57.5 85.5t43 157l34 216q-20 36 -58.5 62t-95.5 26q-62 0 -107 -33.5t-74 -87.5t-43 -121t-14 -134z" />
    <glyph glyph-name="Cacute" unicode="&#x106;" horiz-adv-x="1260" 
d="M1126 132q-107 -80 -227.5 -116t-250.5 -36q-141 0 -244 40t-170 113t-99.5 175.5t-32.5 227.5q0 95 18.5 192t57.5 186.5t99.5 168t144 136.5t191 91.5t241.5 33.5q127 0 230.5 -33t175.5 -107q32 -32 2 -64l-126 -134q-17 -18 -30 -18t-30 18q-47 47 -110.5 71.5
t-135.5 24.5t-131 -23t-105.5 -63t-81.5 -94t-58 -115.5t-34.5 -128.5t-11.5 -132q0 -160 67 -242t201 -82q85 0 166.5 31.5t149.5 88.5q18 15 31 13.5t25 -21.5l88 -138q26 -37 -10 -64zM962 1764q14 14 22 17t14 3q11 0 18.5 -5.5t15.5 -14.5l78 -104q10 -13 10 -26
q0 -18 -22 -32l-294 -182q-17 -10 -30 -10q-11 0 -19 5.5t-17 16.5l-26 32q-14 17 -14 32q0 19 18 34z" />
    <glyph glyph-name="cacute" unicode="&#x107;" horiz-adv-x="940" 
d="M798 80q-38 -26 -81 -44.5t-87 -31t-87 -18.5t-81 -6q-93 0 -168 27.5t-128 80.5t-81.5 131.5t-28.5 180.5q0 118 36 226t107.5 190.5t178 132t248.5 49.5q89 0 159 -22t123 -64q35 -28 8 -64l-74 -104q-15 -20 -28.5 -22.5t-33.5 12.5q-35 23 -75 37.5t-85 14.5
q-71 0 -123 -35t-85.5 -89.5t-49.5 -122t-16 -131.5q0 -46 9 -84.5t28 -67t48.5 -44.5t70.5 -16q47 0 98 16t96 48q20 14 33 11t25 -23l60 -106q21 -39 -16 -62zM746 1434q14 14 22 17t14 3q11 0 18.5 -5.5t15.5 -14.5l78 -104q10 -13 10 -26q0 -18 -22 -32l-294 -182
q-17 -10 -30 -10q-11 0 -19 5.5t-17 16.5l-26 32q-14 17 -14 32q0 19 18 34z" />
    <glyph glyph-name="Ccircumflex" unicode="&#x108;" horiz-adv-x="1260" 
d="M1126 132q-107 -80 -227.5 -116t-250.5 -36q-141 0 -244 40t-170 113t-99.5 175.5t-32.5 227.5q0 95 18.5 192t57.5 186.5t99.5 168t144 136.5t191 91.5t241.5 33.5q127 0 230.5 -33t175.5 -107q32 -32 2 -64l-126 -134q-17 -18 -30 -18t-30 18q-47 47 -110.5 71.5
t-135.5 24.5t-131 -23t-105.5 -63t-81.5 -94t-58 -115.5t-34.5 -128.5t-11.5 -132q0 -160 67 -242t201 -82q85 0 166.5 31.5t149.5 88.5q18 15 31 13.5t25 -21.5l88 -138q26 -37 -10 -64zM654 1418q-18 -11 -34 -8.5t-30 22.5l-26 36q-12 18 -12 32q0 16 20 30l288 214
q11 8 19.5 10t14.5 2q22 0 38 -16l220 -202q18 -18 18 -34q0 -13 -14 -30l-36 -44q-15 -18 -29.5 -20t-34.5 12l-180 126z" />
    <glyph glyph-name="ccircumflex" unicode="&#x109;" horiz-adv-x="940" 
d="M798 80q-38 -26 -81 -44.5t-87 -31t-87 -18.5t-81 -6q-93 0 -168 27.5t-128 80.5t-81.5 131.5t-28.5 180.5q0 118 36 226t107.5 190.5t178 132t248.5 49.5q89 0 159 -22t123 -64q35 -28 8 -64l-74 -104q-15 -20 -28.5 -22.5t-33.5 12.5q-35 23 -75 37.5t-85 14.5
q-71 0 -123 -35t-85.5 -89.5t-49.5 -122t-16 -131.5q0 -46 9 -84.5t28 -67t48.5 -44.5t70.5 -16q47 0 98 16t96 48q20 14 33 11t25 -23l60 -106q21 -39 -16 -62zM442 1088q-18 -11 -34 -8.5t-30 22.5l-26 36q-12 18 -12 32q0 16 20 30l288 214q11 8 19.5 10t14.5 2
q22 0 38 -16l220 -202q18 -18 18 -34q0 -13 -14 -30l-36 -44q-15 -18 -29.5 -20t-34.5 12l-180 126z" />
    <glyph glyph-name="Cdotaccent" unicode="&#x10a;" horiz-adv-x="1260" 
d="M1126 132q-107 -80 -227.5 -116t-250.5 -36q-141 0 -244 40t-170 113t-99.5 175.5t-32.5 227.5q0 95 18.5 192t57.5 186.5t99.5 168t144 136.5t191 91.5t241.5 33.5q127 0 230.5 -33t175.5 -107q32 -32 2 -64l-126 -134q-17 -18 -30 -18t-30 18q-47 47 -110.5 71.5
t-135.5 24.5t-131 -23t-105.5 -63t-81.5 -94t-58 -115.5t-34.5 -128.5t-11.5 -132q0 -160 67 -242t201 -82q85 0 166.5 31.5t149.5 88.5q18 15 31 13.5t25 -21.5l88 -138q26 -37 -10 -64zM1014 1586q0 -33 -12 -62t-33 -51t-49.5 -34.5t-61.5 -12.5q-57 0 -91.5 35.5
t-34.5 92.5q0 33 12 62t33 51t49.5 34.5t61.5 12.5q57 0 91.5 -35.5t34.5 -92.5z" />
    <glyph glyph-name="cdotaccent" unicode="&#x10b;" horiz-adv-x="940" 
d="M798 80q-38 -26 -81 -44.5t-87 -31t-87 -18.5t-81 -6q-93 0 -168 27.5t-128 80.5t-81.5 131.5t-28.5 180.5q0 118 36 226t107.5 190.5t178 132t248.5 49.5q89 0 159 -22t123 -64q35 -28 8 -64l-74 -104q-15 -20 -28.5 -22.5t-33.5 12.5q-35 23 -75 37.5t-85 14.5
q-71 0 -123 -35t-85.5 -89.5t-49.5 -122t-16 -131.5q0 -46 9 -84.5t28 -67t48.5 -44.5t70.5 -16q47 0 98 16t96 48q20 14 33 11t25 -23l60 -106q21 -39 -16 -62zM798 1256q0 -33 -12 -62t-33 -51t-49.5 -34.5t-61.5 -12.5q-57 0 -91.5 35.5t-34.5 92.5q0 33 12 62t33 51
t49.5 34.5t61.5 12.5q57 0 91.5 -35.5t34.5 -92.5z" />
    <glyph glyph-name="Ccaron" unicode="&#x10c;" horiz-adv-x="1260" 
d="M1126 132q-107 -80 -227.5 -116t-250.5 -36q-141 0 -244 40t-170 113t-99.5 175.5t-32.5 227.5q0 95 18.5 192t57.5 186.5t99.5 168t144 136.5t191 91.5t241.5 33.5q127 0 230.5 -33t175.5 -107q32 -32 2 -64l-126 -134q-17 -18 -30 -18t-30 18q-47 47 -110.5 71.5
t-135.5 24.5t-131 -23t-105.5 -63t-81.5 -94t-58 -115.5t-34.5 -128.5t-11.5 -132q0 -160 67 -242t201 -82q85 0 166.5 31.5t149.5 88.5q18 15 31 13.5t25 -21.5l88 -138q26 -37 -10 -64zM1096 1750q18 11 34 8.5t30 -22.5l26 -36q12 -18 12 -32q0 -16 -20 -30l-288 -214
q-11 -8 -19.5 -10t-14.5 -2q-22 0 -38 16l-220 202q-18 18 -18 34q0 13 14 30l36 44q15 18 29.5 20t34.5 -12l180 -126z" />
    <glyph glyph-name="ccaron" unicode="&#x10d;" horiz-adv-x="940" 
d="M798 80q-38 -26 -81 -44.5t-87 -31t-87 -18.5t-81 -6q-93 0 -168 27.5t-128 80.5t-81.5 131.5t-28.5 180.5q0 118 36 226t107.5 190.5t178 132t248.5 49.5q89 0 159 -22t123 -64q35 -28 8 -64l-74 -104q-15 -20 -28.5 -22.5t-33.5 12.5q-35 23 -75 37.5t-85 14.5
q-71 0 -123 -35t-85.5 -89.5t-49.5 -122t-16 -131.5q0 -46 9 -84.5t28 -67t48.5 -44.5t70.5 -16q47 0 98 16t96 48q20 14 33 11t25 -23l60 -106q21 -39 -16 -62zM880 1420q18 11 34 8.5t30 -22.5l26 -36q12 -18 12 -32q0 -16 -20 -30l-288 -214q-11 -8 -19.5 -10t-14.5 -2
q-22 0 -38 16l-220 202q-18 18 -18 34q0 13 14 30l36 44q15 18 29.5 20t34.5 -12l180 -126z" />
    <glyph glyph-name="Dcaron" unicode="&#x10e;" horiz-adv-x="1368" 
d="M112 0q-44 0 -38 44l198 1236q3 24 14.5 34t35.5 10h458q150 0 254.5 -45t169.5 -120t94.5 -172.5t29.5 -202.5q0 -157 -44.5 -299t-137.5 -250t-236 -171.5t-340 -63.5h-458zM400 224h186q115 0 197.5 49t135.5 128.5t78 178.5t25 200q0 67 -16 125.5t-51 102t-91.5 68
t-137.5 24.5h-188zM1042 1750q18 11 34 8.5t30 -22.5l26 -36q12 -18 12 -32q0 -16 -20 -30l-288 -214q-11 -8 -19.5 -10t-14.5 -2q-22 0 -38 16l-220 202q-18 18 -18 34q0 13 14 30l36 44q15 18 29.5 20t34.5 -12l180 -126z" />
    <glyph glyph-name="dcaron" unicode="&#x10f;" horiz-adv-x="1136" 
d="M1108 1436q44 0 38 -44l-216 -1348q-3 -24 -14.5 -34t-35.5 -10h-176q-44 0 -38 44l18 106q-42 -80 -120 -125t-182 -45q-80 0 -140 27.5t-99.5 80t-59 127t-19.5 169.5q0 129 34.5 241.5t97.5 195.5t150 131t192 48q92 0 154.5 -34t91.5 -82l82 508q3 24 14.5 34
t35.5 10h192zM352 408q0 -58 10 -98.5t29.5 -66t48 -37.5t64.5 -12q21 0 51.5 7.5t62 36t59 85.5t43.5 157l34 216q-20 36 -60.5 62t-97.5 26q-62 0 -108 -33t-76 -86.5t-45 -121t-15 -135.5zM1214 990q-34 8 -34 36q0 5 0.5 11.5t5.5 24.5l78 348q3 15 10.5 24.5t21.5 9.5
q6 0 10.5 -1t9.5 -3l122 -40q28 -9 28 -30q0 -9 -6 -24l-170 -332q-11 -21 -25 -27.5t-37 -0.5z" />
    <glyph glyph-name="Dcroat" unicode="&#x110;" horiz-adv-x="1388" 
d="M94 556q-45 0 -36 44l18 122q5 24 16.5 34t35.5 10h80l82 514q5 24 16.5 34t35.5 10h458q150 0 254.5 -45t169.5 -120t94.5 -172.5t29.5 -202.5q0 -157 -44.5 -299t-137.5 -250t-236 -171.5t-340 -63.5h-458q-44 0 -38 44l82 512h-82zM420 224h186q115 0 197.5 49
t135.5 128.5t78 178.5t25 200q0 67 -16 125.5t-51 102t-91.5 68t-137.5 24.5h-188l-54 -334h208q45 0 36 -44l-18 -122q-5 -24 -16.5 -34t-35.5 -10h-206z" />
    <glyph glyph-name="dcroat" unicode="&#x111;" horiz-adv-x="1136" 
d="M648 1104q-44 0 -38 44l16 92q3 24 14.5 34t35.5 10h172l18 108q3 24 14.5 34t35.5 10h192q44 0 38 -44l-18 -108h60q44 0 38 -44l-16 -92q-3 -24 -14.5 -34t-35.5 -10h-62l-168 -1060q-3 -24 -14.5 -34t-35.5 -10h-176q-44 0 -38 44l18 106q-42 -80 -120 -125t-182 -45
q-80 0 -140 27.5t-99.5 80t-59 127t-19.5 169.5q0 129 34.5 241.5t97.5 195.5t150 131t192 48q92 0 154.5 -34t91.5 -82l34 220h-170zM352 408q0 -58 10 -98.5t29.5 -66t48 -37.5t64.5 -12q21 0 51.5 7.5t62 36t59 85.5t43.5 157l34 216q-20 36 -60.5 62t-97.5 26
q-62 0 -108 -33t-76 -86.5t-45 -121t-15 -135.5z" />
    <glyph glyph-name="Emacron" unicode="&#x112;" horiz-adv-x="1096" 
d="M1086 1140q-5 -24 -15.5 -34t-34.5 -10h-498l-50 -312h428q44 0 38 -44l-24 -140q-5 -24 -15.5 -34t-34.5 -10h-428l-52 -328h498q44 0 38 -44l-24 -140q-5 -24 -15.5 -34t-34.5 -10h-750q-20 0 -28 9.5t-8 26.5v9.5t2 14.5l194 1220q5 24 15.5 34t34.5 10h750
q20 0 28 -9.5t8 -26.5v-9.5t-2 -14.5zM970 1658q20 0 28 -8.5t8 -25.5q0 -3 -0.5 -10.5t-3.5 -27.5l-12 -74q-5 -24 -15.5 -31t-34.5 -7h-432q-20 0 -28 8.5t-8 25.5q0 3 0.5 10.5t3.5 27.5l12 74q5 24 15.5 31t34.5 7h432z" />
    <glyph glyph-name="emacron" unicode="&#x113;" horiz-adv-x="1012" 
d="M856 80q-78 -53 -169.5 -76.5t-186.5 -23.5q-121 0 -205.5 34.5t-137.5 94.5t-77 140.5t-24 172.5q0 107 32 211t98 185.5t166.5 131.5t237.5 50q80 0 147.5 -18.5t116.5 -55t76.5 -90.5t27.5 -124q0 -54 -20.5 -111t-75.5 -105q-32 -27 -73.5 -47.5t-95.5 -34t-122 -20
t-153 -6.5h-88q6 -61 26.5 -98.5t49.5 -58.5t63.5 -28t68.5 -7q54 0 110 15.5t106 48.5q20 14 33 11.5t25 -23.5l60 -106q21 -39 -16 -62zM702 698q0 28 -11 48.5t-29 34t-41.5 19.5t-48.5 6q-50 0 -88 -20.5t-66 -55t-47 -78.5t-29 -90h76q82 0 137 10.5t87.5 29t46 43
t13.5 53.5zM848 1328q20 0 28 -8.5t8 -25.5q0 -3 -0.5 -10.5t-3.5 -27.5l-12 -74q-5 -24 -15.5 -31t-34.5 -7h-432q-20 0 -28 8.5t-8 25.5q0 3 0.5 10.5t3.5 27.5l12 74q5 24 15.5 31t34.5 7h432z" />
    <glyph glyph-name="Ebreve" unicode="&#x114;" horiz-adv-x="1096" 
d="M1086 1140q-5 -24 -15.5 -34t-34.5 -10h-498l-50 -312h428q44 0 38 -44l-24 -140q-5 -24 -15.5 -34t-34.5 -10h-428l-52 -328h498q44 0 38 -44l-24 -140q-5 -24 -15.5 -34t-34.5 -10h-750q-20 0 -28 9.5t-8 26.5v9.5t2 14.5l194 1220q5 24 15.5 34t34.5 10h750
q20 0 28 -9.5t8 -26.5v-9.5t-2 -14.5zM590 1706q21 -47 57.5 -71.5t84.5 -24.5t93.5 25t80.5 73q15 21 28 25.5t36 -7.5l66 -32q24 -12 24 -32q0 -13 -8 -26q-25 -44 -58 -81t-74.5 -64.5t-90.5 -43t-105 -15.5q-54 0 -98 14.5t-78 40t-57 60t-35 73.5q-5 14 -5.5 20
t-0.5 12q0 29 30 44l52 28q21 11 35 8t23 -26z" />
    <glyph glyph-name="ebreve" unicode="&#x115;" horiz-adv-x="1012" 
d="M856 80q-78 -53 -169.5 -76.5t-186.5 -23.5q-121 0 -205.5 34.5t-137.5 94.5t-77 140.5t-24 172.5q0 107 32 211t98 185.5t166.5 131.5t237.5 50q80 0 147.5 -18.5t116.5 -55t76.5 -90.5t27.5 -124q0 -54 -20.5 -111t-75.5 -105q-32 -27 -73.5 -47.5t-95.5 -34t-122 -20
t-153 -6.5h-88q6 -61 26.5 -98.5t49.5 -58.5t63.5 -28t68.5 -7q54 0 110 15.5t106 48.5q20 14 33 11.5t25 -23.5l60 -106q21 -39 -16 -62zM702 698q0 28 -11 48.5t-29 34t-41.5 19.5t-48.5 6q-50 0 -88 -20.5t-66 -55t-47 -78.5t-29 -90h76q82 0 137 10.5t87.5 29t46 43
t13.5 53.5zM472 1376q21 -47 57.5 -71.5t84.5 -24.5t93.5 25t80.5 73q15 21 28 25.5t36 -7.5l66 -32q24 -12 24 -32q0 -13 -8 -26q-25 -44 -58 -81t-74.5 -64.5t-90.5 -43t-105 -15.5q-54 0 -98 14.5t-78 40t-57 60t-35 73.5q-5 14 -5.5 20t-0.5 12q0 29 30 44l52 28
q21 11 35 8t23 -26z" />
    <glyph glyph-name="Edotaccent" unicode="&#x116;" horiz-adv-x="1096" 
d="M1086 1140q-5 -24 -15.5 -34t-34.5 -10h-498l-50 -312h428q44 0 38 -44l-24 -140q-5 -24 -15.5 -34t-34.5 -10h-428l-52 -328h498q44 0 38 -44l-24 -140q-5 -24 -15.5 -34t-34.5 -10h-750q-20 0 -28 9.5t-8 26.5v9.5t2 14.5l194 1220q5 24 15.5 34t34.5 10h750
q20 0 28 -9.5t8 -26.5v-9.5t-2 -14.5zM880 1586q0 -33 -12 -62t-33 -51t-49.5 -34.5t-61.5 -12.5q-57 0 -91.5 35.5t-34.5 92.5q0 33 12 62t33 51t49.5 34.5t61.5 12.5q57 0 91.5 -35.5t34.5 -92.5z" />
    <glyph glyph-name="edotaccent" unicode="&#x117;" horiz-adv-x="1012" 
d="M856 80q-78 -53 -169.5 -76.5t-186.5 -23.5q-121 0 -205.5 34.5t-137.5 94.5t-77 140.5t-24 172.5q0 107 32 211t98 185.5t166.5 131.5t237.5 50q80 0 147.5 -18.5t116.5 -55t76.5 -90.5t27.5 -124q0 -54 -20.5 -111t-75.5 -105q-32 -27 -73.5 -47.5t-95.5 -34t-122 -20
t-153 -6.5h-88q6 -61 26.5 -98.5t49.5 -58.5t63.5 -28t68.5 -7q54 0 110 15.5t106 48.5q20 14 33 11.5t25 -23.5l60 -106q21 -39 -16 -62zM702 698q0 28 -11 48.5t-29 34t-41.5 19.5t-48.5 6q-50 0 -88 -20.5t-66 -55t-47 -78.5t-29 -90h76q82 0 137 10.5t87.5 29t46 43
t13.5 53.5zM760 1256q0 -33 -12 -62t-33 -51t-49.5 -34.5t-61.5 -12.5q-57 0 -91.5 35.5t-34.5 92.5q0 33 12 62t33 51t49.5 34.5t61.5 12.5q57 0 91.5 -35.5t34.5 -92.5z" />
    <glyph glyph-name="Eogonek" unicode="&#x118;" horiz-adv-x="1096" 
d="M112 0q-44 0 -38 44l198 1236q3 24 14.5 34t35.5 10h750q44 0 38 -44l-24 -140q-3 -24 -14.5 -34t-35.5 -10h-498l-50 -312h428q44 0 38 -44l-24 -140q-3 -24 -14.5 -34t-35.5 -10h-428l-52 -328h498q44 0 38 -44l-24 -140q-3 -24 -14.5 -34t-35.5 -10h-120
q-17 -20 -39 -43t-41.5 -49t-32.5 -54t-13 -56q0 -33 20 -53.5t62 -20.5q14 0 29.5 2t32.5 10q26 12 38 7.5t26 -27.5l16 -24q11 -18 7 -33.5t-21 -26.5q-42 -27 -94 -41.5t-108 -14.5q-48 0 -84 11.5t-60 31.5t-36 47.5t-12 59.5q0 42 17.5 81t45 73.5t62 64.5t69.5 55
h-514z" />
    <glyph glyph-name="eogonek" unicode="&#x119;" horiz-adv-x="1012" 
d="M586 -424q-48 0 -84 11.5t-60 31.5t-36 47.5t-12 59.5q0 40 15.5 77t40.5 70t57 61.5t65 51.5q-21 -3 -40 -4.5t-40 -1.5q-116 0 -199 35t-135.5 95t-77 141t-24.5 173q0 71 14 141.5t43 134.5t73 118.5t103 95t134 63.5t167 23q80 0 147.5 -18.5t116.5 -55t76.5 -90.5
t27.5 -124q0 -54 -20.5 -111t-75.5 -105q-32 -27 -73.5 -47.5t-95.5 -34t-122 -20t-153 -6.5h-88q6 -61 26.5 -98.5t49.5 -58.5t63.5 -28t68.5 -7q54 0 110 15.5t106 48.5q20 14 33 11.5t25 -23.5l58 -104q23 -38 -14 -64q-26 -17 -46.5 -29t-47.5 -27q-55 -30 -90.5 -60
t-56.5 -58.5t-29 -55t-8 -48.5q0 -38 20 -58t62 -20q14 0 29.5 2t32.5 10q26 12 38 7.5t26 -27.5l16 -24q11 -18 7 -33.5t-21 -26.5q-42 -27 -94 -41.5t-108 -14.5zM702 698q0 28 -11 48.5t-29 34t-41.5 19.5t-48.5 6q-50 0 -88 -20.5t-66 -55t-47 -78.5t-29 -90h76
q82 0 137 10.5t87.5 29t46 43t13.5 53.5z" />
    <glyph glyph-name="Ecaron" unicode="&#x11a;" horiz-adv-x="1096" 
d="M1086 1140q-5 -24 -15.5 -34t-34.5 -10h-498l-50 -312h428q44 0 38 -44l-24 -140q-5 -24 -15.5 -34t-34.5 -10h-428l-52 -328h498q44 0 38 -44l-24 -140q-5 -24 -15.5 -34t-34.5 -10h-750q-20 0 -28 9.5t-8 26.5v9.5t2 14.5l194 1220q5 24 15.5 34t34.5 10h750
q20 0 28 -9.5t8 -26.5v-9.5t-2 -14.5zM962 1750q18 11 34 8.5t30 -22.5l26 -36q12 -18 12 -32q0 -16 -20 -30l-288 -214q-11 -8 -19.5 -10t-14.5 -2q-22 0 -38 16l-220 202q-18 18 -18 34q0 13 14 30l36 44q15 18 29.5 20t34.5 -12l180 -126z" />
    <glyph glyph-name="ecaron" unicode="&#x11b;" horiz-adv-x="1012" 
d="M856 80q-78 -53 -169.5 -76.5t-186.5 -23.5q-121 0 -205.5 34.5t-137.5 94.5t-77 140.5t-24 172.5q0 107 32 211t98 185.5t166.5 131.5t237.5 50q80 0 147.5 -18.5t116.5 -55t76.5 -90.5t27.5 -124q0 -54 -20.5 -111t-75.5 -105q-32 -27 -73.5 -47.5t-95.5 -34t-122 -20
t-153 -6.5h-88q6 -61 26.5 -98.5t49.5 -58.5t63.5 -28t68.5 -7q54 0 110 15.5t106 48.5q20 14 33 11.5t25 -23.5l60 -106q21 -39 -16 -62zM702 698q0 28 -11 48.5t-29 34t-41.5 19.5t-48.5 6q-50 0 -88 -20.5t-66 -55t-47 -78.5t-29 -90h76q82 0 137 10.5t87.5 29t46 43
t13.5 53.5zM842 1420q18 11 34 8.5t30 -22.5l26 -36q12 -18 12 -32q0 -16 -20 -30l-288 -214q-11 -8 -19.5 -10t-14.5 -2q-22 0 -38 16l-220 202q-18 18 -18 34q0 13 14 30l36 44q15 18 29.5 20t34.5 -12l180 -126z" />
    <glyph glyph-name="Gcircumflex" unicode="&#x11c;" horiz-adv-x="1390" 
d="M1154 88q-109 -54 -232 -81t-250 -27q-149 0 -256.5 37t-177 107.5t-103 173.5t-33.5 234q0 99 19 197.5t58.5 189t101 168t146 135t193.5 90t244 32.5q65 0 128.5 -8.5t122 -26.5t109.5 -46.5t92 -68.5q32 -29 2 -62l-120 -128q-17 -18 -30.5 -18.5t-31.5 16.5
q-29 24 -63.5 42.5t-73 31.5t-79 19.5t-80.5 6.5q-110 0 -191 -47t-134.5 -124.5t-80 -177t-26.5 -203.5q0 -80 16 -141.5t51.5 -104t92 -64.5t136.5 -22q63 0 124 13.5t112 40.5l38 246h-194q-44 0 -38 44l24 140q3 24 14.5 34t35.5 10h430q44 0 38 -44l-90 -552
q-3 -23 -13.5 -37t-30.5 -25zM662 1418q-18 -11 -34 -8.5t-30 22.5l-26 36q-12 18 -12 32q0 16 20 30l288 214q11 8 19.5 10t14.5 2q22 0 38 -16l220 -202q18 -18 18 -34q0 -13 -14 -30l-36 -44q-15 -18 -29.5 -20t-34.5 12l-180 126z" />
    <glyph glyph-name="gcircumflex" unicode="&#x11d;" horiz-adv-x="1142" 
d="M1036 980q44 0 38 -44l-142 -882q-39 -245 -172.5 -359.5t-365.5 -114.5q-69 0 -123 9t-95 22.5t-71 30t-51 32.5q-33 27 -8 64l76 104q15 20 28.5 22.5t33.5 -12.5q32 -23 77 -40.5t113 -17.5q74 0 124 24t82.5 64.5t50 94.5t27.5 115l6 38q-44 -71 -114.5 -110.5
t-167.5 -39.5q-80 0 -140 27.5t-99.5 80t-59 127t-19.5 169.5q0 129 34.5 241.5t97.5 195.5t150 131t192 48q92 0 154.5 -34t91.5 -82l8 52q5 24 16.5 34t35.5 10h192zM352 408q0 -58 10 -98.5t29.5 -66t48 -37.5t64.5 -12q21 0 51.5 7.5t62 36t59 85.5t43.5 157l34 216
q-20 36 -60.5 62t-97.5 26q-62 0 -108 -33t-76 -86.5t-45 -121t-15 -135.5zM456 1088q-18 -11 -34 -8.5t-30 22.5l-26 36q-12 18 -12 32q0 16 20 30l288 214q11 8 19.5 10t14.5 2q22 0 38 -16l220 -202q18 -18 18 -34q0 -13 -14 -30l-36 -44q-15 -18 -29.5 -20t-34.5 12
l-180 126z" />
    <glyph glyph-name="Gbreve" unicode="&#x11e;" horiz-adv-x="1390" 
d="M1154 88q-109 -54 -232 -81t-250 -27q-149 0 -256.5 37t-177 107.5t-103 173.5t-33.5 234q0 99 19 197.5t58.5 189t101 168t146 135t193.5 90t244 32.5q65 0 128.5 -8.5t122 -26.5t109.5 -46.5t92 -68.5q32 -29 2 -62l-120 -128q-17 -18 -30.5 -18.5t-31.5 16.5
q-29 24 -63.5 42.5t-73 31.5t-79 19.5t-80.5 6.5q-110 0 -191 -47t-134.5 -124.5t-80 -177t-26.5 -203.5q0 -80 16 -141.5t51.5 -104t92 -64.5t136.5 -22q63 0 124 13.5t112 40.5l38 246h-194q-44 0 -38 44l24 140q3 24 14.5 34t35.5 10h430q44 0 38 -44l-90 -552
q-3 -23 -13.5 -37t-30.5 -25zM732 1706q21 -47 57.5 -71.5t84.5 -24.5t93.5 25t80.5 73q15 21 28 25.5t36 -7.5l66 -32q24 -12 24 -32q0 -13 -8 -26q-25 -44 -58 -81t-74.5 -64.5t-90.5 -43t-105 -15.5q-54 0 -98 14.5t-78 40t-57 60t-35 73.5q-5 14 -5.5 20t-0.5 12
q0 29 30 44l52 28q21 11 35 8t23 -26z" />
    <glyph glyph-name="gbreve" unicode="&#x11f;" horiz-adv-x="1142" 
d="M1036 980q44 0 38 -44l-142 -882q-39 -245 -172.5 -359.5t-365.5 -114.5q-69 0 -123 9t-95 22.5t-71 30t-51 32.5q-33 27 -8 64l76 104q15 20 28.5 22.5t33.5 -12.5q32 -23 77 -40.5t113 -17.5q74 0 124 24t82.5 64.5t50 94.5t27.5 115l6 38q-44 -71 -114.5 -110.5
t-167.5 -39.5q-80 0 -140 27.5t-99.5 80t-59 127t-19.5 169.5q0 129 34.5 241.5t97.5 195.5t150 131t192 48q92 0 154.5 -34t91.5 -82l8 52q5 24 16.5 34t35.5 10h192zM352 408q0 -58 10 -98.5t29.5 -66t48 -37.5t64.5 -12q21 0 51.5 7.5t62 36t59 85.5t43.5 157l34 216
q-20 36 -60.5 62t-97.5 26q-62 0 -108 -33t-76 -86.5t-45 -121t-15 -135.5zM524 1376q21 -47 57.5 -71.5t84.5 -24.5t93.5 25t80.5 73q15 21 28 25.5t36 -7.5l66 -32q24 -12 24 -32q0 -13 -8 -26q-25 -44 -58 -81t-74.5 -64.5t-90.5 -43t-105 -15.5q-54 0 -98 14.5t-78 40
t-57 60t-35 73.5q-5 14 -5.5 20t-0.5 12q0 29 30 44l52 28q21 11 35 8t23 -26z" />
    <glyph glyph-name="Gdotaccent" unicode="&#x120;" horiz-adv-x="1390" 
d="M1154 88q-109 -54 -232 -81t-250 -27q-149 0 -256.5 37t-177 107.5t-103 173.5t-33.5 234q0 99 19 197.5t58.5 189t101 168t146 135t193.5 90t244 32.5q65 0 128.5 -8.5t122 -26.5t109.5 -46.5t92 -68.5q32 -29 2 -62l-120 -128q-17 -18 -30.5 -18.5t-31.5 16.5
q-29 24 -63.5 42.5t-73 31.5t-79 19.5t-80.5 6.5q-110 0 -191 -47t-134.5 -124.5t-80 -177t-26.5 -203.5q0 -80 16 -141.5t51.5 -104t92 -64.5t136.5 -22q63 0 124 13.5t112 40.5l38 246h-194q-44 0 -38 44l24 140q3 24 14.5 34t35.5 10h430q44 0 38 -44l-90 -552
q-3 -23 -13.5 -37t-30.5 -25zM1022 1586q0 -33 -12 -62t-33 -51t-49.5 -34.5t-61.5 -12.5q-57 0 -91.5 35.5t-34.5 92.5q0 33 12 62t33 51t49.5 34.5t61.5 12.5q57 0 91.5 -35.5t34.5 -92.5z" />
    <glyph glyph-name="gdotaccent" unicode="&#x121;" horiz-adv-x="1142" 
d="M1036 980q44 0 38 -44l-142 -882q-39 -245 -172.5 -359.5t-365.5 -114.5q-69 0 -123 9t-95 22.5t-71 30t-51 32.5q-33 27 -8 64l76 104q15 20 28.5 22.5t33.5 -12.5q32 -23 77 -40.5t113 -17.5q74 0 124 24t82.5 64.5t50 94.5t27.5 115l6 38q-44 -71 -114.5 -110.5
t-167.5 -39.5q-80 0 -140 27.5t-99.5 80t-59 127t-19.5 169.5q0 129 34.5 241.5t97.5 195.5t150 131t192 48q92 0 154.5 -34t91.5 -82l8 52q5 24 16.5 34t35.5 10h192zM352 408q0 -58 10 -98.5t29.5 -66t48 -37.5t64.5 -12q21 0 51.5 7.5t62 36t59 85.5t43.5 157l34 216
q-20 36 -60.5 62t-97.5 26q-62 0 -108 -33t-76 -86.5t-45 -121t-15 -135.5zM812 1256q0 -33 -12 -62t-33 -51t-49.5 -34.5t-61.5 -12.5q-57 0 -91.5 35.5t-34.5 92.5q0 33 12 62t33 51t49.5 34.5t61.5 12.5q57 0 91.5 -35.5t34.5 -92.5z" />
    <glyph glyph-name="Gcommaaccent" unicode="&#x122;" horiz-adv-x="1390" 
d="M1154 88q-109 -54 -232 -81t-250 -27q-149 0 -256.5 37t-177 107.5t-103 173.5t-33.5 234q0 99 19 197.5t58.5 189t101 168t146 135t193.5 90t244 32.5q65 0 128.5 -8.5t122 -26.5t109.5 -46.5t92 -68.5q32 -29 2 -62l-120 -128q-17 -18 -30.5 -18.5t-31.5 16.5
q-29 24 -63.5 42.5t-73 31.5t-79 19.5t-80.5 6.5q-110 0 -191 -47t-134.5 -124.5t-80 -177t-26.5 -203.5q0 -80 16 -141.5t51.5 -104t92 -64.5t136.5 -22q63 0 124 13.5t112 40.5l38 246h-194q-44 0 -38 44l24 140q3 24 14.5 34t35.5 10h430q44 0 38 -44l-90 -552
q-3 -23 -13.5 -37t-30.5 -25zM770 -170q0 -36 -15.5 -74.5t-41 -76t-60 -73t-71.5 -64.5q-8 -6 -15 -8t-13 -2q-8 0 -14 2t-14 8l-4 4q-8 6 -11 13t-3 13t2 12t8 12q27 30 39.5 52t12.5 42q0 18 -7 30t-16 24t-16 27t-7 39q0 27 10.5 50.5t28.5 41.5t43 28t54 10
q45 0 77.5 -27t32.5 -83z" />
    <glyph glyph-name="gcommaaccent" unicode="&#x123;" horiz-adv-x="1142" 
d="M1036 980q44 0 38 -44l-142 -882q-39 -245 -172.5 -359.5t-365.5 -114.5q-69 0 -123 9t-95 22.5t-71 30t-51 32.5q-33 27 -8 64l76 104q15 20 28.5 22.5t33.5 -12.5q32 -23 77 -40.5t113 -17.5q74 0 124 24t82.5 64.5t50 94.5t27.5 115l6 38q-44 -71 -114.5 -110.5
t-167.5 -39.5q-80 0 -140 27.5t-99.5 80t-59 127t-19.5 169.5q0 129 34.5 241.5t97.5 195.5t150 131t192 48q92 0 154.5 -34t91.5 -82l8 52q5 24 16.5 34t35.5 10h192zM352 408q0 -58 10 -98.5t29.5 -66t48 -37.5t64.5 -12q21 0 51.5 7.5t62 36t59 85.5t43.5 157l34 216
q-20 36 -60.5 62t-97.5 26q-62 0 -108 -33t-76 -86.5t-45 -121t-15 -135.5zM540 1202q0 36 15.5 74.5t41 76t59.5 73t72 64.5q8 6 15 8t13 2q8 0 14 -2t14 -8l4 -4q8 -6 11 -13t3 -13t-2 -12t-8 -12q-27 -30 -39.5 -52t-12.5 -42q0 -18 7 -30t16 -24t16 -27t7 -39
q0 -27 -10.5 -50.5t-28.5 -41.5t-43 -28t-54 -10q-45 0 -77.5 27t-32.5 83z" />
    <glyph glyph-name="Hcircumflex" unicode="&#x124;" horiz-adv-x="1384" 
d="M488 790h496l78 490q5 24 15.5 34t34.5 10h208q20 0 28 -9.5t8 -26.5v-9.5t-2 -14.5l-194 -1220q-5 -24 -15.5 -34t-34.5 -10h-208q-20 0 -28 9.5t-8 26.5v9.5t2 14.5l78 490h-496l-80 -506q-5 -24 -15.5 -34t-34.5 -10h-208q-20 0 -28 9.5t-8 26.5v9.5t2 14.5l194 1220
q5 24 15.5 34t34.5 10h208q20 0 28 -9.5t8 -26.5v-9.5t-2 -14.5zM642 1418q-18 -11 -34 -8.5t-30 22.5l-26 36q-12 18 -12 32q0 16 20 30l288 214q11 8 19.5 10t14.5 2q22 0 38 -16l220 -202q18 -18 18 -34q0 -13 -14 -30l-36 -44q-15 -18 -29.5 -20t-34.5 12l-180 126z" />
    <glyph glyph-name="hcircumflex" unicode="&#x125;" horiz-adv-x="1132" 
d="M278 1392q3 24 14.5 34t35.5 10h192q44 0 38 -44l-86 -538q45 68 114 107t170 39q79 0 132 -24t85.5 -63t46.5 -89.5t14 -103.5q0 -16 -1 -39t-3 -47.5t-4.5 -48.5t-5.5 -41l-80 -500q-3 -24 -14.5 -34t-35.5 -10h-192q-44 0 -38 44l82 510q2 13 3.5 27t2.5 27.5
t1.5 24.5t0.5 17q0 22 -5.5 45t-18.5 41.5t-34 30t-52 11.5q-29 0 -63 -13.5t-66 -47.5t-58.5 -92t-40.5 -147l-70 -434q-3 -24 -14.5 -34t-35.5 -10h-192q-44 0 -38 44zM247 1510q-18 -11 -34 -8.5t-30 22.5l-26 36q-12 18 -12 32q0 16 20 30l288 214q11 8 19.5 10t14.5 2
q22 0 38 -16l220 -202q18 -18 18 -34q0 -13 -14 -30l-36 -44q-15 -18 -29.5 -20t-34.5 12l-180 126z" />
    <glyph glyph-name="Hbar" unicode="&#x126;" horiz-adv-x="1408" 
d="M1434 1156q20 0 28 -9.5t8 -26.5v-9.5t-2 -14.5l-16 -102q-5 -24 -15.5 -31t-34.5 -7h-86l-144 -912q-3 -24 -14.5 -34t-35.5 -10h-208q-44 0 -38 44l76 474h-496l-74 -474q-3 -24 -14.5 -34t-35.5 -10h-208q-20 0 -28 9.5t-8 26.5v9.5t2 14.5l142 896h-84q-44 0 -38 44
l20 112q5 24 15.5 34t34.5 10h84l20 124q3 24 14.5 34t35.5 10h208q45 0 36 -44l-22 -136h494l22 136q5 24 16.5 34t35.5 10h208q45 0 36 -44l-20 -124h86zM494 758h496l32 210h-494z" />
    <glyph glyph-name="hbar" unicode="&#x127;" horiz-adv-x="1132" 
d="M174 1104q-44 0 -38 44l16 92q3 24 14.5 34t35.5 10h58l18 108q3 24 14.5 34t35.5 10h192q44 0 38 -44l-18 -108h174q44 0 38 -44l-16 -92q-3 -24 -14.5 -34t-35.5 -10h-174l-40 -250q45 68 114 107t170 39q79 0 132 -24t85.5 -63t46.5 -89.5t14 -103.5q0 -16 -1 -39
t-3 -47.5t-4.5 -48.5t-5.5 -41l-80 -500q-3 -24 -14.5 -34t-35.5 -10h-192q-44 0 -38 44l82 510q2 13 3.5 27t2.5 27.5t1.5 24.5t0.5 17q0 22 -5.5 45t-18.5 41.5t-34 30t-52 11.5q-29 0 -63 -13.5t-66 -47.5t-58.5 -92t-40.5 -147l-70 -434q-3 -24 -14.5 -34t-35.5 -10
h-192q-44 0 -38 44l168 1060h-56z" />
    <glyph glyph-name="Itilde" unicode="&#x128;" horiz-adv-x="594" 
d="M370 44q-5 -24 -15.5 -34t-34.5 -10h-208q-20 0 -28 9.5t-8 26.5v9.5t2 14.5l194 1220q5 24 15.5 34t34.5 10h208q20 0 28 -9.5t8 -26.5v-9.5t-2 -14.5zM597 1616q24 0 49 15t51 39q18 18 34 18q15 0 32 -14l38 -32q18 -15 18 -32q0 -14 -12 -32q-41 -65 -105.5 -101.5
t-132.5 -36.5q-43 0 -75 13t-57.5 28t-48 28t-45.5 13q-24 0 -49 -15t-51 -39q-18 -18 -34 -18q-15 0 -32 14l-38 32q-18 15 -18 32q0 14 12 32q41 65 105.5 101.5t132.5 36.5q43 0 75 -13t57.5 -28t48 -28t45.5 -13z" />
    <glyph glyph-name="itilde" unicode="&#x129;" horiz-adv-x="548" 
d="M342 44q-5 -24 -15.5 -34t-34.5 -10h-192q-20 0 -28 9.5t-8 26.5v9.5t2 14.5l140 876q5 24 15.5 34t34.5 10h192q20 0 28 -9.5t8 -26.5v-9.5t-2 -14.5zM527 1286q24 0 49 15t51 39q18 18 34 18q15 0 32 -14l38 -32q18 -15 18 -32q0 -14 -12 -32q-41 -65 -105.5 -101.5
t-132.5 -36.5q-43 0 -75 13t-57.5 28t-48 28t-45.5 13q-24 0 -49 -15t-51 -39q-18 -18 -34 -18q-15 0 -32 14l-38 32q-18 15 -18 32q0 14 12 32q41 65 105.5 101.5t132.5 36.5q43 0 75 -13t57.5 -28t48 -28t45.5 -13z" />
    <glyph glyph-name="Imacron" unicode="&#x12a;" horiz-adv-x="594" 
d="M370 44q-5 -24 -15.5 -34t-34.5 -10h-208q-20 0 -28 9.5t-8 26.5v9.5t2 14.5l194 1220q5 24 15.5 34t34.5 10h208q20 0 28 -9.5t8 -26.5v-9.5t-2 -14.5zM695 1658q20 0 28 -8.5t8 -25.5q0 -3 -0.5 -10.5t-3.5 -27.5l-12 -74q-5 -24 -15.5 -31t-34.5 -7h-432
q-20 0 -28 8.5t-8 25.5q0 3 0.5 10.5t3.5 27.5l12 74q5 24 15.5 31t34.5 7h432z" />
    <glyph glyph-name="imacron" unicode="&#x12b;" horiz-adv-x="548" 
d="M342 44q-5 -24 -15.5 -34t-34.5 -10h-192q-20 0 -28 9.5t-8 26.5v9.5t2 14.5l140 876q5 24 15.5 34t34.5 10h192q20 0 28 -9.5t8 -26.5v-9.5t-2 -14.5zM623 1328q20 0 28 -8.5t8 -25.5q0 -3 -0.5 -10.5t-3.5 -27.5l-12 -74q-5 -24 -15.5 -31t-34.5 -7h-432q-20 0 -28 8.5
t-8 25.5q0 3 0.5 10.5t3.5 27.5l12 74q5 24 15.5 31t34.5 7h432z" />
    <glyph glyph-name="Ibreve" unicode="&#x12c;" horiz-adv-x="594" 
d="M370 44q-5 -24 -15.5 -34t-34.5 -10h-208q-20 0 -28 9.5t-8 26.5v9.5t2 14.5l194 1220q5 24 15.5 34t34.5 10h208q20 0 28 -9.5t8 -26.5v-9.5t-2 -14.5zM317 1706q21 -47 57.5 -71.5t84.5 -24.5t93.5 25t80.5 73q15 21 28 25.5t36 -7.5l66 -32q24 -12 24 -32
q0 -13 -8 -26q-25 -44 -58 -81t-74.5 -64.5t-90.5 -43t-105 -15.5q-54 0 -98 14.5t-78 40t-57 60t-35 73.5q-5 14 -5.5 20t-0.5 12q0 29 30 44l52 28q21 11 35 8t23 -26z" />
    <glyph glyph-name="ibreve" unicode="&#x12d;" horiz-adv-x="548" 
d="M342 44q-5 -24 -15.5 -34t-34.5 -10h-192q-20 0 -28 9.5t-8 26.5v9.5t2 14.5l140 876q5 24 15.5 34t34.5 10h192q20 0 28 -9.5t8 -26.5v-9.5t-2 -14.5zM247 1376q21 -47 57.5 -71.5t84.5 -24.5t93.5 25t80.5 73q15 21 28 25.5t36 -7.5l66 -32q24 -12 24 -32q0 -13 -8 -26
q-25 -44 -58 -81t-74.5 -64.5t-90.5 -43t-105 -15.5q-54 0 -98 14.5t-78 40t-57 60t-35 73.5q-5 14 -5.5 20t-0.5 12q0 29 30 44l52 28q21 11 35 8t23 -26z" />
    <glyph glyph-name="Iogonek" unicode="&#x12e;" horiz-adv-x="594" 
d="M112 0q-44 0 -38 44l198 1236q3 24 14.5 34t35.5 10h208q44 0 38 -44l-198 -1236q-3 -24 -14.5 -34t-35.5 -10h-44q-17 -20 -39 -43t-41.5 -49t-32.5 -54t-13 -56q0 -33 20 -53.5t62 -20.5q14 0 29.5 2t32.5 10q26 12 38 7.5t26 -27.5l16 -24q11 -18 7 -33.5t-21 -26.5
q-42 -27 -94 -41.5t-108 -14.5q-48 0 -84 11.5t-60 31.5t-36 47.5t-12 59.5q0 42 17.5 81t45 73.5t62 64.5t69.5 55h-48z" />
    <glyph glyph-name="iogonek" unicode="&#x12f;" horiz-adv-x="548" 
d="M100 0q-44 0 -38 44l144 892q3 24 14.5 34t35.5 10h192q44 0 38 -44l-144 -892q-3 -24 -14.5 -34t-35.5 -10h-36q-17 -20 -39 -43t-41.5 -49t-32.5 -54t-13 -56q0 -33 20 -53.5t62 -20.5q14 0 29.5 2t32.5 10q26 12 38 7.5t26 -27.5l16 -24q11 -18 7 -33.5t-21 -26.5
q-42 -27 -94 -41.5t-108 -14.5q-48 0 -84 11.5t-60 31.5t-36 47.5t-12 59.5q0 42 17.5 81t45 73.5t62 64.5t69.5 55h-40zM566 1300q0 -39 -14.5 -73.5t-39.5 -60t-59 -40t-73 -14.5q-34 0 -61.5 11.5t-47 31.5t-30.5 48t-11 61q0 39 14.5 73t39.5 59.5t59 40.5t73 15
q68 0 109 -42t41 -110z" />
    <glyph glyph-name="Idotaccent" unicode="&#x130;" horiz-adv-x="594" 
d="M370 44q-5 -24 -15.5 -34t-34.5 -10h-208q-20 0 -28 9.5t-8 26.5v9.5t2 14.5l194 1220q5 24 15.5 34t34.5 10h208q20 0 28 -9.5t8 -26.5v-9.5t-2 -14.5zM606 1586q0 -33 -12 -62t-33 -51t-49.5 -34.5t-61.5 -12.5q-57 0 -91.5 35.5t-34.5 92.5q0 33 12 62t33 51
t49.5 34.5t61.5 12.5q57 0 91.5 -35.5t34.5 -92.5z" />
    <glyph glyph-name="dotlessi" unicode="&#x131;" horiz-adv-x="548" 
d="M342 44q-5 -24 -15.5 -34t-34.5 -10h-192q-20 0 -28 9.5t-8 26.5v9.5t2 14.5l140 876q5 24 15.5 34t34.5 10h192q20 0 28 -9.5t8 -26.5v-9.5t-2 -14.5z" />
    <glyph glyph-name="IJ" unicode="&#x132;" horiz-adv-x="1238" 
d="M416 612q-5 -24 -15.5 -34t-34.5 -10h-208q-20 0 -28 9.5t-8 26.5v9.5t2 14.5l104 652q5 24 15.5 34t34.5 10h208q20 0 28 -9.5t8 -26.5v-9.5t-2 -14.5zM1102 476q-21 -134 -74.5 -228.5t-131 -154t-174.5 -86.5t-206 -27q-124 0 -217 31t-155 85q-34 31 -8 66l100 136
q15 20 28 21.5t30 -15.5q88 -76 216 -76q119 0 198 67t102 207l124 778q3 23 14.5 33.5t35.5 10.5h208q20 0 28 -9.5t8 -26.5v-9.5t-2 -14.5z" />
    <glyph glyph-name="ij" unicode="&#x133;" horiz-adv-x="1096" 
d="M566 1300q0 -39 -14.5 -73.5t-39.5 -60t-59 -40t-73 -14.5q-34 0 -61.5 11.5t-47 31.5t-30.5 48t-11 61q0 39 14.5 73t39.5 59.5t59 40.5t73 15q68 0 109 -42t41 -110zM100 0q-44 0 -38 44l144 892q3 24 14.5 34t35.5 10h192q44 0 38 -44l-144 -892q-3 -24 -14.5 -34
t-35.5 -10h-192zM872 -74q-27 -170 -114.5 -258t-253.5 -88q-54 0 -101.5 9.5t-86.5 32.5q-36 21 -18 60l54 110q12 24 24 28.5t36 -4.5q30 -12 58 -12q35 0 58 14.5t37 38.5t22 54.5t13 62.5l154 962q3 24 14.5 34t35.5 10h192q44 0 38 -44zM1114 1300q0 -39 -14.5 -73.5
t-39.5 -60t-59 -40t-73 -14.5q-34 0 -61.5 11.5t-47 31.5t-30.5 48t-11 61q0 39 14.5 73t39.5 59.5t59 40.5t73 15q68 0 109 -42t41 -110z" />
    <glyph glyph-name="Jcircumflex" unicode="&#x134;" horiz-adv-x="938" 
d="M794 488q-20 -127 -58.5 -222t-99.5 -158.5t-146 -95.5t-198 -32q-92 0 -166 19.5t-128 58.5q-11 9 -16.5 17t-5.5 19q0 13 8 26l86 134q14 21 26.5 23.5t33.5 -11.5q33 -21 72.5 -33.5t75.5 -12.5q80 0 139 62t79 184l130 814q3 24 14.5 34t35.5 10h208q20 0 28 -9.5
t8 -26.5v-9.5t-2 -14.5zM600 1418q-18 -11 -34 -8.5t-30 22.5l-26 36q-12 18 -12 32q0 16 20 30l288 214q11 8 19.5 10t14.5 2q22 0 38 -16l220 -202q18 -18 18 -34q0 -13 -14 -30l-36 -44q-15 -18 -29.5 -20t-34.5 12l-180 126z" />
    <glyph glyph-name="jcircumflex" unicode="&#x135;" horiz-adv-x="548" 
d="M206 936q5 24 15.5 34t34.5 10h192q20 0 28 -9.5t8 -26.5v-9.5t-2 -14.5l-158 -994q-27 -170 -114.5 -258t-253.5 -88q-54 0 -101.5 9.5t-86.5 32.5q-24 15 -24 36q0 12 6 24l54 110q12 24 24 28.5t36 -4.5q30 -12 58 -12q35 0 58 14.5t37 38.5t22 54.5t13 62.5z
M179 1088q-18 -11 -34 -8.5t-30 22.5l-26 36q-12 18 -12 32q0 16 20 30l288 214q11 8 19.5 10t14.5 2q22 0 38 -16l220 -202q18 -18 18 -34q0 -13 -14 -30l-36 -44q-15 -18 -29.5 -20t-34.5 12l-180 126z" />
    <glyph glyph-name="Kcommaaccent" unicode="&#x136;" horiz-adv-x="1272" 
d="M482 750q67 56 135 124t131.5 139t119.5 142t100 133q14 20 29 28t39 8h244q14 0 20 -5t6 -13q0 -3 -1.5 -8t-4.5 -10q-46 -69 -103.5 -141t-121 -142.5t-130.5 -137.5t-131 -125q53 -71 102.5 -156.5t91.5 -177.5t75.5 -186t56.5 -180q9 -42 -34 -42h-230q-24 0 -36 9.5
t-18 32.5q-17 64 -42 131.5t-56 135t-67.5 132t-76.5 121.5q-36 -30 -72.5 -58t-71.5 -52l-66 -408q-5 -24 -15.5 -34t-34.5 -10h-208q-20 0 -28 9.5t-8 26.5v9.5t2 14.5l194 1220q5 24 15.5 34t34.5 10h208q20 0 28 -9.5t8 -26.5v-9.5t-2 -14.5zM696 -170
q0 -36 -15.5 -74.5t-41 -76t-60 -73t-71.5 -64.5q-8 -6 -15 -8t-13 -2q-8 0 -14 2t-14 8l-4 4q-8 6 -11 13t-3 13t2 12t8 12q27 30 39.5 52t12.5 42q0 18 -7 30t-16 24t-16 27t-7 39q0 27 10.5 50.5t28.5 41.5t43 28t54 10q45 0 77.5 -27t32.5 -83z" />
    <glyph glyph-name="kcommaaccent" unicode="&#x137;" horiz-adv-x="1082" 
d="M426 570q49 40 98 86.5t94 96t85.5 98.5t72.5 93q15 20 30.5 28t41.5 8h200q14 0 19 -5t5 -13q0 -9 -10 -22q-74 -97 -160 -192.5t-186 -187.5q38 -55 74.5 -119.5t68 -132t56 -136t39.5 -130.5q12 -42 -34 -42h-210q-24 0 -36 9.5t-20 32.5q-24 85 -60 175t-84 167
q-32 -24 -63.5 -46.5t-64.5 -43.5l-40 -250q-5 -24 -15.5 -34t-34.5 -10h-192q-20 0 -28 9.5t-8 26.5v9.5t2 14.5l212 1332q5 24 15.5 34t34.5 10h192q20 0 28 -9.5t8 -26.5v-9.5t-2 -14.5zM592 -170q0 -36 -15.5 -74.5t-41 -76t-60 -73t-71.5 -64.5q-8 -6 -15 -8t-13 -2
q-8 0 -14 2t-14 8l-4 4q-8 6 -11 13t-3 13t2 12t8 12q27 30 39.5 52t12.5 42q0 18 -7 30t-16 24t-16 27t-7 39q0 27 10.5 50.5t28.5 41.5t43 28t54 10q45 0 77.5 -27t32.5 -83z" />
    <glyph glyph-name="Lacute" unicode="&#x139;" horiz-adv-x="992" 
d="M868 240q20 0 28 -9.5t8 -26.5v-9.5t-2 -14.5l-22 -138q-5 -24 -15.5 -33t-34.5 -9h-718q-20 0 -28 9.5t-8 26.5v9.5t2 14.5l194 1220q5 24 15.5 34t34.5 10h208q44 0 38 -44l-166 -1040h466v0zM555 1764q14 14 22 17t14 3q11 0 18.5 -5.5t15.5 -14.5l78 -104
q10 -13 10 -26q0 -18 -22 -32l-294 -182q-17 -10 -30 -10q-11 0 -19 5.5t-17 16.5l-26 32q-14 17 -14 32q0 19 18 34z" />
    <glyph glyph-name="lacute" unicode="&#x13a;" horiz-adv-x="548" 
d="M342 44q-5 -24 -15.5 -34t-34.5 -10h-192q-20 0 -28 9.5t-8 26.5v9.5t2 14.5l212 1332q5 24 15.5 34t34.5 10h192q20 0 28 -9.5t8 -26.5v-9.5t-2 -14.5zM506 1846q14 14 22 17t14 3q11 0 18.5 -5.5t15.5 -14.5l78 -104q10 -13 10 -26q0 -18 -22 -32l-294 -182
q-17 -10 -30 -10q-11 0 -19 5.5t-17 16.5l-26 32q-14 17 -14 32q0 19 18 34z" />
    <glyph glyph-name="Lcommaaccent" unicode="&#x13b;" horiz-adv-x="992" 
d="M868 240q20 0 28 -9.5t8 -26.5v-9.5t-2 -14.5l-22 -138q-5 -24 -15.5 -33t-34.5 -9h-718q-20 0 -28 9.5t-8 26.5v9.5t2 14.5l194 1220q5 24 15.5 34t34.5 10h208q44 0 38 -44l-166 -1040h466v0zM568 -170q0 -36 -15.5 -74.5t-41 -76t-60 -73t-71.5 -64.5q-8 -6 -15 -8
t-13 -2q-8 0 -14 2t-14 8l-4 4q-8 6 -11 13t-3 13t2 12t8 12q27 30 39.5 52t12.5 42q0 18 -7 30t-16 24t-16 27t-7 39q0 27 10.5 50.5t28.5 41.5t43 28t54 10q45 0 77.5 -27t32.5 -83z" />
    <glyph glyph-name="lcommaaccent" unicode="&#x13c;" horiz-adv-x="548" 
d="M342 44q-5 -24 -15.5 -34t-34.5 -10h-192q-20 0 -28 9.5t-8 26.5v9.5t2 14.5l212 1332q5 24 15.5 34t34.5 10h192q20 0 28 -9.5t8 -26.5v-9.5t-2 -14.5zM296 -170q0 -36 -15.5 -74.5t-41 -76t-60 -73t-71.5 -64.5q-8 -6 -15 -8t-13 -2q-8 0 -14 2t-14 8l-4 4q-8 6 -11 13
t-3 13t2 12t8 12q27 30 39.5 52t12.5 42q0 18 -7 30t-16 24t-16 27t-7 39q0 27 10.5 50.5t28.5 41.5t43 28t54 10q45 0 77.5 -27t32.5 -83z" />
    <glyph glyph-name="Lcaron" unicode="&#x13d;" horiz-adv-x="992" 
d="M868 240q20 0 28 -9.5t8 -26.5v-9.5t-2 -14.5l-22 -138q-5 -24 -15.5 -33t-34.5 -9h-718q-20 0 -28 9.5t-8 26.5v9.5t2 14.5l194 1220q5 24 15.5 34t34.5 10h208q44 0 38 -44l-166 -1040h466v0zM676 881q-34 8 -34 36q0 5 0.5 11.5t5.5 24.5l78 348q3 15 10.5 24.5
t21.5 9.5q6 0 10.5 -1t9.5 -3l122 -40q28 -9 28 -30q0 -9 -6 -24l-170 -332q-11 -21 -25 -27.5t-37 -0.5z" />
    <glyph glyph-name="lcaron" unicode="&#x13e;" horiz-adv-x="548" 
d="M342 44q-5 -24 -15.5 -34t-34.5 -10h-192q-20 0 -28 9.5t-8 26.5v9.5t2 14.5l212 1332q5 24 15.5 34t34.5 10h192q20 0 28 -9.5t8 -26.5v-9.5t-2 -14.5zM626 990q-34 8 -34 36q0 5 0.5 11.5t5.5 24.5l78 348q3 15 10.5 24.5t21.5 9.5q6 0 10.5 -1t9.5 -3l122 -40
q28 -9 28 -30q0 -9 -6 -24l-170 -332q-11 -21 -25 -27.5t-37 -0.5z" />
    <glyph glyph-name="Ldot" unicode="&#x13f;" horiz-adv-x="992" 
d="M868 240q20 0 28 -9.5t8 -26.5v-9.5t-2 -14.5l-22 -138q-5 -24 -15.5 -33t-34.5 -9h-718q-20 0 -28 9.5t-8 26.5v9.5t2 14.5l194 1220q5 24 15.5 34t34.5 10h208q44 0 38 -44l-166 -1040h466v0zM946 707q0 -33 -12 -62t-33 -51t-49.5 -34.5t-61.5 -12.5q-57 0 -91.5 35.5
t-34.5 92.5q0 33 12 62t33 51t49.5 34.5t61.5 12.5q57 0 91.5 -35.5t34.5 -92.5z" />
    <glyph glyph-name="ldot" unicode="&#x140;" horiz-adv-x="912" 
d="M342 44q-5 -24 -15.5 -34t-34.5 -10h-192q-20 0 -28 9.5t-8 26.5v9.5t2 14.5l212 1332q5 24 15.5 34t34.5 10h192q20 0 28 -9.5t8 -26.5v-9.5t-2 -14.5zM876 601q0 -33 -12 -62t-33 -51t-49.5 -34.5t-61.5 -12.5q-57 0 -91.5 35.5t-34.5 92.5q0 33 12 62t33 51t49.5 34.5
t61.5 12.5q57 0 91.5 -35.5t34.5 -92.5z" />
    <glyph glyph-name="Lslash" unicode="&#x141;" horiz-adv-x="1010" 
d="M484 648l-64 -408h466q20 0 28 -9.5t8 -26.5v-9.5t-2 -14.5l-22 -138q-5 -24 -15.5 -33t-34.5 -9h-718q-44 0 -38 44l72 448l-98 -48q-15 -8 -23.5 -10t-16.5 -2t-13 5.5t-5 14.5q0 5 1 15.5t3 18.5l22 130q5 24 14 37.5t32 24.5l122 58l88 544q3 24 14.5 34t35.5 10h208
q44 0 38 -44l-62 -388l240 118q15 8 23.5 10t16.5 2t13 -5.5t5 -14.5q0 -5 -1 -15.5t-3 -18.5l-22 -130q-5 -24 -14 -37.5t-32 -24.5z" />
    <glyph glyph-name="lslash" unicode="&#x142;" horiz-adv-x="588" 
d="M362 44q-3 -24 -14.5 -34t-35.5 -10h-192q-44 0 -38 44l78 484l-98 -50q-15 -8 -23.5 -10t-16.5 -2t-13 5.5t-5 14.5q0 5 1 15.5t3 18.5l22 130q5 24 14 37.5t32 24.5l122 62l100 618q3 24 14.5 34t35.5 10h192q45 0 36 -44l-74 -464l98 50q15 8 23.5 10t16.5 2t13 -5.5
t5 -14.5q0 -5 -1 -15.5t-3 -18.5l-22 -130q-5 -24 -14 -37.5t-32 -24.5l-122 -62z" />
    <glyph glyph-name="Nacute" unicode="&#x143;" horiz-adv-x="1432" 
d="M1368 1324q20 0 28 -9.5t8 -26.5v-9.5t-2 -14.5l-194 -1220q-5 -24 -15.5 -34t-34.5 -10h-252q-24 0 -37.5 9.5t-22.5 30.5l-354 904l-142 -900q-3 -24 -14.5 -34t-35.5 -10h-188q-20 0 -28 9.5t-8 26.5v9.5t2 14.5l194 1220q5 24 15.5 34t34.5 10h252q24 0 37.5 -9.5
t22.5 -30.5l354 -904l142 900q3 24 14.5 34t35.5 10h188v0zM974 1764q14 14 22 17t14 3q11 0 18.5 -5.5t15.5 -14.5l78 -104q10 -13 10 -26q0 -18 -22 -32l-294 -182q-17 -10 -30 -10q-11 0 -19 5.5t-17 16.5l-26 32q-14 17 -14 32q0 19 18 34z" />
    <glyph glyph-name="nacute" unicode="&#x144;" horiz-adv-x="1130" 
d="M100 0q-44 0 -38 44l144 892q3 24 14.5 34t35.5 10h170q44 0 38 -44l-18 -106q22 34 50 65t64.5 54.5t83.5 37t108 13.5q80 0 134 -24t87 -63t47 -89.5t14 -103.5q0 -16 -1 -39t-3 -47.5t-4.5 -48.5t-5.5 -41l-80 -500q-3 -24 -14.5 -34t-35.5 -10h-192q-44 0 -38 44
l82 510q2 13 3.5 27t2.5 27.5t1.5 24.5t0.5 17q0 22 -5.5 45t-18.5 41.5t-34 30t-52 11.5q-29 0 -63 -13.5t-66 -47.5t-58.5 -92t-40.5 -147l-70 -434q-3 -24 -14.5 -34t-35.5 -10h-192zM782 1434q14 14 22 17t14 3q11 0 18.5 -5.5t15.5 -14.5l78 -104q10 -13 10 -26
q0 -18 -22 -32l-294 -182q-17 -10 -30 -10q-11 0 -19 5.5t-17 16.5l-26 32q-14 17 -14 32q0 19 18 34z" />
    <glyph glyph-name="Ncommaaccent" unicode="&#x145;" horiz-adv-x="1432" 
d="M1368 1324q20 0 28 -9.5t8 -26.5v-9.5t-2 -14.5l-194 -1220q-5 -24 -15.5 -34t-34.5 -10h-252q-24 0 -37.5 9.5t-22.5 30.5l-354 904l-142 -900q-3 -24 -14.5 -34t-35.5 -10h-188q-20 0 -28 9.5t-8 26.5v9.5t2 14.5l194 1220q5 24 15.5 34t34.5 10h252q24 0 37.5 -9.5
t22.5 -30.5l354 -904l142 900q3 24 14.5 34t35.5 10h188v0zM734 -170q0 -36 -15.5 -74.5t-41 -76t-60 -73t-71.5 -64.5q-8 -6 -15 -8t-13 -2q-8 0 -14 2t-14 8l-4 4q-8 6 -11 13t-3 13t2 12t8 12q27 30 39.5 52t12.5 42q0 18 -7 30t-16 24t-16 27t-7 39q0 27 10.5 50.5
t28.5 41.5t43 28t54 10q45 0 77.5 -27t32.5 -83z" />
    <glyph glyph-name="ncommaaccent" unicode="&#x146;" horiz-adv-x="1130" 
d="M100 0q-44 0 -38 44l144 892q3 24 14.5 34t35.5 10h170q44 0 38 -44l-18 -106q22 34 50 65t64.5 54.5t83.5 37t108 13.5q80 0 134 -24t87 -63t47 -89.5t14 -103.5q0 -16 -1 -39t-3 -47.5t-4.5 -48.5t-5.5 -41l-80 -500q-3 -24 -14.5 -34t-35.5 -10h-192q-44 0 -38 44
l82 510q2 13 3.5 27t2.5 27.5t1.5 24.5t0.5 17q0 22 -5.5 45t-18.5 41.5t-34 30t-52 11.5q-29 0 -63 -13.5t-66 -47.5t-58.5 -92t-40.5 -147l-70 -434q-3 -24 -14.5 -34t-35.5 -10h-192zM594 -170q0 -36 -15.5 -74.5t-41 -76t-60 -73t-71.5 -64.5q-8 -6 -15 -8t-13 -2
q-8 0 -14 2t-14 8l-4 4q-8 6 -11 13t-3 13t2 12t8 12q27 30 39.5 52t12.5 42q0 18 -7 30t-16 24t-16 27t-7 39q0 27 10.5 50.5t28.5 41.5t43 28t54 10q45 0 77.5 -27t32.5 -83z" />
    <glyph glyph-name="Ncaron" unicode="&#x147;" horiz-adv-x="1432" 
d="M1368 1324q20 0 28 -9.5t8 -26.5v-9.5t-2 -14.5l-194 -1220q-5 -24 -15.5 -34t-34.5 -10h-252q-24 0 -37.5 9.5t-22.5 30.5l-354 904l-142 -900q-3 -24 -14.5 -34t-35.5 -10h-188q-20 0 -28 9.5t-8 26.5v9.5t2 14.5l194 1220q5 24 15.5 34t34.5 10h252q24 0 37.5 -9.5
t22.5 -30.5l354 -904l142 900q3 24 14.5 34t35.5 10h188v0zM1108 1750q18 11 34 8.5t30 -22.5l26 -36q12 -18 12 -32q0 -16 -20 -30l-288 -214q-11 -8 -19.5 -10t-14.5 -2q-22 0 -38 16l-220 202q-18 18 -18 34q0 13 14 30l36 44q15 18 29.5 20t34.5 -12l180 -126z" />
    <glyph glyph-name="ncaron" unicode="&#x148;" horiz-adv-x="1130" 
d="M100 0q-44 0 -38 44l144 892q3 24 14.5 34t35.5 10h170q44 0 38 -44l-18 -106q22 34 50 65t64.5 54.5t83.5 37t108 13.5q80 0 134 -24t87 -63t47 -89.5t14 -103.5q0 -16 -1 -39t-3 -47.5t-4.5 -48.5t-5.5 -41l-80 -500q-3 -24 -14.5 -34t-35.5 -10h-192q-44 0 -38 44
l82 510q2 13 3.5 27t2.5 27.5t1.5 24.5t0.5 17q0 22 -5.5 45t-18.5 41.5t-34 30t-52 11.5q-29 0 -63 -13.5t-66 -47.5t-58.5 -92t-40.5 -147l-70 -434q-3 -24 -14.5 -34t-35.5 -10h-192zM916 1420q18 11 34 8.5t30 -22.5l26 -36q12 -18 12 -32q0 -16 -20 -30l-288 -214
q-11 -8 -19.5 -10t-14.5 -2q-22 0 -38 16l-220 202q-18 18 -18 34q0 13 14 30l36 44q15 18 29.5 20t34.5 -12l180 -126z" />
    <glyph glyph-name="napostrophe" unicode="&#x149;" horiz-adv-x="1462" 
d="M432 0q-44 0 -38 44l144 892q3 24 14.5 34t35.5 10h170q44 0 38 -44l-18 -106q22 34 50 65t64.5 54.5t83.5 37t108 13.5q80 0 134 -24t87 -63t47 -89.5t14 -103.5q0 -16 -1 -39t-3 -47.5t-4.5 -48.5t-5.5 -41l-80 -500q-3 -24 -14.5 -34t-35.5 -10h-192q-44 0 -38 44
l82 510q2 13 3.5 27t2.5 27.5t1.5 24.5t0.5 17q0 22 -5.5 45t-18.5 41.5t-34 30t-52 11.5q-29 0 -63 -13.5t-66 -47.5t-58.5 -92t-40.5 -147l-70 -434q-3 -24 -14.5 -34t-35.5 -10h-192zM210 832q-15 0 -32 14l-18 14q-18 15 -17.5 29t15.5 31q47 51 68.5 86t21.5 70
q0 27 -12 44t-26 34.5t-26 40.5t-12 63t14 74t38.5 59.5t58 40t71.5 14.5q30 0 56.5 -9.5t46.5 -29t31.5 -50t11.5 -71.5q0 -55 -20.5 -113.5t-55 -116t-81.5 -111t-99 -97.5q-9 -8 -17 -12t-17 -4z" />
    <glyph glyph-name="Omacron" unicode="&#x14c;" horiz-adv-x="1454" 
d="M400 578q0 -80 17 -146t51.5 -113.5t87.5 -74t126 -26.5q97 0 173 45.5t128.5 120t80.5 169.5t28 193q0 79 -17 145.5t-51.5 114t-87.5 74t-126 26.5q-97 0 -173 -45.5t-128.5 -120t-80.5 -169.5t-28 -193zM1398 744q0 -93 -21 -186t-62.5 -177.5t-103 -158t-142.5 -127
t-180.5 -84.5t-216.5 -31q-161 0 -271 46.5t-178.5 127.5t-98.5 190.5t-30 235.5q0 93 21 186t62.5 177.5t103 158t142.5 127t180 84.5t217 31q160 0 270.5 -46.5t179 -127.5t98.5 -190.5t30 -235.5zM1090 1658q20 0 28 -8.5t8 -25.5q0 -3 -0.5 -10.5t-3.5 -27.5l-12 -74
q-5 -24 -15.5 -31t-34.5 -7h-432q-20 0 -28 8.5t-8 25.5q0 3 0.5 10.5t3.5 27.5l12 74q5 24 15.5 31t34.5 7h432z" />
    <glyph glyph-name="omacron" unicode="&#x14d;" horiz-adv-x="1092" 
d="M344 412q0 -102 37.5 -163t118.5 -61q61 0 107.5 34t78 88t47 122t15.5 136q0 102 -37.5 163t-118.5 61q-62 0 -108 -34t-77.5 -88t-47 -122t-15.5 -136zM1036 566q0 -113 -35 -219t-104.5 -187.5t-173.5 -130.5t-241 -49q-108 0 -188 32t-133 89t-79 137t-26 176
q0 113 35 219t104.5 187.5t173.5 130.5t241 49q108 0 188 -32t133 -89t79 -137t26 -176zM880 1328q20 0 28 -8.5t8 -25.5q0 -3 -0.5 -10.5t-3.5 -27.5l-12 -74q-5 -24 -15.5 -31t-34.5 -7h-432q-20 0 -28 8.5t-8 25.5q0 3 0.5 10.5t3.5 27.5l12 74q5 24 15.5 31t34.5 7h432z
" />
    <glyph glyph-name="Obreve" unicode="&#x14e;" horiz-adv-x="1454" 
d="M400 578q0 -80 17 -146t51.5 -113.5t87.5 -74t126 -26.5q97 0 173 45.5t128.5 120t80.5 169.5t28 193q0 79 -17 145.5t-51.5 114t-87.5 74t-126 26.5q-97 0 -173 -45.5t-128.5 -120t-80.5 -169.5t-28 -193zM1398 744q0 -93 -21 -186t-62.5 -177.5t-103 -158t-142.5 -127
t-180.5 -84.5t-216.5 -31q-161 0 -271 46.5t-178.5 127.5t-98.5 190.5t-30 235.5q0 93 21 186t62.5 177.5t103 158t142.5 127t180 84.5t217 31q160 0 270.5 -46.5t179 -127.5t98.5 -190.5t30 -235.5zM710 1706q21 -47 57.5 -71.5t84.5 -24.5t93.5 25t80.5 73q15 21 28 25.5
t36 -7.5l66 -32q24 -12 24 -32q0 -13 -8 -26q-25 -44 -58 -81t-74.5 -64.5t-90.5 -43t-105 -15.5q-54 0 -98 14.5t-78 40t-57 60t-35 73.5q-5 14 -5.5 20t-0.5 12q0 29 30 44l52 28q21 11 35 8t23 -26z" />
    <glyph glyph-name="obreve" unicode="&#x14f;" horiz-adv-x="1092" 
d="M344 412q0 -102 37.5 -163t118.5 -61q61 0 107.5 34t78 88t47 122t15.5 136q0 102 -37.5 163t-118.5 61q-62 0 -108 -34t-77.5 -88t-47 -122t-15.5 -136zM1036 566q0 -113 -35 -219t-104.5 -187.5t-173.5 -130.5t-241 -49q-108 0 -188 32t-133 89t-79 137t-26 176
q0 113 35 219t104.5 187.5t173.5 130.5t241 49q108 0 188 -32t133 -89t79 -137t26 -176zM504 1376q21 -47 57.5 -71.5t84.5 -24.5t93.5 25t80.5 73q15 21 28 25.5t36 -7.5l66 -32q24 -12 24 -32q0 -13 -8 -26q-25 -44 -58 -81t-74.5 -64.5t-90.5 -43t-105 -15.5
q-54 0 -98 14.5t-78 40t-57 60t-35 73.5q-5 14 -5.5 20t-0.5 12q0 29 30 44l52 28q21 11 35 8t23 -26z" />
    <glyph glyph-name="Ohungarumlaut" unicode="&#x150;" horiz-adv-x="1454" 
d="M400 578q0 -80 17 -146t51.5 -113.5t87.5 -74t126 -26.5q97 0 173 45.5t128.5 120t80.5 169.5t28 193q0 79 -17 145.5t-51.5 114t-87.5 74t-126 26.5q-97 0 -173 -45.5t-128.5 -120t-80.5 -169.5t-28 -193zM1398 744q0 -93 -21 -186t-62.5 -177.5t-103 -158t-142.5 -127
t-180.5 -84.5t-216.5 -31q-161 0 -271 46.5t-178.5 127.5t-98.5 190.5t-30 235.5q0 93 21 186t62.5 177.5t103 158t142.5 127t180 84.5t217 31q160 0 270.5 -46.5t179 -127.5t98.5 -190.5t30 -235.5zM682 1424q-16 -16 -30 -16q-16 0 -34 18l-32 32q-9 9 -14.5 16.5
t-5.5 19.5q0 8 4 14.5t10 15.5l218 280q6 8 13 13t15 5q16 0 30 -14l90 -80q18 -15 18 -32q0 -8 -4 -14t-12 -14zM1036 1424q-16 -16 -30 -16q-16 0 -34 18l-32 32q-9 9 -14.5 16.5t-5.5 19.5q0 8 4 14.5t10 15.5l218 280q6 8 13 13t15 5q16 0 30 -14l90 -80q18 -15 18 -32
q0 -8 -4 -14t-12 -14z" />
    <glyph glyph-name="ohungarumlaut" unicode="&#x151;" horiz-adv-x="1092" 
d="M344 412q0 -102 37.5 -163t118.5 -61q61 0 107.5 34t78 88t47 122t15.5 136q0 102 -37.5 163t-118.5 61q-62 0 -108 -34t-77.5 -88t-47 -122t-15.5 -136zM1036 566q0 -113 -35 -219t-104.5 -187.5t-173.5 -130.5t-241 -49q-108 0 -188 32t-133 89t-79 137t-26 176
q0 113 35 219t104.5 187.5t173.5 130.5t241 49q108 0 188 -32t133 -89t79 -137t26 -176zM474 1094q-16 -16 -30 -16q-16 0 -34 18l-32 32q-9 9 -14.5 16.5t-5.5 19.5q0 8 4 14.5t10 15.5l218 280q6 8 13 13t15 5q16 0 30 -14l90 -80q18 -15 18 -32q0 -8 -4 -14t-12 -14z
M828 1094q-16 -16 -30 -16q-16 0 -34 18l-32 32q-9 9 -14.5 16.5t-5.5 19.5q0 8 4 14.5t10 15.5l218 280q6 8 13 13t15 5q16 0 30 -14l90 -80q18 -15 18 -32q0 -8 -4 -14t-12 -14z" />
    <glyph glyph-name="OE" unicode="&#x152;" horiz-adv-x="1876" 
d="M1852 1324q44 0 38 -44l-24 -140q-3 -24 -14.5 -34t-35.5 -10h-498l-50 -312h428q44 0 38 -44l-24 -140q-3 -24 -14.5 -34t-35.5 -10h-428l-52 -328h498q44 0 38 -44l-24 -140q-3 -24 -14.5 -34t-35.5 -10h-1000q-150 0 -254.5 45t-169.5 120t-94.5 172.5t-29.5 202.5
q0 157 44.5 299t137.5 250t236 171.5t340 63.5h1000zM836 1100q-76 0 -138.5 -22.5t-110.5 -62t-83.5 -93t-58.5 -115.5t-34 -129t-11 -134q0 -68 16 -126t51 -101.5t91.5 -68t137.5 -24.5h188l138 876h-186z" />
    <glyph glyph-name="oe" unicode="&#x153;" horiz-adv-x="1696" 
d="M1540 80q-80 -53 -171 -76.5t-183 -23.5q-127 0 -211.5 40.5t-134.5 109.5q-65 -69 -156 -109.5t-210 -40.5q-104 0 -182 32t-130.5 89t-79 137t-26.5 176q0 113 36 219t105 187.5t170.5 130.5t232.5 49q113 0 191.5 -38t126.5 -106q63 66 152 105t208 39
q78 0 144.5 -18.5t115.5 -55t76.5 -90.5t27.5 -124q0 -54 -20.5 -111t-75.5 -105q-32 -27 -73.5 -47.5t-95.5 -34t-122 -20t-153 -6.5h-88q6 -61 26.5 -98.5t49.5 -58.5t63.5 -28t68.5 -7q54 0 110 15.5t106 48.5q20 14 33 11.5t25 -23.5l60 -106q21 -39 -16 -62zM344 412
q0 -102 37.5 -163t118.5 -61q61 0 107.5 34t78 88t47 122t15.5 136q0 102 -37.5 163t-118.5 61q-62 0 -108 -34t-77.5 -88t-47 -122t-15.5 -136zM1386 698q0 28 -11 48.5t-29 34t-41.5 19.5t-48.5 6q-50 0 -88 -20.5t-66 -55t-47 -78.5t-29 -90h76q82 0 137 10.5t87.5 29
t46 43t13.5 53.5z" />
    <glyph glyph-name="Racute" unicode="&#x154;" horiz-adv-x="1232" 
d="M112 0q-44 0 -38 44l198 1236q3 24 14.5 34t35.5 10h386q130 0 220 -27.5t145.5 -76t80 -116t24.5 -146.5q0 -69 -18 -132t-54.5 -116t-93 -95t-132.5 -69q43 -50 77.5 -111t61 -127t45.5 -134t32 -130q9 -44 -36 -44h-218q-24 0 -35.5 10t-16.5 34q-10 48 -25.5 103
t-38 112t-52.5 113t-70 106h-164l-70 -434q-3 -24 -14.5 -34t-35.5 -10h-208zM474 690h128q73 0 124 20.5t83 55t46.5 79.5t14.5 93q0 37 -9 67.5t-30.5 52.5t-57.5 34t-91 12h-142zM836 1764q14 14 22 17t14 3q11 0 18.5 -5.5t15.5 -14.5l78 -104q10 -13 10 -26
q0 -18 -22 -32l-294 -182q-17 -10 -30 -10q-11 0 -19 5.5t-17 16.5l-26 32q-14 17 -14 32q0 19 18 34z" />
    <glyph glyph-name="racute" unicode="&#x155;" horiz-adv-x="832" 
d="M206 936q5 24 15.5 34t34.5 10h164q44 0 38 -44l-24 -150q28 61 66 102t80 66t85.5 35.5t82.5 10.5q27 0 55 -5t57 -17q28 -12 28 -34q0 -8 -2 -14.5t-4 -11.5l-66 -170q-9 -23 -21 -28t-35 6q-29 14 -59.5 21t-54.5 7q-25 0 -59 -10t-68.5 -41t-64 -88t-44.5 -151
l-68 -420q-3 -24 -14.5 -34t-35.5 -10h-192q-20 0 -28 9.5t-8 26.5v9.5t2 14.5zM692 1434q14 14 22 17t14 3q11 0 18.5 -5.5t15.5 -14.5l78 -104q10 -13 10 -26q0 -18 -22 -32l-294 -182q-17 -10 -30 -10q-11 0 -19 5.5t-17 16.5l-26 32q-14 17 -14 32q0 19 18 34z" />
    <glyph glyph-name="Rcommaaccent" unicode="&#x156;" horiz-adv-x="1232" 
d="M112 0q-44 0 -38 44l198 1236q3 24 14.5 34t35.5 10h386q130 0 220 -27.5t145.5 -76t80 -116t24.5 -146.5q0 -69 -18 -132t-54.5 -116t-93 -95t-132.5 -69q43 -50 77.5 -111t61 -127t45.5 -134t32 -130q9 -44 -36 -44h-218q-24 0 -35.5 10t-16.5 34q-10 48 -25.5 103
t-38 112t-52.5 113t-70 106h-164l-70 -434q-3 -24 -14.5 -34t-35.5 -10h-208zM474 690h128q73 0 124 20.5t83 55t46.5 79.5t14.5 93q0 37 -9 67.5t-30.5 52.5t-57.5 34t-91 12h-142zM672 -170q0 -36 -15.5 -74.5t-41 -76t-60 -73t-71.5 -64.5q-8 -6 -15 -8t-13 -2
q-8 0 -14 2t-14 8l-4 4q-8 6 -11 13t-3 13t2 12t8 12q27 30 39.5 52t12.5 42q0 18 -7 30t-16 24t-16 27t-7 39q0 27 10.5 50.5t28.5 41.5t43 28t54 10q45 0 77.5 -27t32.5 -83z" />
    <glyph glyph-name="rcommaaccent" unicode="&#x157;" horiz-adv-x="832" 
d="M206 936q5 24 15.5 34t34.5 10h164q44 0 38 -44l-24 -150q28 61 66 102t80 66t85.5 35.5t82.5 10.5q27 0 55 -5t57 -17q28 -12 28 -34q0 -8 -2 -14.5t-4 -11.5l-66 -170q-9 -23 -21 -28t-35 6q-29 14 -59.5 21t-54.5 7q-25 0 -59 -10t-68.5 -41t-64 -88t-44.5 -151
l-68 -420q-3 -24 -14.5 -34t-35.5 -10h-192q-20 0 -28 9.5t-8 26.5v9.5t2 14.5zM294 -170q0 -36 -15.5 -74.5t-41 -76t-60 -73t-71.5 -64.5q-8 -6 -15 -8t-13 -2q-8 0 -14 2t-14 8l-4 4q-8 6 -11 13t-3 13t2 12t8 12q27 30 39.5 52t12.5 42q0 18 -7 30t-16 24t-16 27t-7 39
q0 27 10.5 50.5t28.5 41.5t43 28t54 10q45 0 77.5 -27t32.5 -83z" />
    <glyph glyph-name="Rcaron" unicode="&#x158;" horiz-adv-x="1232" 
d="M112 0q-44 0 -38 44l198 1236q3 24 14.5 34t35.5 10h386q130 0 220 -27.5t145.5 -76t80 -116t24.5 -146.5q0 -69 -18 -132t-54.5 -116t-93 -95t-132.5 -69q43 -50 77.5 -111t61 -127t45.5 -134t32 -130q9 -44 -36 -44h-218q-24 0 -35.5 10t-16.5 34q-10 48 -25.5 103
t-38 112t-52.5 113t-70 106h-164l-70 -434q-3 -24 -14.5 -34t-35.5 -10h-208zM474 690h128q73 0 124 20.5t83 55t46.5 79.5t14.5 93q0 37 -9 67.5t-30.5 52.5t-57.5 34t-91 12h-142zM970 1750q18 11 34 8.5t30 -22.5l26 -36q12 -18 12 -32q0 -16 -20 -30l-288 -214
q-11 -8 -19.5 -10t-14.5 -2q-22 0 -38 16l-220 202q-18 18 -18 34q0 13 14 30l36 44q15 18 29.5 20t34.5 -12l180 -126z" />
    <glyph glyph-name="rcaron" unicode="&#x159;" horiz-adv-x="832" 
d="M206 936q5 24 15.5 34t34.5 10h164q44 0 38 -44l-24 -150q28 61 66 102t80 66t85.5 35.5t82.5 10.5q27 0 55 -5t57 -17q28 -12 28 -34q0 -8 -2 -14.5t-4 -11.5l-66 -170q-9 -23 -21 -28t-35 6q-29 14 -59.5 21t-54.5 7q-25 0 -59 -10t-68.5 -41t-64 -88t-44.5 -151
l-68 -420q-3 -24 -14.5 -34t-35.5 -10h-192q-20 0 -28 9.5t-8 26.5v9.5t2 14.5zM826 1420q18 11 34 8.5t30 -22.5l26 -36q12 -18 12 -32q0 -16 -20 -30l-288 -214q-11 -8 -19.5 -10t-14.5 -2q-22 0 -38 16l-220 202q-18 18 -18 34q0 13 14 30l36 44q15 18 29.5 20t34.5 -12
l180 -126z" />
    <glyph glyph-name="Sacute" unicode="&#x15a;" horiz-adv-x="1118" 
d="M1028 426q0 -109 -42.5 -192t-116.5 -139.5t-174.5 -85.5t-216.5 -29q-72 0 -139.5 10.5t-126.5 28t-107.5 40t-82.5 47.5q-18 12 -20 27.5t10 32.5l112 144q15 18 28.5 20t33.5 -12q56 -44 131.5 -72t166.5 -28q52 0 97 10.5t78 31.5t52 52.5t19 73.5q0 34 -12.5 57.5
t-36.5 40.5t-60 29.5t-83 24.5q-99 25 -173 56.5t-123 75t-73.5 101.5t-24.5 137q0 109 43 190.5t117.5 136t174.5 82t213 27.5q61 0 120.5 -7.5t112.5 -20.5t97 -31t76 -39q17 -11 20 -26t-8 -32l-102 -144q-14 -20 -27.5 -23t-34.5 11q-47 32 -114.5 53t-145.5 21
q-52 0 -96.5 -10.5t-77.5 -31.5t-51.5 -52.5t-18.5 -73.5q0 -35 13 -57.5t37 -38t59.5 -27t80.5 -23.5q80 -22 152 -46t126 -63.5t86 -100.5t32 -156zM810 1764q14 14 22 17t14 3q11 0 18.5 -5.5t15.5 -14.5l78 -104q10 -13 10 -26q0 -18 -22 -32l-294 -182q-17 -10 -30 -10
q-11 0 -19 5.5t-17 16.5l-26 32q-14 17 -14 32q0 19 18 34z" />
    <glyph glyph-name="sacute" unicode="&#x15b;" horiz-adv-x="904" 
d="M814 310q0 -91 -38.5 -154t-101.5 -102t-143 -56.5t-163 -17.5q-62 0 -114 8.5t-94 22.5t-74.5 32t-57.5 37q-34 26 -10 62l78 106q15 20 28.5 22t33.5 -12q41 -32 98 -52t128 -20q29 0 56.5 4.5t48.5 14.5t34 26.5t13 40.5q0 25 -14 43.5t-38.5 32t-58 24.5t-73.5 22
q-53 15 -99.5 36.5t-81 54.5t-55 79t-20.5 110q0 88 38.5 150t101.5 101t143 57t163 18q101 0 178.5 -22t127.5 -52q38 -25 12 -60l-74 -110q-14 -20 -27.5 -23t-34.5 9q-38 23 -86 37.5t-110 14.5q-68 0 -111 -21.5t-43 -70.5q0 -30 16.5 -49t43.5 -32t62 -22.5t72 -20.5
q56 -17 101.5 -39t77.5 -53t49.5 -74t17.5 -102zM662 1434q14 14 22 17t14 3q11 0 18.5 -5.5t15.5 -14.5l78 -104q10 -13 10 -26q0 -18 -22 -32l-294 -182q-17 -10 -30 -10q-11 0 -19 5.5t-17 16.5l-26 32q-14 17 -14 32q0 19 18 34z" />
    <glyph glyph-name="Scircumflex" unicode="&#x15c;" horiz-adv-x="1118" 
d="M1028 426q0 -109 -42.5 -192t-116.5 -139.5t-174.5 -85.5t-216.5 -29q-72 0 -139.5 10.5t-126.5 28t-107.5 40t-82.5 47.5q-18 12 -20 27.5t10 32.5l112 144q15 18 28.5 20t33.5 -12q56 -44 131.5 -72t166.5 -28q52 0 97 10.5t78 31.5t52 52.5t19 73.5q0 34 -12.5 57.5
t-36.5 40.5t-60 29.5t-83 24.5q-99 25 -173 56.5t-123 75t-73.5 101.5t-24.5 137q0 109 43 190.5t117.5 136t174.5 82t213 27.5q61 0 120.5 -7.5t112.5 -20.5t97 -31t76 -39q17 -11 20 -26t-8 -32l-102 -144q-14 -20 -27.5 -23t-34.5 11q-47 32 -114.5 53t-145.5 21
q-52 0 -96.5 -10.5t-77.5 -31.5t-51.5 -52.5t-18.5 -73.5q0 -35 13 -57.5t37 -38t59.5 -27t80.5 -23.5q80 -22 152 -46t126 -63.5t86 -100.5t32 -156zM502 1418q-18 -11 -34 -8.5t-30 22.5l-26 36q-12 18 -12 32q0 16 20 30l288 214q11 8 19.5 10t14.5 2q22 0 38 -16
l220 -202q18 -18 18 -34q0 -13 -14 -30l-36 -44q-15 -18 -29.5 -20t-34.5 12l-180 126z" />
    <glyph glyph-name="scircumflex" unicode="&#x15d;" horiz-adv-x="904" 
d="M814 310q0 -91 -38.5 -154t-101.5 -102t-143 -56.5t-163 -17.5q-62 0 -114 8.5t-94 22.5t-74.5 32t-57.5 37q-34 26 -10 62l78 106q15 20 28.5 22t33.5 -12q41 -32 98 -52t128 -20q29 0 56.5 4.5t48.5 14.5t34 26.5t13 40.5q0 25 -14 43.5t-38.5 32t-58 24.5t-73.5 22
q-53 15 -99.5 36.5t-81 54.5t-55 79t-20.5 110q0 88 38.5 150t101.5 101t143 57t163 18q101 0 178.5 -22t127.5 -52q38 -25 12 -60l-74 -110q-14 -20 -27.5 -23t-34.5 9q-38 23 -86 37.5t-110 14.5q-68 0 -111 -21.5t-43 -70.5q0 -30 16.5 -49t43.5 -32t62 -22.5t72 -20.5
q56 -17 101.5 -39t77.5 -53t49.5 -74t17.5 -102zM358 1088q-18 -11 -34 -8.5t-30 22.5l-26 36q-12 18 -12 32q0 16 20 30l288 214q11 8 19.5 10t14.5 2q22 0 38 -16l220 -202q18 -18 18 -34q0 -13 -14 -30l-36 -44q-15 -18 -29.5 -20t-34.5 12l-180 126z" />
    <glyph glyph-name="Scedilla" unicode="&#x15e;" horiz-adv-x="1118" 
d="M688 -220q0 -43 -17.5 -80t-50.5 -64.5t-80 -43.5t-106 -16q-47 0 -88 10.5t-70 31.5q-17 11 -19.5 27t9.5 33l18 26q15 23 27.5 25.5t36.5 -9.5q20 -11 41.5 -15.5t42.5 -4.5q44 0 67 18t23 50q0 21 -14 35.5t-52 14.5q-9 0 -20 -1t-22 -3q-21 -3 -33 0t-27 18
q-23 23 -4 48l74 102q-65 3 -124 14.5t-110.5 28t-94 37.5t-73.5 44q-18 12 -20 27.5t10 32.5l112 144q15 18 28.5 20t33.5 -12q56 -44 131.5 -72t166.5 -28q52 0 97 10.5t78 31.5t52 52.5t19 73.5q0 34 -12.5 57.5t-36.5 40.5t-60 29.5t-83 24.5q-99 25 -173 56.5t-123 75
t-73.5 101.5t-24.5 137q0 109 43 190.5t117.5 136t174.5 82t213 27.5q61 0 120.5 -7.5t112.5 -20.5t97 -31t76 -39q17 -11 20 -26t-8 -32l-102 -144q-14 -20 -27.5 -23t-34.5 11q-47 32 -114.5 53t-145.5 21q-52 0 -96.5 -10.5t-77.5 -31.5t-51.5 -52.5t-18.5 -73.5
q0 -35 13 -57.5t37 -38t59.5 -27t80.5 -23.5q80 -22 152 -46t126 -63.5t86 -100.5t32 -156q0 -102 -37.5 -181.5t-103.5 -135.5t-156.5 -88t-196.5 -39l-54 -70q12 5 28 6.5t30 1.5q71 0 110.5 -37t39.5 -103z" />
    <glyph glyph-name="scedilla" unicode="&#x15f;" horiz-adv-x="904" 
d="M580 -220q0 -43 -17.5 -80t-50.5 -64.5t-80 -43.5t-106 -16q-47 0 -88 10.5t-70 31.5q-17 11 -19.5 27t9.5 33l18 26q15 23 27.5 25.5t36.5 -9.5q20 -11 41.5 -15.5t42.5 -4.5q44 0 67 18t23 50q0 21 -14 35.5t-52 14.5q-9 0 -20 -1t-22 -3q-21 -3 -33 0t-27 18
q-23 23 -4 48l74 102q-104 8 -174 35.5t-114 62.5q-18 12 -20 28t10 34l78 106q15 20 28.5 22t33.5 -12q41 -32 98 -52t128 -20q29 0 56.5 4.5t48.5 14.5t34 26.5t13 40.5q0 25 -14 43.5t-38.5 32t-58 24.5t-73.5 22q-53 15 -99.5 36.5t-81 54.5t-55 79t-20.5 110
q0 88 38.5 150t101.5 101t143 57t163 18q101 0 178.5 -22t127.5 -52q38 -25 12 -60l-74 -110q-14 -20 -27.5 -23t-34.5 9q-38 23 -86 37.5t-110 14.5q-68 0 -111 -21.5t-43 -70.5q0 -30 16.5 -49t43.5 -32t62 -22.5t72 -20.5q56 -17 101.5 -39t77.5 -53t49.5 -74t17.5 -102
q0 -83 -32.5 -142.5t-86.5 -98.5t-124 -59.5t-145 -25.5l-54 -72q12 5 28 6.5t30 1.5q71 0 110.5 -37t39.5 -103z" />
    <glyph glyph-name="Scaron" unicode="&#x160;" horiz-adv-x="1118" 
d="M1028 426q0 -109 -42.5 -192t-116.5 -139.5t-174.5 -85.5t-216.5 -29q-72 0 -139.5 10.5t-126.5 28t-107.5 40t-82.5 47.5q-18 12 -20 27.5t10 32.5l112 144q15 18 28.5 20t33.5 -12q56 -44 131.5 -72t166.5 -28q52 0 97 10.5t78 31.5t52 52.5t19 73.5q0 34 -12.5 57.5
t-36.5 40.5t-60 29.5t-83 24.5q-99 25 -173 56.5t-123 75t-73.5 101.5t-24.5 137q0 109 43 190.5t117.5 136t174.5 82t213 27.5q61 0 120.5 -7.5t112.5 -20.5t97 -31t76 -39q17 -11 20 -26t-8 -32l-102 -144q-14 -20 -27.5 -23t-34.5 11q-47 32 -114.5 53t-145.5 21
q-52 0 -96.5 -10.5t-77.5 -31.5t-51.5 -52.5t-18.5 -73.5q0 -35 13 -57.5t37 -38t59.5 -27t80.5 -23.5q80 -22 152 -46t126 -63.5t86 -100.5t32 -156zM944 1750q18 11 34 8.5t30 -22.5l26 -36q12 -18 12 -32q0 -16 -20 -30l-288 -214q-11 -8 -19.5 -10t-14.5 -2
q-22 0 -38 16l-220 202q-18 18 -18 34q0 13 14 30l36 44q15 18 29.5 20t34.5 -12l180 -126z" />
    <glyph glyph-name="scaron" unicode="&#x161;" horiz-adv-x="904" 
d="M814 310q0 -91 -38.5 -154t-101.5 -102t-143 -56.5t-163 -17.5q-62 0 -114 8.5t-94 22.5t-74.5 32t-57.5 37q-34 26 -10 62l78 106q15 20 28.5 22t33.5 -12q41 -32 98 -52t128 -20q29 0 56.5 4.5t48.5 14.5t34 26.5t13 40.5q0 25 -14 43.5t-38.5 32t-58 24.5t-73.5 22
q-53 15 -99.5 36.5t-81 54.5t-55 79t-20.5 110q0 88 38.5 150t101.5 101t143 57t163 18q101 0 178.5 -22t127.5 -52q38 -25 12 -60l-74 -110q-14 -20 -27.5 -23t-34.5 9q-38 23 -86 37.5t-110 14.5q-68 0 -111 -21.5t-43 -70.5q0 -30 16.5 -49t43.5 -32t62 -22.5t72 -20.5
q56 -17 101.5 -39t77.5 -53t49.5 -74t17.5 -102zM796 1420q18 11 34 8.5t30 -22.5l26 -36q12 -18 12 -32q0 -16 -20 -30l-288 -214q-11 -8 -19.5 -10t-14.5 -2q-22 0 -38 16l-220 202q-18 18 -18 34q0 13 14 30l36 44q15 18 29.5 20t34.5 -12l180 -126z" />
    <glyph glyph-name="Tcommaaccent" unicode="&#x162;" horiz-adv-x="1058" 
d="M1120 1128q-5 -24 -15.5 -34t-34.5 -10h-302l-166 -1040q-3 -24 -14.5 -34t-35.5 -10h-208q-44 0 -38 44l166 1040h-304q-20 0 -28 9.5t-8 26.5v9.5t2 14.5l22 136q5 24 15.5 34t34.5 10h902q20 0 28 -9.5t8 -26.5v-9.5t-2 -14.5zM546 -170q0 -36 -15.5 -74.5t-41 -76
t-60 -73t-71.5 -64.5q-8 -6 -15 -8t-13 -2q-8 0 -14 2t-14 8l-4 4q-8 6 -11 13t-3 13t2 12t8 12q27 30 39.5 52t12.5 42q0 18 -7 30t-16 24t-16 27t-7 39q0 27 10.5 50.5t28.5 41.5t43 28t54 10q45 0 77.5 -27t32.5 -83z" />
    <glyph glyph-name="tcommaaccent" unicode="&#x163;" horiz-adv-x="782" 
d="M98 772q-45 0 -36 44l18 120q5 24 16.5 34t35.5 10h118l38 236q3 24 14.5 34t35.5 10h192q44 0 38 -44l-38 -236h236q45 0 36 -44l-18 -120q-5 -24 -16.5 -34t-35.5 -10h-236l-60 -390q-3 -20 -4.5 -38.5t-1.5 -33.5q0 -50 20 -77t70 -27q42 0 78 18q23 12 35 7.5
t23 -27.5l48 -102q18 -41 -18 -62q-56 -32 -116.5 -46t-125.5 -14q-145 0 -221.5 68.5t-76.5 211.5q0 27 2.5 59.5t7.5 62.5l60 390h-118zM528 -170q0 -36 -15.5 -74.5t-41 -76t-60 -73t-71.5 -64.5q-8 -6 -15 -8t-13 -2q-8 0 -14 2t-14 8l-4 4q-8 6 -11 13t-3 13t2 12t8 12
q27 30 39.5 52t12.5 42q0 18 -7 30t-16 24t-16 27t-7 39q0 27 10.5 50.5t28.5 41.5t43 28t54 10q45 0 77.5 -27t32.5 -83z" />
    <glyph glyph-name="Tcaron" unicode="&#x164;" horiz-adv-x="1058" 
d="M1120 1128q-5 -24 -15.5 -34t-34.5 -10h-302l-166 -1040q-3 -24 -14.5 -34t-35.5 -10h-208q-44 0 -38 44l166 1040h-304q-20 0 -28 9.5t-8 26.5v9.5t2 14.5l22 136q5 24 15.5 34t34.5 10h902q20 0 28 -9.5t8 -26.5v-9.5t-2 -14.5zM920 1750q18 11 34 8.5t30 -22.5l26 -36
q12 -18 12 -32q0 -16 -20 -30l-288 -214q-11 -8 -19.5 -10t-14.5 -2q-22 0 -38 16l-220 202q-18 18 -18 34q0 13 14 30l36 44q15 18 29.5 20t34.5 -12l180 -126z" />
    <glyph glyph-name="tcaron" unicode="&#x165;" horiz-adv-x="782" 
d="M98 772q-45 0 -36 44l18 120q5 24 16.5 34t35.5 10h118l38 236q3 24 14.5 34t35.5 10h192q44 0 38 -44l-38 -236h236q45 0 36 -44l-18 -120q-5 -24 -16.5 -34t-35.5 -10h-236l-60 -390q-3 -20 -4.5 -38.5t-1.5 -33.5q0 -50 20 -77t70 -27q42 0 78 18q23 12 35 7.5
t23 -27.5l48 -102q18 -41 -18 -62q-56 -32 -116.5 -46t-125.5 -14q-145 0 -221.5 68.5t-76.5 211.5q0 27 2.5 59.5t7.5 62.5l60 390h-118zM680 1090q-34 8 -34 36q0 5 0.5 11.5t5.5 24.5l78 348q3 15 10.5 24.5t21.5 9.5q6 0 10.5 -1t9.5 -3l122 -40q28 -9 28 -30
q0 -9 -6 -24l-170 -332q-11 -21 -25 -27.5t-37 -0.5z" />
    <glyph glyph-name="Tbar" unicode="&#x166;" horiz-adv-x="1058" 
d="M1120 1128q-3 -24 -14.5 -34t-35.5 -10h-302l-50 -316h188q23 0 31 -10.5t5 -33.5l-18 -122q-5 -24 -16.5 -34t-35.5 -10h-188l-82 -514q-3 -24 -14.5 -34t-35.5 -10h-208q-44 0 -38 44l82 514h-188q-23 0 -31 10.5t-5 33.5l18 122q5 24 16.5 34t35.5 10h188l50 316h-304
q-20 0 -28 9.5t-8 26.5v9.5t2 14.5l22 136q3 24 14.5 34t35.5 10h902q20 0 28 -9.5t8 -26.5v-9.5t-2 -14.5z" />
    <glyph glyph-name="tbar" unicode="&#x167;" horiz-adv-x="802" 
d="M108 772q-45 0 -36 44l18 120q5 24 16.5 34t35.5 10h118l38 236q3 24 14.5 34t35.5 10h192q44 0 38 -44l-38 -236h236q45 0 36 -44l-18 -120q-5 -24 -16.5 -34t-35.5 -10h-236l-24 -152h186q45 0 36 -44l-14 -96q-5 -24 -16.5 -34t-35.5 -10h-184l-8 -54
q-3 -20 -4.5 -38.5t-1.5 -33.5q0 -50 20 -77t70 -27q42 0 78 18q23 12 35 7.5t23 -27.5l48 -102q18 -41 -18 -62q-56 -32 -116.5 -46t-125.5 -14q-145 0 -221.5 68.5t-76.5 211.5q0 27 2.5 59.5t7.5 62.5l8 54h-80q-45 0 -36 44l14 96q5 24 16.5 34t35.5 10h78l24 152h-118z
" />
    <glyph glyph-name="Utilde" unicode="&#x168;" horiz-adv-x="1342" 
d="M1218 552q-23 -148 -67.5 -255.5t-115 -178t-169 -104.5t-230.5 -34q-243 0 -373.5 111t-130.5 323q0 63 12 138l118 728q3 24 14.5 34t35.5 10h208q44 0 38 -44l-120 -754q-6 -42 -6 -80q0 -226 200 -226q118 0 190 77t96 229l120 754q3 24 14.5 34t35.5 10h208
q44 0 38 -44l-116 -728v0zM974 1616q24 0 49 15t51 39q18 18 34 18q15 0 32 -14l38 -32q18 -15 18 -32q0 -14 -12 -32q-41 -65 -105.5 -101.5t-132.5 -36.5q-43 0 -75 13t-57.5 28t-48 28t-45.5 13q-24 0 -49 -15t-51 -39q-18 -18 -34 -18q-15 0 -32 14l-38 32
q-18 15 -18 32q0 14 12 32q41 65 105.5 101.5t132.5 36.5q43 0 75 -13t57.5 -28t48 -28t45.5 -13z" />
    <glyph glyph-name="utilde" unicode="&#x169;" horiz-adv-x="1122" 
d="M1016 980q44 0 38 -44l-144 -892q-3 -24 -14.5 -34t-35.5 -10h-170q-44 0 -38 44l18 106q-23 -35 -50 -65.5t-63 -54t-82 -37t-107 -13.5q-80 0 -133.5 24t-85.5 63t-45.5 89.5t-13.5 103.5q0 16 1 39t3 47.5t4.5 48.5t5.5 41l80 500q3 24 14.5 34t35.5 10h192
q44 0 38 -44l-82 -510q-2 -13 -3.5 -27t-2.5 -27.5t-1.5 -24.5t-0.5 -17q0 -23 5 -45.5t17 -41t32.5 -30t51.5 -11.5q29 0 62.5 13.5t64.5 47.5t57 92t40 147l70 434q3 24 14.5 34t35.5 10h192zM800 1286q24 0 49 15t51 39q18 18 34 18q15 0 32 -14l38 -32q18 -15 18 -32
q0 -14 -12 -32q-41 -65 -105.5 -101.5t-132.5 -36.5q-43 0 -75 13t-57.5 28t-48 28t-45.5 13q-24 0 -49 -15t-51 -39q-18 -18 -34 -18q-15 0 -32 14l-38 32q-18 15 -18 32q0 14 12 32q41 65 105.5 101.5t132.5 36.5q43 0 75 -13t57.5 -28t48 -28t45.5 -13z" />
    <glyph glyph-name="Umacron" unicode="&#x16a;" horiz-adv-x="1342" 
d="M1218 552q-23 -148 -67.5 -255.5t-115 -178t-169 -104.5t-230.5 -34q-243 0 -373.5 111t-130.5 323q0 63 12 138l118 728q3 24 14.5 34t35.5 10h208q44 0 38 -44l-120 -754q-6 -42 -6 -80q0 -226 200 -226q118 0 190 77t96 229l120 754q3 24 14.5 34t35.5 10h208
q44 0 38 -44l-116 -728v0zM1074 1658q20 0 28 -8.5t8 -25.5q0 -3 -0.5 -10.5t-3.5 -27.5l-12 -74q-5 -24 -15.5 -31t-34.5 -7h-432q-20 0 -28 8.5t-8 25.5q0 3 0.5 10.5t3.5 27.5l12 74q5 24 15.5 31t34.5 7h432z" />
    <glyph glyph-name="umacron" unicode="&#x16b;" horiz-adv-x="1122" 
d="M1016 980q44 0 38 -44l-144 -892q-3 -24 -14.5 -34t-35.5 -10h-170q-44 0 -38 44l18 106q-23 -35 -50 -65.5t-63 -54t-82 -37t-107 -13.5q-80 0 -133.5 24t-85.5 63t-45.5 89.5t-13.5 103.5q0 16 1 39t3 47.5t4.5 48.5t5.5 41l80 500q3 24 14.5 34t35.5 10h192
q44 0 38 -44l-82 -510q-2 -13 -3.5 -27t-2.5 -27.5t-1.5 -24.5t-0.5 -17q0 -23 5 -45.5t17 -41t32.5 -30t51.5 -11.5q29 0 62.5 13.5t64.5 47.5t57 92t40 147l70 434q3 24 14.5 34t35.5 10h192zM896 1328q20 0 28 -8.5t8 -25.5q0 -3 -0.5 -10.5t-3.5 -27.5l-12 -74
q-5 -24 -15.5 -31t-34.5 -7h-432q-20 0 -28 8.5t-8 25.5q0 3 0.5 10.5t3.5 27.5l12 74q5 24 15.5 31t34.5 7h432z" />
    <glyph glyph-name="Ubreve" unicode="&#x16c;" horiz-adv-x="1342" 
d="M1218 552q-23 -148 -67.5 -255.5t-115 -178t-169 -104.5t-230.5 -34q-243 0 -373.5 111t-130.5 323q0 63 12 138l118 728q3 24 14.5 34t35.5 10h208q44 0 38 -44l-120 -754q-6 -42 -6 -80q0 -226 200 -226q118 0 190 77t96 229l120 754q3 24 14.5 34t35.5 10h208
q44 0 38 -44l-116 -728v0zM694 1706q21 -47 57.5 -71.5t84.5 -24.5t93.5 25t80.5 73q15 21 28 25.5t36 -7.5l66 -32q24 -12 24 -32q0 -13 -8 -26q-25 -44 -58 -81t-74.5 -64.5t-90.5 -43t-105 -15.5q-54 0 -98 14.5t-78 40t-57 60t-35 73.5q-5 14 -5.5 20t-0.5 12
q0 29 30 44l52 28q21 11 35 8t23 -26z" />
    <glyph glyph-name="ubreve" unicode="&#x16d;" horiz-adv-x="1122" 
d="M1016 980q44 0 38 -44l-144 -892q-3 -24 -14.5 -34t-35.5 -10h-170q-44 0 -38 44l18 106q-23 -35 -50 -65.5t-63 -54t-82 -37t-107 -13.5q-80 0 -133.5 24t-85.5 63t-45.5 89.5t-13.5 103.5q0 16 1 39t3 47.5t4.5 48.5t5.5 41l80 500q3 24 14.5 34t35.5 10h192
q44 0 38 -44l-82 -510q-2 -13 -3.5 -27t-2.5 -27.5t-1.5 -24.5t-0.5 -17q0 -23 5 -45.5t17 -41t32.5 -30t51.5 -11.5q29 0 62.5 13.5t64.5 47.5t57 92t40 147l70 434q3 24 14.5 34t35.5 10h192zM520 1376q21 -47 57.5 -71.5t84.5 -24.5t93.5 25t80.5 73q15 21 28 25.5
t36 -7.5l66 -32q24 -12 24 -32q0 -13 -8 -26q-25 -44 -58 -81t-74.5 -64.5t-90.5 -43t-105 -15.5q-54 0 -98 14.5t-78 40t-57 60t-35 73.5q-5 14 -5.5 20t-0.5 12q0 29 30 44l52 28q21 11 35 8t23 -26z" />
    <glyph glyph-name="Uring" unicode="&#x16e;" horiz-adv-x="1342" 
d="M1218 552q-23 -148 -67.5 -255.5t-115 -178t-169 -104.5t-230.5 -34q-243 0 -373.5 111t-130.5 323q0 63 12 138l118 728q3 24 14.5 34t35.5 10h208q44 0 38 -44l-120 -754q-6 -42 -6 -80q0 -226 200 -226q118 0 190 77t96 229l120 754q3 24 14.5 34t35.5 10h208
q44 0 38 -44l-116 -728v0zM738 1620q0 -44 24 -73t74 -29q31 0 56.5 12.5t43 33.5t27 47t9.5 53q0 44 -24 73t-74 29q-32 0 -57 -12.5t-42.5 -33.5t-27 -47t-9.5 -53zM1110 1670q0 -50 -18 -99t-53.5 -88t-88 -63t-120.5 -24q-58 0 -101 17.5t-71.5 47.5t-43 69.5
t-14.5 83.5q0 50 18 99t53.5 88t88 63t120.5 24q58 0 101 -17.5t71.5 -47.5t43 -69.5t14.5 -83.5z" />
    <glyph glyph-name="uring" unicode="&#x16f;" horiz-adv-x="1122" 
d="M1016 980q44 0 38 -44l-144 -892q-3 -24 -14.5 -34t-35.5 -10h-170q-44 0 -38 44l18 106q-23 -35 -50 -65.5t-63 -54t-82 -37t-107 -13.5q-80 0 -133.5 24t-85.5 63t-45.5 89.5t-13.5 103.5q0 16 1 39t3 47.5t4.5 48.5t5.5 41l80 500q3 24 14.5 34t35.5 10h192
q44 0 38 -44l-82 -510q-2 -13 -3.5 -27t-2.5 -27.5t-1.5 -24.5t-0.5 -17q0 -23 5 -45.5t17 -41t32.5 -30t51.5 -11.5q29 0 62.5 13.5t64.5 47.5t57 92t40 147l70 434q3 24 14.5 34t35.5 10h192zM562 1290q0 -44 24 -73t74 -29q31 0 56.5 12.5t43 33.5t27 47t9.5 53
q0 44 -24 73t-74 29q-32 0 -57 -12.5t-42.5 -33.5t-27 -47t-9.5 -53zM934 1340q0 -50 -18 -99t-53.5 -88t-88 -63t-120.5 -24q-58 0 -101 17.5t-71.5 47.5t-43 69.5t-14.5 83.5q0 50 18 99t53.5 88t88 63t120.5 24q58 0 101 -17.5t71.5 -47.5t43 -69.5t14.5 -83.5z" />
    <glyph glyph-name="Uhungarumlaut" unicode="&#x170;" horiz-adv-x="1342" 
d="M1218 552q-23 -148 -67.5 -255.5t-115 -178t-169 -104.5t-230.5 -34q-243 0 -373.5 111t-130.5 323q0 63 12 138l118 728q3 24 14.5 34t35.5 10h208q44 0 38 -44l-120 -754q-6 -42 -6 -80q0 -226 200 -226q118 0 190 77t96 229l120 754q3 24 14.5 34t35.5 10h208
q44 0 38 -44l-116 -728v0zM666 1424q-16 -16 -30 -16q-16 0 -34 18l-32 32q-9 9 -14.5 16.5t-5.5 19.5q0 8 4 14.5t10 15.5l218 280q6 8 13 13t15 5q16 0 30 -14l90 -80q18 -15 18 -32q0 -8 -4 -14t-12 -14zM1020 1424q-16 -16 -30 -16q-16 0 -34 18l-32 32q-9 9 -14.5 16.5
t-5.5 19.5q0 8 4 14.5t10 15.5l218 280q6 8 13 13t15 5q16 0 30 -14l90 -80q18 -15 18 -32q0 -8 -4 -14t-12 -14z" />
    <glyph glyph-name="uhungarumlaut" unicode="&#x171;" horiz-adv-x="1122" 
d="M1016 980q44 0 38 -44l-144 -892q-3 -24 -14.5 -34t-35.5 -10h-170q-44 0 -38 44l18 106q-23 -35 -50 -65.5t-63 -54t-82 -37t-107 -13.5q-80 0 -133.5 24t-85.5 63t-45.5 89.5t-13.5 103.5q0 16 1 39t3 47.5t4.5 48.5t5.5 41l80 500q3 24 14.5 34t35.5 10h192
q44 0 38 -44l-82 -510q-2 -13 -3.5 -27t-2.5 -27.5t-1.5 -24.5t-0.5 -17q0 -23 5 -45.5t17 -41t32.5 -30t51.5 -11.5q29 0 62.5 13.5t64.5 47.5t57 92t40 147l70 434q3 24 14.5 34t35.5 10h192zM490 1094q-16 -16 -30 -16q-16 0 -34 18l-32 32q-9 9 -14.5 16.5t-5.5 19.5
q0 8 4 14.5t10 15.5l218 280q6 8 13 13t15 5q16 0 30 -14l90 -80q18 -15 18 -32q0 -8 -4 -14t-12 -14zM844 1094q-16 -16 -30 -16q-16 0 -34 18l-32 32q-9 9 -14.5 16.5t-5.5 19.5q0 8 4 14.5t10 15.5l218 280q6 8 13 13t15 5q16 0 30 -14l90 -80q18 -15 18 -32q0 -8 -4 -14
t-12 -14z" />
    <glyph glyph-name="Uogonek" unicode="&#x172;" horiz-adv-x="1342" 
d="M376 -272q0 36 14 72t39.5 69.5t62 62.5t82.5 52q-216 14 -329 122.5t-113 307.5q0 63 12 138l118 728q3 24 14.5 34t35.5 10h208q44 0 38 -44l-120 -754q-6 -42 -6 -80q0 -226 200 -226q118 0 190 77t96 229l120 754q3 24 14.5 34t35.5 10h208q44 0 38 -44l-116 -728
q-18 -112 -44 -193t-58.5 -139t-72 -95.5t-84 -63t-94.5 -42t-103 -31.5q-41 -11 -77.5 -29t-64 -42t-44 -53.5t-16.5 -63.5q0 -36 20 -56t62 -20q14 0 29.5 2t32.5 10q26 12 38 7.5t26 -27.5l14 -22q11 -18 8 -34.5t-20 -27.5q-42 -27 -94 -41.5t-108 -14.5q-98 0 -145 43
t-47 109z" />
    <glyph glyph-name="uogonek" unicode="&#x173;" horiz-adv-x="1122" 
d="M452 -274q0 42 17.5 81t45 73.5t62 64.5t69.5 55l24 150q-23 -35 -50 -65.5t-63 -54t-82 -37t-107 -13.5q-80 0 -133.5 24t-85.5 63t-45.5 89.5t-13.5 103.5q0 16 1 39t3 47.5t4.5 48.5t5.5 41l80 500q3 24 14.5 34t35.5 10h192q44 0 38 -44l-82 -510q-2 -13 -3.5 -27
t-2.5 -27.5t-1.5 -24.5t-0.5 -17q0 -23 5 -45.5t17 -41t32.5 -30t51.5 -11.5q29 0 62.5 13.5t64.5 47.5t57 92t40 147l70 434q3 24 14.5 34t35.5 10h192q44 0 38 -44l-144 -892q-3 -24 -14.5 -34t-35.5 -10h-98q-17 -20 -39 -43t-41.5 -49t-32.5 -54t-13 -56q0 -33 20 -53.5
t62 -20.5q14 0 29.5 2t32.5 10q26 12 38 7.5t26 -27.5l16 -24q11 -18 7 -33.5t-21 -26.5q-42 -27 -94 -41.5t-108 -14.5q-48 0 -84 11.5t-60 31.5t-36 47.5t-12 59.5z" />
    <glyph glyph-name="Wcircumflex" unicode="&#x174;" horiz-adv-x="1918" 
d="M386 0q-24 0 -37 9.5t-19 32.5q-19 75 -37 166.5t-34 194.5t-29.5 213t-23 223t-15 224.5t-5.5 216.5q0 44 44 44h202q44 0 44 -44q-2 -264 10 -506t50 -462q56 109 111.5 230.5t107 246.5t97.5 250t84 243q8 23 21 32.5t37 9.5h174q44 0 44 -44q1 -118 9.5 -243.5
t22.5 -251t32.5 -247t41.5 -230.5q108 220 193 465t163 509q6 23 19 32.5t37 9.5h214q34 0 34 -26q0 -5 -1 -9t-3 -9q-35 -106 -76 -218.5t-86 -225.5t-93 -223.5t-96.5 -213.5t-96.5 -194.5t-92 -166.5q-12 -21 -27 -29.5t-39 -8.5h-170q-24 0 -36.5 9.5t-17.5 32.5
q-53 208 -85 425t-35 431q-72 -214 -173.5 -432t-220.5 -428q-12 -21 -27 -29.5t-39 -8.5h-178zM912 1418q-18 -11 -34 -8.5t-30 22.5l-26 36q-12 18 -12 32q0 16 20 30l288 214q11 8 19.5 10t14.5 2q22 0 38 -16l220 -202q18 -18 18 -34q0 -13 -14 -30l-36 -44
q-15 -18 -29.5 -20t-34.5 12l-180 126z" />
    <glyph glyph-name="wcircumflex" unicode="&#x175;" horiz-adv-x="1584" 
d="M288 0q-23 0 -35.5 9.5t-20.5 32.5q-26 84 -46 184.5t-34.5 214.5t-22 238.5t-7.5 256.5q0 44 44 44h192q45 0 42 -44q-4 -86 -3 -176.5t6 -177.5t13.5 -166.5t19.5 -143.5q34 64 73 144t78 167t76 178t67 177q8 23 21 32.5t37 9.5h160q23 0 33.5 -10t12.5 -34
q3 -86 10.5 -175.5t18 -176.5t22.5 -166.5t25 -143.5q34 65 67.5 144.5t64.5 166.5t58.5 177t49.5 176q6 23 18 32.5t36 9.5h188q34 0 34 -26q0 -3 -0.5 -8t-3.5 -16q-33 -115 -77 -237t-94.5 -240t-105 -225t-107.5 -192q-12 -20 -27.5 -28t-38.5 -8h-172q-24 0 -37 9.5
t-19 32.5q-18 63 -34 133t-28 141.5t-20 141.5t-10 132q-26 -65 -57.5 -136t-67 -142.5t-74 -141t-77.5 -132.5q-14 -21 -29 -29.5t-39 -8.5h-180zM698 1088q-18 -11 -34 -8.5t-30 22.5l-26 36q-12 18 -12 32q0 16 20 30l288 214q11 8 19.5 10t14.5 2q22 0 38 -16l220 -202
q18 -18 18 -34q0 -13 -14 -30l-36 -44q-15 -18 -29.5 -20t-34.5 12l-180 126z" />
    <glyph glyph-name="Ycircumflex" unicode="&#x176;" horiz-adv-x="1160" 
d="M396 0q-44 0 -38 44l66 412q-40 79 -78.5 174t-72.5 197t-61.5 208.5t-45.5 210.5q-2 8 -3 21.5t-1 22.5q0 34 38 34h198q24 0 34.5 -10t13.5 -34q8 -76 22 -154.5t33.5 -156.5t45 -153t57.5 -142q106 134 197.5 290.5t156.5 319.5q9 23 22.5 31.5t37.5 8.5h198
q30 0 30 -22q0 -5 -1 -9.5t-7 -18.5q-47 -107 -109 -218t-131 -218t-141.5 -205t-140.5 -177l-66 -412q-3 -24 -14.5 -34t-35.5 -10h-204zM526 1418q-18 -11 -34 -8.5t-30 22.5l-26 36q-12 18 -12 32q0 16 20 30l288 214q11 8 19.5 10t14.5 2q22 0 38 -16l220 -202
q18 -18 18 -34q0 -13 -14 -30l-36 -44q-15 -18 -29.5 -20t-34.5 12l-180 126z" />
    <glyph glyph-name="ycircumflex" unicode="&#x177;" horiz-adv-x="1122" 
d="M1016 980q44 0 38 -44l-140 -882q-39 -245 -172.5 -359.5t-365.5 -114.5q-69 0 -123 9t-95 22.5t-71 30t-51 32.5q-33 27 -8 64l76 104q15 20 28.5 22.5t33.5 -12.5q32 -23 77 -40.5t113 -17.5q74 0 124 24t82.5 64.5t50 94.5t27.5 115l6 38q-44 -71 -112.5 -110.5
t-165.5 -39.5q-80 0 -133.5 24t-85.5 63t-45.5 89.5t-13.5 103.5q0 16 1 39t3 47.5t4.5 48.5t5.5 41l80 500q3 24 14.5 34t35.5 10h192q44 0 38 -44l-82 -510q-2 -13 -3.5 -27t-2.5 -27.5t-1.5 -24.5t-0.5 -17q0 -23 5 -45.5t17 -41t32.5 -30t51.5 -11.5q29 0 62.5 13.5
t64.5 47.5t57 92t40 147l70 434q3 24 14.5 34t35.5 10h192zM450 1088q-18 -11 -34 -8.5t-30 22.5l-26 36q-12 18 -12 32q0 16 20 30l288 214q11 8 19.5 10t14.5 2q22 0 38 -16l220 -202q18 -18 18 -34q0 -13 -14 -30l-36 -44q-15 -18 -29.5 -20t-34.5 12l-180 126z" />
    <glyph glyph-name="Ydieresis" unicode="&#x178;" horiz-adv-x="1160" 
d="M396 0q-44 0 -38 44l66 412q-40 79 -78.5 174t-72.5 197t-61.5 208.5t-45.5 210.5q-2 8 -3 21.5t-1 22.5q0 34 38 34h198q24 0 34.5 -10t13.5 -34q8 -76 22 -154.5t33.5 -156.5t45 -153t57.5 -142q106 134 197.5 290.5t156.5 319.5q9 23 22.5 31.5t37.5 8.5h198
q30 0 30 -22q0 -5 -1 -9.5t-7 -18.5q-47 -107 -109 -218t-131 -218t-141.5 -205t-140.5 -177l-66 -412q-3 -24 -14.5 -34t-35.5 -10h-204zM704 1586q0 -33 -12 -62t-33 -51t-49.5 -34.5t-61.5 -12.5q-57 0 -91.5 35.5t-34.5 92.5q0 33 12 62t33 51t49.5 34.5t61.5 12.5
q57 0 91.5 -35.5t34.5 -92.5zM1070 1586q0 -33 -12 -62t-33 -51t-49.5 -34.5t-61.5 -12.5q-57 0 -91.5 35.5t-34.5 92.5q0 33 12 62t33 51t49.5 34.5t61.5 12.5q57 0 91.5 -35.5t34.5 -92.5z" />
    <glyph glyph-name="Zacute" unicode="&#x179;" horiz-adv-x="1136" 
d="M1122 1324q20 0 28 -9.5t8 -26.5v-10.5t-2 -15.5l-14 -98q-3 -18 -11 -37.5t-19 -36.5q-38 -56 -98 -127t-131.5 -149.5t-149 -160t-150 -158.5t-134 -146t-101.5 -121h646q44 0 38 -44l-24 -140q-5 -24 -15.5 -34t-34.5 -10h-930q-20 0 -28 9.5t-8 26.5v10.5t2 15.5
l14 98q3 18 11 37.5t19 36.5q37 56 97 127t131.5 149.5t149 160t149.5 158.5t133.5 145.5t101.5 121.5h-556q-44 0 -38 44l24 140q5 24 15.5 34t34.5 10h842v0zM832 1764q14 14 22 17t14 3q11 0 18.5 -5.5t15.5 -14.5l78 -104q10 -13 10 -26q0 -18 -22 -32l-294 -182
q-17 -10 -30 -10q-11 0 -19 5.5t-17 16.5l-26 32q-14 17 -14 32q0 19 18 34z" />
    <glyph glyph-name="zacute" unicode="&#x17a;" horiz-adv-x="928" 
d="M790 214q44 0 38 -44l-20 -126q-3 -24 -14.5 -34t-35.5 -10h-746q-20 0 -28 9.5t-8 26.5q0 3 0.5 11.5t3.5 28.5l8 58q3 18 11.5 37.5t20.5 34.5q29 37 72 84.5t93.5 99t104.5 105t104 103t92.5 93t71.5 75.5h-402q-44 0 -38 44l22 126q3 24 14.5 34t35.5 10h700
q20 0 28 -9.5t8 -26.5q0 -3 -0.5 -11.5t-3.5 -28.5l-8 -58q-3 -18 -11.5 -37.5t-20.5 -34.5q-29 -38 -72 -85t-93.5 -98.5t-104.5 -105t-104 -103t-93 -93t-71 -75.5h446zM672 1434q14 14 22 17t14 3q11 0 18.5 -5.5t15.5 -14.5l78 -104q10 -13 10 -26q0 -18 -22 -32
l-294 -182q-17 -10 -30 -10q-11 0 -19 5.5t-17 16.5l-26 32q-14 17 -14 32q0 19 18 34z" />
    <glyph glyph-name="Zdotaccent" unicode="&#x17b;" horiz-adv-x="1136" 
d="M1122 1324q20 0 28 -9.5t8 -26.5v-10.5t-2 -15.5l-14 -98q-3 -18 -11 -37.5t-19 -36.5q-38 -56 -98 -127t-131.5 -149.5t-149 -160t-150 -158.5t-134 -146t-101.5 -121h646q44 0 38 -44l-24 -140q-5 -24 -15.5 -34t-34.5 -10h-930q-20 0 -28 9.5t-8 26.5v10.5t2 15.5
l14 98q3 18 11 37.5t19 36.5q37 56 97 127t131.5 149.5t149 160t149.5 158.5t133.5 145.5t101.5 121.5h-556q-44 0 -38 44l24 140q5 24 15.5 34t34.5 10h842v0zM884 1586q0 -33 -12 -62t-33 -51t-49.5 -34.5t-61.5 -12.5q-57 0 -91.5 35.5t-34.5 92.5q0 33 12 62t33 51
t49.5 34.5t61.5 12.5q57 0 91.5 -35.5t34.5 -92.5z" />
    <glyph glyph-name="zdotaccent" unicode="&#x17c;" horiz-adv-x="928" 
d="M790 214q44 0 38 -44l-20 -126q-3 -24 -14.5 -34t-35.5 -10h-746q-20 0 -28 9.5t-8 26.5q0 3 0.5 11.5t3.5 28.5l8 58q3 18 11.5 37.5t20.5 34.5q29 37 72 84.5t93.5 99t104.5 105t104 103t92.5 93t71.5 75.5h-402q-44 0 -38 44l22 126q3 24 14.5 34t35.5 10h700
q20 0 28 -9.5t8 -26.5q0 -3 -0.5 -11.5t-3.5 -28.5l-8 -58q-3 -18 -11.5 -37.5t-20.5 -34.5q-29 -38 -72 -85t-93.5 -98.5t-104.5 -105t-104 -103t-93 -93t-71 -75.5h446zM724 1256q0 -33 -12 -62t-33 -51t-49.5 -34.5t-61.5 -12.5q-57 0 -91.5 35.5t-34.5 92.5q0 33 12 62
t33 51t49.5 34.5t61.5 12.5q57 0 91.5 -35.5t34.5 -92.5z" />
    <glyph glyph-name="Zcaron" unicode="&#x17d;" horiz-adv-x="1136" 
d="M1122 1324q20 0 28 -9.5t8 -26.5v-10.5t-2 -15.5l-14 -98q-3 -18 -11 -37.5t-19 -36.5q-38 -56 -98 -127t-131.5 -149.5t-149 -160t-150 -158.5t-134 -146t-101.5 -121h646q44 0 38 -44l-24 -140q-5 -24 -15.5 -34t-34.5 -10h-930q-20 0 -28 9.5t-8 26.5v10.5t2 15.5
l14 98q3 18 11 37.5t19 36.5q37 56 97 127t131.5 149.5t149 160t149.5 158.5t133.5 145.5t101.5 121.5h-556q-44 0 -38 44l24 140q5 24 15.5 34t34.5 10h842v0zM966 1750q18 11 34 8.5t30 -22.5l26 -36q12 -18 12 -32q0 -16 -20 -30l-288 -214q-11 -8 -19.5 -10t-14.5 -2
q-22 0 -38 16l-220 202q-18 18 -18 34q0 13 14 30l36 44q15 18 29.5 20t34.5 -12l180 -126z" />
    <glyph glyph-name="zcaron" unicode="&#x17e;" horiz-adv-x="928" 
d="M790 214q44 0 38 -44l-20 -126q-3 -24 -14.5 -34t-35.5 -10h-746q-20 0 -28 9.5t-8 26.5q0 3 0.5 11.5t3.5 28.5l8 58q3 18 11.5 37.5t20.5 34.5q29 37 72 84.5t93.5 99t104.5 105t104 103t92.5 93t71.5 75.5h-402q-44 0 -38 44l22 126q3 24 14.5 34t35.5 10h700
q20 0 28 -9.5t8 -26.5q0 -3 -0.5 -11.5t-3.5 -28.5l-8 -58q-3 -18 -11.5 -37.5t-20.5 -34.5q-29 -38 -72 -85t-93.5 -98.5t-104.5 -105t-104 -103t-93 -93t-71 -75.5h446zM806 1420q18 11 34 8.5t30 -22.5l26 -36q12 -18 12 -32q0 -16 -20 -30l-288 -214q-11 -8 -19.5 -10
t-14.5 -2q-22 0 -38 16l-220 202q-18 18 -18 34q0 13 14 30l36 44q15 18 29.5 20t34.5 -12l180 -126z" />
    <glyph glyph-name="florin" unicode="&#x192;" 
d="M708 568l-180 -572q-38 -122 -88 -202.5t-108.5 -128t-125.5 -66.5t-140 -19q-80 0 -134 18.5t-90 47.5q-18 15 -18 32q0 16 12 28l86 106q18 21 31 23.5t37 -11.5q17 -9 36.5 -14.5t43.5 -5.5q36 0 62.5 12t47.5 36.5t37.5 61t32.5 86.5l180 568h-140q-42 0 -30 42
l34 116q8 23 21 32.5t37 9.5h138l52 160q40 122 89.5 202.5t108 128t125 66.5t139.5 19q80 0 134 -18.5t90 -47.5q18 -15 18 -32q0 -16 -12 -28l-86 -106q-18 -21 -31 -23.5t-37 11.5q-17 9 -36.5 14.5t-43.5 5.5q-36 0 -62.5 -12t-47 -36.5t-37.5 -61.5t-33 -86l-52 -156
h174q42 0 30 -42l-34 -116q-8 -23 -21 -32.5t-37 -9.5h-172z" />
    <glyph glyph-name="Scommaaccent" unicode="&#x218;" horiz-adv-x="1118" 
d="M1028 426q0 -109 -42.5 -192t-116.5 -139.5t-174.5 -85.5t-216.5 -29q-72 0 -139.5 10.5t-126.5 28t-107.5 40t-82.5 47.5q-18 12 -20 27.5t10 32.5l112 144q15 18 28.5 20t33.5 -12q56 -44 131.5 -72t166.5 -28q52 0 97 10.5t78 31.5t52 52.5t19 73.5q0 34 -12.5 57.5
t-36.5 40.5t-60 29.5t-83 24.5q-99 25 -173 56.5t-123 75t-73.5 101.5t-24.5 137q0 109 43 190.5t117.5 136t174.5 82t213 27.5q61 0 120.5 -7.5t112.5 -20.5t97 -31t76 -39q17 -11 20 -26t-8 -32l-102 -144q-14 -20 -27.5 -23t-34.5 11q-47 32 -114.5 53t-145.5 21
q-52 0 -96.5 -10.5t-77.5 -31.5t-51.5 -52.5t-18.5 -73.5q0 -35 13 -57.5t37 -38t59.5 -27t80.5 -23.5q80 -22 152 -46t126 -63.5t86 -100.5t32 -156zM586 -170q0 -36 -15.5 -74.5t-41 -76t-60 -73t-71.5 -64.5q-8 -6 -15 -8t-13 -2q-8 0 -14 2t-14 8l-4 4q-8 6 -11 13
t-3 13t2 12t8 12q27 30 39.5 52t12.5 42q0 18 -7 30t-16 24t-16 27t-7 39q0 27 10.5 50.5t28.5 41.5t43 28t54 10q45 0 77.5 -27t32.5 -83z" />
    <glyph glyph-name="scommaaccent" unicode="&#x219;" horiz-adv-x="904" 
d="M814 310q0 -91 -38.5 -154t-101.5 -102t-143 -56.5t-163 -17.5q-62 0 -114 8.5t-94 22.5t-74.5 32t-57.5 37q-34 26 -10 62l78 106q15 20 28.5 22t33.5 -12q41 -32 98 -52t128 -20q29 0 56.5 4.5t48.5 14.5t34 26.5t13 40.5q0 25 -14 43.5t-38.5 32t-58 24.5t-73.5 22
q-53 15 -99.5 36.5t-81 54.5t-55 79t-20.5 110q0 88 38.5 150t101.5 101t143 57t163 18q101 0 178.5 -22t127.5 -52q38 -25 12 -60l-74 -110q-14 -20 -27.5 -23t-34.5 9q-38 23 -86 37.5t-110 14.5q-68 0 -111 -21.5t-43 -70.5q0 -30 16.5 -49t43.5 -32t62 -22.5t72 -20.5
q56 -17 101.5 -39t77.5 -53t49.5 -74t17.5 -102zM478 -170q0 -36 -15.5 -74.5t-41 -76t-60 -73t-71.5 -64.5q-8 -6 -15 -8t-13 -2q-8 0 -14 2t-14 8l-4 4q-8 6 -11 13t-3 13t2 12t8 12q27 30 39.5 52t12.5 42q0 18 -7 30t-16 24t-16 27t-7 39q0 27 10.5 50.5t28.5 41.5
t43 28t54 10q45 0 77.5 -27t32.5 -83z" />
    <glyph glyph-name="uni021A" unicode="&#x21a;" horiz-adv-x="1058" 
d="M1120 1128q-5 -24 -15.5 -34t-34.5 -10h-302l-166 -1040q-3 -24 -14.5 -34t-35.5 -10h-208q-44 0 -38 44l166 1040h-304q-20 0 -28 9.5t-8 26.5v9.5t2 14.5l22 136q5 24 15.5 34t34.5 10h902q20 0 28 -9.5t8 -26.5v-9.5t-2 -14.5zM546 -170q0 -36 -15.5 -74.5t-41 -76
t-60 -73t-71.5 -64.5q-8 -6 -15 -8t-13 -2q-8 0 -14 2t-14 8l-4 4q-8 6 -11 13t-3 13t2 12t8 12q27 30 39.5 52t12.5 42q0 18 -7 30t-16 24t-16 27t-7 39q0 27 10.5 50.5t28.5 41.5t43 28t54 10q45 0 77.5 -27t32.5 -83z" />
    <glyph glyph-name="uni021B" unicode="&#x21b;" horiz-adv-x="782" 
d="M98 772q-45 0 -36 44l18 120q5 24 16.5 34t35.5 10h118l38 236q3 24 14.5 34t35.5 10h192q44 0 38 -44l-38 -236h236q45 0 36 -44l-18 -120q-5 -24 -16.5 -34t-35.5 -10h-236l-60 -390q-3 -20 -4.5 -38.5t-1.5 -33.5q0 -50 20 -77t70 -27q42 0 78 18q23 12 35 7.5
t23 -27.5l48 -102q18 -41 -18 -62q-56 -32 -116.5 -46t-125.5 -14q-145 0 -221.5 68.5t-76.5 211.5q0 27 2.5 59.5t7.5 62.5l60 390h-118zM528 -170q0 -36 -15.5 -74.5t-41 -76t-60 -73t-71.5 -64.5q-8 -6 -15 -8t-13 -2q-8 0 -14 2t-14 8l-4 4q-8 6 -11 13t-3 13t2 12t8 12
q27 30 39.5 52t12.5 42q0 18 -7 30t-16 24t-16 27t-7 39q0 27 10.5 50.5t28.5 41.5t43 28t54 10q45 0 77.5 -27t32.5 -83z" />
    <glyph glyph-name="dotlessj" unicode="&#x237;" horiz-adv-x="548" 
d="M206 936q5 24 15.5 34t34.5 10h192q20 0 28 -9.5t8 -26.5v-9.5t-2 -14.5l-158 -994q-27 -170 -114.5 -258t-253.5 -88q-54 0 -101.5 9.5t-86.5 32.5q-24 15 -24 36q0 12 6 24l54 110q12 24 24 28.5t36 -4.5q30 -12 58 -12q35 0 58 14.5t37 38.5t22 54.5t13 62.5z" />
    <glyph glyph-name="circumflex" unicode="&#x2c6;" horiz-adv-x="846" 
d="M326 1088q-18 -11 -34 -8.5t-30 22.5l-26 36q-12 18 -12 32q0 16 20 30l288 214q11 8 19.5 10t14.5 2q22 0 38 -16l220 -202q18 -18 18 -34q0 -13 -14 -30l-36 -44q-15 -18 -29.5 -20t-34.5 12l-180 126z" />
    <glyph glyph-name="caron" unicode="&#x2c7;" horiz-adv-x="846" 
d="M740 1420q18 11 34 8.5t30 -22.5l26 -36q12 -18 12 -32q0 -16 -20 -30l-288 -214q-11 -8 -19.5 -10t-14.5 -2q-22 0 -38 16l-220 202q-18 18 -18 34q0 13 14 30l36 44q15 18 29.5 20t34.5 -12l180 -126z" />
    <glyph glyph-name="breve" unicode="&#x2d8;" horiz-adv-x="828" 
d="M356 1376q21 -47 57.5 -71.5t84.5 -24.5t93.5 25t80.5 73q15 21 28 25.5t36 -7.5l66 -32q24 -12 24 -32q0 -13 -8 -26q-25 -44 -58 -81t-74.5 -64.5t-90.5 -43t-105 -15.5q-54 0 -98 14.5t-78 40t-57 60t-35 73.5q-5 14 -5.5 20t-0.5 12q0 29 30 44l52 28q21 11 35 8
t23 -26z" />
    <glyph glyph-name="dotaccent" unicode="&#x2d9;" horiz-adv-x="482" 
d="M492 1256q0 -33 -12 -62t-33 -51t-49.5 -34.5t-61.5 -12.5q-57 0 -91.5 35.5t-34.5 92.5q0 33 12 62t33 51t49.5 34.5t61.5 12.5q57 0 91.5 -35.5t34.5 -92.5z" />
    <glyph glyph-name="ring" unicode="&#x2da;" horiz-adv-x="710" 
d="M348 1290q0 -44 24 -73t74 -29q31 0 56.5 12.5t43 33.5t27 47t9.5 53q0 44 -24 73t-74 29q-32 0 -57 -12.5t-42.5 -33.5t-27 -47t-9.5 -53zM720 1340q0 -50 -18 -99t-53.5 -88t-88 -63t-120.5 -24q-58 0 -101 17.5t-71.5 47.5t-43 69.5t-14.5 83.5q0 50 18 99t53.5 88
t88 63t120.5 24q58 0 101 -17.5t71.5 -47.5t43 -69.5t14.5 -83.5z" />
    <glyph glyph-name="ogonek" unicode="&#x2db;" horiz-adv-x="628" 
d="M-10 -274q0 42 17.5 81t45 73.5t62 64.5t69.5 55h116q-17 -20 -39 -43t-41.5 -49t-32.5 -54t-13 -56q0 -33 20 -53.5t62 -20.5q14 0 29.5 2t32.5 10q26 12 38 7.5t26 -27.5l14 -22q11 -18 8 -34.5t-20 -27.5q-42 -27 -94 -41.5t-108 -14.5q-48 0 -84 11.5t-60 31.5
t-36 47.5t-12 59.5z" />
    <glyph glyph-name="tilde" unicode="&#x2dc;" horiz-adv-x="922" 
d="M698 1286q24 0 49 15t51 39q18 18 34 18q15 0 32 -14l38 -32q18 -15 18 -32q0 -14 -12 -32q-41 -65 -105.5 -101.5t-132.5 -36.5q-43 0 -75 13t-57.5 28t-48 28t-45.5 13q-24 0 -49 -15t-51 -39q-18 -18 -34 -18q-15 0 -32 14l-38 32q-18 15 -18 32q0 14 12 32
q41 65 105.5 101.5t132.5 36.5q43 0 75 -13t57.5 -28t48 -28t45.5 -13z" />
    <glyph glyph-name="hungarumlaut" unicode="&#x2dd;" horiz-adv-x="980" 
d="M338 1094q-16 -16 -30 -16q-16 0 -34 18l-32 32q-9 9 -14.5 16.5t-5.5 19.5q0 8 4 14.5t10 15.5l218 280q6 8 13 13t15 5q16 0 30 -14l90 -80q18 -15 18 -32q0 -8 -4 -14t-12 -14zM692 1094q-16 -16 -30 -16q-16 0 -34 18l-32 32q-9 9 -14.5 16.5t-5.5 19.5q0 8 4 14.5
t10 15.5l218 280q6 8 13 13t15 5q16 0 30 -14l90 -80q18 -15 18 -32q0 -8 -4 -14t-12 -14z" />
    <glyph glyph-name="commatop" unicode="&#x312;" horiz-adv-x="478" 
d="M210 1202q0 36 15.5 74.5t41 76t59.5 73t72 64.5q8 6 15 8t13 2q8 0 14 -2t14 -8l4 -4q8 -6 11 -13t3 -13t-2 -12t-8 -12q-27 -30 -39.5 -52t-12.5 -42q0 -18 7 -30t16 -24t16 -27t7 -39q0 -27 -10.5 -50.5t-28.5 -41.5t-43 -28t-54 -10q-45 0 -77.5 27t-32.5 83z" />
    <glyph glyph-name="caronslovak" unicode="&#x315;" horiz-adv-x="508" 
d="M252 990q-34 8 -34 36q0 5 0.5 11.5t5.5 24.5l78 348q3 15 10.5 24.5t21.5 9.5q6 0 10.5 -1t9.5 -3l122 -40q28 -9 28 -30q0 -9 -6 -24l-170 -332q-11 -21 -25 -27.5t-37 -0.5z" />
    </font>
</defs>
</svg>
